<svg xmlns="http://www.w3.org/2000/svg" xmlns:xlink="http://www.w3.org/1999/xlink" width="47.735" height="47.802" viewBox="0 0 47.735 47.802">
  <defs>
    <clipPath id="clip-path">
      <rect id="Rectangle_38451" data-name="Rectangle 38451" width="47.735" height="47.802" fill="#9f8961"/>
    </clipPath>
  </defs>
  <g id="Group_109038" data-name="Group 109038" opacity="0.9">
    <g id="Group_108141" data-name="Group 108141" clip-path="url(#clip-path)">
      <path id="Path_67704" data-name="Path 67704" d="M23.622.015a2.707,2.707,0,0,1,1.63.543c7.07,3.51,13.882,8.318,20.952,11.916a2.9,2.9,0,0,1-1.4,5.446H2.961a2.886,2.886,0,0,1-1.933-5.081C8.014,9.006,14.871,4.547,21.914.857A9.223,9.223,0,0,1,23.622.015M3.19,14.926H19.027c-.866-2.908,0-6.141,3.1-7.13a5.2,5.2,0,0,1,6.458,7.13H44.574L23.882,3.179Zm20.281-4.447c-2.769.437-2.267,4.75.694,4.438,2.847-.3,2.418-4.929-.694-4.438" transform="translate(-0.005 0)" fill="#9f8961"/>
      <path id="Path_67705" data-name="Path 67705" d="M19.377,69.955V81.907H27V69.955h2.839V81.907h9.114V69.955h2.839V81.907h7.619V69.955h2.839V81.907a1.5,1.5,0,1,1-.074,2.989L16.905,84.9c-2.3.154-2.647-2.771-.367-2.994V69.955Z" transform="translate(-10.514 -49.052)" fill="#9f8961"/>
      <path id="Path_67706" data-name="Path 67706" d="M1.358,149.969,46,149.923a1.483,1.483,0,0,1,.639,2.892l-44.873.108a1.492,1.492,0,1,1-.4-2.955" transform="translate(0 -105.122)" fill="#9f8961"/>
      <path id="Path_67707" data-name="Path 67707" d="M8.858,129.969l40.156-.046a1.483,1.483,0,0,1,.639,2.892l-40.391.108a1.492,1.492,0,1,1-.4-2.955" transform="translate(-5.259 -91.098)" fill="#9f8961"/>
    </g>
  </g>
</svg>
