<svg width="22" height="22" viewBox="0 0 22 22" fill="none" xmlns="http://www.w3.org/2000/svg">
<path d="M2.17792 5.81324C3.57692 4.59124 4.70992 3.03524 6.32892 2.07524C10.9999 -0.694758 17.2949 1.34624 19.8169 6.02924C20.1879 6.71824 20.8079 7.80124 19.8629 8.32924C18.6239 9.02924 18.1819 7.44324 17.6999 6.68824C16.7609 5.19483 15.3475 4.06015 13.6864 3.46625C12.0253 2.87236 10.2129 2.85369 8.53992 3.41324C6.57292 4.12124 5.22192 5.92124 3.77792 7.33924H6.28692C6.51966 7.39978 6.74116 7.49736 6.94292 7.62824C7.07367 7.75706 7.16981 7.91677 7.22244 8.09261C7.27506 8.26845 7.28248 8.45473 7.24399 8.63419C7.20551 8.81366 7.12237 8.98052 7.00227 9.11932C6.88217 9.25811 6.72899 9.36437 6.55692 9.42824C4.79851 9.60445 3.02872 9.63789 1.26492 9.52824C0.699916 9.47424 0.143916 9.24924 0.0669161 8.61324C-0.137084 6.92124 0.199916 4.78224 0.0999161 3.04724C0.151286 2.8783 0.243078 2.72443 0.367338 2.59896C0.491598 2.4735 0.644577 2.38023 0.81302 2.32723C0.981463 2.27424 1.16029 2.26312 1.334 2.29483C1.50771 2.32655 1.67107 2.40014 1.80992 2.50924C1.95681 2.68517 2.08018 2.87947 2.17692 3.08724L2.17792 5.81324Z" fill="#0B3443"/>
<path d="M3.63837 10.0311C2.65137 10.0311 1.63837 10.0061 1.22837 9.97013C0.846939 9.98901 0.471957 9.86649 0.175248 9.62606C-0.121461 9.38563 -0.319036 9.04419 -0.379633 8.66713C-0.468946 7.61082 -0.47229 6.54899 -0.389633 5.49213C-0.335217 4.68634 -0.321533 3.87831 -0.348633 3.07113V3.01213L-0.336633 2.95413C-0.25821 2.62487 -0.0680457 2.33299 0.201458 2.12821C0.470963 1.92344 0.803131 1.81845 1.14137 1.83113C1.48749 1.82835 1.82414 1.9441 2.09537 2.15913C2.35241 2.41555 2.5364 2.7359 2.62837 3.08713V4.77413C2.85137 4.55313 3.07037 4.32813 3.28637 4.10613C4.11294 3.17886 5.05925 2.36572 6.10037 1.68813C7.57734 0.820509 9.26042 0.365975 10.9734 0.372132C12.8588 0.374185 14.7095 0.879921 16.334 1.83703C17.9585 2.79414 19.2978 4.16787 20.2134 5.81613L20.2444 5.87413C20.4923 6.28448 20.6742 6.73127 20.7834 7.19813C20.8527 7.49425 20.8216 7.80503 20.6949 8.0815C20.5681 8.35797 20.353 8.58441 20.0834 8.72513C19.8412 8.87005 19.5655 8.94965 19.2834 8.95613C18.3834 8.95613 17.9174 8.05613 17.5764 7.40413C17.4854 7.22813 17.3994 7.06313 17.3174 6.93513C16.6395 5.87312 15.7075 4.9969 14.6057 4.38578C13.504 3.77465 12.2672 3.44791 11.0074 3.43513C10.2177 3.43291 9.43361 3.56827 8.69037 3.83513C7.26763 4.49544 6.01573 5.47397 5.03137 6.69513L4.84737 6.88913H6.28737C6.63654 6.94846 6.9668 7.08927 7.25137 7.30013C7.44377 7.48273 7.58464 7.71282 7.65978 7.96721C7.73492 8.2216 7.74167 8.4913 7.67937 8.74913C7.62752 9.00315 7.50977 9.23907 7.33793 9.4332C7.16609 9.62732 6.94622 9.77284 6.70037 9.85513C5.68861 10.0202 4.66238 10.0792 3.63837 10.0311ZM0.554367 3.09213C0.591367 3.86513 0.554367 4.71413 0.509367 5.53613C0.428877 6.54219 0.428877 7.55307 0.509367 8.55913C0.524367 8.68313 0.564367 9.01113 1.30037 9.07413C1.63237 9.10213 2.54037 9.13113 3.63337 9.13113C4.56446 9.16589 5.49682 9.1214 6.42037 8.99813C6.51722 8.96359 6.6033 8.90421 6.66999 8.82594C6.73668 8.74766 6.78164 8.65324 6.80037 8.55213C6.82649 8.4505 6.82643 8.34391 6.8002 8.24231C6.77397 8.14071 6.72242 8.04742 6.65037 7.97113C6.52024 7.89974 6.38444 7.8392 6.24437 7.79013H2.67837L3.46237 7.02113C3.76737 6.72113 4.06237 6.40913 4.37737 6.07813C5.45346 4.74916 6.82714 3.69201 8.38737 2.99213C9.22853 2.68864 10.1161 2.534 11.0104 2.53513C12.4213 2.54888 13.8065 2.91426 15.0406 3.5982C16.2747 4.28214 17.3188 5.26304 18.0784 6.45213C18.1784 6.61413 18.2784 6.79713 18.3784 6.99113C18.6254 7.46613 18.9324 8.05813 19.2864 8.05813C19.4128 8.05015 19.5352 8.01061 19.6424 7.94313C20.0504 7.71313 20.0064 7.33113 19.4524 6.30513L19.4204 6.24613C18.5832 4.73973 17.3587 3.48436 15.8736 2.60987C14.3885 1.73539 12.6968 1.27355 10.9734 1.27213C9.42196 1.26593 7.89742 1.67694 6.55937 2.46213C5.58625 3.09926 4.70217 3.86295 3.93037 4.73313C3.46637 5.21013 2.98637 5.70313 2.47337 6.15113L1.72737 6.80213V3.18413C1.66073 3.0665 1.58762 2.95266 1.50837 2.84313C1.40059 2.76792 1.27178 2.72871 1.14037 2.73113C1.01745 2.72391 0.895289 2.75467 0.790457 2.81925C0.685625 2.88383 0.6032 2.9791 0.554367 3.09213Z" fill="white"/>
<path d="M19.7061 16.2081C19.5791 16.1761 19.5611 16.2601 19.4871 16.3171C18.1741 17.3221 17.2591 18.7961 15.7291 19.7571C11.1291 22.6511 4.92109 20.7421 2.22009 16.2021C1.90709 15.6761 1.33509 14.7181 1.57809 14.1181C1.74876 13.849 2.00369 13.644 2.30309 13.5351C3.46609 13.2941 3.58009 14.2961 4.03809 15.0351C4.88611 16.4752 6.16654 17.6114 7.69736 18.2822C9.22817 18.9529 10.9315 19.1239 12.5651 18.7711C14.9561 18.2031 16.4651 16.2651 18.1051 14.6041H15.5971C15.3644 14.5436 15.1432 14.4457 14.9421 14.3141C14.8046 14.1886 14.7023 14.0293 14.6455 13.852C14.5886 13.6747 14.5792 13.4857 14.6181 13.3036C14.6571 13.1215 14.743 12.9529 14.8674 12.8143C14.9918 12.6758 15.1503 12.5723 15.3271 12.5141C17.0855 12.3379 18.8553 12.3045 20.6191 12.4141C21.2421 12.4681 21.7351 12.7141 21.8191 13.3961C21.9397 15.2015 21.9283 17.0133 21.7851 18.8171C21.7491 18.9961 21.6674 19.1629 21.5478 19.301C21.4283 19.4391 21.275 19.544 21.103 19.6053C20.9309 19.6666 20.7459 19.6823 20.5659 19.6509C20.386 19.6195 20.2172 19.542 20.0761 19.4261C19.9206 19.2863 19.7953 19.1161 19.7081 18.9261L19.7061 16.2081Z" fill="#0B3443"/>
<path d="M18.2476 11.918C19.2476 11.918 20.2406 11.943 20.6546 11.979C21.048 11.958 21.4343 12.0892 21.7335 12.3454C22.0327 12.6016 22.2218 12.9631 22.2616 13.355C22.3889 15.2084 22.3756 17.0687 22.2216 18.92C22.1596 19.2605 21.9789 19.5679 21.7116 19.7877C21.4442 20.0074 21.1076 20.1252 20.7616 20.12C20.4165 20.1194 20.0807 20.0071 19.8046 19.8C19.7986 19.8 19.2536 19.315 19.2536 18.934V17.099C18.9106 17.413 18.5846 17.758 18.2466 18.117C17.5772 18.8865 16.8108 19.5658 15.9666 20.138C14.4487 21.0867 12.6936 21.5869 10.9036 21.581C9.07749 21.5689 7.2849 21.0893 5.69666 20.1879C4.10843 19.2866 2.77747 17.9936 1.83062 16.432C1.45862 15.806 0.830616 14.759 1.16162 13.954C1.38789 13.5436 1.7647 13.237 2.21262 13.099C2.35069 13.0695 2.49142 13.0541 2.63262 13.053C3.56562 13.053 3.91862 13.793 4.17562 14.334C4.24921 14.4959 4.33132 14.6538 4.42162 14.807C5.09001 15.921 6.03017 16.847 7.15407 17.4985C8.27796 18.15 9.54881 18.5056 10.8476 18.532C11.3912 18.5317 11.9328 18.4679 12.4616 18.342C14.3516 17.893 15.6476 16.532 17.0196 15.091L17.0466 15.063H15.5956C15.2559 15.0036 14.9337 14.869 14.6526 14.669C14.452 14.5006 14.3011 14.2808 14.216 14.0331C14.1309 13.7854 14.1148 13.5192 14.1696 13.263C14.2182 12.995 14.338 12.745 14.5164 12.5391C14.6948 12.3333 14.9252 12.1792 15.1836 12.093C16.1973 11.9395 17.2231 11.8809 18.2476 11.918ZM20.7626 19.218C20.9007 19.2206 21.035 19.1734 21.1411 19.0851C21.2473 18.9968 21.3181 18.8732 21.3406 18.737C21.4759 16.981 21.4852 15.2175 21.3686 13.46C21.3376 13.206 21.2486 12.929 20.5776 12.872C20.2466 12.844 19.3406 12.815 18.2476 12.815C17.3172 12.7806 16.3855 12.825 15.4626 12.948C15.3573 12.9834 15.2636 13.0467 15.1915 13.1313C15.1195 13.2159 15.0718 13.3184 15.0536 13.428C15.0311 13.5246 15.035 13.6255 15.0647 13.7201C15.0944 13.8147 15.1489 13.8996 15.2226 13.966C15.3546 14.042 15.4931 14.106 15.6366 14.157H19.1836L18.4246 14.924C18.1716 15.179 17.9166 15.447 17.6696 15.706C16.2696 17.178 14.8176 18.701 12.6696 19.212C12.0727 19.354 11.4612 19.4258 10.8476 19.426C9.39524 19.3994 7.9734 19.0044 6.71533 18.2782C5.45726 17.552 4.40413 16.5184 3.65462 15.274C3.54724 15.0935 3.44976 14.9072 3.36262 14.716C3.09662 14.158 2.96262 13.948 2.63162 13.948C2.55361 13.949 2.4759 13.9577 2.39962 13.974C2.24179 14.0508 2.10231 14.1606 1.99062 14.296C1.84462 14.696 2.39062 15.617 2.60262 15.967C3.47212 17.3924 4.69045 18.5727 6.14265 19.3966C7.59486 20.2206 9.23304 20.6609 10.9026 20.676C12.523 20.6816 14.1121 20.2292 15.4866 19.371C16.2635 18.8371 16.9692 18.2064 17.5866 17.494C18.0813 16.942 18.6189 16.43 19.1946 15.963C19.2495 15.8971 19.3181 15.844 19.3957 15.8074C19.4732 15.7708 19.5579 15.7516 19.6436 15.751C19.6972 15.7512 19.7506 15.7579 19.8026 15.771L20.1436 15.856V18.839C20.2011 18.9253 20.2656 19.0066 20.3366 19.082C20.4602 19.1721 20.6097 19.2198 20.7626 19.218Z" fill="white"/>
</svg>
