<svg xmlns="http://www.w3.org/2000/svg" width="219" height="62" viewBox="0 0 219 62">
  <g id="Group_108996" data-name="Group 108996" transform="translate(-1153 -1639)">
    <g id="Group_582" data-name="Group 582" transform="translate(282.656 -6941.979)">
      <g id="app-store" transform="translate(870.843 8579.271)">
        <path id="Path_529" data-name="Path 529" d="M41.1,24.476a9.466,9.466,0,0,1,4.508-7.942,9.694,9.694,0,0,0-7.635-4.128c-3.212-.338-6.328,1.927-7.963,1.927-1.669,0-4.189-1.89-6.9-1.834a10.166,10.166,0,0,0-8.556,5.219c-3.706,6.405-.941,15.819,2.6,21,1.779,2.536,3.845,5.367,6.558,5.268,2.653-.11,3.645-1.691,6.847-1.691,3.172,0,4.1,1.691,6.869,1.631,2.848-.046,4.641-2.547,6.352-5.107A20.954,20.954,0,0,0,46.686,32.9,9.15,9.15,0,0,1,41.1,24.476Z" transform="translate(6.71 6.379)" fill="#577c8c"/>
        <path id="Path_530" data-name="Path 530" d="M29.337,12.891a9.316,9.316,0,0,0,2.133-6.67,9.487,9.487,0,0,0-6.137,3.174,8.867,8.867,0,0,0-2.188,6.43,7.838,7.838,0,0,0,6.192-2.933Z" transform="translate(13.249 2.486)" fill="#577c8c"/>
        <path id="Path_531" data-name="Path 531" d="M60.755,39.925H57.049l-2.031-6.383H47.955l-1.934,6.383H42.41l7-21.725h4.321ZM54.4,30.863l-1.837-5.674q-.3-.87-1.1-4.094H51.4q-.32,1.386-1.038,4.094l-1.8,5.674Z" transform="translate(25.456 10.065)" fill="#577c8c"/>
        <path id="Path_532" data-name="Path 532" d="M70.509,29.675a8.9,8.9,0,0,1-2.16,6.318,6.316,6.316,0,0,1-4.807,2.065A4.8,4.8,0,0,1,59.1,35.834H59.03v8.254H55.55V27.19q0-2.52-.129-5.158h3.061l.194,2.483h.065a6.195,6.195,0,0,1,9.914-.614A8.633,8.633,0,0,1,70.509,29.675Zm-3.547.127a6.451,6.451,0,0,0-1.038-3.772,3.558,3.558,0,0,0-3.031-1.548,3.62,3.62,0,0,0-2.336.854,3.961,3.961,0,0,0-1.37,2.241,4.559,4.559,0,0,0-.162,1.061v2.613a4.186,4.186,0,0,0,1.048,2.888A3.475,3.475,0,0,0,62.8,35.317,3.558,3.558,0,0,0,65.858,33.8a6.671,6.671,0,0,0,1.106-4Z" transform="translate(33.69 12.286)" fill="#577c8c"/>
        <path id="Path_533" data-name="Path 533" d="M81.547,29.676a8.894,8.894,0,0,1-2.161,6.318,6.31,6.31,0,0,1-4.8,2.063,4.8,4.8,0,0,1-4.447-2.223h-.065v8.254H66.588v-16.9q0-2.52-.129-5.158H69.52l.194,2.483h.067A6.2,6.2,0,0,1,79.7,23.9,8.657,8.657,0,0,1,81.547,29.676ZM78,29.8a6.451,6.451,0,0,0-1.038-3.772,3.558,3.558,0,0,0-3.031-1.548,3.624,3.624,0,0,0-2.338.854,3.959,3.959,0,0,0-1.368,2.243,4.646,4.646,0,0,0-.162,1.061v2.613a4.2,4.2,0,0,0,1.051,2.893,3.482,3.482,0,0,0,2.727,1.177A3.558,3.558,0,0,0,76.9,33.8,6.671,6.671,0,0,0,78,29.8Z" transform="translate(40.677 12.285)" fill="#577c8c"/>
        <path id="Path_534" data-name="Path 534" d="M93.264,33.959a5.791,5.791,0,0,1-1.927,4.514,8.554,8.554,0,0,1-5.919,1.9,10.361,10.361,0,0,1-5.633-1.353l.806-2.9a9.543,9.543,0,0,0,5.04,1.387,4.758,4.758,0,0,0,3.065-.889,2.9,2.9,0,0,0,1.094-2.372,3.027,3.027,0,0,0-.9-2.223,8.394,8.394,0,0,0-3-1.685q-5.707-2.129-5.705-6.226a5.514,5.514,0,0,1,2-4.4A7.886,7.886,0,0,1,87.495,18a10.547,10.547,0,0,1,4.932,1.038l-.87,2.839a8.556,8.556,0,0,0-4.159-1,4.21,4.21,0,0,0-2.867.9,2.581,2.581,0,0,0-.87,1.967,2.656,2.656,0,0,0,1,2.127,11.276,11.276,0,0,0,3.154,1.674,10.726,10.726,0,0,1,4.127,2.641,5.52,5.52,0,0,1,1.325,3.767Z" transform="translate(49.11 9.935)" fill="#577c8c"/>
        <path id="Path_535" data-name="Path 535" d="M98.787,26.035H94.949v7.607q0,2.9,2.031,2.9a6.192,6.192,0,0,0,1.546-.162l.1,2.643a7.887,7.887,0,0,1-2.707.385,4.177,4.177,0,0,1-3.225-1.257,6.177,6.177,0,0,1-1.161-4.225v-7.9H89.244V23.42H91.53v-2.87l3.42-1.038v3.9h3.838v2.616Z" transform="translate(55.095 10.898)" fill="#577c8c"/>
        <path id="Path_536" data-name="Path 536" d="M111.642,29.74a8.6,8.6,0,0,1-2.063,5.929,7.369,7.369,0,0,1-5.741,2.385,7.007,7.007,0,0,1-5.495-2.287A8.332,8.332,0,0,1,96.294,30a8.511,8.511,0,0,1,2.111-5.963,7.306,7.306,0,0,1,5.689-2.321A7.155,7.155,0,0,1,109.64,24,8.237,8.237,0,0,1,111.642,29.74Zm-3.612.113a7.048,7.048,0,0,0-.934-3.718,3.439,3.439,0,0,0-3.125-1.875,3.491,3.491,0,0,0-3.193,1.875,7.183,7.183,0,0,0-.934,3.783,7.038,7.038,0,0,0,.934,3.716,3.558,3.558,0,0,0,6.286-.033,7.074,7.074,0,0,0,.965-3.752Z" transform="translate(59.555 12.285)" fill="#577c8c"/>
        <path id="Path_537" data-name="Path 537" d="M115.869,25.093a6.046,6.046,0,0,0-1.1-.1,3.289,3.289,0,0,0-2.839,1.387,5.216,5.216,0,0,0-.87,3.094V37.7h-3.479l.033-10.735q0-2.71-.13-4.933h3.033l.127,3h.1a5.359,5.359,0,0,1,1.74-2.481,4.21,4.21,0,0,1,2.52-.839,5.591,5.591,0,0,1,.87.064V25.1Z" transform="translate(66.642 12.288)" fill="#577c8c"/>
        <path id="Path_538" data-name="Path 538" d="M127.558,29.142a8.159,8.159,0,0,1-.127,1.579H116.986A4.546,4.546,0,0,0,118.5,34.27a5.173,5.173,0,0,0,3.409,1.1,11.552,11.552,0,0,0,4.226-.741l.545,2.416a13.065,13.065,0,0,1-5.253.968,7.61,7.61,0,0,1-5.725-2.143,7.918,7.918,0,0,1-2.075-5.754,8.977,8.977,0,0,1,1.936-5.9,6.67,6.67,0,0,1,5.485-2.52,5.839,5.839,0,0,1,5.129,2.52A8.474,8.474,0,0,1,127.558,29.142Zm-3.319-.9a4.73,4.73,0,0,0-.676-2.676,3.042,3.042,0,0,0-2.775-1.451,3.3,3.3,0,0,0-2.77,1.419,5.188,5.188,0,0,0-1.038,2.707h7.251Z" transform="translate(70.524 12.27)" fill="#577c8c"/>
        <path id="Path_539" data-name="Path 539" d="M52.455,12.014a5.36,5.36,0,0,1-1.727,4.34A6.872,6.872,0,0,1,46.184,17.7a21.069,21.069,0,0,1-2.5-.127V7.078a18.473,18.473,0,0,1,2.947-.222,6.353,6.353,0,0,1,4.229,1.22,4.929,4.929,0,0,1,1.6,3.939Zm-1.8.047a3.9,3.9,0,0,0-.99-2.867,3.9,3.9,0,0,0-2.892-1,7.243,7.243,0,0,0-1.379.111v7.984a9.042,9.042,0,0,0,1.156.047,4.048,4.048,0,0,0,3.033-1.092,4.374,4.374,0,0,0,1.066-3.185Z" transform="translate(26.26 2.876)" fill="#577c8c"/>
        <path id="Path_540" data-name="Path 540" d="M57.831,12.566a4.222,4.222,0,0,1-1.014,2.914A3.62,3.62,0,0,1,54,16.652a3.44,3.44,0,0,1-2.7-1.125,4.1,4.1,0,0,1-1-2.834,4.182,4.182,0,0,1,1.038-2.929,3.6,3.6,0,0,1,2.8-1.14,3.52,3.52,0,0,1,2.726,1.124A4.064,4.064,0,0,1,57.831,12.566Zm-1.779.055a3.482,3.482,0,0,0-.46-1.828,1.69,1.69,0,0,0-1.534-.921,1.716,1.716,0,0,0-1.57.921,3.528,3.528,0,0,0-.46,1.859,3.482,3.482,0,0,0,.46,1.828,1.727,1.727,0,0,0,1.553.921,1.708,1.708,0,0,0,1.534-.937,3.46,3.46,0,0,0,.48-1.841Z" transform="translate(30.444 4.002)" fill="#577c8c"/>
        <path id="Path_541" data-name="Path 541" d="M67.088,8.719l-2.409,7.7H63.111l-1-3.343a25.017,25.017,0,0,1-.62-2.487h-.031a18.207,18.207,0,0,1-.618,2.487l-1.06,3.343H58.194l-2.259-7.7h1.758l.87,3.66q.316,1.3.523,2.471h.031q.191-.965.636-2.455L60.846,8.72h1.395l1.047,3.6q.379,1.315.617,2.535h.047a24.215,24.215,0,0,1,.523-2.535l.934-3.6h1.681Z" transform="translate(34.016 4.067)" fill="#577c8c"/>
        <path id="Path_542" data-name="Path 542" d="M70.813,16.48H69.1V12.071q0-2.038-1.551-2.038a1.545,1.545,0,0,0-1.236.56,1.988,1.988,0,0,0-.476,1.319v4.566H64.128v-5.5q0-1.014-.062-2.2h1.5l.08,1.2H65.7a2.473,2.473,0,0,1,.889-.929,2.892,2.892,0,0,1,1.55-.433,2.456,2.456,0,0,1,1.791.7,3.387,3.387,0,0,1,.889,2.551Z" transform="translate(39.162 4.002)" fill="#577c8c"/>
        <path id="Path_543" data-name="Path 543" d="M71.75,17.786H70.041V6.556H71.75Z" transform="translate(42.942 2.697)" fill="#577c8c"/>
        <path id="Path_544" data-name="Path 544" d="M80.18,12.566a4.222,4.222,0,0,1-1.014,2.914,3.621,3.621,0,0,1-2.816,1.173,3.436,3.436,0,0,1-2.7-1.125,4.1,4.1,0,0,1-1-2.834,4.182,4.182,0,0,1,1.038-2.929,3.6,3.6,0,0,1,2.794-1.14A3.523,3.523,0,0,1,79.2,9.748,4.064,4.064,0,0,1,80.18,12.566Zm-1.779.055a3.482,3.482,0,0,0-.46-1.828,1.687,1.687,0,0,0-1.533-.921,1.714,1.714,0,0,0-1.57.921,3.528,3.528,0,0,0-.46,1.859,3.482,3.482,0,0,0,.46,1.828,1.727,1.727,0,0,0,1.553.921,1.7,1.7,0,0,0,1.533-.937,3.445,3.445,0,0,0,.477-1.841Z" transform="translate(44.59 4.002)" fill="#577c8c"/>
        <path id="Path_545" data-name="Path 545" d="M84.779,16.481H83.243l-.127-.889h-.047a2.636,2.636,0,0,1-2.249,1.061,2.32,2.32,0,0,1-1.757-.7,2.186,2.186,0,0,1-.6-1.568,2.391,2.391,0,0,1,1.186-2.154,6.126,6.126,0,0,1,3.32-.728v-.148q0-1.521-1.6-1.521a3.58,3.58,0,0,0-2.007.569l-.348-1.124a4.936,4.936,0,0,1,2.64-.664q3.018,0,3.021,3.184v2.834A12.022,12.022,0,0,0,84.779,16.481ZM83,13.835V12.649q-2.831-.049-2.831,1.55a1.159,1.159,0,0,0,.328.9,1.2,1.2,0,0,0,.836.3,1.728,1.728,0,0,0,1.047-.356A1.462,1.462,0,0,0,83,13.832Z" transform="translate(48.272 4)" fill="#577c8c"/>
        <path id="Path_546" data-name="Path 546" d="M91.134,17.786H89.617l-.08-1.236h-.047a2.558,2.558,0,0,1-2.472,1.411A2.9,2.9,0,0,1,84.7,16.868a4.256,4.256,0,0,1-.918-2.834,4.463,4.463,0,0,1,1-3.025,3.067,3.067,0,0,1,2.372-1.078,2.306,2.306,0,0,1,2.169,1.045h.033V6.556h1.715v9.156Q91.072,16.836,91.134,17.786ZM89.356,14.54V13.256a2.52,2.52,0,0,0-.047-.54,1.949,1.949,0,0,0-.618-1.038,1.683,1.683,0,0,0-1.144-.419,1.757,1.757,0,0,0-1.506.76,3.261,3.261,0,0,0-.548,1.948,3.04,3.04,0,0,0,.526,1.853,1.761,1.761,0,0,0,1.5.759,1.648,1.648,0,0,0,1.352-.633,2.109,2.109,0,0,0,.5-1.407Z" transform="translate(51.641 2.697)" fill="#577c8c"/>
        <path id="Path_547" data-name="Path 547" d="M100.17,12.566a4.222,4.222,0,0,1-1.014,2.914,3.617,3.617,0,0,1-2.816,1.173,3.445,3.445,0,0,1-2.7-1.125,4.1,4.1,0,0,1-1-2.834,4.181,4.181,0,0,1,1.038-2.929,3.6,3.6,0,0,1,2.8-1.14,3.516,3.516,0,0,1,2.723,1.124,4.065,4.065,0,0,1,.977,2.818Zm-1.779.055a3.482,3.482,0,0,0-.46-1.828,1.693,1.693,0,0,0-1.537-.921,1.719,1.719,0,0,0-1.57.921,3.528,3.528,0,0,0-.46,1.859,3.482,3.482,0,0,0,.46,1.828,1.749,1.749,0,0,0,3.089-.016,3.475,3.475,0,0,0,.483-1.841Z" transform="translate(57.24 4.002)" fill="#577c8c"/>
        <path id="Path_548" data-name="Path 548" d="M105.494,16.48h-1.709V12.071q0-2.038-1.553-2.038a1.539,1.539,0,0,0-1.235.56,1.979,1.979,0,0,0-.476,1.319v4.566H98.813v-5.5q0-1.014-.061-2.2h1.5l.08,1.2h.047a2.5,2.5,0,0,1,.889-.929,2.9,2.9,0,0,1,1.555-.433,2.455,2.455,0,0,1,1.789.7,3.381,3.381,0,0,1,.889,2.551Z" transform="translate(61.112 4.002)" fill="#577c8c"/>
        <path id="Path_549" data-name="Path 549" d="M111.755,10.739h-1.884v3.74c0,.95.335,1.426,1,1.426a3.014,3.014,0,0,0,.762-.08l.044,1.3a3.845,3.845,0,0,1-1.334.191,2.046,2.046,0,0,1-1.582-.617,3.019,3.019,0,0,1-.572-2.075V10.739h-1.125V9.462h1.125V8.05l1.676-.505V9.46h1.884v1.279Z" transform="translate(66.373 3.322)" fill="#577c8c"/>
        <path id="Path_550" data-name="Path 550" d="M118.075,17.786h-1.714V13.409q0-2.075-1.549-2.075a1.631,1.631,0,0,0-1.631,1.2,2.153,2.153,0,0,0-.08.615v4.634H111.39V6.556H113.1V11.2h.033a2.587,2.587,0,0,1,2.312-1.266,2.385,2.385,0,0,1,1.761.7,3.506,3.506,0,0,1,.87,2.582Z" transform="translate(69.111 2.697)" fill="#577c8c"/>
        <path id="Path_551" data-name="Path 551" d="M123.863,12.272a4.134,4.134,0,0,1-.064.775h-5.132a2.244,2.244,0,0,0,.741,1.742,2.55,2.55,0,0,0,1.681.54,5.67,5.67,0,0,0,2.075-.365l.268,1.186a6.445,6.445,0,0,1-2.584.476,3.731,3.731,0,0,1-2.816-1.054,3.881,3.881,0,0,1-1.02-2.827,4.405,4.405,0,0,1,.95-2.9,3.273,3.273,0,0,1,2.69-1.235,2.862,2.862,0,0,1,2.52,1.235A4.109,4.109,0,0,1,123.863,12.272Zm-1.631-.445a2.3,2.3,0,0,0-.332-1.315,1.494,1.494,0,0,0-1.362-.713,1.631,1.631,0,0,0-1.362.7,2.59,2.59,0,0,0-.508,1.334Z" transform="translate(72.669 3.996)" fill="#577c8c"/>
      </g>
    </g>
    <g id="Rectangle_52782" data-name="Rectangle 52782" transform="translate(1153 1639)" fill="none" stroke="rgba(87,124,140,0.43)" stroke-width="1.5">
      <rect width="219" height="62" rx="17" stroke="none"/>
      <rect x="0.75" y="0.75" width="217.5" height="60.5" rx="16.25" fill="none"/>
    </g>
  </g>
</svg>
