<svg xmlns="http://www.w3.org/2000/svg" xmlns:xlink="http://www.w3.org/1999/xlink" width="1920.763" height="1420.629" viewBox="0 0 1920.763 1420.629">
  <defs>
    <clipPath id="clip-path">
      <path id="Path_91576" data-name="Path 91576" d="M766.759,0s81.393-5.566,420.389,0c484.66,0,523.612-283.967,523.612-283.967V68.926c1.855,3.116-.259,721.8-.259,1067.074-180.8,1.49-1067.741,0-1067.741,0h-852V976C-209.242,436.97,227.729,0,766.759,0Z" transform="translate(209.242 1053.697)" fill="#c2cce5" opacity="0.25"/>
    </clipPath>
  </defs>
  <g id="App_Section_BG" transform="translate(0 -769.73)">
    <path id="Path_67940" data-name="Path 67940" d="M766.759,0s81.393-5.566,420.389,0c484.66,0,523.612-283.967,523.612-283.967V68.926c1.855,3.116-.259,721.8-.259,1067.074-180.8,1.49-1067.741,0-1067.741,0h-852V976C-209.242,436.97,227.729,0,766.759,0Z" transform="translate(209.242 1053.697)" fill="#c2cce5" opacity="0.25"/>
    <g id="Mask_Group_155" data-name="Mask Group 155" clip-path="url(#clip-path)">
      <g id="Group_109435" data-name="Group 109435" transform="translate(-1017.23 544.176)" opacity="0.27">
        <path id="Path_91572" data-name="Path 91572" d="M539.857,633.3l487.834-487.834L905.565,23.319a79.581,79.581,0,0,0-112.525,0L539.819,276.558,349.733,86.471,335.89,426.584Z" transform="translate(2702.695 32.414)" fill="#fff"/>
        <path id="Path_91573" data-name="Path 91573" d="M285.014,430.819,152.527,298.332,411.3,39.56,589.687,217.948l-212.87,212.87a64.923,64.923,0,0,1-91.8,0" transform="translate(2372.425 727.076)" fill="#fff" opacity="0.194"/>
        <rect id="Rectangle_52836" data-name="Rectangle 52836" width="331.217" height="252.279" transform="translate(2806.908 743.457) rotate(-45)" fill="#fff" opacity="0.194"/>
        <path id="Path_91574" data-name="Path 91574" d="M1384.807,23.61a80.613,80.613,0,0,0-113.992,0L489.783,804.642,299.139,613.98,120.732,792.368,311.394,983.03l-.112.093,121.7,121.7a80.2,80.2,0,0,0,113.4,0l959.81-959.829Z" transform="translate(1813.833 32.143)" fill="#fff" opacity="0.532"/>
        <path id="Path_91575" data-name="Path 91575" d="M1558.048,145.076,1436.517,23.564a80.378,80.378,0,0,0-113.714,0L541.956,804.372,329.569,592a80.322,80.322,0,0,0-113.584,0L94.379,713.572,485.285,1104.5a80.288,80.288,0,0,0,113.584,0L720.474,982.891l-.111-.13Z" transform="translate(1350.85 32.061)" fill="#fff"/>
      </g>
    </g>
  </g>
</svg>
