<svg xmlns="http://www.w3.org/2000/svg" width="36.536" height="27.534" viewBox="0 0 36.536 27.534">
  <g id="Group_109142" data-name="Group 109142" transform="translate(-1533.763 -179.999)">
    <g id="Group_109053" data-name="Group 109053" transform="translate(1555.002 207.533) rotate(-90)">
      <path id="Path_87587" data-name="Path 87587" d="M94.379,1.967,96.027.32a1.09,1.09,0,0,1,1.542,0l10.589,10.588,2.88-2.88a1.089,1.089,0,0,1,1.54,0l1.649,1.649-5.3,5.3a1.089,1.089,0,0,1-1.54,0l-1.649-1.649,0,0Z" transform="translate(-94.379 0)" fill="#13359a" opacity="0.469"/>
      <path id="Path_87588" data-name="Path 87588" d="M114.228,1.967,112.579.32a1.09,1.09,0,0,0-1.542,0L100.449,10.908l-2.88-2.88a1.089,1.089,0,0,0-1.54,0L94.379,9.676l5.3,5.3a1.089,1.089,0,0,0,1.54,0l1.649-1.649,0,0Z" transform="translate(-86.693 0)" fill="#13359a"/>
    </g>
    <rect id="Rectangle_52825" data-name="Rectangle 52825" width="33" height="3.5" transform="translate(1533.763 192)" fill="#13359a"/>
  </g>
</svg>
