<svg xmlns="http://www.w3.org/2000/svg" width="21.737" height="16.382" viewBox="0 0 21.737 16.382">
  <g id="Group_109142" data-name="Group 109142" transform="translate(-1533.763 -179.999)">
    <g id="Group_109053" data-name="Group 109053" transform="translate(1546.399 196.381) rotate(-90)">
      <path id="Path_87587" data-name="Path 87587" d="M0,1.17.981.19A.648.648,0,0,1,1.9.19l6.3,6.3L9.911,4.776a.648.648,0,0,1,.916,0l.981.981L8.655,8.911a.648.648,0,0,1-.916,0L6.758,7.93h0Z" transform="translate(0 0)" fill="#13359a" opacity="0.469"/>
      <path id="Path_87588" data-name="Path 87588" d="M11.809,1.17,10.828.19a.648.648,0,0,0-.917,0l-6.3,6.3L1.9,4.776a.648.648,0,0,0-.916,0L0,5.757,3.154,8.911a.648.648,0,0,0,.916,0l.981-.981h0Z" transform="translate(4.573 0)" fill="#13359a"/>
    </g>
    <rect id="Rectangle_52825" data-name="Rectangle 52825" width="19.633" height="2.082" transform="translate(1533.763 187.139)" fill="#13359a"/>
  </g>
</svg>
