<svg xmlns="http://www.w3.org/2000/svg" width="54.413" height="54.415" viewBox="0 0 54.413 54.415">
  <g id="Group_109095" data-name="Group 109095" transform="translate(1.036 1.037)">
    <path id="Icon_awesome-phone-alt" data-name="Icon awesome-phone-alt" d="M1.494,37.012,12.952,32.1a2.455,2.455,0,0,1,2.864.706l5.074,6.2A37.919,37.919,0,0,0,39.017,20.88l-6.2-5.074a2.449,2.449,0,0,1-.706-2.864l4.91-11.458A2.472,2.472,0,0,1,39.835.062L50.475,2.517a2.455,2.455,0,0,1,1.9,2.393A47.462,47.462,0,0,1,4.91,52.378a2.455,2.455,0,0,1-2.394-1.9L.061,39.836a2.485,2.485,0,0,1,1.433-2.824Z" transform="translate(0 0)" fill="#ae9e79" stroke="#fff" stroke-width="2"/>
  </g>
</svg>
