<svg xmlns="http://www.w3.org/2000/svg" xmlns:xlink="http://www.w3.org/1999/xlink" width="58.115" height="65.129" viewBox="0 0 58.115 65.129">
  <defs>
    <clipPath id="clip-path">
      <rect id="Rectangle_52793" data-name="Rectangle 52793" width="58.115" height="65.129" fill="#a49478" stroke="#a49478" stroke-width="2.1"/>
    </clipPath>
  </defs>
  <g id="Card_01_Icon" clip-path="url(#clip-path)">
    <path id="Path_87579" data-name="Path 87579" d="M47.484,41.081a13.152,13.152,0,0,0-3.078-4.507,11.534,11.534,0,0,0-3.957-2.638,19.783,19.783,0,0,0,.769-4.507V23.495a18.4,18.4,0,0,0-.769-4.836,21.5,21.5,0,0,0-2.418-5.386,20.633,20.633,0,0,0-1.209-5.056,17.275,17.275,0,0,0-.879-1.978.7.7,0,0,0-.11-1.209h-.659a11.164,11.164,0,0,0-3.517-3.188A13.921,13.921,0,0,0,26.82.193a17.251,17.251,0,0,0-6.265.22,10.934,10.934,0,0,0-4.067,1.539,9.269,9.269,0,0,0-3.3,3.078H12.7a.481.481,0,0,0-.327.127c-.232.215-.558.67.161,1.121,0,0-.66.29-1.649,3.918,0,0-.11.55-.55,3.188a13.132,13.132,0,0,0-2.2,4.507,32.18,32.18,0,0,0-1.1,6.045,32.428,32.428,0,0,0,.33,6.595,19.415,19.415,0,0,0,.44,3.407A15.475,15.475,0,0,0,2.638,38,13.862,13.862,0,0,0,0,44.159V55.027a.416.416,0,0,0,.148.264A.644.644,0,0,0,1.193,55q.009-.032.016-.066V45.478a12.981,12.981,0,0,1,1.759-5.716A12.238,12.238,0,0,1,8.9,34.926l2.638-.659a21.754,21.754,0,0,0,5.166-1.978,6.842,6.842,0,0,0,3.188,2.858,8.992,8.992,0,0,0,7.145.55,9.008,9.008,0,0,0,4.734-3.407s.981.989,4.169,1.649a24.871,24.871,0,0,1,5.606,2.088,13.517,13.517,0,0,1,3.517,3.3,14.861,14.861,0,0,1,1.869,4.4l.22.879V54.931a.688.688,0,0,0,.659.55s.44.11.66-.44V45.058a13.6,13.6,0,0,0-.989-3.977M14.812,4.9a10.545,10.545,0,0,1,4.5-2.945A19.211,19.211,0,0,1,26.726,1.4a10.9,10.9,0,0,1,6.775,3.5l.141.178h-19ZM13.9,6.293H34.4s1.025,1.044,2.051,5.056a21.36,21.36,0,0,0-2.82-1.814,30.825,30.825,0,0,1-7.09,1.814,23.336,23.336,0,0,1-9.178-.934s-.44-.11-2.638-.989a16,16,0,0,0-2.8,1.924A16.385,16.385,0,0,1,13.9,6.293m2.473,24.786A26.515,26.515,0,0,1,9.013,33.5a34.291,34.291,0,0,1-.66-6.815,22.081,22.081,0,0,1,.55-6.815,22.311,22.311,0,0,1,2.2-5.5,17.013,17.013,0,0,1,3.023-3.023v9.673a9.255,9.255,0,0,0,2.693,4.891Zm10.552,3.3s-3.847,1.319-6.595-.55a7.251,7.251,0,0,1-2.748-2.418l.44-4.4s4.122,2.976,6.183,2.807a12.286,12.286,0,0,0,6.073-2.752l.55,4.287a10.1,10.1,0,0,1-3.9,3.023m3.847-9.453a14.8,14.8,0,0,1-6.617,3.659,14,14,0,0,1-5.144-2.45,8.582,8.582,0,0,1-3.67-5.826V11.074a22.743,22.743,0,0,0,8.507,1.649,22.638,22.638,0,0,0,9.123-1.649v9.647a8.455,8.455,0,0,1-2.2,4.2M39.35,33.5a26.515,26.515,0,0,1-7.364-2.418l-.44-5.166a9.255,9.255,0,0,0,2.693-4.891V11.349a17.012,17.012,0,0,1,3.023,3.023,22.312,22.312,0,0,1,2.2,5.5,22.081,22.081,0,0,1,.55,6.815A34.289,34.289,0,0,1,39.35,33.5" transform="translate(4.821 4.818)" fill="#a49478" stroke="#a49478" stroke-width="2.1"/>
    <path id="Path_87580" data-name="Path 87580" d="M711.184,1258.882H709.1a.769.769,0,1,1,0-1.539h2.089a.769.769,0,1,1,0,1.539" transform="translate(-681.137 -1212.818)" fill="#a49478" stroke="#a49478" stroke-width="2.1"/>
    <path id="Path_87581" data-name="Path 87581" d="M711.184,1380.707H709.1a.769.769,0,0,1,0-1.539h2.089a.769.769,0,0,1,0,1.539" transform="translate(-681.137 -1330.795)" fill="#a49478" stroke="#a49478" stroke-width="2.1"/>
    <path id="Path_87582" data-name="Path 87582" d="M711.184,1506.013H709.1a.769.769,0,0,1,0-1.539h2.089a.769.769,0,0,1,0,1.539" transform="translate(-681.137 -1452.144)" fill="#a49478" stroke="#a49478" stroke-width="2.1"/>
  </g>
</svg>
