<svg id="Group_108137" data-name="Group 108137" xmlns="http://www.w3.org/2000/svg" xmlns:xlink="http://www.w3.org/1999/xlink" width="57.532" height="57.549" viewBox="0 0 57.532 57.549">
  <defs>
    <clipPath id="clip-path">
      <rect id="Rectangle_38447" data-name="Rectangle 38447" width="57.532" height="57.549" fill="#b39d74" stroke="#dde5eb" stroke-width="0.4"/>
    </clipPath>
  </defs>
  <g id="Group_108137-2" data-name="Group 108137" clip-path="url(#clip-path)">
    <path id="Path_67688" data-name="Path 67688" d="M70.066,28.8q0-10.523,0-21.045A7.338,7.338,0,0,1,77.717.022c5.665-.019,11.331-.045,17,.012,3.11.031,5.609,1.3,6.936,4.239a8.3,8.3,0,0,1,.707,3.3q.069,21.225.023,42.45a7.257,7.257,0,0,1-7.485,7.508q-8.677.036-17.355,0a7.229,7.229,0,0,1-7.469-7.507q-.015-10.613,0-21.225m3.531.1q0,10.392,0,20.783c0,2.964,1.377,4.347,4.345,4.35q8.321.006,16.642,0c2.831,0,4.266-1.427,4.268-4.262q.007-20.964,0-41.927c0-2.826-1.366-4.214-4.18-4.223q-8.456-.026-16.912.013a6.012,6.012,0,0,0-2.18.413c-1.6.649-1.965,2.092-1.97,3.619C73.584,14.746,73.6,21.824,73.6,28.9" transform="translate(-44.858 0)" fill="#b39d74" stroke="#dde5eb" stroke-width="0.4"/>
    <path id="Path_67689" data-name="Path 67689" d="M23.988,83.175c-.276.026-.5.067-.731.067q-7.778,0-15.557,0A7.275,7.275,0,0,1,.008,75.577q-.016-13.9,0-27.792a7.279,7.279,0,0,1,7.644-7.622c4.316-.006,8.633.016,12.949-.017.751-.006,1.033.216.968.965a9.2,9.2,0,0,0,0,1.707c.074.742-.249.9-.929.9-4.287-.025-8.573-.031-12.859,0a6.092,6.092,0,0,0-2.186.4A3.4,3.4,0,0,0,3.542,47.6c-.019,2.968-.006,5.936-.007,8.9,0,6.3-.017,12.592.021,18.888a5.93,5.93,0,0,0,.47,2.432,3.622,3.622,0,0,0,3.6,1.907c4.466.022,8.933.03,13.4-.012a1.477,1.477,0,0,1,1.571,1c.367.809.872,1.555,1.391,2.458" transform="translate(0 -25.703)" fill="#b39d74" stroke="#dde5eb" stroke-width="0.4"/>
    <path id="Path_67690" data-name="Path 67690" d="M19.961,65.374c0-.779-.017-1.559,0-2.337A2.79,2.79,0,0,1,22.821,60.1c1.676-.053,3.356-.046,5.033-.005a2.614,2.614,0,0,1,2.793,2.489,55.586,55.586,0,0,1-.122,6.177,1.984,1.984,0,0,1-1.868,1.9,47.965,47.965,0,0,1-6.354.067c-1.493-.1-2.284-1.267-2.338-2.92-.026-.808,0-1.618,0-2.427m5.4,1.887c2.034-.028,1.792.282,1.784-1.619-.009-2.278.34-1.991-1.968-2.007-1.7-.012-1.7,0-1.7,1.7.006,2.265-.172,1.9,1.879,1.93" transform="translate(-12.774 -38.451)" fill="#b39d74" stroke="#dde5eb" stroke-width="0.4"/>
    <path id="Path_67691" data-name="Path 67691" d="M25.386,110.97c-.749,0-1.5.007-2.246,0-1.739-.021-2.784-.676-2.945-2.381a40.225,40.225,0,0,1,.04-6.256,2.075,2.075,0,0,1,2.107-1.973,49.751,49.751,0,0,1,5.909-.045A2.27,2.27,0,0,1,30.7,102.68a37.008,37.008,0,0,1-.081,6.079,2.4,2.4,0,0,1-2.629,2.2c-.867.032-1.737.006-2.606.006v.006m1.856-5.314c0-1.855,0-1.855-1.833-1.855h-.09c-1.788.016-1.761-.293-1.748,1.714.014,2.164-.2,1.907,1.916,1.913,2.05.005,1.725.169,1.753-1.772" transform="translate(-12.86 -64.179)" fill="#b39d74" stroke="#dde5eb" stroke-width="0.4"/>
    <path id="Path_67692" data-name="Path 67692" d="M105.463,60.1c.779,0,1.559-.02,2.337,0a2.63,2.63,0,0,1,2.839,2.438,54.121,54.121,0,0,1-.1,6.177,2.065,2.065,0,0,1-1.994,1.988,46.9,46.9,0,0,1-6.267.027c-1.484-.105-2.275-1.28-2.306-2.945q-.044-2.381,0-4.765a2.8,2.8,0,0,1,2.883-2.916c.867-.036,1.738-.006,2.606-.006Zm-.126,7.182c2.088-.029,1.821.289,1.817-1.676,0-2.2.323-1.937-1.935-1.951-1.729-.01-1.732,0-1.729,1.753,0,2.2-.15,1.844,1.847,1.874" transform="translate(-63.991 -38.476)" fill="#b39d74" stroke="#dde5eb" stroke-width="0.4"/>
    <path id="Path_67693" data-name="Path 67693" d="M105.461,30.953c-.779,0-1.558.009-2.336,0-1.719-.023-2.77-.7-2.926-2.408a40.693,40.693,0,0,1,.057-6.256,2.035,2.035,0,0,1,2.04-1.932,50.852,50.852,0,0,1,6-.051,2.223,2.223,0,0,1,2.406,2.3,36.325,36.325,0,0,1-.055,6.078c-.14,1.507-1.151,2.209-2.668,2.26-.838.028-1.677.005-2.516.005Zm1.8-5.3c0-1.869,0-1.869-1.909-1.869h-.089c-1.712.009-1.685-.259-1.672,1.7.014,2.174-.2,1.923,1.9,1.927,2.06,0,1.739.176,1.767-1.758" transform="translate(-64.088 -12.956)" fill="#b39d74" stroke="#dde5eb" stroke-width="0.4"/>
    <path id="Path_67694" data-name="Path 67694" d="M105.394,110.979c-.749,0-1.5.008-2.246,0-1.731-.022-2.778-.684-2.938-2.391a40.862,40.862,0,0,1,.045-6.256,2.034,2.034,0,0,1,2.027-1.946,49.649,49.649,0,0,1,6-.059,2.271,2.271,0,0,1,2.445,2.374,35,35,0,0,1-.071,5.991c-.151,1.546-1.171,2.241-2.744,2.281-.838.021-1.677,0-2.516,0Zm1.866-5.326c0-1.843,0-1.851-1.845-1.841-1.921.01-1.832-.309-1.824,1.814.007,2.03-.161,1.811,1.839,1.811,2.135,0,1.8.194,1.83-1.784" transform="translate(-64.091 -64.189)" fill="#b39d74" stroke="#dde5eb" stroke-width="0.4"/>
  </g>
</svg>
