<svg id="Group_108828" data-name="Group 108828" xmlns="http://www.w3.org/2000/svg" xmlns:xlink="http://www.w3.org/1999/xlink" width="70.499" height="57.549" viewBox="0 0 70.499 57.549">
  <defs>
    <clipPath id="clip-path">
      <rect id="Rectangle_38077" data-name="Rectangle 38077" width="70.499" height="57.549" fill="#b39d74" stroke="#ada895" stroke-width="0.5"/>
    </clipPath>
  </defs>
  <g id="Group_98944" data-name="Group 98944" transform="translate(0 0)" clip-path="url(#clip-path)">
    <path id="Path_63170" data-name="Path 63170" d="M46.088,6.291H30.194V3.154h.932q7.552,0,15.1.008a1.261,1.261,0,0,0,1.185-.573,6.27,6.27,0,0,1,10.135-.024,1.34,1.34,0,0,0,1.252.6c4.475-.021,8.95-.012,13.425-.012h.935v3.14H58.866a5.947,5.947,0,0,1-1.847,4.44,11.687,11.687,0,0,1-2.321,1.5c-.41.222-.665.389-.665.921q.024,17.059.014,34.119c0,.181.029.361.051.62H74.769v3.12H30.215V47.933H50.881c.017-.362.042-.646.042-.929q0-16.82.013-33.639a1.044,1.044,0,0,0-.76-1.173,5.984,5.984,0,0,1-3.99-5.3c-.015-.156-.05-.31-.1-.6m6.443,3.254A3.056,3.056,0,0,0,55.7,6.3a3.113,3.113,0,0,0-3.245-3.187A3.152,3.152,0,0,0,49.261,6.3a3.113,3.113,0,0,0,3.269,3.246" transform="translate(-17.274 3.27)" fill="#b39d74" stroke="#ada895" stroke-width="0.5"/>
    <path id="Path_63171" data-name="Path 63171" d="M132.769,30.762c1.316,2.121,2.571,4.151,3.835,6.177,2.718,4.355,5.426,8.716,8.173,13.053a5.24,5.24,0,0,1,.684,2.306,4.943,4.943,0,0,1-1.953,4.745c-1.816,1.551-3.4,3.368-5.11,5.05a1.182,1.182,0,0,1-.752.3q-4.952.029-9.9,0a1.4,1.4,0,0,1-.867-.4q-3.272-3.221-6.494-6.493a3.228,3.228,0,0,1-.453-.941c-.01-.022,0-.053,0-.079a8.682,8.682,0,0,1,1.655-6.105c3.648-5.526,7.107-11.177,10.642-16.778.156-.246.322-.486.547-.825m8.038,18.874L132.782,36.6l-8.22,13.037Zm-17.985,3.211a5.889,5.889,0,0,0,.692,1.341q2.276,2.355,4.639,4.624a1.662,1.662,0,0,0,1.032.417q3.515.054,7.03,0a1.553,1.553,0,0,0,.969-.386c1.59-1.534,3.135-3.116,4.716-4.661a1.1,1.1,0,0,0,.293-1.338Z" transform="translate(-78.282 -17.661)" fill="#b39d74" stroke="#ada895" stroke-width="0.5"/>
    <path id="Path_63172" data-name="Path 63172" d="M12.851,30.868c3.76,6.016,7.419,11.978,11.2,17.858a7.947,7.947,0,0,1,1.488,5.2A2.826,2.826,0,0,1,24.689,56c-2.1,2-4.111,4.095-6.173,6.135a1.179,1.179,0,0,1-.738.328q-4.991.032-9.983,0a1.294,1.294,0,0,1-.805-.364Q3.664,58.813.385,55.487a1.348,1.348,0,0,1-.357-.815C-.015,53.689,0,52.7.021,51.718a1.531,1.531,0,0,1,.2-.746q6.15-9.846,12.322-19.679c.082-.13.18-.25.307-.426M4.659,49.685H20.877L12.869,36.672,4.659,49.685m17.874,3.426-.256-.181H2.955a4.973,4.973,0,0,0,.615,1.3c1.534,1.59,3.1,3.148,4.692,4.684a1.545,1.545,0,0,0,.965.391c2.343.033,4.687.038,7.03,0a1.78,1.78,0,0,0,1.093-.466q2.307-2.209,4.529-4.508a5.054,5.054,0,0,0,.653-1.215" transform="translate(3.269 -17.733)" fill="#b39d74" stroke="#ada895" stroke-width="0.5"/>
  </g>
</svg>
