<svg id="Card_04_Icon" xmlns="http://www.w3.org/2000/svg" xmlns:xlink="http://www.w3.org/1999/xlink" width="38.834" height="38.846" viewBox="0 0 38.834 38.846">
  <defs>
    <clipPath id="clip-path">
      <rect id="Rectangle_38447" data-name="Rectangle 38447" width="38.834" height="38.846" fill="#b39d74" stroke="#dde5eb" stroke-width="0.4"/>
    </clipPath>
  </defs>
  <g id="Group_108137" data-name="Group 108137" clip-path="url(#clip-path)">
    <path id="Path_67688" data-name="Path 67688" d="M70.066,19.439q0-7.1,0-14.206A4.953,4.953,0,0,1,75.23.015C79.054,0,82.878-.015,86.7.023a4.8,4.8,0,0,1,4.682,2.862,5.606,5.606,0,0,1,.477,2.228q.046,14.327.016,28.654a4.9,4.9,0,0,1-5.052,5.068q-5.857.024-11.715,0a4.88,4.88,0,0,1-5.042-5.067q-.01-7.164,0-14.327m2.383.07q0,7.015,0,14.029c0,2,.929,2.934,2.933,2.936q5.617,0,11.233,0A2.551,2.551,0,0,0,89.5,33.6q0-14.15,0-28.3c0-1.908-.922-2.845-2.822-2.851q-5.708-.018-11.415.009a4.058,4.058,0,0,0-1.472.279,2.332,2.332,0,0,0-1.33,2.443c-.017,4.777-.007,9.555-.008,14.332" transform="translate(-53.05 0)" fill="#b39d74" stroke="#dde5eb" stroke-width="0.4"/>
    <path id="Path_67689" data-name="Path 67689" d="M16.192,69.19c-.187.018-.34.045-.493.045q-5.25,0-10.5,0A4.91,4.91,0,0,1,.005,64.062Q-.005,54.682,0,45.3a4.913,4.913,0,0,1,5.16-5.145c2.914,0,5.827.011,8.741-.012.507,0,.7.146.653.651a6.21,6.21,0,0,0,0,1.152c.05.5-.168.608-.627.6-2.893-.017-5.787-.021-8.68,0a4.112,4.112,0,0,0-1.476.272,2.294,2.294,0,0,0-1.386,2.349c-.013,2,0,4.007,0,6.01,0,4.25-.011,8.5.014,12.749a4,4,0,0,0,.317,1.642,2.445,2.445,0,0,0,2.431,1.287c3.015.015,6.03.02,9.044-.008a1,1,0,0,1,1.06.673c.248.546.589,1.05.939,1.659" transform="translate(0 -30.397)" fill="#b39d74" stroke="#dde5eb" stroke-width="0.4"/>
    <path id="Path_67690" data-name="Path 67690" d="M19.959,63.646c0-.526-.011-1.052,0-1.578a1.883,1.883,0,0,1,1.927-1.985c1.131-.036,2.265-.031,3.4,0a1.764,1.764,0,0,1,1.885,1.68,37.522,37.522,0,0,1-.082,4.17,1.34,1.34,0,0,1-1.261,1.281,32.376,32.376,0,0,1-4.289.045c-1.008-.065-1.542-.855-1.578-1.971-.017-.546,0-1.092,0-1.638m3.648,1.274c1.373-.019,1.21.19,1.2-1.093-.006-1.538.23-1.344-1.328-1.355-1.145-.008-1.147,0-1.145,1.145,0,1.529-.116,1.282,1.268,1.3" transform="translate(-15.107 -45.473)" fill="#b39d74" stroke="#dde5eb" stroke-width="0.4"/>
    <path id="Path_67691" data-name="Path 67691" d="M23.663,107.483c-.505,0-1.011,0-1.516,0-1.174-.014-1.879-.456-1.988-1.607a27.152,27.152,0,0,1,.027-4.222,1.4,1.4,0,0,1,1.422-1.332,33.588,33.588,0,0,1,3.989-.031,1.532,1.532,0,0,1,1.655,1.6,24.981,24.981,0,0,1-.055,4.1,1.62,1.62,0,0,1-1.774,1.484c-.585.021-1.172,0-1.759,0v0m1.253-3.587c0-1.252,0-1.252-1.237-1.252h-.06c-1.207.011-1.188-.2-1.18,1.157.009,1.46-.134,1.288,1.294,1.291,1.384,0,1.164.114,1.184-1.2" transform="translate(-15.209 -75.9)" fill="#b39d74" stroke="#dde5eb" stroke-width="0.4"/>
    <path id="Path_67692" data-name="Path 67692" d="M103.671,60.1c.526,0,1.052-.014,1.577,0a1.775,1.775,0,0,1,1.916,1.645,36.53,36.53,0,0,1-.068,4.169,1.394,1.394,0,0,1-1.346,1.342,31.66,31.66,0,0,1-4.23.018c-1-.071-1.536-.864-1.556-1.988q-.03-1.607,0-3.216a1.888,1.888,0,0,1,1.946-1.968c.585-.024,1.173,0,1.759,0Zm-.085,4.848c1.41-.02,1.229.2,1.227-1.131,0-1.485.218-1.308-1.306-1.317-1.167-.007-1.169,0-1.167,1.184,0,1.487-.1,1.245,1.247,1.265" transform="translate(-75.678 -45.503)" fill="#b39d74" stroke="#dde5eb" stroke-width="0.4"/>
    <path id="Path_67693" data-name="Path 67693" d="M103.719,27.47c-.526,0-1.051.006-1.577,0-1.16-.016-1.87-.472-1.975-1.626a27.466,27.466,0,0,1,.039-4.223,1.374,1.374,0,0,1,1.377-1.3,34.324,34.324,0,0,1,4.048-.035,1.5,1.5,0,0,1,1.624,1.554,24.52,24.52,0,0,1-.037,4.1,1.627,1.627,0,0,1-1.8,1.525c-.565.019-1.132,0-1.7,0Zm1.212-3.577c0-1.262,0-1.262-1.288-1.262h-.06c-1.156.006-1.137-.175-1.129,1.148.009,1.468-.134,1.3,1.284,1.3,1.391,0,1.174.119,1.193-1.187" transform="translate(-75.792 -15.322)" fill="#b39d74" stroke="#dde5eb" stroke-width="0.4"/>
    <path id="Path_67694" data-name="Path 67694" d="M103.675,107.495c-.506,0-1.011.005-1.516,0-1.168-.015-1.875-.462-1.983-1.614a27.58,27.58,0,0,1,.03-4.223,1.373,1.373,0,0,1,1.368-1.314,33.514,33.514,0,0,1,4.048-.04,1.533,1.533,0,0,1,1.651,1.6,23.63,23.63,0,0,1-.048,4.044c-.1,1.044-.791,1.512-1.852,1.54-.566.014-1.132,0-1.7,0Zm1.26-3.6c0-1.244,0-1.249-1.246-1.242-1.3.007-1.236-.209-1.231,1.224,0,1.37-.109,1.222,1.241,1.222,1.441,0,1.215.131,1.236-1.2" transform="translate(-75.796 -75.912)" fill="#b39d74" stroke="#dde5eb" stroke-width="0.4"/>
  </g>
</svg>
