<svg xmlns="http://www.w3.org/2000/svg" width="65.856" height="32.519" viewBox="0 0 65.856 32.519">
  <g id="Card_01_Logo" transform="translate(-1456.942 -54.442)">
    <path id="Path_91565" data-name="Path 91565" d="M1489.962,21.17l14.059-14.059-3.52-3.519a2.291,2.291,0,0,0-3.24,0l0,0-7.3,7.3-5.478-5.479-5.141,5.141Z" transform="translate(18.777 51.534)" fill="#f0e7db"/>
    <path id="Path_91566" data-name="Path 91566" d="M1313.665,368.052l-2.97-2.969,7.458-7.457,5.141,5.141-5.285,5.285a3.072,3.072,0,0,1-4.345,0h0" transform="translate(177.362 -282.014)" fill="#e8dac7"/>
    <rect id="Rectangle_52834" data-name="Rectangle 52834" width="9.544" height="7.27" transform="translate(1496.184 74.943) rotate(-45)" fill="#e8dac7"/>
    <path id="Path_91567" data-name="Path 91567" d="M1061.942,3.474a2.325,2.325,0,0,0-3.286,0l-22.507,22.508-5.495-5.493-5.141,5.14,5.495,5.495,0,0,3.507,3.507a2.311,2.311,0,0,0,3.268,0h0l27.659-27.661Z" transform="translate(445.532 51.651)" fill="#d9c8b0"/>
    <path id="Path_91568" data-name="Path 91568" d="M831.277,6.925l-3.5-3.5a2.317,2.317,0,0,0-3.277,0l-22.5,22.5L795.873,19.8a2.315,2.315,0,0,0-3.273,0l-3.5,3.5,11.265,11.266a2.315,2.315,0,0,0,3.274,0h0l3.5-3.5,0,0Z" transform="translate(667.846 51.698)" fill="#c9b598"/>
  </g>
</svg>
