<svg xmlns="http://www.w3.org/2000/svg" xmlns:xlink="http://www.w3.org/1999/xlink" width="38.082" height="38.136" viewBox="0 0 38.082 38.136">
  <defs>
    <clipPath id="clip-path">
      <rect id="Rectangle_38451" data-name="Rectangle 38451" width="38.082" height="38.136" fill="#9f8961"/>
    </clipPath>
  </defs>
  <g id="Card_02_Icon" opacity="0.9">
    <g id="Group_108141" data-name="Group 108141" clip-path="url(#clip-path)">
      <path id="Path_67704" data-name="Path 67704" d="M18.847.012a2.16,2.16,0,0,1,1.3.433c5.641,2.8,11.074,6.636,16.715,9.506A2.31,2.31,0,0,1,35.745,14.3H2.363A2.3,2.3,0,0,1,.821,10.242C6.395,7.185,11.865,3.627,17.484.684A7.358,7.358,0,0,1,18.847.012m-16.3,11.9H15.18c-.691-2.32,0-4.9,2.476-5.688a4.152,4.152,0,0,1,5.152,5.688H35.562L19.054,2.536ZM18.726,8.36a1.793,1.793,0,0,0,.553,3.54,1.793,1.793,0,1,0-.553-3.54" transform="translate(-0.005 0)" fill="#9f8961"/>
      <path id="Path_67705" data-name="Path 67705" d="M18.49,69.955V79.49h6.079V69.955h2.265V79.49H34.1V69.955h2.265V79.49h6.079V69.955h2.265V79.49a1.194,1.194,0,1,1-.059,2.384l-28.134,0c-1.835.123-2.111-2.211-.293-2.389V69.955Z" transform="translate(-11.42 -53.279)" fill="#9f8961"/>
      <path id="Path_67706" data-name="Path 67706" d="M1.084,149.959l35.611-.036a1.183,1.183,0,0,1,.509,2.307l-35.8.087a1.19,1.19,0,1,1-.321-2.357" transform="translate(0 -114.181)" fill="#9f8961"/>
      <path id="Path_67707" data-name="Path 67707" d="M8.584,129.959l32.036-.036a1.183,1.183,0,0,1,.509,2.307L8.9,132.316a1.19,1.19,0,1,1-.321-2.357" transform="translate(-5.712 -98.948)" fill="#9f8961"/>
    </g>
  </g>
</svg>
