<svg xmlns="http://www.w3.org/2000/svg" width="64.908" height="32.518" viewBox="0 0 64.908 32.518">
  <g id="Group_108223" data-name="Group 108223" transform="translate(0)">
    <path id="Path_67923" data-name="Path 67923" d="M181.794,18.008,195.65,4.151,192.181.682a2.26,2.26,0,0,0-3.2,0l-7.192,7.193-5.4-5.4-5.067,5.067Z" transform="translate(-130.742 -0.01)" fill="#c1d7eb"/>
    <path id="Path_67924" data-name="Path 67924" d="M156.29,50.673l-3.763-3.763,7.35-7.35,5.067,5.067L158.9,50.673a1.844,1.844,0,0,1-2.608,0" transform="translate(-121.858 -18.695)" fill="#a7c3dd"/>
    <rect id="Rectangle_38515" data-name="Rectangle 38515" width="9.408" height="7.166" transform="translate(38.677 20.207) rotate(-45)" fill="#a7c3dd"/>
    <path id="Path_67925" data-name="Path 67925" d="M156.637.675a2.29,2.29,0,0,0-3.238,0L131.215,22.86,125.8,17.444l-5.067,5.067,5.416,5.416,0,0,3.457,3.457a2.278,2.278,0,0,0,3.221,0L160.085,4.123Z" transform="translate(-106.833 -0.002)" fill="#8fafcc"/>
    <path id="Path_67926" data-name="Path 67926" d="M135.953,4.121,132.5.669a2.283,2.283,0,0,0-3.23,0L107.092,22.847l-6.033-6.032a2.281,2.281,0,0,0-3.226,0l-3.454,3.453,11.1,11.1a2.28,2.28,0,0,0,3.226,0l3.454-3.454,0,0Z" transform="translate(-94.379 0)" fill="#7ca0c0"/>
  </g>
</svg>
