<svg xmlns="http://www.w3.org/2000/svg" xmlns:xlink="http://www.w3.org/1999/xlink" width="57.468" height="57.549" viewBox="0 0 57.468 57.549">
  <defs>
    <clipPath id="clip-path">
      <rect id="Rectangle_38451" data-name="Rectangle 38451" width="57.468" height="57.549" fill="#9f8961"/>
    </clipPath>
  </defs>
  <g id="Group_108987" data-name="Group 108987" opacity="0.9">
    <g id="Group_108141" data-name="Group 108141" clip-path="url(#clip-path)">
      <path id="Path_67704" data-name="Path 67704" d="M28.438.018A3.259,3.259,0,0,1,30.4.672C38.912,4.9,47.112,10.686,55.625,15.018a3.485,3.485,0,0,1-1.687,6.556H3.563a3.474,3.474,0,0,1-2.327-6.117C9.647,10.843,17.9,5.474,26.381,1.032A11.1,11.1,0,0,1,28.438.018M3.839,17.97H22.9c-1.042-3.5,0-7.393,3.737-8.584a6.265,6.265,0,0,1,7.774,8.584H53.662L28.751,3.827Zm24.416-5.354c-3.334.526-2.729,5.719.835,5.342,3.427-.362,2.911-5.934-.835-5.342" transform="translate(-0.004 0)" fill="#9f8961"/>
      <path id="Path_67705" data-name="Path 67705" d="M20.27,69.955V84.344h9.173V69.955h3.417V84.344H43.833V69.955H47.25V84.344h9.173V69.955h3.417V84.344a1.8,1.8,0,1,1-.089,3.6l-42.456.007c-2.768.186-3.186-3.336-.442-3.6V69.955Z" transform="translate(-9.6 -44.79)" fill="#9f8961"/>
      <path id="Path_67706" data-name="Path 67706" d="M1.635,149.979l53.739-.055c2.262-.153,2.949,2.921.769,3.481l-54.023.131c-2.513.079-2.935-3.195-.485-3.557" transform="translate(0 -95.988)" fill="#9f8961"/>
      <path id="Path_67707" data-name="Path 67707" d="M9.135,129.979l48.343-.055c2.262-.153,2.949,2.921.769,3.481l-48.627.131c-2.513.079-2.935-3.195-.485-3.557" transform="translate(-4.802 -83.183)" fill="#9f8961"/>
    </g>
  </g>
</svg>
