<svg xmlns="http://www.w3.org/2000/svg" xmlns:xlink="http://www.w3.org/1999/xlink" width="35.516" height="39.803" viewBox="0 0 35.516 39.803">
  <defs>
    <clipPath id="clip-path">
      <rect id="Rectangle_52793" data-name="Rectangle 52793" width="35.516" height="39.803" fill="#a49478" stroke="#a49478" stroke-width="2.1"/>
    </clipPath>
  </defs>
  <g id="Card_01_Icon" clip-path="url(#clip-path)">
    <path id="Path_87579" data-name="Path 87579" d="M29.019,25.107a8.038,8.038,0,0,0-1.881-2.754,7.049,7.049,0,0,0-2.418-1.612,12.091,12.091,0,0,0,.47-2.754V14.36a11.245,11.245,0,0,0-.47-2.956,13.137,13.137,0,0,0-1.478-3.292,12.61,12.61,0,0,0-.739-3.09,10.557,10.557,0,0,0-.537-1.209.428.428,0,0,0-.067-.739h-.4a6.823,6.823,0,0,0-2.15-1.948A8.508,8.508,0,0,0,16.39.119a10.543,10.543,0,0,0-3.829.134,6.682,6.682,0,0,0-2.485.94A5.665,5.665,0,0,0,8.061,3.074h-.3a.294.294,0,0,0-.2.078c-.142.131-.341.409.1.685,0,0-.4.178-1.008,2.394,0,0-.067.336-.336,1.948a8.025,8.025,0,0,0-1.343,2.754A19.667,19.667,0,0,0,4.3,14.628a19.818,19.818,0,0,0,.2,4.03,11.865,11.865,0,0,0,.269,2.082,9.457,9.457,0,0,0-3.157,2.485A8.472,8.472,0,0,0,0,26.988V33.63a.254.254,0,0,0,.09.161.393.393,0,0,0,.639-.18q.005-.019.01-.04V27.794A7.933,7.933,0,0,1,1.814,24.3a7.479,7.479,0,0,1,3.627-2.956l1.612-.4a13.3,13.3,0,0,0,3.157-1.209,4.181,4.181,0,0,0,1.948,1.747,5.5,5.5,0,0,0,4.366.336,5.505,5.505,0,0,0,2.893-2.082,5.332,5.332,0,0,0,2.548,1.008,15.2,15.2,0,0,1,3.426,1.276,8.261,8.261,0,0,1,2.15,2.015,9.082,9.082,0,0,1,1.142,2.687l.134.537v6.314a.42.42,0,0,0,.4.336s.269.067.4-.269v-6.1a8.309,8.309,0,0,0-.6-2.43M9.052,3A6.444,6.444,0,0,1,11.8,1.2,11.74,11.74,0,0,1,16.333.858,6.664,6.664,0,0,1,20.474,3l.086.109H8.951ZM8.5,3.847H21.025a7.549,7.549,0,0,1,1.254,3.09,13.054,13.054,0,0,0-1.724-1.108,18.839,18.839,0,0,1-4.333,1.108,14.261,14.261,0,0,1-5.609-.571S10.345,6.3,9,5.761A9.776,9.776,0,0,0,7.288,6.937,10.014,10.014,0,0,1,8.5,3.847m1.511,15.148a16.2,16.2,0,0,1-4.5,1.478,20.956,20.956,0,0,1-.4-4.165,13.5,13.5,0,0,1,.336-4.165A13.635,13.635,0,0,1,6.785,8.784,10.4,10.4,0,0,1,8.632,6.937v5.911a5.656,5.656,0,0,0,1.646,2.989Zm6.449,2.015a5.1,5.1,0,0,1-4.03-.336A4.431,4.431,0,0,1,10.748,19.2l.269-2.687s2.519,1.818,3.779,1.715a7.508,7.508,0,0,0,3.711-1.682l.336,2.62a6.17,6.17,0,0,1-2.385,1.847m2.351-5.777a9.042,9.042,0,0,1-4.044,2.236,8.555,8.555,0,0,1-3.144-1.5,5.245,5.245,0,0,1-2.243-3.56V6.769a13.9,13.9,0,0,0,5.2,1.008,13.835,13.835,0,0,0,5.575-1.008v5.9a5.167,5.167,0,0,1-1.343,2.568m5.24,5.24a16.2,16.2,0,0,1-4.5-1.478l-.269-3.157a5.656,5.656,0,0,0,1.646-2.989V6.937a10.4,10.4,0,0,1,1.847,1.847,13.636,13.636,0,0,1,1.343,3.359,13.5,13.5,0,0,1,.336,4.165,20.956,20.956,0,0,1-.4,4.165" transform="translate(2.946 2.944)" fill="#a49478" stroke="#a49478" stroke-width="2.1"/>
    <path id="Path_87580" data-name="Path 87580" d="M710.072,1258.284H708.8a.47.47,0,1,1,0-.94h1.276a.47.47,0,1,1,0,.94" transform="translate(-691.71 -1230.132)" fill="#a49478" stroke="#a49478" stroke-width="2.1"/>
    <path id="Path_87581" data-name="Path 87581" d="M710.072,1380.108H708.8a.47.47,0,0,1,0-.94h1.276a.47.47,0,0,1,0,.94" transform="translate(-691.71 -1349.605)" fill="#a49478" stroke="#a49478" stroke-width="2.1"/>
    <path id="Path_87582" data-name="Path 87582" d="M710.072,1505.415H708.8a.47.47,0,0,1,0-.94h1.276a.47.47,0,0,1,0,.94" transform="translate(-691.71 -1472.493)" fill="#a49478" stroke="#a49478" stroke-width="2.1"/>
  </g>
</svg>
