<svg id="Card_03_Icon" xmlns="http://www.w3.org/2000/svg" xmlns:xlink="http://www.w3.org/1999/xlink" width="47.649" height="38.896" viewBox="0 0 47.649 38.896">
  <defs>
    <clipPath id="clip-path">
      <rect id="Rectangle_38077" data-name="Rectangle 38077" width="47.649" height="38.896" fill="#b39d74" stroke="#ada895" stroke-width="0.5"/>
    </clipPath>
  </defs>
  <g id="Group_98944" data-name="Group 98944" transform="translate(0 0)" clip-path="url(#clip-path)">
    <path id="Path_63170" data-name="Path 63170" d="M40.936,4.252H30.194V2.131h.63q5.1,0,10.208.005a.852.852,0,0,0,.8-.388,4.238,4.238,0,0,1,6.85-.016.905.905,0,0,0,.846.406c3.025-.014,6.049-.008,9.074-.008h.632V4.254H49.573a4.02,4.02,0,0,1-1.248,3,7.9,7.9,0,0,1-1.569,1.011c-.277.15-.45.263-.449.623q.017,11.53.01,23.06c0,.122.02.244.035.419h13.97v2.109H30.208V32.4H44.176c.012-.245.029-.436.029-.628q0-11.368.009-22.736A.706.706,0,0,0,43.7,8.24,4.045,4.045,0,0,1,41,4.658c-.01-.106-.034-.21-.067-.406m4.355,2.2a2.065,2.065,0,0,0,2.14-2.193A2.1,2.1,0,0,0,45.238,2.1a2.13,2.13,0,0,0-2.156,2.153,2.1,2.1,0,0,0,2.21,2.194" transform="translate(-21.462 2.21)" fill="#b39d74" stroke="#ada895" stroke-width="0.5"/>
    <path id="Path_63171" data-name="Path 63171" d="M128.585,30.762c.89,1.433,1.738,2.806,2.592,4.175,1.837,2.944,3.668,5.891,5.524,8.822a3.542,3.542,0,0,1,.462,1.559,3.341,3.341,0,0,1-1.32,3.207c-1.227,1.048-2.3,2.277-3.454,3.413a.8.8,0,0,1-.508.2q-3.347.02-6.694,0a.948.948,0,0,1-.586-.271q-2.212-2.177-4.389-4.388a2.181,2.181,0,0,1-.306-.636c-.007-.015,0-.036,0-.054a5.868,5.868,0,0,1,1.119-4.126c2.466-3.735,4.8-7.554,7.192-11.34.105-.167.218-.329.369-.557m5.433,12.756-5.424-8.811-5.556,8.811Zm-12.155,2.17a3.978,3.978,0,0,0,.468.906q1.538,1.592,3.135,3.126a1.123,1.123,0,0,0,.7.282q2.375.037,4.752,0a1.049,1.049,0,0,0,.655-.261c1.075-1.037,2.119-2.106,3.188-3.15a.744.744,0,0,0,.2-.9Z" transform="translate(-91.758 -21.907)" fill="#b39d74" stroke="#ada895" stroke-width="0.5"/>
    <path id="Path_63172" data-name="Path 63172" d="M8.686,30.868c2.541,4.066,5.014,8.1,7.572,12.07a5.371,5.371,0,0,1,1.006,3.516,1.91,1.91,0,0,1-.577,1.4C15.266,49.2,13.908,50.619,12.515,52a.8.8,0,0,1-.5.222q-3.373.022-6.747,0a.874.874,0,0,1-.544-.246Q2.477,49.756.26,47.508a.911.911,0,0,1-.241-.551c-.029-.664-.02-1.331,0-2a1.035,1.035,0,0,1,.136-.5q4.156-6.655,8.328-13.3c.055-.088.121-.169.207-.288M3.149,43.586H14.11L8.7,34.791l-5.549,8.8M15.229,45.9l-.173-.122H2a3.361,3.361,0,0,0,.416.877c1.037,1.075,2.1,2.128,3.171,3.166a1.044,1.044,0,0,0,.652.264c1.584.022,3.168.026,4.751,0a1.2,1.2,0,0,0,.739-.315q1.56-1.493,3.061-3.047a3.416,3.416,0,0,0,.442-.821" transform="translate(2.21 -21.99)" fill="#b39d74" stroke="#ada895" stroke-width="0.5"/>
  </g>
</svg>
