<svg id="Group_109055" data-name="Group 109055" xmlns="http://www.w3.org/2000/svg" width="14.565" height="8.092" viewBox="0 0 14.565 8.092">
  <path id="Path_87587" data-name="Path 87587" d="M94.379,1.041l.872-.872a.577.577,0,0,1,.816,0l5.6,5.6,1.524-1.523a.576.576,0,0,1,.815,0l.872.872-2.8,2.8a.576.576,0,0,1-.815,0l-.872-.872h0Z" transform="translate(-94.379 0)" fill="#ae9e79" opacity="0.469"/>
  <path id="Path_87588" data-name="Path 87588" d="M104.879,1.041l-.872-.872a.577.577,0,0,0-.816,0l-5.6,5.6L96.066,4.247a.576.576,0,0,0-.815,0l-.872.872,2.8,2.8a.576.576,0,0,0,.815,0l.872-.872h0Z" transform="translate(-90.313 0)" fill="#ae9e79"/>
</svg>
