<svg id="Group_109037" data-name="Group 109037" xmlns="http://www.w3.org/2000/svg" xmlns:xlink="http://www.w3.org/1999/xlink" width="208.791" height="12.115" viewBox="0 0 208.791 12.115">
  <defs>
    <clipPath id="clip-path">
      <rect id="Rectangle_52783" data-name="Rectangle 52783" width="208.791" height="12.116" fill="#b39d74"/>
    </clipPath>
  </defs>
  <g id="Group_108998" data-name="Group 108998" transform="translate(0 0)" clip-path="url(#clip-path)">
    <path id="Path_87556" data-name="Path 87556" d="M0,12.116A1426.258,1426.258,0,0,1,155.022.155C157.355.133,169.154.016,171.243,0c5.968.09,13.51.091,19.473.248,2.372.079,13.678.48,16.229.566a1.913,1.913,0,1,1-.22,3.819c-2.566-.139-13.876-.739-16.128-.86-5.934-.266-13.443-.405-19.384-.6-2-.021-13.887-.124-16.169-.144A1424.707,1424.707,0,0,0,0,12.116" transform="translate(0 0)" fill="#b39d74"/>
  </g>
</svg>
