<svg width="318" height="19" viewBox="0 0 318 19" fill="none" xmlns="http://www.w3.org/2000/svg">
<mask id="mask0_403_3733" style="mask-type:luminance" maskUnits="userSpaceOnUse" x="0" y="0" width="318" height="19">
<path d="M318 0.25H0.0568848V18.699H318V0.25Z" fill="white"/>
</mask>
<g mask="url(#mask0_403_3733)">
<path d="M0.0568848 18.699C78.2759 8.531 157.237 2.071 236.121 0.486C239.673 0.45 257.641 0.275 260.822 0.25C269.91 0.387 281.394 0.389 290.475 0.628C294.086 0.748 311.304 1.359 315.189 1.49C315.576 1.50394 315.957 1.59514 316.309 1.75824C316.661 1.92134 316.977 2.15307 317.238 2.43982C317.499 2.72658 317.7 3.06259 317.83 3.42815C317.959 3.79372 318.015 4.18146 317.992 4.56866C317.97 4.95585 317.871 5.33469 317.7 5.68296C317.529 6.03122 317.291 6.3419 316.999 6.59678C316.706 6.85165 316.366 7.04558 315.998 7.16719C315.629 7.28881 315.241 7.33566 314.854 7.305C310.946 7.094 293.724 6.18 290.294 5.995C281.258 5.59 269.823 5.378 260.776 5.074C257.727 5.042 239.63 4.886 236.155 4.855C157.343 4.984 78.3729 9.984 0.0568848 18.699Z" fill="#B39D74"/>
</g>
</svg>
