<svg id="Yasir_Logo_SVG" xmlns="http://www.w3.org/2000/svg" width="139.776" height="130.407" viewBox="0 0 139.776 130.407">
  <g id="Group_109442" data-name="Group 109442" transform="translate(18.762 0)">
    <path id="Path_87594" data-name="Path 87594" d="M652.053,28.468,673.884,6.637l-5.466-5.465a3.558,3.558,0,0,0-5.031-.005l-.005.005L652.05,12.5,643.544,4l-7.984,7.983,16.492,16.488Z" transform="translate(-571.622 -0.112)" fill="#c0cae3"/>
    <path id="Path_87595" data-name="Path 87595" d="M520.2,268.671l-4.612-4.611,11.582-11.58,7.983,7.984-8.207,8.207a4.771,4.771,0,0,1-6.747,0h0" transform="translate(-467.272 -219.607)" fill="#8397c9"/>
    <rect id="Rectangle_52803" data-name="Rectangle 52803" width="14.82" height="11.289" transform="translate(60.937 31.835) rotate(-45)" fill="#8397c9"/>
    <path id="Path_87596" data-name="Path 87596" d="M369.269,1.092a3.609,3.609,0,0,0-5.1,0L329.216,36.042l-8.532-8.531L312.7,35.493l8.532,8.532,0,.005,5.445,5.445a3.588,3.588,0,0,0,5.074,0h0L374.7,6.524l-5.431-5.432Z" transform="translate(-290.8 -0.031)" fill="#4a66b0"/>
    <path id="Path_87597" data-name="Path 87597" d="M210,6.5l-5.439-5.439a3.6,3.6,0,0,0-5.09,0L164.529,36l-9.5-9.5a3.6,3.6,0,0,0-5.083,0L144.5,31.94l17.493,17.494a3.593,3.593,0,0,0,5.083,0h0l5.441-5.443-.005-.005Z" transform="translate(-144.5 -0.007)" fill="#133698"/>
  </g>
  <g id="Group_109444" data-name="Group 109444" transform="translate(0 64.67)">
    <path id="Path_91577" data-name="Path 91577" d="M14.39,804.453a18.6,18.6,0,0,1-6.151-1.18A20.289,20.289,0,0,1,2.09,799.8l2.868-5.737q2.422.766,4.3,1.18a16.522,16.522,0,0,0,3.538.415,13.013,13.013,0,0,0,6.276-1.465,11.039,11.039,0,0,0,4.239-3.953,10.257,10.257,0,0,0,1.53-5.48,8.425,8.425,0,0,0-.576-3.314,14.579,14.579,0,0,0-1.465-2.613q-.895-1.275-1.975-2.933l12.045,6.056v2.8a20.345,20.345,0,0,1-.637,4.78,23.011,23.011,0,0,1-2.008,5.227,20.862,20.862,0,0,1-3.538,4.842,15.89,15.89,0,0,1-5.226,3.538,17.881,17.881,0,0,1-7.074,1.306" transform="translate(-1.935 -739.545)" fill="#09183d"/>
    <path id="Path_91578" data-name="Path 91578" d="M133.773,690.771a18.468,18.468,0,0,1-4.176-.447,13.511,13.511,0,0,1-3.6-1.37,14.852,14.852,0,0,1-3.155-2.389,30.431,30.431,0,0,1-3.027-3.505l-8.095-11.091,7.012-8.669,8.221,14.213a22.651,22.651,0,0,0,1.848,2.646,4.352,4.352,0,0,0,1.977,1.37,9.709,9.709,0,0,0,2.995.381h.637v8.858h-.637Z" transform="translate(-97.291 -641.606)" fill="#09183d"/>
    <path id="Path_91579" data-name="Path 91579" d="M273.193,806.26h.639v8.858h-.639q-1.912,0-1.913-4.462,0-4.4,1.913-4.4" transform="translate(-236.076 -765.952)" fill="#09183d"/>
    <path id="Path_91580" data-name="Path 91580" d="M285.97,723.572v-8.858h16.436a26.054,26.054,0,0,0,.669-2.9,28.015,28.015,0,0,0,.382-3.443,31.227,31.227,0,0,0-.033-3.728l10.644-3.634q-.83,4.08-1.626,7.075a46.814,46.814,0,0,1-1.784,5.449,43.5,43.5,0,0,1-2.3,4.81q-1.309,2.357-3.217,5.226H285.97Z" transform="translate(-248.853 -674.406)" fill="#09183d"/>
    <path id="Path_91581" data-name="Path 91581" d="M413.488,723.581a30.066,30.066,0,0,1-7.426-.8A23.3,23.3,0,0,1,401,720.936a19.245,19.245,0,0,1-3-1.88l3.633-6.374a15.543,15.543,0,0,0,4.047,1.5,22.472,22.472,0,0,0,5.133.543h6.88a15.4,15.4,0,0,0,.671-2.677,29.581,29.581,0,0,0,.382-3.568q.094-1.914.033-3.824l10.707-3.634q-.893,4.08-1.721,7.075a56.429,56.429,0,0,1-1.785,5.449,36.636,36.636,0,0,1-2.292,4.81q-1.338,2.357-3.25,5.226h-6.949Z" transform="translate(-346.296 -674.415)" fill="#09183d"/>
    <path id="Path_91582" data-name="Path 91582" d="M582.783,698.461a26.578,26.578,0,0,1-6.978-.8,22.219,22.219,0,0,1-4.907-1.911q-2.008-1.113-3.538-2.135l4.716-5.672a18.326,18.326,0,0,0,8.35,1.658h8.094q-.512-1.721-1.083-3.281t-1.307-3.284q-.732-1.721-1.816-3.95L594.7,672.14q.51,3.889.829,8.126a57.72,57.72,0,0,1-.033,8.763,42.9,42.9,0,0,1-1.879,9.432H582.781Z" transform="translate(-493.605 -649.295)" fill="#09183d"/>
    <path id="Path_91583" data-name="Path 91583" d="M747.479,805.333c-2.082,0-13.514-.169-15.192-.509a20.925,20.925,0,0,1-4.43-1.371q-1.912-.859-3.378-1.687l3.5-6.755a9.569,9.569,0,0,0,1.657.635q.89.256,1.88.448a20.5,20.5,0,0,0,2.07.286c.723.063,1.465.1,2.23.1h12.04v8.856h-.384Z" transform="translate(-630.267 -756.167)" fill="#09183d"/>
    <path id="Path_91584" data-name="Path 91584" d="M827.483,806.251h.638v8.858h-.638c-1.275,0-11.463-1.486-11.463-4.461s10.188-4.4,11.463-4.4" transform="translate(-709.888 -765.944)" fill="#09183d"/>
    <path id="Path_91585" data-name="Path 91585" d="M902.412,918.121l-6.182-6.245,5.8-6.246,6.181,6.246Z" transform="translate(-779.654 -852.384)" fill="#09183d"/>
    <path id="Path_91586" data-name="Path 91586" d="M904.06,678.882v-8.858h11.28a18.627,18.627,0,0,0-1.751-5.958,46.923,46.923,0,0,0-3.6-6.215l8.03-8.221a55.372,55.372,0,0,1,3.314,8.095,32.8,32.8,0,0,1,1.5,9.527,33.135,33.135,0,0,1-2.2,11.631H904.06Z" transform="translate(-786.465 -629.716)" fill="#09183d"/>
    <path id="Path_91587" data-name="Path 91587" d="M987.583,918.121l-6.183-6.245,5.927-6.246,6.183,6.246Z" transform="translate(-853.735 -852.384)" fill="#09183d"/>
    <path id="Path_91588" data-name="Path 91588" d="M428.888,508.9a4.469,4.469,0,0,1-3.489-1.519,5.576,5.576,0,0,1-1.358-3.862V500.48H426.7v3.036a3.074,3.074,0,0,0,.586,2,1.948,1.948,0,0,0,1.6.719q2.131,0,2.131-2.45v-1.97h2.663v1.97a5.239,5.239,0,0,1-1.3,3.7,4.521,4.521,0,0,1-3.489,1.413Z" transform="translate(-375.364 -500.48)" fill="#09183d"/>
    <path id="Path_91589" data-name="Path 91589" d="M448.967,574.95l.746,2.876-13.477,3.516-.746-2.876Z" transform="translate(-385.324 -565.254)" fill="#09183d"/>
    <path id="Path_91590" data-name="Path 91590" d="M482.424,508.906a4.517,4.517,0,0,1-3.489-1.413,5.229,5.229,0,0,1-1.3-3.7v-1.97h2.663v1.97q0,2.451,2.13,2.45a1.955,1.955,0,0,0,1.6-.719,3.084,3.084,0,0,0,.586-2V500.49h2.664v3.036a5.641,5.641,0,0,1-1.332,3.862,4.447,4.447,0,0,1-3.516,1.519Z" transform="translate(-421.977 -500.489)" fill="#09183d"/>
    <g id="Group_109443" data-name="Group 109443" transform="translate(120.651 9.613)" style="mix-blend-mode: normal;isolation: isolate">
      <path id="Path_91591" data-name="Path 91591" d="M925.755,574.31l.741,2.859-13.4,3.493-.741-2.859Z" transform="translate(-912.36 -574.31)" fill="#09183d"/>
    </g>
    <path id="Path_91592" data-name="Path 91592" d="M3.573,613.02a3.494,3.494,0,0,1-1.786-.471,3.644,3.644,0,0,1-1.3-1.268A3.3,3.3,0,0,1,0,609.524a3.348,3.348,0,0,1,.488-1.77,3.575,3.575,0,0,1,1.3-1.26,3.533,3.533,0,0,1,1.786-.464,3.548,3.548,0,0,1,1.385.27,3.69,3.69,0,0,1,1.137.75,3.505,3.505,0,0,1,.774,1.113,3.469,3.469,0,0,1-.2,3.118,3.576,3.576,0,0,1-1.291,1.268,3.523,3.523,0,0,1-1.8.471Zm0-.541a2.908,2.908,0,0,0,1.515-.4A3.161,3.161,0,0,0,6.185,611a2.741,2.741,0,0,0,.418-1.478,2.8,2.8,0,0,0-.418-1.5,3.1,3.1,0,0,0-1.1-1.058,2.974,2.974,0,0,0-1.515-.4,2.96,2.96,0,0,0-1.515.4,3.1,3.1,0,0,0-1.1,1.058,2.756,2.756,0,0,0-.417,1.5A2.7,2.7,0,0,0,.961,611a3.174,3.174,0,0,0,1.1,1.075A2.908,2.908,0,0,0,3.573,612.479ZM2.428,611.32v-3.7H3.789a1.146,1.146,0,0,1,.844.316,1.126,1.126,0,0,1,.317.829.992.992,0,0,1-.332.765,1.179,1.179,0,0,1-.827.3H2.755l.17-.092v1.577h-.5Zm.5-1.81-.156-.093h.866a.874.874,0,0,0,.587-.185.589.589,0,0,0,.216-.464.626.626,0,0,0-.194-.5.851.851,0,0,0-.58-.169H2.706l.216-.124v1.531ZM4.3,611.32l-.6-1.592.464-.141.7,1.733Z" transform="translate(0 -597.088)" fill="#041840"/>
  </g>
</svg>
