<svg width="60" height="4" viewBox="0 0 60 4" fill="none" xmlns="http://www.w3.org/2000/svg">
<path d="M0 3.50106C14.6935 1.55702 29.4822 0.415994 44.3 0.0830625C44.963 0.0770625 48.335 0.0390625 48.931 0.0390625C50.636 0.0650625 52.791 0.0650625 54.495 0.110063C55.173 0.132063 58.404 0.247062 59.132 0.272062C59.206 0.27289 59.279 0.288711 59.3467 0.318571C59.4144 0.348431 59.4753 0.391708 59.5258 0.445785C59.5762 0.499862 59.6152 0.563615 59.6403 0.633189C59.6655 0.702763 59.6762 0.776712 59.672 0.850562C59.6677 0.924413 59.6485 0.996632 59.6155 1.06285C59.5826 1.12907 59.5365 1.18791 59.4801 1.23582C59.4238 1.28373 59.3583 1.3197 59.2876 1.34157C59.2169 1.36345 59.1426 1.37076 59.069 1.36306L54.46 1.11706C52.766 1.03906 50.62 1.00106 48.923 0.944062C48.351 0.939062 44.955 0.909063 44.3 0.903063C29.4971 0.962996 14.7084 1.83028 0 3.50106Z" fill="#B39D74"/>
</svg>
