<svg width="36" height="36" viewBox="0 0 36 36" fill="none" xmlns="http://www.w3.org/2000/svg">
<path d="M25.5 23.6841L35.149 33.3291L32.881 35.5851L23.25 25.9511C21.3661 27.4664 19.1266 28.4759 16.7436 28.884C14.3605 29.2921 11.9128 29.0853 9.63198 28.2831C6.51581 27.286 3.86907 25.1888 2.18598 22.3831C0.429227 19.5728 -0.301506 16.2414 0.117693 12.9537C0.536892 9.66613 2.08022 6.62467 4.48598 4.3451C7.0451 1.97471 10.3751 0.609675 13.8616 0.501793C17.3482 0.393912 20.7562 1.55046 23.457 3.7581C26.3071 6.17131 28.1119 9.59448 28.4928 13.3095C28.8737 17.0246 27.8011 20.7427 25.5 23.6841ZM25.33 14.7911C25.3351 12.606 24.6919 10.4685 23.4816 8.64922C22.2713 6.82991 20.5485 5.41058 18.5312 4.57091C16.5138 3.73124 14.2927 3.50898 12.149 3.93225C10.0053 4.35553 8.03542 5.40532 6.48864 6.94874C4.94187 8.49215 3.88779 10.4598 3.45985 12.6026C3.03191 14.7453 3.24934 16.9669 4.08462 18.9861C4.9199 21.0052 6.33547 22.7311 8.15214 23.9453C9.96881 25.1596 12.1049 25.8075 14.29 25.8071C15.7385 25.8097 17.1733 25.5268 18.5124 24.9744C19.8514 24.422 21.0685 23.611 22.0938 22.5879C23.1192 21.5648 23.9328 20.3495 24.4881 19.0117C25.0434 17.6738 25.3295 16.2396 25.33 14.7911Z" fill="#B39D74"/>
</svg>
