<svg width="16" height="16" viewBox="0 0 16 16" fill="none" xmlns="http://www.w3.org/2000/svg">
<mask id="mask0_1_2035" style="mask-type:luminance" maskUnits="userSpaceOnUse" x="0" y="0" width="16" height="16">
<path d="M15.524 0.5H0V15.998H15.524V0.5Z" fill="white"/>
</mask>
<g mask="url(#mask0_1_2035)">
<path d="M9.20414e-06 8.2459C-0.00398058 7.22571 0.194383 6.21485 0.583621 5.27183C0.972859 4.3288 1.54524 3.47232 2.26766 2.75196C2.99007 2.03159 3.84816 1.46164 4.79229 1.07508C5.73642 0.688513 6.74783 0.493017 7.76801 0.499901C8.7886 0.48963 9.801 0.682891 10.746 1.06839C11.6911 1.45389 12.5498 2.02389 13.272 2.74508C13.9942 3.46627 14.5655 4.32418 14.9523 5.26868C15.3391 6.21317 15.5338 7.2253 15.525 8.2459C15.5368 9.26668 15.3446 10.2795 14.9596 11.225C14.5747 12.1705 14.0048 13.0296 13.2833 13.7518C12.5619 14.4741 11.7035 15.045 10.7585 15.4311C9.81342 15.8171 8.8008 16.0105 7.78001 15.9999C6.75756 16.0105 5.74323 15.8175 4.79621 15.4319C3.84919 15.0463 2.98845 14.476 2.26422 13.7541C1.53999 13.0323 0.966771 12.1735 0.578024 11.2278C0.189277 10.2821 -0.00721707 9.26838 9.20414e-06 8.2459ZM7.77901 15.0689C8.67201 15.07 9.55644 14.8947 10.3816 14.5533C11.2067 14.2119 11.9564 13.7109 12.5876 13.0792C13.2187 12.4475 13.719 11.6974 14.0597 10.8719C14.4004 10.0465 14.5749 9.1619 14.573 8.2689C14.5883 7.37145 14.4228 6.4801 14.0862 5.64801C13.7496 4.81592 13.2489 4.06014 12.6139 3.42573C11.9789 2.79132 11.2227 2.29128 10.3903 1.95543C9.55794 1.61958 8.66645 1.45479 7.76901 1.4709C6.87398 1.45422 5.98471 1.61753 5.15401 1.95112C4.3233 2.28472 3.56808 2.78181 2.93318 3.41289C2.29828 4.04397 1.79663 4.79617 1.45802 5.62485C1.11941 6.45352 0.950736 7.34178 0.962009 8.2369C0.95578 9.13452 1.12775 10.0244 1.46796 10.8551C1.80816 11.6858 2.30984 12.4407 2.94392 13.0761C3.57799 13.7114 4.33186 14.2147 5.16183 14.5566C5.9918 14.8985 6.88138 15.0723 7.77901 15.0679" fill="#9A7A44"/>
<path d="M8.23801 9.3779C8.23801 9.8959 8.24301 10.4149 8.23801 10.9329C8.23801 11.1329 8.30801 11.2119 8.50801 11.2039C8.74201 11.1939 8.978 11.1949 9.208 11.2039C9.27102 11.1993 9.33429 11.2081 9.39365 11.2297C9.45302 11.2514 9.50715 11.2853 9.55248 11.3293C9.59781 11.3733 9.63332 11.4264 9.65667 11.4851C9.68003 11.5438 9.69071 11.6068 9.688 11.6699C9.6925 11.7335 9.68296 11.7973 9.66005 11.8568C9.63714 11.9164 9.60142 11.9701 9.55544 12.0143C9.50945 12.0585 9.45431 12.092 9.39392 12.1125C9.33354 12.133 9.26938 12.1399 9.20601 12.1329C8.24201 12.1402 7.27801 12.1402 6.31401 12.1329C6.25065 12.139 6.18672 12.1308 6.12692 12.109C6.06712 12.0872 6.01295 12.0523 5.96838 12.0069C5.9238 11.9614 5.88995 11.9066 5.86929 11.8464C5.84864 11.7862 5.84171 11.7221 5.84901 11.6589C5.84586 11.5979 5.85574 11.5368 5.87799 11.4799C5.90023 11.423 5.93433 11.3714 5.97802 11.3287C6.02172 11.2859 6.07401 11.253 6.13142 11.232C6.18883 11.211 6.25004 11.2024 6.31101 11.2069C6.55301 11.1939 6.79701 11.1959 7.04001 11.2069C7.20901 11.2069 7.29501 11.1569 7.29401 10.9739C7.29001 10.1399 7.29001 9.30657 7.29401 8.4739C7.29401 8.2969 7.22201 8.2299 7.04501 8.2419C6.86719 8.25339 6.68882 8.25339 6.51101 8.2419C6.40398 8.24387 6.30036 8.20419 6.22201 8.13125C6.14366 8.05831 6.09669 7.9578 6.091 7.8509C6.06986 7.74631 6.08903 7.63759 6.14466 7.54654C6.2003 7.45548 6.28829 7.38881 6.39101 7.3599C6.58002 7.31999 6.77283 7.30088 6.966 7.3029C7.193 7.2939 7.42 7.2959 7.646 7.3029C8.063 7.3149 8.23201 7.4899 8.23401 7.9029C8.23401 8.3969 8.23401 8.8909 8.23401 9.3849" fill="#9A7A44"/>
<path d="M8.47004 5.33297C8.46864 5.47068 8.42666 5.60492 8.34935 5.71889C8.27203 5.83286 8.16281 5.92148 8.03537 5.97368C7.90792 6.02587 7.76791 6.03931 7.63286 6.01232C7.49782 5.98533 7.37373 5.9191 7.27614 5.82192C7.17856 5.72475 7.1118 5.60094 7.08423 5.46601C7.05667 5.33108 7.06952 5.19101 7.12117 5.06335C7.17283 4.93568 7.26099 4.82609 7.37463 4.74829C7.48827 4.67049 7.62233 4.62795 7.76004 4.62597C7.85369 4.62351 7.94687 4.64009 8.03392 4.67472C8.12098 4.70934 8.2001 4.76127 8.26648 4.82738C8.33287 4.89349 8.38514 4.97238 8.42013 5.05929C8.45512 5.1462 8.4721 5.2393 8.47004 5.33297Z" fill="#9A7A44"/>
</g>
</svg>
