<svg id="Group_109008" data-name="Group 109008" xmlns="http://www.w3.org/2000/svg" xmlns:xlink="http://www.w3.org/1999/xlink" width="81.58" height="63.476" viewBox="0 0 81.58 63.476">
  <defs>
    <clipPath id="clip-path">
      <rect id="Rectangle_52787" data-name="Rectangle 52787" width="81.58" height="63.476" fill="#ae9e79"/>
    </clipPath>
  </defs>
  <g id="Group_109008-2" data-name="Group 109008" clip-path="url(#clip-path)">
    <path id="Path_87571" data-name="Path 87571" d="M81.466,6.773a6.244,6.244,0,0,0-2.285-3.619C75.921.631,66.32-.188,62.214.035c-16.184.87-32,8.932-48.229,7.88C9.146,7.6,1.047,3.713,0,11.2V56.189c.378,4.188,3.938,5.313,7.461,6.169,20.3,4.917,39.861-8.058,60.133-6.747,3.287.214,8.012,2.108,10.953.951a4.773,4.773,0,0,0,3.032-4.238Zm-4.689.146a12.278,12.278,0,0,1,.478,1.338V14.73c-5.581.014-9.428-4.589-9.319-9.993.41-.414,8.244,1.261,8.841,2.181M4.325,11.439c.073-.237.683-.51.979-.505,1.152.009,4.079,1.011,5.559,1.238a18.54,18.54,0,0,1,2.782.291,9.49,9.49,0,0,1-9.319,9.082Zm8.982,47.354c-1.252.187-6.628-1.074-7.9-1.657A2.231,2.231,0,0,1,4.325,55.5V48.8c5.691.159,8.95,4.188,9.319,9.656.032.473,0,.291-.337.341m63.948-6.706c0,1.061-3.464-.173-4.043-.273-.674-.114-5.263-.61-5.281-.879a9.436,9.436,0,0,1,9.323-8.955Zm-.014-14.659c-7.516.155-13.812,5.968-13.616,13.639-2.222.232-4.484.2-6.7.455-13.184,1.5-25.576,7.293-38.969,7.493A13.5,13.5,0,0,0,7.065,44.581c-.437-.091-2.7-.182-2.754-.46L4.338,26.1A13.6,13.6,0,0,0,17.955,12.459c2.222-.232,4.484-.2,6.7-.455C37.817,10.483,50.273,4.811,63.62,4.51V7.8c0,2,2.417,6.073,3.856,7.507,2.7,2.69,6.109,3.587,9.792,4.1Z" transform="translate(0 0)" fill="#ae9e79"/>
    <path id="Path_87572" data-name="Path 87572" d="M73.546,30.975c-6.879.246-10.967,5.3-12.3,11.308l6.6-6.615.4-.405h15.41a12.193,12.193,0,0,0-10.111-4.288" transform="translate(-33.366 -16.868)" fill="#ae9e79"/>
    <path id="Path_87573" data-name="Path 87573" d="M105.147,47.421c-.191-.009-.382-.014-.578-.014H98.81A9.255,9.255,0,0,1,102,50.985h2.422a6.73,6.73,0,0,1,2.609.478l.027.014a16.25,16.25,0,0,0-1.907-4.056" transform="translate(-53.827 -25.825)" fill="#ae9e79"/>
    <path id="Path_87574" data-name="Path 87574" d="M68.476,89.6l-.41-.546-6.278-8.363-.778.756c1.247,6.469,5.6,12.023,13.006,12A12.041,12.041,0,0,0,83.076,89.6Z" transform="translate(-33.236 -43.955)" fill="#ae9e79"/>
    <path id="Path_87575" data-name="Path 87575" d="M105.328,84.581l-.223.068-.31.082h-.009c-.077.018-.164.036-.246.055l-.087.014c-.1.018-.209.036-.319.05s-.2.027-.305.032c-.046,0-.091.009-.137.009a.838.838,0,0,1-.15.014c-.15.009-.305.014-.46.014h-2.622a8.636,8.636,0,0,1-4.1,3.578h6.874c.073,0,.146,0,.219,0a15.877,15.877,0,0,0,2.053-3.974c-.059.023-.118.041-.178.064" transform="translate(-52.493 -46.041)" fill="#ae9e79"/>
    <path id="Path_87576" data-name="Path 87576" d="M64.593,56.8l-.5-.651.587-.569c.373-3.4,1.876-6.542,4.648-8.172h-1.1l-7.93,7.953a20.964,20.964,0,0,0,.014,4.47L61.5,58.674l7.211,9.606h1.466c-3.756-1.762-5.741-6.715-5.586-11.481" transform="translate(-32.79 -25.825)" fill="#ae9e79"/>
    <path id="Path_87577" data-name="Path 87577" d="M67.145,68.28H62.5l-7.211-9.606L54.1,59.83l-1.475,1.434V68.28H48.78V47.407h3.847v9.419l1.461-1.466,7.93-7.953h4.83l-8.381,8.172-.587.569.5.651Z" transform="translate(-26.573 -25.825)" fill="#ae9e79"/>
    <path id="Path_87578" data-name="Path 87578" d="M110.7,53.612a9.831,9.831,0,0,0-2.03-3.31,8.765,8.765,0,0,0-3.146-2.149c-.15-.064-.305-.118-.464-.173-.127-.046-.25-.086-.382-.123-.023-.009-.05-.014-.073-.023l-.091-.027c-.123-.036-.25-.068-.378-.1a.727.727,0,0,0-.1-.023c-.127-.032-.255-.059-.387-.082a1.058,1.058,0,0,0-.127-.023h-.009a2.307,2.307,0,0,0-.246-.041c-.014,0-.027,0-.041,0a2.459,2.459,0,0,0-.264-.036c-.159-.018-.314-.036-.473-.05s-.323-.023-.487-.032c-.191-.009-.382-.014-.578-.014H93.05V68.28h8.381c.073,0,.146,0,.219,0a.441.441,0,0,0,.077,0c.127,0,.255,0,.378-.009.055,0,.109,0,.159-.009.146-.009.287-.018.432-.036s.305-.032.455-.055c.168-.023.337-.05.5-.082.114-.023.232-.046.346-.073.087-.018.173-.036.255-.059.141-.032.278-.073.419-.114s.269-.082.405-.127c.159-.055.314-.109.469-.173a8.718,8.718,0,0,0,3.146-2.131,9.829,9.829,0,0,0,2.012-3.31,12.192,12.192,0,0,0,.715-4.247,12.042,12.042,0,0,0-.715-4.234M107.081,60.7a6.032,6.032,0,0,1-1.225,2.162,5.165,5.165,0,0,1-1.953,1.357c-.064.027-.132.055-.2.077s-.118.041-.178.064l-.223.068-.31.082h-.009c-.077.018-.164.036-.246.055l-.087.014c-.1.018-.209.036-.319.05s-.2.027-.305.032c-.046,0-.091.009-.137.009a.839.839,0,0,1-.15.014c-.15.009-.305.014-.46.014H96.9V50.985h4.384a6.73,6.73,0,0,1,2.609.478l.027.014c.127.055.25.109.373.173a.114.114,0,0,1,.032.018c.027.014.046.023.068.036a.5.5,0,0,1,.068.036,4.454,4.454,0,0,1,.492.305,4.6,4.6,0,0,1,.473.373c.073.064.146.132.214.2s.137.141.2.214A6.157,6.157,0,0,1,107.081,55a8.836,8.836,0,0,1,.432,2.85,8.933,8.933,0,0,1-.432,2.859" transform="translate(-50.69 -25.825)" fill="#ae9e79"/>
  </g>
</svg>
