<svg id="Group_109096" data-name="Group 109096" xmlns="http://www.w3.org/2000/svg" xmlns:xlink="http://www.w3.org/1999/xlink" width="42.521" height="33.483" viewBox="0 0 42.521 33.483">
  <defs>
    <clipPath id="clip-path">
      <rect id="Rectangle_16993" data-name="Rectangle 16993" width="42.521" height="33.483" fill="#ae9e79"/>
    </clipPath>
  </defs>
  <g id="Group_35064" data-name="Group 35064" clip-path="url(#clip-path)">
    <path id="Path_710" data-name="Path 710" d="M33.469,33.483H9.052a1.8,1.8,0,0,0-.273-.075A9.951,9.951,0,0,1,.414,26.342c-.178-.619-.278-1.26-.414-1.89V9.041a1.921,1.921,0,0,0,.075-.275A9.926,9.926,0,0,1,9.851.019q11.411-.041,22.822,0A9.91,9.91,0,0,1,42.2,7.47c.133.517.217,1.047.324,1.571V24.452a1.548,1.548,0,0,0-.072.231,9.805,9.805,0,0,1-6.93,8.337,17.887,17.887,0,0,1-2.051.463M21.276,3.324q-5.585,0-11.17,0a6.628,6.628,0,0,0-6.783,6.756q-.005,6.669,0,13.339a6.627,6.627,0,0,0,6.752,6.747q11.191.008,22.381,0A6.626,6.626,0,0,0,39.2,23.452q.009-6.711,0-13.422a6.822,6.822,0,0,0-.128-1.356,6.612,6.612,0,0,0-6.578-5.347q-5.606-.009-11.211,0" transform="translate(0 0)" fill="#ae9e79"/>
    <path id="Path_711" data-name="Path 711" d="M94.624,137.244a9.891,9.891,0,0,1-6.051-2.045c-2.642-2.028-5.268-4.077-7.9-6.122a1.658,1.658,0,1,1,2.03-2.616q3.774,2.913,7.537,5.842a6.682,6.682,0,0,0,8.66.072q3.928-2.986,7.849-5.98a1.661,1.661,0,0,1,2.733.906,1.613,1.613,0,0,1-.686,1.7l-6.232,4.751c-.659.5-1.315,1.011-1.981,1.5a10.023,10.023,0,0,1-5.963,1.984" transform="translate(-73.315 -115.526)" fill="#ae9e79"/>
  </g>
</svg>
