<svg id="Group_109052" data-name="Group 109052" xmlns="http://www.w3.org/2000/svg" xmlns:xlink="http://www.w3.org/1999/xlink" width="73.342" height="58.667" viewBox="0 0 73.342 58.667">
  <defs>
    <clipPath id="clip-path">
      <rect id="Rectangle_52798" data-name="Rectangle 52798" width="73.342" height="58.666" fill="#ae9e79"/>
    </clipPath>
  </defs>
  <g id="Group_109051" data-name="Group 109051" clip-path="url(#clip-path)">
    <path id="Path_87583" data-name="Path 87583" d="M11.207,36.786H7.094c-3.1,0-6.461-3.1-6.84-6.137C.787,23-.511,14.25.241,6.727.634,2.794,3.892.49,7.635.23,18.178-.5,29.556.8,40.187.23a7.491,7.491,0,0,1,7.4,6.854c-.45,7.363.577,15.39,0,22.673a7.412,7.412,0,0,1-7.229,7.027c-5.537.426-11.554-.346-17.141.041-2.987,1.757-6.1,5.282-9.078,6.824a2,2,0,0,1-2.383-.014,2.461,2.461,0,0,1-.552-.727Zm3.473,1.827c2.761-1.6,5.032-4.321,8.033-5.4,5.811-.607,12.489.531,18.2-.081a3.7,3.7,0,0,0,2.928-2.373,225,225,0,0,0,0-24.5,3.607,3.607,0,0,0-2.931-2.37L7.087,3.885A3.668,3.668,0,0,0,3.705,7.632c.428,7.008-.546,14.643,0,21.577.543,6.888,7.708,1.8,10.343,5.376a10.265,10.265,0,0,1,.632,1.2Z" transform="translate(0 0)" fill="#ae9e79"/>
    <path id="Path_87584" data-name="Path 87584" d="M113.251,77.124v5.939c0,.516-.956,1.209-1.457,1.3a2.376,2.376,0,0,1-1.478-.378c-3.022-1.566-6.158-5.134-9.225-6.859-4.7-.606-13.284,1.279-17.254-1.208-1.217-.762-3.306-3.3-3.306-4.735V66.159H84v3.929c0,.067.3,1.139.356,1.289a3.66,3.66,0,0,0,2.521,2.048c4.6.381,9.672-.356,14.221.037,3.072.266,5.959,4.112,8.676,5.489V76.118a5.869,5.869,0,0,1,.841-1.535c2.556-2.681,8.45.963,9.9-3.63a239.929,239.929,0,0,0-.037-24.354c-.219-.849-1.728-2.369-2.565-2.369H102.467V40.575h14.9c3.327,0,6.8,3.527,6.861,6.847-.4,7.343.513,15.212,0,22.492-.249,3.544-3.042,7.21-6.863,7.21Z" transform="translate(-51.045 -25.719)" fill="#ae9e79"/>
    <path id="Path_87585" data-name="Path 87585" d="M54.731,34.645c-.864.851-2.83.529-3.046-.782a10.265,10.265,0,0,1,0-2.173c.246-1.5,4.894-2.649,5.057-4.051a1.5,1.5,0,0,0-.959-1.527,39.1,39.1,0,0,0-5.3-.005c-.719.135-.512,1.276-1.376,1.54-3.392,1.034-3.255-3.178-.585-4.6,1.505-.8,5.494-.764,7.24-.574A4.96,4.96,0,0,1,58.342,31.4c-.7.553-2.65,1.349-3.012,1.74-.292.315-.251,1.16-.6,1.5" transform="translate(-29.499 -14.174)" fill="#ae9e79"/>
    <path id="Path_87586" data-name="Path 87586" d="M60.383,64.643c4.347-.244,3.242,6.7-1,4.925a2.553,2.553,0,0,1,1-4.925" transform="translate(-36.608 -40.97)" fill="#ae9e79"/>
  </g>
</svg>
