<svg id="Group_109049" data-name="Group 109049" xmlns="http://www.w3.org/2000/svg" xmlns:xlink="http://www.w3.org/1999/xlink" width="253.175" height="14.691" viewBox="0 0 253.175 14.691">
  <defs>
    <clipPath id="clip-path">
      <rect id="Rectangle_52783" data-name="Rectangle 52783" width="253.175" height="14.691" fill="#b39d74"/>
    </clipPath>
  </defs>
  <g id="Group_108998" data-name="Group 108998" transform="translate(0 0)" clip-path="url(#clip-path)">
    <path id="Path_87556" data-name="Path 87556" d="M0,14.691A1729.446,1729.446,0,0,1,187.976.188C190.8.162,205.113.02,207.645,0c7.237.109,16.381.111,23.613.3,2.876.1,16.586.582,19.679.686a2.32,2.32,0,1,1-.266,4.63c-3.112-.168-16.825-.9-19.557-1.043-7.2-.323-16.3-.492-23.5-.734-2.428-.026-16.839-.15-19.606-.174A1727.567,1727.567,0,0,0,0,14.691" transform="translate(0 0)" fill="#b39d74"/>
  </g>
</svg>
