<svg id="Group_109052" data-name="Group 109052" xmlns="http://www.w3.org/2000/svg" xmlns:xlink="http://www.w3.org/1999/xlink" width="110.685" height="88.536" viewBox="0 0 110.685 88.536">
  <defs>
    <clipPath id="clip-path">
      <rect id="Rectangle_52798" data-name="Rectangle 52798" width="110.685" height="88.536" fill="#ae9e79"/>
    </clipPath>
  </defs>
  <g id="Group_109051" data-name="Group 109051" clip-path="url(#clip-path)">
    <path id="Path_87583" data-name="Path 87583" d="M16.913,55.515H10.706c-4.677,0-9.751-4.682-10.322-9.262.8-11.547-1.155-24.749-.02-36.1C.957,4.217,5.873.739,11.522.347c15.911-1.1,33.082.859,49.126,0A11.305,11.305,0,0,1,71.82,10.691c-.679,11.111.871,23.226,0,34.217-.488,6.167-4.868,10.14-10.91,10.6-8.355.643-17.436-.522-25.869.062-4.507,2.652-9.209,7.971-13.7,10.3-1.269.658-2.352.91-3.6-.02a3.714,3.714,0,0,1-.833-1.1Zm5.242,2.758c4.166-2.413,7.593-6.521,12.123-8.15,8.77-.916,18.848.8,27.464-.122a5.588,5.588,0,0,0,4.418-3.581,339.557,339.557,0,0,0,0-36.97,5.443,5.443,0,0,0-4.423-3.576l-51.047-.01c-3.136.28-4.926,2.612-5.1,5.655.645,10.577-.824,22.1,0,32.563C6.412,54.475,17.225,46.8,21.2,52.194a15.491,15.491,0,0,1,.953,1.8Z" transform="translate(0 0)" fill="#ae9e79"/>
    <path id="Path_87584" data-name="Path 87584" d="M129.911,95.732V104.7c0,.779-1.442,1.825-2.2,1.963a3.585,3.585,0,0,1-2.23-.57c-4.561-2.363-9.293-7.748-13.922-10.351-7.091-.915-20.047,1.93-26.039-1.823-1.837-1.15-4.99-4.979-4.99-7.146V79.185h5.241v5.93c0,.1.446,1.719.537,1.946a5.523,5.523,0,0,0,3.805,3.09c6.949.575,14.6-.537,21.461.056,4.636.4,8.993,6.206,13.094,8.284V94.215a8.858,8.858,0,0,1,1.269-2.317c3.857-4.046,12.752,1.454,14.935-5.478a362.092,362.092,0,0,0-.056-36.754c-.33-1.281-2.608-3.576-3.871-3.576H113.635V40.575h22.483c5.021,0,10.258,5.323,10.355,10.333-.607,11.082.774,22.957,0,33.943-.375,5.348-4.59,10.881-10.357,10.881Z" transform="translate(-36.032 -18.154)" fill="#ae9e79"/>
    <path id="Path_87585" data-name="Path 87585" d="M58.9,40.9c-1.3,1.284-4.271.8-4.6-1.18a15.491,15.491,0,0,1,0-3.28c.371-2.257,7.385-4,7.631-6.114a2.257,2.257,0,0,0-1.448-2.3,59.014,59.014,0,0,0-7.994-.008c-1.085.2-.772,1.926-2.077,2.324-5.12,1.56-4.912-4.8-.882-6.937,2.272-1.206,8.291-1.153,10.926-.866A7.485,7.485,0,0,1,64.35,36c-1.05.835-4,2.036-4.545,2.626-.44.476-.379,1.751-.9,2.268" transform="translate(-20.823 -10.005)" fill="#ae9e79"/>
    <path id="Path_87586" data-name="Path 87586" d="M61.72,64.646c6.56-.369,4.892,10.114-1.5,7.432-4.133-1.733-2.671-7.2,1.5-7.432" transform="translate(-25.841 -28.92)" fill="#ae9e79"/>
  </g>
</svg>
