<svg xmlns="http://www.w3.org/2000/svg" xmlns:xlink="http://www.w3.org/1999/xlink" width="1920" height="850" viewBox="0 0 1920 850">
  <defs>
    <clipPath id="clip-path">
      <path id="Rectangle_52805" data-name="Rectangle 52805" d="M415,0H1920a0,0,0,0,1,0,0V850a0,0,0,0,1,0,0H0a0,0,0,0,1,0,0V415A415,415,0,0,1,415,0Z" transform="translate(0 4600)" fill="#fff" opacity="0.713"/>
    </clipPath>
  </defs>
  <g id="Footer_Pattern" transform="translate(0 -4600)" clip-path="url(#clip-path)">
    <g id="Group_109073" data-name="Group 109073" transform="translate(-1010.062 4335.088)" opacity="0.354">
      <path id="Path_67927" data-name="Path 67927" d="M539.857,633.3l487.834-487.834L905.565,23.319a79.581,79.581,0,0,0-112.525,0L539.819,276.558,349.733,86.471,335.89,426.584Z" transform="translate(2702.695 32.414)" fill="rgba(199,217,228,0.43)"/>
      <path id="Path_67928" data-name="Path 67928" d="M285.014,430.819,152.527,298.332,411.3,39.56,589.687,217.948l-212.87,212.87a64.923,64.923,0,0,1-91.8,0" transform="translate(2372.425 727.076)" fill="rgba(199,217,228,0.43)" opacity="0.194"/>
      <rect id="Rectangle_38525" data-name="Rectangle 38525" width="331.217" height="252.279" transform="translate(2806.908 743.457) rotate(-45)" fill="rgba(199,217,228,0.43)" opacity="0.194"/>
      <path id="Path_67929" data-name="Path 67929" d="M1384.807,23.61a80.613,80.613,0,0,0-113.992,0L489.783,804.642,462.6,777.458,282.368,954l29.027,29.027-.112.093,121.7,121.7a80.2,80.2,0,0,0,113.4,0l959.81-959.829Z" transform="translate(1813.833 32.143)" fill="rgba(199,217,228,0.43)" opacity="0.532"/>
      <path id="Path_67930" data-name="Path 67930" d="M1558.048,145.076,1436.517,23.564a80.378,80.378,0,0,0-113.714,0L541.956,804.372,329.569,592a80.322,80.322,0,0,0-113.584,0L94.379,713.572,485.285,1104.5a80.288,80.288,0,0,0,113.584,0L720.474,982.891l-.111-.13Z" transform="translate(1350.85 32.061)" fill="rgba(199,217,228,0.43)"/>
    </g>
  </g>
</svg>
