<svg width="44" height="44" viewBox="0 0 44 44" fill="none" xmlns="http://www.w3.org/2000/svg">
<path opacity="0.629" d="M36.894 38.4329C42.059 33.6129 44.354 25.5789 42.977 17.8889H22.433V26.3819H34.139C33.911 27.717 33.405 28.9893 32.6537 30.1163C31.9024 31.2433 30.9227 32.1999 29.778 32.9239L36.894 38.4329Z" fill="#4F717E"/>
<path opacity="0.968" d="M2.922 31.6621C4.43186 34.6362 6.59716 37.2287 9.25467 39.2443C11.9122 41.2599 14.9926 42.6459 18.2636 43.2978C21.5347 43.9498 24.9111 43.8507 28.1383 43.008C31.3655 42.1653 34.3593 40.601 36.894 38.4331L29.778 32.9241C28.0925 34.015 26.1797 34.7056 24.1861 34.9429C22.1925 35.1803 20.171 34.9581 18.2766 34.2934C16.3821 33.6287 14.6649 32.5391 13.2566 31.1082C11.8484 29.6772 10.7864 27.9429 10.152 26.0381L2.922 31.6621Z" fill="#4F717E"/>
<path opacity="0.71" d="M10.152 26.0361C9.23388 23.3189 9.23388 20.3753 10.152 17.6581L2.92201 12.0361C1.41602 15.0881 0.63269 18.4458 0.63269 21.8491C0.63269 25.2525 1.41602 28.6101 2.92201 31.6621L10.152 26.0361Z" fill="#4F717E"/>
<path opacity="0.359" d="M10.152 17.66C12.677 9.74101 23.465 5.15001 30.696 11.922L37.008 5.72201C34.5332 3.44465 31.5623 1.77453 28.3305 0.843847C25.0987 -0.0868372 21.6946 -0.252546 18.3876 0.359831C15.0807 0.972208 11.9616 2.34587 9.27734 4.37209C6.59305 6.39832 4.41721 9.02149 2.922 12.034L10.152 17.66Z" fill="#4F717E"/>
</svg>
