<svg xmlns="http://www.w3.org/2000/svg" width="219" height="62" viewBox="0 0 219 62">
  <g id="Group_108995" data-name="Group 108995" transform="translate(-1397 -1639)">
    <g id="play-store" transform="translate(1400.447 1638.451)">
      <path id="Path_554" data-name="Path 554" d="M1701.34,281.384a4.746,4.746,0,0,1-3.546-1.467,4.992,4.992,0,0,1-1.431-3.577,4.883,4.883,0,0,1,1.431-3.574,4.731,4.731,0,0,1,3.539-1.467,4.8,4.8,0,0,1,3.546,1.467,5.178,5.178,0,0,1,0,7.147A4.706,4.706,0,0,1,1701.34,281.384Zm-42,0a4.921,4.921,0,0,1-3.559-1.447,5.039,5.039,0,0,1,3.559-8.634,4.964,4.964,0,0,1,1.986.413,4.017,4.017,0,0,1,1.512,1.081l.094.112-1.054,1.034-.109-.128a3,3,0,0,0-2.445-1.054,3.382,3.382,0,0,0-2.438.993,3.781,3.781,0,0,0,0,5.18,3.565,3.565,0,0,0,4.943,0,2.7,2.7,0,0,0,.709-1.621h-3.38v-1.454h4.83l.02.132a5.347,5.347,0,0,1,.071.73,4.379,4.379,0,0,1-1.205,3.228,4.706,4.706,0,0,1-3.532,1.434Zm55.848-.206H1713.7l-4.562-7.3.038,1.315v5.981h-1.489v-9.663h1.7l.047.074,4.289,6.875-.038-1.311v-5.639h1.5Zm-25.036,0h-1.512v-8.214h-2.617v-1.454h6.74v1.454h-2.617v8.214Zm-5.356,0h-1.505v-9.668h1.505Zm-8.458,0h-1.5v-8.214h-2.617v-1.454h6.739v1.454h-2.617Zm-5.075-.016h-5.771v-9.652h5.771v1.454H1667v2.652h3.847v1.438H1667v2.652h4.262Zm27.642-2.244a3.33,3.33,0,0,0,2.438,1.011,3.245,3.245,0,0,0,2.438-1.011,3.83,3.83,0,0,0,0-5.149,3.336,3.336,0,0,0-2.438-1.011,3.232,3.232,0,0,0-2.435,1.011,3.838,3.838,0,0,0-.007,5.149Z" transform="translate(-1589.978 -260.75)" fill="#577c8c"/>
      <path id="Path_555" data-name="Path 555" d="M1688.866,690.364A6.634,6.634,0,1,0,1695.52,697a6.524,6.524,0,0,0-6.653-6.635Zm0,10.638a4.031,4.031,0,1,1,3.74-4.021,3.84,3.84,0,0,1-3.74,4.024Zm-14.517-10.638A6.634,6.634,0,1,0,1681,697a6.524,6.524,0,0,0-6.654-6.635Zm0,10.638a4.031,4.031,0,1,1,3.741-4.021,3.839,3.839,0,0,1-3.742,4.024Zm-17.274-8.614V695.2h6.739a5.919,5.919,0,0,1-1.525,3.535,6.877,6.877,0,0,1-5.2,2.061,7.486,7.486,0,0,1,0-14.972,7.194,7.194,0,0,1,5.075,2.01l1.986-1.986a9.786,9.786,0,0,0-7.051-2.837,10.294,10.294,0,1,0,0,20.589,9.423,9.423,0,0,0,7.191-2.894,9.318,9.318,0,0,0,2.442-6.584,8.663,8.663,0,0,0-.154-1.75h-9.512l.008.023Zm70.656,2.186a6.166,6.166,0,0,0-5.682-4.227,6.3,6.3,0,0,0-6.254,6.634,6.485,6.485,0,0,0,6.584,6.634,6.586,6.586,0,0,0,5.532-2.944l-2.251-1.5A3.773,3.773,0,0,1,1722.4,701a3.389,3.389,0,0,1-3.224-2.011l8.871-3.675-.312-.742Zm-9.047,2.217a3.641,3.641,0,0,1,3.465-3.865,2.554,2.554,0,0,1,2.462,1.4Zm-7.205,6.428h2.913V683.73h-2.916Zm-4.783-11.383h-.1a4.6,4.6,0,0,0-3.5-1.489,6.634,6.634,0,0,0,0,13.258,4.582,4.582,0,0,0,3.5-1.509h.1v.953c0,2.532-1.353,3.9-3.535,3.9a3.678,3.678,0,0,1-3.344-2.356l-2.532,1.058a6.332,6.332,0,0,0,5.872,3.916c3.414,0,6.308-2.01,6.308-6.915v-11.9h-2.753v1.092ZM1703.352,701a4.034,4.034,0,0,1,0-8.038,3.731,3.731,0,0,1,3.535,4.037,3.688,3.688,0,0,1-3.535,4Zm38.013-17.274H1734.4v19.491h2.913v-7.376h4.057a6.064,6.064,0,1,0,0-12.11Zm.085,9.388h-4.142v-6.689h4.142a3.345,3.345,0,0,1,0,6.689Zm17.986-2.789a5.485,5.485,0,0,0-5.2,2.979l2.581,1.074a2.77,2.77,0,0,1,2.653-1.438,2.813,2.813,0,0,1,3.068,2.512v.206a6.519,6.519,0,0,0-3.034-.746c-2.789,0-5.615,1.525-5.615,4.383a4.5,4.5,0,0,0,4.834,4.3,4.1,4.1,0,0,0,3.706-1.905h.1V703.2h2.808v-7.466c.007-3.478-2.576-5.4-5.9-5.4ZM1759.07,701c-.952,0-2.287-.467-2.287-1.665,0-1.509,1.664-2.081,3.083-2.081a5.058,5.058,0,0,1,2.653.657,3.506,3.506,0,0,1-3.444,3.092Zm16.517-10.259-3.345,8.455h-.1l-3.465-8.455h-3.135l5.2,11.818-2.963,6.568h3.032l8-18.386Zm-26.219,12.482h2.913V683.73h-2.913Z" transform="translate(-1582.618 -656.436)" fill="#577c8c" fill-rule="evenodd"/>
      <path id="Path_556" data-name="Path 556" d="M400.811,299.5a3.159,3.159,0,0,0-.709,2.2v34.482a3.007,3.007,0,0,0,.728,2.181l.121.1,19.32-19.32v-.426L400.935,299.4Z" transform="translate(-384.543 -287.757)" fill="#577c8c" fill-rule="evenodd"/>
      <path id="Path_557" data-name="Path 557" d="M924.744,643.834l-6.444-6.444v-.451l6.444-6.444.142.085,7.622,4.332c2.182,1.228,2.182,3.262,0,4.5l-7.622,4.332Z" transform="translate(-882.588 -605.982)" fill="#577c8c" fill-rule="evenodd" opacity="0.535"/>
      <path id="Path_558" data-name="Path 558" d="M444.424,808.584,437.84,802,418.4,821.44a2.553,2.553,0,0,0,3.24.1l22.785-12.961" transform="translate(-402.128 -770.813)" fill="#577c8c" fill-rule="evenodd" opacity="0.69"/>
      <path id="Path_559" data-name="Path 559" d="M444.424,299.949,421.64,287.006a2.526,2.526,0,0,0-3.24.1l19.44,19.42Z" transform="translate(-402.128 -275.343)" fill="#577c8c" fill-rule="evenodd" opacity="0.861"/>
      <path id="Path_560" data-name="Path 560" d="M444.669,967.7,422.04,980.556a2.567,2.567,0,0,1-3.12.016l-.121.121.121.1a2.574,2.574,0,0,0,3.12-.016l22.785-12.943Z" transform="translate(-402.513 -930.068)" fill="#577c8c" fill-rule="evenodd" opacity="0.2"/>
      <path id="Path_561" data-name="Path 561" d="M1091.281,804.025l-7.781,4.418.142.142,7.622-4.332a2.732,2.732,0,0,0,1.63-2.251A2.806,2.806,0,0,1,1091.281,804.025Z" transform="translate(-1041.364 -770.812)" fill="#577c8c" fill-rule="evenodd" opacity="0.12"/>
      <path id="Path_562" data-name="Path 562" d="M404.052,287.06l30.407,17.274a2.865,2.865,0,0,1,1.63,2.025,2.732,2.732,0,0,0-1.63-2.251l-30.407-17.274c-2.181-1.248-3.952-.206-3.952,2.286v.226C400.1,286.851,401.869,285.826,404.052,287.06Z" transform="translate(-384.54 -275.173)" fill="#577c8c" fill-rule="evenodd" opacity="0.25"/>
    </g>
    <g id="Rectangle_52781" data-name="Rectangle 52781" transform="translate(1397 1639)" fill="none" stroke="rgba(87,124,140,0.43)" stroke-width="1.5">
      <rect width="219" height="62" rx="17" stroke="none"/>
      <rect x="0.75" y="0.75" width="217.5" height="60.5" rx="16.25" fill="none"/>
    </g>
  </g>
</svg>
