<svg xmlns="http://www.w3.org/2000/svg" width="21.88" height="18.026" viewBox="0 0 21.88 18.026">
  <path id="showpass" d="M13.041,5.25c-3.066,0-5.75,2.218-7.595,4.271a25.953,25.953,0,0,0-2.214,2.861c-.261.39-.465.716-.6.947-.07.116-.124.207-.161.271l-.043.075-.012.021,0,.006-.3.579.3.542v0l0,.006.012.021.043.075c.037.064.091.156.161.271.14.231.343.557.6.947a25.953,25.953,0,0,0,2.214,2.861c1.844,2.052,4.529,4.271,7.595,4.271s5.75-2.218,7.595-4.271a25.947,25.947,0,0,0,2.214-2.861c.261-.39.465-.716.6-.947.07-.116.124-.207.161-.271l.043-.075.012-.021,0-.006,0,0,.311-.559-.311-.56v0l0-.006-.012-.021-.043-.075c-.037-.064-.091-.156-.161-.271-.14-.231-.343-.557-.6-.947a25.947,25.947,0,0,0-2.214-2.861C18.791,7.468,16.106,5.25,13.041,5.25ZM4.52,14.885c-.158-.236-.293-.447-.4-.622.109-.175.244-.385.4-.622a24.055,24.055,0,0,1,2.049-2.647c1.755-1.953,4.044-3.741,6.472-3.741s4.716,1.788,6.472,3.741a24.053,24.053,0,0,1,2.049,2.647c.158.236.293.447.4.622-.11.175-.244.385-.4.622a24.051,24.051,0,0,1-2.049,2.647c-1.755,1.953-4.044,3.741-6.472,3.741s-4.716-1.788-6.472-3.741A24.053,24.053,0,0,1,4.52,14.885Zm11.007-.622a2.783,2.783,0,0,1-2.487,3,2.783,2.783,0,0,1-2.487-3,2.783,2.783,0,0,1,2.487-3A2.783,2.783,0,0,1,15.527,14.263Zm1.658,0c0,2.766-1.855,5.007-4.144,5.007S8.9,17.029,8.9,14.263s1.855-5.007,4.144-5.007S17.185,11.5,17.185,14.263Z" transform="translate(-2.105 -5.25)" fill="#577c8d" fill-rule="evenodd"/>
</svg>
