<svg id="Group_109145" data-name="Group 109145" xmlns="http://www.w3.org/2000/svg" xmlns:xlink="http://www.w3.org/1999/xlink" width="27.499" height="27.349" viewBox="0 0 27.499 27.349">
  <defs>
    <clipPath id="clip-path">
      <rect id="Rectangle_35244" data-name="Rectangle 35244" width="27.499" height="27.349" fill="#34515c"/>
    </clipPath>
  </defs>
  <g id="Group_96757" data-name="Group 96757" transform="translate(0 0)" clip-path="url(#clip-path)">
    <path id="Path_61031" data-name="Path 61031" d="M27.5,13.66c-.114.1-.195.162-.266.233q-1.794,1.79-3.588,3.579a.5.5,0,0,0-.159.4c.007,1.731,0,3.461.01,5.192,0,.252-.055.329-.319.327-1.71-.013-3.42,0-5.13-.009a.544.544,0,0,0-.432.174C16.4,24.785,15.169,26,13.952,27.233c-.149.151-.223.154-.383.005-.872-.812-1.666-1.7-2.519-2.531-.32-.311-.653-.613-.942-.952a1.1,1.1,0,0,0-.916-.374c-1.617,0-3.235,0-4.852.007-.246,0-.305-.068-.3-.308.01-1.679,0-3.358.01-5.037a.753.753,0,0,0-.233-.569C2.743,16.4,1.676,15.328.6,14.265c-.158-.156-.336-.3-.5-.45-.108-.1-.142-.168-.014-.291,1.153-1.117,2.247-2.293,3.432-3.378a1.484,1.484,0,0,0,.538-1.208c-.033-1.565-.007-3.132-.018-4.7,0-.232.059-.291.29-.29,1.7.01,3.4,0,5.1.01a.607.607,0,0,0,.482-.194C11.1,2.566,12.3,1.378,13.483.175c.205-.208.345-.258.545,0a12.518,12.518,0,0,0,1.3,1.34c.808.761,1.576,1.562,2.366,2.341a.447.447,0,0,0,.367.1c1.71,0,3.42.005,5.13-.005.24,0,.312.058.308.3-.025,1.75.016,3.5-.019,5.252,0,.243.238.411.405.579q1.733,1.742,3.476,3.473a1.122,1.122,0,0,0,.141.1M18.143,5a1.277,1.277,0,0,0,.232.216c.555.556.73.525.135,1.132-.415.423-.408.43-1.055.1-.439-.222-.439-.222-.606.244Q15.8,9.611,14.76,12.527c-.017.046-.088.1-.014.161s.115-.014.165-.032c.5-.176,1-.365,1.5-.539.957-.331,1.909-.679,2.862-1.02.5-.178,1.006-.36,1.5-.562.425-.173.48-.262.187-.643a1.639,1.639,0,0,1-.158-.255c-.182-.358-.171-.449.15-.652a2.014,2.014,0,0,0,.364-.323.313.313,0,0,1,.52,0,2.106,2.106,0,0,0,.609.533c0-1.362,0-2.688,0-4.013,0-.158-.071-.185-.207-.184-1.348,0-2.7,0-4.1,0M23,16.633a.329.329,0,0,0,.088-.04c.933-.931,1.862-1.866,2.8-2.791.156-.153.054-.217-.042-.313Q24.527,12.17,23.2,10.85c-.046-.046-.078-.125-.192-.109,0,.284,0,.57,0,.856,0,.133-.035.185-.179.225-.339.094-.69.012-1.028.106a.15.15,0,0,1-.2-.174c.023-.32-.179-.573-.244-.866-.035-.158-.094-.134-.213-.086-.472.192-.935.409-1.394.624-.592.278-1.17.591-1.762.875-.839.4-1.68.8-2.518,1.2-.085.041-.223.06-.226.164s.135.138.224.18c.808.386,1.619.765,2.425,1.155q1.6.77,3.185,1.553c.17.084.243.071.285-.138.05-.254.179-.494.225-.748.032-.178.1-.226.261-.216.336.023.671.048,1.007.061.14.006.137.089.136.186,0,.305,0,.61,0,.93M22.451,18.1a3.126,3.126,0,0,0-.58.53.328.328,0,0,1-.474.055c-.254-.157-.41-.423-.674-.568-.135-.074-.09-.158-.006-.269a3.171,3.171,0,0,0,.278-.5c.194-.384.186-.4-.228-.537-.778-.267-1.557-.533-2.333-.81-1.166-.415-2.33-.839-3.494-1.26-.059-.021-.12-.058-.169-.008s.016.11.034.162q.376,1.068.756,2.134c.46,1.29.924,2.578,1.375,3.871.066.189.135.213.295.118.249-.148.508-.28.755-.431.085-.052.14-.106.225,0,.2.245.4.485.61.722.126.144.136.248-.022.395a3.292,3.292,0,0,0-.613.655c1.362,0,2.69,0,4.017,0,.182,0,.253-.043.251-.24-.008-1.318,0-2.635,0-4.024M16.786,4.428c-.99-.992-1.931-1.928-2.861-2.873-.158-.16-.255-.143-.4.009-.289.307-.594.6-.892.9q-.852.852-1.7,1.7c-.053.053-.163.1-.119.191s.147.042.223.044c.226.006.453.006.679,0,.126,0,.187.035.188.174a4.08,4.08,0,0,0,.059.945.211.211,0,0,1-.217.288,4.051,4.051,0,0,0-.7.189c-.207.045-.213.157-.128.331.352.726.7,1.456,1.04,2.185Q12.781,10.255,13.6,12c.033.07.047.171.149.176s.095-.1.12-.153c.892-1.918,1.795-3.829,2.757-5.713.044-.086.1-.2-.048-.249-.243-.082-.434-.287-.73-.252-.227.027-.38-.08-.365-.36a4,4,0,0,0,.067-.79c-.025-.176.05-.236.224-.231.315.01.632,0,1.01,0M4.526,10.717a.392.392,0,0,0-.259.165c-.912.906-1.82,1.818-2.739,2.717-.108.106-.029.134.02.184q1.384,1.389,2.772,2.774c.034.034.066.089.126.069.079-.027.053-.1.054-.158,0-.226.005-.453,0-.679,0-.128.018-.184.173-.219.286-.064.574-.013.853-.058.259-.042.357.087.368.291a3.123,3.123,0,0,0,.183.572c.056.237.164.212.329.134.562-.267,1.128-.527,1.691-.795,1.409-.67,2.817-1.342,4.241-2.021a8.632,8.632,0,0,0-1.308-.638c-1.209-.6-2.438-1.163-3.659-1.74-.319-.151-.64-.3-.958-.451-.177-.085-.3-.079-.356.144a5.24,5.24,0,0,0-.2.691c-.024.223-.131.232-.3.24-.278.013-.548-.056-.822-.061-.165,0-.214-.059-.21-.216.008-.307,0-.614,0-.944M16.739,22.924c-.341,0-.636,0-.932,0-.09,0-.195.021-.193-.126,0-.326-.091-.645-.067-.975.012-.16.048-.231.225-.254a3.451,3.451,0,0,0,.6-.177c.229-.075.337-.171.194-.449-.4-.773-.764-1.563-1.139-2.348-.516-1.081-1.027-2.164-1.544-3.244-.035-.072-.02-.206-.148-.193-.092.009-.108.117-.141.187-.435.921-.864,1.846-1.3,2.767q-.687,1.457-1.384,2.91c-.082.172-.1.273.14.322s.472.176.715.226c.162.033.209.1.2.245-.025.293-.024.59-.033.881-.007.23-.069.229-.225.227-.206,0-.412-.011-.618-.008-.087,0-.207-.051-.251.052s.073.154.134.216c.664.674,1.337,1.341,1.994,2.023a5.6,5.6,0,0,1,.758.732l3.013-3.012M12.788,12.688c-.746-2.075-1.478-4.1-2.194-6.121-.1-.27-.2-.311-.432-.164-.251.158-.539.433-.773.4-.277-.041-.416-.447-.648-.665a1,1,0,0,1-.1-.115c-.092-.117-.143-.216.018-.34a4.116,4.116,0,0,0,.46-.456c.052-.055.16-.094.115-.193-.036-.079-.128-.041-.195-.041-1.236,0-2.472,0-3.708-.005-.186,0-.259.045-.244.241.041.54.043,1.087.034,1.623-.012.706,0,1.413-.02,2.119,0,.069-.05.163.073.228.2-.2.4-.408.6-.621.1-.105.149-.1.27-.01a8.383,8.383,0,0,0,.741.63c.107.065.135.134.033.268-.157.207-.251.461-.392.681-.128.2-.047.291.136.356.426.15.853.3,1.277.449,1.283.465,2.562.943,3.85,1.394a5.656,5.656,0,0,0,1.1.345M5.113,18.12c-.077.075-.048.151-.049.219,0,1.236.007,2.472-.008,3.708,0,.258.088.3.315.3,1.195-.01,2.39,0,3.584-.007.094,0,.233.061.276-.052s-.1-.163-.166-.232c-.573-.583-.574-.581,0-1.185a2.634,2.634,0,0,0,.213-.223c.09-.121.175-.084.277-.022.223.137.447.274.678.395a.181.181,0,0,0,.288-.122c.092-.286.195-.569.3-.852.6-1.679,1.21-3.356,1.806-5.037.029-.082.135-.185.048-.272s-.2.023-.28.052c-.989.347-1.972.714-2.959,1.068q-1.45.52-2.907,1.021c-.184.063-.189.157-.125.3a4.567,4.567,0,0,0,.4.706c.052.077.155.173.008.283-.235.175-.464.359-.681.556-.185.168-.326.159-.47-.044a2.764,2.764,0,0,0-.549-.556" transform="translate(0 0)" fill="#34515c"/>
  </g>
</svg>
