<svg id="Group_109145" data-name="Group 109145" xmlns="http://www.w3.org/2000/svg" xmlns:xlink="http://www.w3.org/1999/xlink" width="34.526" height="34.338" viewBox="0 0 34.526 34.338">
  <defs>
    <clipPath id="clip-path">
      <rect id="Rectangle_35244" data-name="Rectangle 35244" width="34.526" height="34.338" fill="#34515c"/>
    </clipPath>
  </defs>
  <g id="Group_96757" data-name="Group 96757" transform="translate(0 0)" clip-path="url(#clip-path)">
    <path id="Path_61031" data-name="Path 61031" d="M34.526,17.151c-.143.125-.244.2-.334.293q-2.252,2.248-4.505,4.494a.625.625,0,0,0-.2.5c.008,2.173,0,4.346.013,6.519,0,.316-.069.413-.4.411-2.147-.016-4.294-.006-6.441-.012a.683.683,0,0,0-.542.219c-1.528,1.545-3.071,3.074-4.6,4.619-.187.189-.28.194-.481.007-1.095-1.02-2.092-2.135-3.163-3.178-.4-.391-.82-.77-1.182-1.2a1.375,1.375,0,0,0-1.15-.47c-2.031,0-4.061-.005-6.092.009-.309,0-.383-.085-.381-.386.013-2.108,0-4.217.013-6.325a.945.945,0,0,0-.293-.715C3.443,20.594,2.1,19.245.749,17.911c-.2-.2-.421-.373-.628-.565-.136-.126-.178-.21-.017-.366,1.447-1.4,2.822-2.879,4.309-4.241a1.863,1.863,0,0,0,.676-1.517c-.042-1.965-.009-3.932-.022-5.9,0-.291.073-.366.364-.364,2.134.013,4.268,0,6.4.013a.763.763,0,0,0,.606-.243c1.492-1.508,3-3,4.49-4.509.257-.261.433-.324.684,0A15.717,15.717,0,0,0,19.241,1.9c1.015.956,1.979,1.961,2.97,2.939a.561.561,0,0,0,.46.13c2.147,0,4.294.007,6.441-.006.3,0,.392.073.387.382-.031,2.2.02,4.4-.023,6.594-.006.305.3.516.509.728q2.176,2.187,4.365,4.361a1.408,1.408,0,0,0,.177.126M22.78,6.28a1.6,1.6,0,0,0,.292.271c.7.7.916.659.17,1.421-.521.532-.512.54-1.325.13-.551-.279-.551-.278-.76.306q-1.314,3.66-2.625,7.321c-.021.058-.111.132-.018.2.078.059.144-.018.207-.04.631-.221,1.257-.458,1.889-.677,1.2-.416,2.4-.853,3.593-1.28.627-.224,1.263-.452,1.885-.705.534-.217.6-.329.234-.808a2.058,2.058,0,0,1-.2-.321c-.228-.449-.215-.563.188-.819a2.529,2.529,0,0,0,.457-.406.393.393,0,0,1,.653,0,2.644,2.644,0,0,0,.765.67c0-1.71,0-3.374,0-5.039,0-.2-.089-.232-.259-.231-1.693,0-3.386,0-5.151,0m6.1,14.6a.414.414,0,0,0,.111-.051c1.172-1.169,2.338-2.343,3.517-3.5.2-.193.068-.273-.053-.393q-1.663-1.656-3.324-3.313c-.058-.058-.1-.157-.241-.137,0,.357,0,.716,0,1.074,0,.166-.044.233-.224.283-.426.118-.867.015-1.29.133a.188.188,0,0,1-.245-.218c.029-.4-.225-.72-.306-1.087-.044-.2-.118-.169-.268-.108-.593.241-1.174.514-1.75.784-.743.348-1.47.742-2.212,1.1-1.053.506-2.11,1-3.162,1.512-.106.051-.28.075-.284.206s.17.173.281.226c1.014.485,2.033.961,3.045,1.45q2,.967,4,1.95c.214.1.305.09.357-.174.063-.319.224-.62.282-.94.04-.223.129-.284.328-.271.421.028.843.06,1.265.076.176.007.172.112.171.233,0,.383,0,.766,0,1.168m-.7,1.845a3.924,3.924,0,0,0-.728.665.412.412,0,0,1-.6.07c-.319-.2-.515-.531-.846-.713-.169-.093-.113-.2-.007-.338a3.982,3.982,0,0,0,.349-.626c.244-.483.233-.5-.286-.674-.977-.336-1.955-.67-2.929-1.017-1.464-.522-2.925-1.053-4.387-1.583-.074-.027-.15-.073-.213-.01s.02.138.043.2q.472,1.341.949,2.68c.577,1.62,1.161,3.237,1.726,4.86.082.237.169.268.37.148.313-.186.637-.352.948-.542.107-.065.175-.133.282,0,.249.307.506.609.766.906.158.18.17.312-.027.5a4.134,4.134,0,0,0-.769.823c1.71,0,3.377,0,5.044,0,.229,0,.317-.054.316-.3-.01-1.654-.005-3.309-.005-5.052M21.076,5.56c-1.243-1.246-2.424-2.42-3.592-3.608-.2-.2-.321-.18-.5.011-.363.385-.746.753-1.121,1.127q-1.069,1.069-2.137,2.14c-.066.066-.2.12-.15.239s.185.053.28.056c.284.008.569.007.853,0,.158,0,.235.044.236.219a5.123,5.123,0,0,0,.074,1.186.265.265,0,0,1-.272.362,5.087,5.087,0,0,0-.876.237c-.26.057-.268.2-.161.416.443.911.874,1.828,1.306,2.744q1.032,2.186,2.061,4.372c.041.088.059.215.187.221s.119-.125.15-.192c1.119-2.408,2.254-4.808,3.461-7.173.055-.108.124-.251-.06-.313-.305-.1-.544-.36-.917-.316-.285.034-.477-.1-.458-.452a5.016,5.016,0,0,0,.084-.992c-.032-.221.063-.3.282-.289.4.013.793,0,1.268,0m-15.394,7.9a.493.493,0,0,0-.326.208C4.211,14.8,3.072,15.945,1.918,17.074c-.136.133-.037.169.025.23q1.738,1.744,3.481,3.482c.042.042.083.112.158.086.1-.034.067-.127.068-.2,0-.284.007-.569,0-.853,0-.16.023-.232.217-.275.359-.08.72-.016,1.071-.073.326-.053.449.109.463.365a3.921,3.921,0,0,0,.229.719c.07.3.206.266.414.168.706-.336,1.416-.662,2.123-1,1.769-.841,3.537-1.685,5.325-2.537a10.838,10.838,0,0,0-1.642-.8c-1.518-.756-3.061-1.461-4.594-2.185-.4-.189-.8-.373-1.2-.566-.222-.107-.376-.1-.447.181a6.579,6.579,0,0,0-.249.867c-.03.28-.165.291-.381.3-.349.016-.688-.071-1.031-.077-.207,0-.269-.074-.264-.271.01-.385,0-.771,0-1.185M21.017,28.783c-.428,0-.8,0-1.17,0-.113,0-.244.026-.243-.159,0-.41-.114-.81-.084-1.225.015-.2.06-.29.282-.319a4.334,4.334,0,0,0,.759-.222c.288-.095.423-.215.243-.564-.5-.97-.96-1.962-1.43-2.948-.648-1.357-1.29-2.717-1.939-4.073-.043-.091-.025-.259-.186-.243-.116.012-.136.147-.177.235-.546,1.157-1.084,2.317-1.63,3.474q-.863,1.829-1.737,3.653c-.1.215-.12.343.175.4s.592.221.9.284c.2.042.262.127.247.308-.031.368-.03.741-.041,1.106-.009.289-.086.288-.283.284-.259,0-.517-.014-.775-.01-.109,0-.26-.064-.316.065s.092.194.168.271c.834.847,1.678,1.684,2.5,2.539a7.032,7.032,0,0,1,.952.919l3.783-3.782M16.056,15.93c-.936-2.6-1.855-5.142-2.754-7.686-.12-.339-.249-.39-.542-.206-.316.2-.677.544-.97.5-.348-.051-.522-.561-.813-.834a1.259,1.259,0,0,1-.129-.145c-.115-.147-.179-.271.023-.427a5.168,5.168,0,0,0,.578-.572c.065-.069.2-.117.145-.242-.045-.1-.161-.052-.245-.052-1.552,0-3.1,0-4.656-.007-.234,0-.325.057-.306.3.051.678.054,1.365.043,2.038-.015.886.006,1.774-.025,2.66,0,.087-.062.2.091.286.248-.257.5-.513.748-.78.12-.132.188-.13.339-.013a10.526,10.526,0,0,0,.931.791c.134.081.169.168.042.336-.2.26-.315.578-.493.855-.16.249-.059.365.17.447.534.189,1.071.371,1.6.564,1.611.584,3.216,1.185,4.834,1.751a7.1,7.1,0,0,0,1.387.434M6.42,22.751c-.1.094-.061.19-.061.275,0,1.552.008,3.1-.01,4.655,0,.324.111.373.4.371,1.5-.012,3,0,4.5-.009.119,0,.293.077.347-.065s-.123-.205-.208-.291c-.719-.731-.721-.73,0-1.488a3.306,3.306,0,0,0,.268-.28c.113-.151.219-.106.348-.027.28.172.561.344.852.5a.227.227,0,0,0,.362-.153c.115-.359.245-.714.372-1.069.758-2.108,1.519-4.214,2.268-6.324.037-.1.17-.232.06-.341s-.247.029-.351.065c-1.242.435-2.476.9-3.715,1.34q-1.821.653-3.649,1.282c-.23.079-.238.2-.157.377a5.734,5.734,0,0,0,.5.887c.066.1.2.217.01.355-.3.22-.583.451-.855.7-.232.211-.409.2-.59-.055a3.47,3.47,0,0,0-.689-.7" transform="translate(0 0)" fill="#34515c"/>
  </g>
</svg>
