<svg xmlns="http://www.w3.org/2000/svg" width="26.515" height="26.509" viewBox="0 0 26.515 26.509">
  <path id="instagram-brands" d="M13.185,38.283a6.8,6.8,0,1,0,6.8,6.8A6.786,6.786,0,0,0,13.185,38.283Zm0,11.215A4.419,4.419,0,1,1,17.6,45.08,4.427,4.427,0,0,1,13.185,49.5ZM21.845,38A1.585,1.585,0,1,1,20.26,36.42,1.582,1.582,0,0,1,21.845,38Zm4.5,1.609a7.845,7.845,0,0,0-2.141-5.554,7.9,7.9,0,0,0-5.554-2.141c-2.189-.124-8.749-.124-10.937,0a7.885,7.885,0,0,0-5.554,2.135A7.871,7.871,0,0,0,.018,39.608c-.124,2.189-.124,8.749,0,10.937A7.845,7.845,0,0,0,2.159,56.1a7.907,7.907,0,0,0,5.554,2.141c2.189.124,8.749.124,10.937,0A7.845,7.845,0,0,0,24.205,56.1a7.9,7.9,0,0,0,2.141-5.554C26.471,48.357,26.471,41.8,26.347,39.614Zm-2.827,13.28A4.474,4.474,0,0,1,21,55.413c-1.745.692-5.886.532-7.814.532s-6.075.154-7.814-.532a4.474,4.474,0,0,1-2.52-2.52c-.692-1.745-.532-5.886-.532-7.814S2.165,39,2.852,37.266a4.474,4.474,0,0,1,2.52-2.52c1.745-.692,5.886-.532,7.814-.532s6.075-.154,7.814.532a4.474,4.474,0,0,1,2.52,2.52c.692,1.745.532,5.886.532,7.814S24.211,51.154,23.519,52.894Z" transform="translate(0.075 -31.825)" fill="#fff"/>
</svg>
