<svg id="KMI_Gray" xmlns="http://www.w3.org/2000/svg" xmlns:xlink="http://www.w3.org/1999/xlink" width="44.369" height="44.127" viewBox="0 0 44.369 44.127">
  <defs>
    <clipPath id="clip-path">
      <rect id="Rectangle_35244" data-name="Rectangle 35244" width="44.369" height="44.127" fill="#4d717e"/>
    </clipPath>
  </defs>
  <g id="Group_96757" data-name="Group 96757" clip-path="url(#clip-path)">
    <path id="Path_61031" data-name="Path 61031" d="M44.369,22.041c-.184.161-.314.261-.429.376q-2.894,2.888-5.79,5.775a.8.8,0,0,0-.256.641c.011,2.792,0,5.585.016,8.377,0,.406-.089.531-.514.528-2.759-.02-5.518-.008-8.278-.015a.878.878,0,0,0-.7.282c-1.964,1.985-3.947,3.951-5.912,5.935-.241.243-.36.249-.618.008-1.407-1.31-2.688-2.744-4.065-4.084-.516-.5-1.053-.989-1.519-1.536a1.767,1.767,0,0,0-1.478-.6c-2.61,0-5.219-.007-7.829.012-.4,0-.493-.109-.49-.5.017-2.709,0-5.419.017-8.128a1.214,1.214,0,0,0-.376-.919C4.425,26.466,2.7,24.732.963,23.017c-.256-.252-.541-.479-.807-.726-.175-.162-.229-.27-.022-.47,1.86-1.8,3.626-3.7,5.537-5.45a2.394,2.394,0,0,0,.869-1.95c-.053-2.525-.011-5.053-.028-7.579,0-.374.094-.47.468-.467,2.743.017,5.485,0,8.228.016a.98.98,0,0,0,.778-.313C17.9,4.141,19.84,2.224,21.754.283c.331-.335.557-.416.879-.006A20.2,20.2,0,0,0,24.727,2.44c1.3,1.228,2.543,2.52,3.817,3.777a.721.721,0,0,0,.591.167c2.759,0,5.518.008,8.278-.008.388,0,.5.094.5.491-.04,2.824.026,5.649-.03,8.474-.008.393.383.663.654.935q2.8,2.81,5.609,5.6a1.81,1.81,0,0,0,.227.162M29.274,8.07a2.06,2.06,0,0,0,.375.349c.9.9,1.178.847.218,1.826-.669.683-.658.694-1.7.166-.708-.358-.708-.358-.977.393q-1.689,4.7-3.373,9.408c-.027.074-.143.169-.023.26.1.076.185-.023.266-.051.811-.284,1.615-.588,2.427-.869,1.544-.534,3.08-1.1,4.618-1.645.806-.288,1.623-.581,2.423-.906.686-.279.774-.423.3-1.038a2.645,2.645,0,0,1-.255-.412c-.294-.577-.276-.724.242-1.052a3.25,3.25,0,0,0,.587-.521.505.505,0,0,1,.84,0,3.4,3.4,0,0,0,.983.86c0-2.2,0-4.336,0-6.475,0-.255-.115-.3-.333-.3-2.176.005-4.351,0-6.62,0m7.843,18.768a.531.531,0,0,0,.142-.065c1.506-1.5,3-3.011,4.52-4.5.251-.247.087-.35-.068-.5q-2.137-2.128-4.272-4.258c-.075-.074-.125-.2-.309-.177,0,.459-.006.92,0,1.38,0,.214-.057.3-.288.363-.547.152-1.114.019-1.658.171a.241.241,0,0,1-.315-.28c.037-.516-.289-.925-.394-1.4-.057-.255-.152-.217-.344-.138-.762.309-1.508.66-2.248,1.007-.955.448-1.889.953-2.842,1.411-1.353.65-2.711,1.291-4.063,1.943-.137.066-.36.1-.365.265-.005.184.219.222.362.291,1.3.623,2.612,1.235,3.913,1.863q2.575,1.243,5.139,2.506c.274.135.392.115.459-.223.081-.41.288-.8.362-1.207.052-.287.166-.365.421-.348.542.037,1.083.077,1.625.1.226.009.221.144.22.3,0,.492,0,.984,0,1.5m-.893,2.371a5.043,5.043,0,0,0-.936.855.53.53,0,0,1-.765.089c-.41-.254-.662-.683-1.087-.916-.217-.119-.145-.255-.01-.434a5.117,5.117,0,0,0,.448-.8c.313-.62.3-.638-.367-.867-1.256-.431-2.513-.861-3.764-1.306-1.882-.67-3.759-1.353-5.638-2.034-.1-.034-.193-.093-.273-.013s.026.178.055.262q.607,1.723,1.22,3.443c.741,2.081,1.491,4.16,2.218,6.246.106.3.218.344.475.191.4-.239.819-.452,1.218-.7.137-.084.225-.171.363,0,.32.395.65.782.985,1.165.2.232.219.4-.035.637a5.312,5.312,0,0,0-.989,1.057c2.2,0,4.34,0,6.482.006.294,0,.407-.07.406-.386-.012-2.126-.006-4.252-.006-6.493M27.084,7.145c-1.6-1.6-3.115-3.11-4.617-4.636-.255-.259-.412-.231-.643.014-.467.5-.958.967-1.44,1.449q-1.374,1.374-2.746,2.75c-.085.085-.263.154-.192.308s.237.069.36.072c.365.01.731.009,1.1,0,.2,0,.3.056.3.281a6.583,6.583,0,0,0,.1,1.524.341.341,0,0,1-.349.465,6.537,6.537,0,0,0-1.126.3c-.334.073-.344.253-.207.535.569,1.171,1.123,2.349,1.678,3.526q1.326,2.809,2.649,5.619c.053.112.076.276.241.284s.153-.16.193-.247c1.438-3.094,2.9-6.179,4.448-9.218.071-.138.159-.323-.077-.4-.392-.132-.7-.463-1.178-.406-.366.044-.613-.129-.589-.581a6.446,6.446,0,0,0,.108-1.275c-.041-.284.08-.381.362-.372.509.017,1.019,0,1.63,0M7.3,17.291a.633.633,0,0,0-.418.267c-1.472,1.463-2.936,2.933-4.419,4.383-.175.171-.047.217.032.3Q4.73,24.479,6.97,26.713c.054.054.106.144.2.111.127-.044.086-.163.088-.254,0-.365.009-.731,0-1.1,0-.206.03-.3.279-.353.462-.1.925-.021,1.376-.094.419-.068.577.14.595.47a5.039,5.039,0,0,0,.295.923c.09.383.265.342.531.216.907-.431,1.82-.851,2.728-1.282,2.274-1.081,4.546-2.166,6.843-3.261a13.928,13.928,0,0,0-2.11-1.029c-1.95-.971-3.933-1.877-5.9-2.808-.515-.243-1.033-.48-1.546-.728-.286-.138-.483-.128-.574.232a8.454,8.454,0,0,0-.32,1.114c-.039.36-.212.374-.49.387-.449.02-.884-.091-1.326-.1-.266,0-.346-.1-.339-.348.013-.495,0-.991,0-1.523m19.706,19.7c-.551,0-1.027,0-1.5,0-.145,0-.314.033-.312-.2.005-.527-.147-1.041-.108-1.574.019-.258.078-.373.363-.411a5.569,5.569,0,0,0,.976-.285c.37-.122.544-.276.312-.725C26.092,32.543,25.5,31.268,24.9,30c-.832-1.744-1.657-3.492-2.492-5.235-.056-.117-.032-.333-.239-.312-.149.015-.174.189-.228.3-.7,1.487-1.393,2.978-2.095,4.465q-1.109,2.351-2.233,4.695c-.133.277-.155.441.225.52s.761.285,1.154.365c.261.054.337.163.317.4-.04.473-.038.952-.053,1.422-.012.372-.111.37-.363.366-.332-.006-.664-.018-1-.013-.14,0-.334-.083-.406.084s.118.249.215.349c1.072,1.088,2.157,2.164,3.217,3.263a9.036,9.036,0,0,1,1.223,1.182l4.862-4.861M20.634,20.472c-1.2-3.348-2.384-6.608-3.539-9.877-.154-.436-.32-.5-.7-.265-.405.255-.87.7-1.246.643-.447-.066-.671-.721-1.045-1.072a1.618,1.618,0,0,1-.166-.186c-.148-.189-.231-.349.029-.548a6.641,6.641,0,0,0,.743-.736c.083-.088.258-.151.186-.311-.058-.127-.207-.067-.314-.067-1.994,0-3.989,0-5.983-.009-.3,0-.417.073-.393.388.066.871.07,1.754.055,2.619-.02,1.138.007,2.28-.032,3.419,0,.112-.08.263.117.368.318-.33.648-.659.961-1,.155-.17.241-.167.436-.016a13.527,13.527,0,0,0,1.2,1.016c.172.1.217.216.053.432-.253.334-.4.743-.633,1.1-.206.32-.076.47.219.574.687.242,1.376.477,2.06.725,2.07.751,4.133,1.522,6.212,2.25a9.126,9.126,0,0,0,1.783.557M8.25,29.237c-.124.121-.078.244-.078.353,0,1.994.011,3.989-.013,5.983,0,.416.143.48.508.477,1.928-.016,3.855-.005,5.783-.012.152,0,.376.1.446-.083s-.158-.264-.267-.375c-.924-.94-.926-.938,0-1.913a4.248,4.248,0,0,0,.344-.36c.145-.194.282-.136.447-.035.36.221.721.442,1.094.637a.291.291,0,0,0,.465-.2c.148-.462.315-.918.479-1.374.974-2.708,1.952-5.415,2.914-8.127.047-.132.218-.3.077-.438s-.318.037-.451.084c-1.6.56-3.182,1.152-4.774,1.723q-2.34.839-4.69,1.648c-.3.1-.305.254-.2.484a7.369,7.369,0,0,0,.649,1.14c.085.124.251.279.012.457-.379.282-.749.579-1.1.9-.3.271-.526.257-.758-.071a4.459,4.459,0,0,0-.886-.9" transform="translate(0 0)" fill="#4d717e"/>
  </g>
</svg>
