<svg id="Group_109077" data-name="Group 109077" xmlns="http://www.w3.org/2000/svg" xmlns:xlink="http://www.w3.org/1999/xlink" width="26.509" height="26.509" viewBox="0 0 26.509 26.509">
  <defs>
    <clipPath id="clip-path">
      <rect id="Rectangle_52808" data-name="Rectangle 52808" width="26.509" height="26.509" fill="#fff"/>
    </clipPath>
  </defs>
  <g id="Group_109076" data-name="Group 109076" clip-path="url(#clip-path)">
    <path id="Path_87599" data-name="Path 87599" d="M20.109,0H6.4A6.4,6.4,0,0,0,0,6.4v13.71a6.4,6.4,0,0,0,6.4,6.4H20.109a6.4,6.4,0,0,0,6.4-6.4V6.4a6.4,6.4,0,0,0-6.4-6.4M6.973,8.927a1.939,1.939,0,1,1,1.94-1.94h0a1.941,1.941,0,0,1-1.94,1.939M8.65,21.162H5.3V10.4H8.65Zm12.527,0H17.833V15.925c0-1.248-.025-2.854-1.736-2.854-1.743,0-2.011,1.359-2.011,2.764v5.326H10.745V10.4h3.207v1.47H14a3.523,3.523,0,0,1,3.168-1.737c3.382,0,4.012,2.231,4.012,5.131Z" fill="#fff"/>
    <path id="Path_87600" data-name="Path 87600" d="M37.095,16.15H17.756a1.619,1.619,0,0,0-1.606,1.626V37.083a1.617,1.617,0,0,0,1.606,1.625H37.095a1.622,1.622,0,0,0,1.612-1.625V17.776a1.623,1.623,0,0,0-1.612-1.626M22.972,35.484H19.623V24.72h3.349Zm.263-14.173a1.939,1.939,0,1,1-1.94-1.94,1.941,1.941,0,0,1,1.94,1.94ZM35.5,35.484H32.155V30.247c0-1.248-.025-2.854-1.736-2.854-1.743,0-2.011,1.359-2.011,2.764v5.326H25.067V24.72h3.207v1.47h.045a3.523,3.523,0,0,1,3.168-1.737c3.382,0,4.012,2.231,4.012,5.131Z" transform="translate(-14.322 -14.322)" fill="#fff"/>
  </g>
</svg>
