<svg id="Group_109077" data-name="Group 109077" xmlns="http://www.w3.org/2000/svg" xmlns:xlink="http://www.w3.org/1999/xlink" width="29.883" height="29.883" viewBox="0 0 29.883 29.883">
  <defs>
    <clipPath id="clip-path">
      <rect id="Rectangle_52808" data-name="Rectangle 52808" width="29.883" height="29.883" fill="#a9becc"/>
    </clipPath>
  </defs>
  <g id="Group_109076" data-name="Group 109076" clip-path="url(#clip-path)">
    <path id="Path_87599" data-name="Path 87599" d="M22.669,0H7.212A7.213,7.213,0,0,0,0,7.214V22.669a7.213,7.213,0,0,0,7.212,7.214H22.669a7.213,7.213,0,0,0,7.214-7.214V7.214A7.213,7.213,0,0,0,22.669,0M7.861,10.064a2.186,2.186,0,1,1,2.187-2.187h0a2.188,2.188,0,0,1-2.187,2.186M9.751,23.856H5.976V11.721H9.751Zm14.121,0H20.1v-5.9c0-1.407-.028-3.218-1.957-3.218-1.965,0-2.267,1.532-2.267,3.116v6H12.113V11.721h3.616v1.657h.051a3.972,3.972,0,0,1,3.571-1.958c3.812,0,4.523,2.515,4.523,5.785Z" fill="#a9becc"/>
    <path id="Path_87600" data-name="Path 87600" d="M39.761,16.15H17.96a1.825,1.825,0,0,0-1.81,1.833V39.748a1.823,1.823,0,0,0,1.81,1.832h21.8a1.828,1.828,0,0,0,1.817-1.832V17.983a1.83,1.83,0,0,0-1.817-1.833m-15.92,21.8H20.065V25.811h3.775Zm.3-15.977a2.186,2.186,0,1,1-2.187-2.187,2.188,2.188,0,0,1,2.187,2.187ZM37.962,37.945H34.193v-5.9c0-1.407-.028-3.218-1.957-3.218-1.965,0-2.267,1.532-2.267,3.116v6H26.2V25.811h3.616v1.657h.051A3.972,3.972,0,0,1,33.44,25.51c3.812,0,4.523,2.515,4.523,5.785Z" transform="translate(-14.089 -14.09)" fill="#a9becc"/>
  </g>
</svg>
