<svg id="Login_Icon" xmlns="http://www.w3.org/2000/svg" xmlns:xlink="http://www.w3.org/1999/xlink" width="25.349" height="25.396" viewBox="0 0 25.349 25.396">
  <defs>
    <clipPath id="clip-path">
      <rect id="Rectangle_38527" data-name="Rectangle 38527" width="25.349" height="25.396" fill="#b39d74"/>
    </clipPath>
  </defs>
  <g id="Group_108231" data-name="Group 108231" clip-path="url(#clip-path)">
    <path id="Path_67931" data-name="Path 67931" d="M12.319,0c.979-.018,1.758.444,1.449,1.53-.3,1.045-1.552.79-2.416.919C2.305,3.811-.911,15.09,6.261,20.781c2.319,1.84,3.743,1.8,6.49,2.246a1.189,1.189,0,1,1-.218,2.368,12.866,12.866,0,0,1-11.465-7.6A12.716,12.716,0,0,1,12.319,0" transform="translate(0 0)" fill="#b39d74"/>
    <path id="Path_67932" data-name="Path 67932" d="M54.045,45.068H66.156a2.083,2.083,0,0,1,.756.356,1.3,1.3,0,0,1,0,1.671,2.077,2.077,0,0,1-.756.356H54.045a4.214,4.214,0,0,0,.555.6c.814.755,1.78,1.513,2.545,2.3.494.508.826,1.17.3,1.817-.761.943-1.644.181-2.293-.384-1.462-1.275-3.106-2.806-4.488-4.168-1.315-1.3-1.05-1.676.159-2.863,1.367-1.343,3.037-2.932,4.488-4.168.51-.434.966-.84,1.669-.554.9.367.882,1.305.32,1.987a33.681,33.681,0,0,1-2.783,2.538,3.141,3.141,0,0,0-.475.517" transform="translate(-41.869 -33.575)" fill="#b39d74"/>
  </g>
</svg>
