<svg xmlns="http://www.w3.org/2000/svg" xmlns:xlink="http://www.w3.org/1999/xlink" width="84.747" height="94.975" viewBox="0 0 84.747 94.975">
  <defs>
    <clipPath id="clip-path">
      <rect id="Rectangle_52793" data-name="Rectangle 52793" width="84.747" height="94.975" fill="#13359a" stroke="#13359a" stroke-width="2.1"/>
    </clipPath>
  </defs>
  <g id="Group_109414" data-name="Group 109414" transform="translate(-917.626 -210.948)">
    <g id="_1sticon" data-name="1sticon" transform="translate(922.626 215.946)">
      <g id="Group_109042" data-name="Group 109042" transform="translate(-5 -4.998)" clip-path="url(#clip-path)">
        <path id="Path_87579" data-name="Path 87579" d="M69.244,59.906a19.179,19.179,0,0,0-4.488-6.572,16.82,16.82,0,0,0-5.77-3.847,28.849,28.849,0,0,0,1.122-6.572V34.261s-.16-4.809-1.122-7.053a31.348,31.348,0,0,0-3.526-7.854s-.641-5.289-1.763-7.373A25.192,25.192,0,0,0,52.414,9.1a1.022,1.022,0,0,0-.16-1.763h-.962a16.28,16.28,0,0,0-5.129-4.648A20.3,20.3,0,0,0,39.11.28,25.157,25.157,0,0,0,29.974.6a15.945,15.945,0,0,0-5.931,2.244s-2.244.962-4.809,4.488h-.719a.7.7,0,0,0-.477.186c-.338.313-.814.977.234,1.635,0,0-.962.424-2.4,5.713,0,0-.16.8-.8,4.648a19.15,19.15,0,0,0-3.206,6.572,46.927,46.927,0,0,0-1.6,8.816,47.288,47.288,0,0,0,.481,9.617,28.312,28.312,0,0,0,.641,4.969,22.567,22.567,0,0,0-7.533,5.931A20.215,20.215,0,0,0,0,64.394V80.243a.606.606,0,0,0,.216.385A.939.939,0,0,0,1.74,80.2q.013-.046.023-.1V66.318a18.929,18.929,0,0,1,2.565-8.335,17.847,17.847,0,0,1,8.656-7.053l3.847-.962a31.723,31.723,0,0,0,7.534-2.885s.962,2.244,4.648,4.167a13.113,13.113,0,0,0,10.419.8,13.136,13.136,0,0,0,6.9-4.969s1.431,1.443,6.08,2.4a36.269,36.269,0,0,1,8.175,3.045,19.711,19.711,0,0,1,5.129,4.809,21.671,21.671,0,0,1,2.725,6.411l.321,1.282V80.1a1,1,0,0,0,.962.8s.641.16.962-.641V65.705a19.826,19.826,0,0,0-1.443-5.8M21.6,7.145A15.377,15.377,0,0,1,28.168,2.85a28.014,28.014,0,0,1,10.8-.805,15.9,15.9,0,0,1,9.88,5.108l.206.26h-27.7ZM20.276,9.176H50.17s1.494,1.523,2.991,7.373A31.148,31.148,0,0,0,49.048,13.9s-6.251,2.4-10.339,2.645c0,0-5.209.882-13.384-1.362,0,0-.641-.16-3.847-1.443a23.327,23.327,0,0,0-4.087,2.8s.962-4.648,2.885-7.373M23.883,45.32a38.666,38.666,0,0,1-10.739,3.526,50,50,0,0,1-.962-9.938,32.2,32.2,0,0,1,.8-9.938,32.535,32.535,0,0,1,3.206-8.014A24.81,24.81,0,0,1,20.6,16.549V30.654a13.5,13.5,0,0,0,3.927,7.133ZM39.27,50.129s-5.61,1.923-9.617-.8c0,0-1.763-.641-4.007-3.526l.641-6.411S32.3,43.729,35.3,43.483c0,0,3.967-.246,8.856-4.013l.8,6.251a14.722,14.722,0,0,1-5.69,4.408m5.61-13.785a21.575,21.575,0,0,1-9.649,5.335,20.414,20.414,0,0,1-7.5-3.572,12.515,12.515,0,0,1-5.352-8.5V16.148c7.31,2.725,12.405,2.4,12.405,2.4,8.335,0,13.3-2.4,13.3-2.4V30.216a12.329,12.329,0,0,1-3.206,6.128m12.5,12.5A38.665,38.665,0,0,1,46.644,45.32L46,37.787a13.5,13.5,0,0,0,3.927-7.133V16.549a24.808,24.808,0,0,1,4.408,4.408,32.537,32.537,0,0,1,3.206,8.014,32.2,32.2,0,0,1,.8,9.938,50,50,0,0,1-.962,9.938" transform="translate(7.03 7.028)" fill="#13359a" stroke="#13359a" stroke-width="2.1"/>
        <path id="Path_87580" data-name="Path 87580" d="M712.494,1259.587h-3.046a1.122,1.122,0,0,1,0-2.244h3.046a1.122,1.122,0,0,1,0,2.244" transform="translate(-668.678 -1192.413)" fill="#13359a" stroke="#13359a" stroke-width="2.1"/>
        <path id="Path_87581" data-name="Path 87581" d="M712.494,1381.412h-3.046a1.122,1.122,0,0,1,0-2.244h3.046a1.122,1.122,0,0,1,0,2.244" transform="translate(-668.678 -1308.627)" fill="#13359a" stroke="#13359a" stroke-width="2.1"/>
        <path id="Path_87582" data-name="Path 87582" d="M712.494,1506.718h-3.046a1.122,1.122,0,1,1,0-2.244h3.046a1.122,1.122,0,1,1,0,2.244" transform="translate(-668.678 -1428.163)" fill="#13359a" stroke="#13359a" stroke-width="2.1"/>
      </g>
    </g>
    <g id="Group_109413" data-name="Group 109413" transform="translate(-42.151 22.992)">
      <path id="Path_91548" data-name="Path 91548" d="M1482.308,8.018l3.928-3.928-.983-.983a.64.64,0,0,0-.905,0h0l-2.039,2.039-1.53-1.531-1.437,1.436Z" transform="translate(-456.895 253.526)" fill="#c0cae3"/>
      <path id="Path_91549" data-name="Path 91549" d="M1311.525,360.539l-.83-.83,2.084-2.083,1.436,1.436-1.476,1.477a.859.859,0,0,1-1.214,0h0" transform="translate(-291.06 -95.27)" fill="#8397c9"/>
      <rect id="Rectangle_52826" data-name="Rectangle 52826" width="2.666" height="2.031" transform="translate(1021.905 262.169) rotate(-45)" fill="#8397c9"/>
      <path id="Path_91550" data-name="Path 91550" d="M1035.69,2.984a.649.649,0,0,0-.918,0l-6.288,6.288-1.535-1.535-1.437,1.436,1.535,1.535h0l.98.98a.646.646,0,0,0,.913,0h0l7.728-7.728Z" transform="translate(-10.631 253.649)" fill="#4a66b0"/>
      <path id="Path_91551" data-name="Path 91551" d="M800.881,3.912l-.978-.979a.648.648,0,0,0-.916,0L792.7,9.22l-1.71-1.71a.647.647,0,0,0-.914,0l-.979.979,3.147,3.148a.647.647,0,0,0,.915,0h0l.979-.979h0Z" transform="translate(221.846 253.698)" fill="#133698"/>
    </g>
  </g>
</svg>
