<svg id="Group_109523" data-name="Group 109523" xmlns="http://www.w3.org/2000/svg" xmlns:xlink="http://www.w3.org/1999/xlink" width="67.497" height="75.643" viewBox="0 0 67.497 75.643">
  <defs>
    <clipPath id="clip-path">
      <rect id="Rectangle_52793" data-name="Rectangle 52793" width="67.497" height="75.643" fill="#13359a" stroke="#13359a" stroke-width="2.1"/>
    </clipPath>
  </defs>
  <g id="_1sticon" data-name="1sticon" transform="translate(0)">
    <g id="Group_109042" data-name="Group 109042" clip-path="url(#clip-path)">
      <path id="Path_87579" data-name="Path 87579" d="M55.15,47.713a15.275,15.275,0,0,0-3.575-5.234,13.4,13.4,0,0,0-4.6-3.064,22.977,22.977,0,0,0,.894-5.234V27.287a21.37,21.37,0,0,0-.894-5.617,24.967,24.967,0,0,0-2.809-6.255s-.511-4.213-1.4-5.872a20.065,20.065,0,0,0-1.021-2.3.814.814,0,0,0-.128-1.4h-.766a12.967,12.967,0,0,0-4.085-3.7A16.169,16.169,0,0,0,31.149.223a20.036,20.036,0,0,0-7.277.255,12.7,12.7,0,0,0-4.723,1.787,10.766,10.766,0,0,0-3.83,3.575h-.573a.558.558,0,0,0-.38.148c-.269.25-.649.778.187,1.3,0,0-.766.337-1.915,4.55,0,0-.128.638-.638,3.7a15.252,15.252,0,0,0-2.553,5.234A37.376,37.376,0,0,0,8.17,27.8a37.663,37.663,0,0,0,.383,7.66,22.549,22.549,0,0,0,.511,3.957,17.974,17.974,0,0,0-6,4.723A16.1,16.1,0,0,0,0,51.288V63.91a.483.483,0,0,0,.172.307.748.748,0,0,0,1.214-.342q.01-.037.018-.077V52.82a15.076,15.076,0,0,1,2.043-6.638,14.214,14.214,0,0,1,6.894-5.617L13.4,39.8a25.266,25.266,0,0,0,6-2.3,7.946,7.946,0,0,0,3.7,3.319,10.444,10.444,0,0,0,8.3.638A10.462,10.462,0,0,0,36.9,37.5s1.14,1.149,4.842,1.915a28.886,28.886,0,0,1,6.511,2.426,15.7,15.7,0,0,1,4.085,3.83,17.26,17.26,0,0,1,2.17,5.106l.255,1.021v12a.8.8,0,0,0,.766.638s.511.128.766-.511V52.332a15.791,15.791,0,0,0-1.149-4.619M17.2,5.691A12.247,12.247,0,0,1,22.435,2.27a22.312,22.312,0,0,1,8.606-.641A12.664,12.664,0,0,1,38.909,5.7l.164.207H17.011ZM16.149,7.308H39.958s1.19,1.213,2.382,5.872a24.809,24.809,0,0,0-3.276-2.106,35.8,35.8,0,0,1-8.234,2.106s-4.149.7-10.66-1.085c0,0-.511-.128-3.064-1.149a18.579,18.579,0,0,0-3.255,2.234,19.031,19.031,0,0,1,2.3-5.872M19.022,36.1A30.8,30.8,0,0,1,10.468,38.9,39.827,39.827,0,0,1,9.7,30.99a25.646,25.646,0,0,1,.638-7.915,25.913,25.913,0,0,1,2.553-6.383A19.76,19.76,0,0,1,16.4,13.181V24.415A10.75,10.75,0,0,0,19.532,30.1Zm12.256,3.83s-4.468,1.532-7.66-.638a8.421,8.421,0,0,1-3.192-2.809l.511-5.106s4.787,3.456,7.181,3.26a14.269,14.269,0,0,0,7.053-3.2l.638,4.979a11.725,11.725,0,0,1-4.532,3.511m4.468-10.979A17.183,17.183,0,0,1,28.06,33.2a16.259,16.259,0,0,1-5.975-2.845,9.968,9.968,0,0,1-4.263-6.766V12.862a26.415,26.415,0,0,0,9.88,1.915,26.293,26.293,0,0,0,10.6-1.915v11.2a9.819,9.819,0,0,1-2.553,4.881M45.7,38.9A30.8,30.8,0,0,1,37.149,36.1l-.511-6a10.75,10.75,0,0,0,3.128-5.681V13.181a19.759,19.759,0,0,1,3.511,3.511,25.914,25.914,0,0,1,2.553,6.383,25.646,25.646,0,0,1,.638,7.915A39.825,39.825,0,0,1,45.7,38.9" transform="translate(5.599 5.597)" fill="#13359a" stroke="#13359a" stroke-width="2.1"/>
      <path id="Path_87580" data-name="Path 87580" d="M711.645,1259.131H709.22a.894.894,0,0,1,0-1.787h2.426a.894.894,0,0,1,0,1.787" transform="translate(-676.748 -1205.629)" fill="#13359a" stroke="#13359a" stroke-width="2.1"/>
      <path id="Path_87581" data-name="Path 87581" d="M711.645,1380.955H709.22a.894.894,0,0,1,0-1.787h2.426a.894.894,0,0,1,0,1.787" transform="translate(-676.748 -1322.985)" fill="#13359a" stroke="#13359a" stroke-width="2.1"/>
      <path id="Path_87582" data-name="Path 87582" d="M711.645,1506.261H709.22a.894.894,0,1,1,0-1.787h2.426a.894.894,0,1,1,0,1.787" transform="translate(-676.748 -1443.696)" fill="#13359a" stroke="#13359a" stroke-width="2.1"/>
    </g>
  </g>
  <g id="Group_109413" data-name="Group 109413" transform="translate(40.75 54.546)">
    <path id="Path_91548" data-name="Path 91548" d="M1481.7,6.98l3.128-3.128-.783-.783a.51.51,0,0,0-.721,0h0L1481.7,4.692l-1.219-1.219-1.144,1.144Z" transform="translate(-1470.178 -2.916)" fill="#c0cae3"/>
    <path id="Path_91549" data-name="Path 91549" d="M1311.356,359.946l-.661-.661,1.66-1.659,1.144,1.144-1.176,1.176a.684.684,0,0,1-.967,0h0" transform="translate(-1303.771 -352.915)" fill="#8397c9"/>
    <rect id="Rectangle_52826" data-name="Rectangle 52826" width="2.124" height="1.618" transform="translate(8.732 4.562) rotate(-45)" fill="#8397c9"/>
    <path id="Path_91550" data-name="Path 91550" d="M1033.619,2.945a.517.517,0,0,0-.731,0l-5.008,5.008-1.222-1.222-1.144,1.144,1.223,1.223h0l.78.78a.514.514,0,0,0,.727,0h0l6.155-6.155Z" transform="translate(-1022.375 -2.793)" fill="#4a66b0"/>
    <path id="Path_91551" data-name="Path 91551" d="M798.482,3.674l-.779-.779a.516.516,0,0,0-.729,0L791.966,7.9,790.6,6.54a.515.515,0,0,0-.728,0l-.78.78L791.6,9.827a.515.515,0,0,0,.728,0h0l.78-.78h0Z" transform="translate(-789.096 -2.744)" fill="#133698"/>
  </g>
</svg>
