<svg xmlns="http://www.w3.org/2000/svg" width="67.533" height="63.007" viewBox="0 0 67.533 63.007">
  <g id="Yasir_Logo_SVG" transform="translate(-0.166 -0.007)">
    <g id="Group_109442" data-name="Group 109442" transform="translate(9.231 0.007)">
      <path id="Path_87594" data-name="Path 87594" d="M643.529,13.82,654.077,3.272,651.436.632A1.719,1.719,0,0,0,649,.63l0,0-5.475,5.475L639.418,2,635.56,5.854l7.968,7.966Z" transform="translate(-604.668 -0.12)" fill="#c0cae3"/>
      <path id="Path_87595" data-name="Path 87595" d="M517.818,260.3l-2.228-2.228,5.6-5.6,3.857,3.858-3.965,3.965a2.305,2.305,0,0,1-3.26,0h0" transform="translate(-492.245 -236.597)" fill="#8397c9"/>
      <rect id="Rectangle_52803" data-name="Rectangle 52803" width="7.16" height="5.454" transform="translate(29.442 15.381) rotate(-45)" fill="#8397c9"/>
      <path id="Path_87596" data-name="Path 87596" d="M340.031.546a1.744,1.744,0,0,0-2.465,0L320.68,17.432l-4.122-4.122L312.7,17.167l4.122,4.122,0,0,2.631,2.631a1.734,1.734,0,0,0,2.452,0h0L342.655,3.17,340.031.546Z" transform="translate(-302.119 -0.033)" fill="#4a66b0"/>
      <path id="Path_87597" data-name="Path 87597" d="M176.147,3.144,173.519.517a1.739,1.739,0,0,0-2.459,0L154.177,17.4l-4.592-4.592a1.738,1.738,0,0,0-2.456,0L144.5,15.436l8.452,8.452a1.736,1.736,0,0,0,2.456,0h0l2.629-2.63,0,0Z" transform="translate(-144.5 -0.007)" fill="#133698"/>
    </g>
    <g id="Group_109444" data-name="Group 109444" transform="translate(0.166 31.253)">
      <path id="Path_91577" data-name="Path 91577" d="M8.033,789.7a8.982,8.982,0,0,1-2.972-.57,9.8,9.8,0,0,1-2.971-1.678l1.386-2.772q1.17.37,2.078.57a7.977,7.977,0,0,0,1.709.2,6.286,6.286,0,0,0,3.032-.708,5.333,5.333,0,0,0,2.048-1.91,4.956,4.956,0,0,0,.739-2.648,4.071,4.071,0,0,0-.278-1.6,7.042,7.042,0,0,0-.708-1.263q-.432-.616-.954-1.417l5.82,2.926v1.354a9.83,9.83,0,0,1-.308,2.309,11.117,11.117,0,0,1-.97,2.525,10.079,10.079,0,0,1-1.709,2.34,7.677,7.677,0,0,1-2.525,1.709,8.64,8.64,0,0,1-3.418.631" transform="translate(-2.015 -758.335)" fill="#09183d"/>
      <path id="Path_91578" data-name="Path 91578" d="M122.375,676.573a8.926,8.926,0,0,1-2.017-.216,6.528,6.528,0,0,1-1.739-.662,7.178,7.178,0,0,1-1.524-1.154,14.7,14.7,0,0,1-1.463-1.694l-3.911-5.359,3.388-4.188,3.972,6.867a10.949,10.949,0,0,0,.893,1.278,2.1,2.1,0,0,0,.955.662,4.689,4.689,0,0,0,1.447.184h.308v4.28h-.308Z" transform="translate(-104.749 -652.819)" fill="#09183d"/>
      <path id="Path_91579" data-name="Path 91579" d="M272.2,806.26h.309v4.28H272.2q-.924,0-.924-2.156,0-2.124.924-2.124" transform="translate(-254.271 -786.785)" fill="#09183d"/>
      <path id="Path_91580" data-name="Path 91580" d="M285.97,711.911v-4.28h7.941a12.59,12.59,0,0,0,.323-1.4,13.533,13.533,0,0,0,.184-1.663,15.085,15.085,0,0,0-.016-1.8l5.143-1.756q-.4,1.971-.786,3.418a22.623,22.623,0,0,1-.862,2.633,21.026,21.026,0,0,1-1.109,2.324q-.632,1.139-1.555,2.525H285.97Z" transform="translate(-268.037 -688.156)" fill="#09183d"/>
      <path id="Path_91581" data-name="Path 91581" d="M405.483,711.92a14.523,14.523,0,0,1-3.588-.385,11.262,11.262,0,0,1-2.448-.893,9.3,9.3,0,0,1-1.448-.908l1.755-3.079a7.506,7.506,0,0,0,1.955.723,10.854,10.854,0,0,0,2.48.262h3.324a7.437,7.437,0,0,0,.324-1.293,14.284,14.284,0,0,0,.184-1.724q.045-.925.016-1.848l5.173-1.756q-.431,1.971-.832,3.418a27.258,27.258,0,0,1-.862,2.633,17.7,17.7,0,0,1-1.107,2.324q-.646,1.139-1.57,2.525h-3.357Z" transform="translate(-373.019 -688.166)" fill="#09183d"/>
      <path id="Path_91582" data-name="Path 91582" d="M574.812,684.857a12.84,12.84,0,0,1-3.371-.385,10.735,10.735,0,0,1-2.371-.924q-.97-.538-1.709-1.032l2.279-2.74a8.853,8.853,0,0,0,4.034.8h3.91q-.247-.831-.523-1.585t-.632-1.587q-.354-.831-.878-1.909l5.019-3.357q.246,1.879.4,3.926a27.891,27.891,0,0,1-.016,4.234,20.725,20.725,0,0,1-.908,4.557h-5.236Z" transform="translate(-531.725 -661.102)" fill="#09183d"/>
      <path id="Path_91583" data-name="Path 91583" d="M735.592,800c-1.006,0-6.529-.082-7.34-.246a10.115,10.115,0,0,1-2.14-.662q-.924-.415-1.632-.815l1.693-3.264a4.627,4.627,0,0,0,.8.307q.43.124.908.216a9.9,9.9,0,0,0,1,.138c.349.03.708.047,1.078.047h5.817V800h-.186Z" transform="translate(-678.96 -776.243)" fill="#09183d"/>
      <path id="Path_91584" data-name="Path 91584" d="M821.559,806.251h.308v4.28h-.308c-.616,0-5.539-.718-5.539-2.155s4.923-2.125,5.539-2.125" transform="translate(-764.742 -786.776)" fill="#09183d"/>
      <path id="Path_91585" data-name="Path 91585" d="M899.217,911.665l-2.987-3.017,2.8-3.018,2.986,3.018Z" transform="translate(-839.906 -879.904)" fill="#09183d"/>
      <path id="Path_91586" data-name="Path 91586" d="M904.06,663.763v-4.28h5.45a9,9,0,0,0-.846-2.879,22.678,22.678,0,0,0-1.74-3l3.88-3.972a26.739,26.739,0,0,1,1.6,3.911,15.849,15.849,0,0,1,.724,4.6,16.01,16.01,0,0,1-1.062,5.62H904.06Z" transform="translate(-847.243 -640.009)" fill="#09183d"/>
      <path id="Path_91587" data-name="Path 91587" d="M984.388,911.665l-2.988-3.017,2.864-3.018,2.988,3.018Z" transform="translate(-919.718 -879.904)" fill="#09183d"/>
      <path id="Path_91588" data-name="Path 91588" d="M426.382,504.547a2.159,2.159,0,0,1-1.686-.734,2.694,2.694,0,0,1-.656-1.866V500.48h1.286v1.467a1.485,1.485,0,0,0,.283.965.941.941,0,0,0,.772.347q1.03,0,1.03-1.184v-.952H428.7v.952a2.531,2.531,0,0,1-.63,1.789,2.184,2.184,0,0,1-1.686.683Z" transform="translate(-400.522 -500.48)" fill="#09183d"/>
      <path id="Path_91589" data-name="Path 91589" d="M442,574.95l.36,1.39-6.512,1.7-.36-1.39Z" transform="translate(-411.252 -570.265)" fill="#09183d"/>
      <path id="Path_91590" data-name="Path 91590" d="M479.946,504.556a2.182,2.182,0,0,1-1.686-.683,2.526,2.526,0,0,1-.63-1.789v-.952h1.287v.952q0,1.184,1.029,1.184a.945.945,0,0,0,.773-.347,1.49,1.49,0,0,0,.283-.965V500.49h1.287v1.467a2.726,2.726,0,0,1-.644,1.866,2.149,2.149,0,0,1-1.7.734Z" transform="translate(-450.741 -500.489)" fill="#09183d"/>
      <g id="Group_109443" data-name="Group 109443" transform="translate(58.293 4.645)" style="mix-blend-mode: normal;isolation: isolate">
        <path id="Path_91591" data-name="Path 91591" d="M918.832,574.31l.358,1.381-6.472,1.688L912.36,576Z" transform="translate(-912.36 -574.31)" fill="#09183d"/>
      </g>
      <path id="Path_91592" data-name="Path 91592" d="M1.726,609.407a1.688,1.688,0,0,1-.863-.228,1.761,1.761,0,0,1-.627-.612A1.6,1.6,0,0,1,0,607.718a1.618,1.618,0,0,1,.236-.855,1.727,1.727,0,0,1,.627-.609,1.707,1.707,0,0,1,.863-.224,1.714,1.714,0,0,1,.669.13,1.783,1.783,0,0,1,.549.362,1.694,1.694,0,0,1,.374.538,1.676,1.676,0,0,1-.1,1.506,1.728,1.728,0,0,1-.624.612,1.7,1.7,0,0,1-.871.228Zm0-.261a1.4,1.4,0,0,0,.732-.195,1.527,1.527,0,0,0,.53-.519,1.324,1.324,0,0,0,.2-.714,1.353,1.353,0,0,0-.2-.724,1.5,1.5,0,0,0-.53-.511,1.437,1.437,0,0,0-.732-.191,1.43,1.43,0,0,0-.732.191,1.5,1.5,0,0,0-.53.511,1.332,1.332,0,0,0-.2.724,1.3,1.3,0,0,0,.2.714,1.533,1.533,0,0,0,.53.519A1.4,1.4,0,0,0,1.726,609.146Zm-.553-.56V606.8h.658a.554.554,0,0,1,.408.153.544.544,0,0,1,.153.4.479.479,0,0,1-.16.37.57.57,0,0,1-.4.146h-.5l.082-.044v.762H1.174Zm.239-.875-.075-.045h.418a.422.422,0,0,0,.284-.09.285.285,0,0,0,.1-.224.3.3,0,0,0-.094-.239.411.411,0,0,0-.28-.082H1.307l.1-.06v.74Zm.665.875-.292-.769.224-.068.336.837Z" transform="translate(0 -601.71)" fill="#041840"/>
    </g>
  </g>
</svg>
