<svg id="Group_109075" data-name="Group 109075" xmlns="http://www.w3.org/2000/svg" xmlns:xlink="http://www.w3.org/1999/xlink" width="29.89" height="27.087" viewBox="0 0 29.89 27.087">
  <defs>
    <clipPath id="clip-path">
      <rect id="Rectangle_52806" data-name="Rectangle 52806" width="29.89" height="27.087" fill="#fff"/>
    </clipPath>
  </defs>
  <g id="Group_109074" data-name="Group 109074" clip-path="url(#clip-path)">
    <path id="Path_87598" data-name="Path 87598" d="M0,0C3.14,0,6.144,0,9.148.016a.751.751,0,0,1,.482.3q3,3.93,5.988,7.876c.112.148.24.285.39.462,1.109-1.266,2.194-2.5,3.274-3.74C20.628,3.376,21.966,1.825,23.321.29a.807.807,0,0,1,.512-.275C25.22-.007,26.609,0,28.123,0c-.448.523-.827.977-1.217,1.421q-4.233,4.839-8.478,9.669a.485.485,0,0,0-.034.745q5.548,7.327,11.078,14.668c.121.161.237.326.417.574h-.6c-2.693,0-5.387-.006-8.08.008a.9.9,0,0,1-.822-.395q-3.271-4.317-6.576-8.608c-.1-.136-.222-.261-.374-.438-.732.825-1.445,1.622-2.15,2.426q-2.969,3.385-5.939,6.77a.723.723,0,0,1-.473.226c-1.389.018-2.779.01-4.292.01L11.325,14.843,0,0M24.543,24.383c-.164-.236-.247-.364-.339-.485q-3.363-4.439-6.727-8.876Q12.906,8.985,8.333,2.949c-.115-.152-.3-.343-.465-.35-.823-.036-1.649-.016-2.562-.016.141.2.222.33.312.448Q9.612,8.264,13.608,13.5q4.027,5.273,8.06,10.542a.793.793,0,0,0,.472.33c.759.035,1.52.015,2.4.015" transform="translate(0 0)" fill="#fff"/>
  </g>
</svg>
