<svg xmlns="http://www.w3.org/2000/svg" width="29.89" height="29.883" viewBox="0 0 29.89 29.883">
  <path id="instagram-brands" d="M14.873,39.1a7.662,7.662,0,1,0,7.662,7.662A7.65,7.65,0,0,0,14.873,39.1Zm0,12.643a4.981,4.981,0,1,1,4.981-4.981,4.99,4.99,0,0,1-4.981,4.981Zm9.762-12.956A1.787,1.787,0,1,1,22.849,37,1.783,1.783,0,0,1,24.636,38.792Zm5.074,1.814A8.844,8.844,0,0,0,27.3,34.344a8.9,8.9,0,0,0-6.261-2.414c-2.467-.14-9.862-.14-12.329,0a8.889,8.889,0,0,0-6.261,2.407A8.873,8.873,0,0,0,.03,40.6c-.14,2.467-.14,9.862,0,12.329A8.844,8.844,0,0,0,2.444,59.19,8.913,8.913,0,0,0,8.705,61.6c2.467.14,9.862.14,12.329,0A8.844,8.844,0,0,0,27.3,59.19a8.9,8.9,0,0,0,2.414-6.261C29.85,50.461,29.85,43.073,29.71,40.605Zm-3.187,14.97a5.043,5.043,0,0,1-2.841,2.841c-1.967.78-6.635.6-8.809.6s-6.848.173-8.809-.6a5.043,5.043,0,0,1-2.841-2.841c-.78-1.967-.6-6.635-.6-8.809s-.173-6.848.6-8.809a5.043,5.043,0,0,1,2.841-2.841c1.967-.78,6.635-.6,8.809-.6s6.848-.173,8.809.6a5.043,5.043,0,0,1,2.841,2.841c.78,1.967.6,6.635.6,8.809S27.3,53.615,26.523,55.575Z" transform="translate(0.075 -31.825)" fill="#fff"/>
</svg>
