<svg width="244" height="16" viewBox="0 0 244 16" fill="none" xmlns="http://www.w3.org/2000/svg">
<mask id="mask0_37_57321" style="mask-type:luminance" maskUnits="userSpaceOnUse" x="0" y="0" width="244" height="16">
<path d="M243.117 0.958008H0.908203V15.013H243.117V0.958008Z" fill="white"/>
</mask>
<g mask="url(#mask0_37_57321)">
<path d="M0.908203 15.013C60.556 7.1216 120.59 2.48972 180.742 1.13801C183.448 1.11301 197.136 0.977008 199.559 0.958008C206.482 1.05801 215.231 1.06401 222.149 1.24601C224.9 1.33701 238.017 1.80301 240.976 1.90301C241.271 1.91484 241.56 1.98518 241.827 2.10993C242.094 2.23468 242.333 2.41134 242.531 2.62961C242.729 2.84787 242.881 3.10336 242.979 3.38118C243.078 3.659 243.119 3.95358 243.102 4.24774C243.086 4.54189 243.01 4.82973 242.881 5.09445C242.751 5.35918 242.571 5.59549 242.349 5.7896C242.127 5.98371 241.869 6.13173 241.59 6.22503C241.31 6.31833 241.015 6.35504 240.721 6.33301C237.744 6.17201 224.621 5.47601 222.011 5.33301C215.127 5.02401 206.411 4.86301 199.524 4.63301C197.201 4.60801 183.415 4.49001 180.767 4.46601C120.667 4.70884 60.6248 8.22973 0.908203 15.013Z" fill="#B39D74"/>
</g>
</svg>
