<svg id="HID_Icon" xmlns="http://www.w3.org/2000/svg" xmlns:xlink="http://www.w3.org/1999/xlink" width="62.751" height="62.408" viewBox="0 0 62.751 62.408">
  <defs>
    <clipPath id="clip-path">
      <rect id="Rectangle_35244" data-name="Rectangle 35244" width="62.751" height="62.408" fill="#fff"/>
    </clipPath>
  </defs>
  <g id="Group_96757" data-name="Group 96757" transform="translate(0 0)" clip-path="url(#clip-path)">
    <path id="Path_61031" data-name="Path 61031" d="M62.751,31.172c-.261.227-.444.37-.607.532q-4.093,4.085-8.188,8.168a1.136,1.136,0,0,0-.362.907c.015,3.949,0,7.9.023,11.848,0,.574-.125.751-.727.747-3.9-.029-7.8-.011-11.707-.021a1.242,1.242,0,0,0-.985.4c-2.777,2.808-5.582,5.588-8.361,8.394-.34.344-.509.352-.874.012-1.99-1.853-3.8-3.881-5.749-5.775-.73-.711-1.49-1.4-2.149-2.172a2.5,2.5,0,0,0-2.091-.854c-3.691.007-7.382-.01-11.072.016-.562,0-.7-.155-.693-.7.024-3.832,0-7.664.023-11.5a1.717,1.717,0,0,0-.532-1.3c-2.442-2.446-4.876-4.9-7.338-7.322C1,32.2.6,31.875.22,31.526c-.247-.23-.323-.382-.032-.665,2.631-2.549,5.129-5.233,7.831-7.708A3.386,3.386,0,0,0,9.248,20.4c-.076-3.572-.016-7.146-.04-10.719,0-.529.134-.664.662-.661,3.879.024,7.758.005,11.636.023a1.386,1.386,0,0,0,1.1-.442c2.712-2.74,5.453-5.451,8.16-8.2.468-.474.788-.588,1.243-.009A28.566,28.566,0,0,0,34.97,3.45c1.845,1.737,3.6,3.564,5.4,5.341a1.02,1.02,0,0,0,.836.236c3.9,0,7.8.012,11.707-.012.548,0,.712.133.7.695-.057,3.994.036,7.989-.043,11.984-.011.555.542.938.925,1.322q3.954,3.975,7.932,7.926a2.56,2.56,0,0,0,.321.229M41.4,11.414a2.913,2.913,0,0,0,.53.493c1.266,1.269,1.666,1.2.309,2.582-.947.966-.931.981-2.407.235-1-.506-1-.506-1.382.556q-2.389,6.652-4.771,13.306c-.038.105-.2.239-.032.368.142.107.262-.032.377-.073,1.147-.4,2.284-.832,3.432-1.23,2.184-.756,4.356-1.55,6.531-2.327,1.14-.407,2.3-.821,3.427-1.281.97-.395,1.095-.6.426-1.468a3.74,3.74,0,0,1-.361-.583c-.415-.816-.391-1.024.342-1.488a4.6,4.6,0,0,0,.83-.737.715.715,0,0,1,1.187,0,4.806,4.806,0,0,0,1.39,1.217c0-3.108,0-6.133.006-9.158,0-.361-.162-.421-.472-.42-3.077.007-6.154,0-9.363,0M52.494,37.957a.751.751,0,0,0,.2-.092c2.13-2.124,4.249-4.259,6.392-6.368.356-.35.123-.5-.1-.714q-3.022-3.01-6.041-6.022c-.106-.1-.177-.285-.437-.25,0,.649-.009,1.3,0,1.952.006.3-.081.423-.408.514-.774.214-1.576.027-2.345.242a.341.341,0,0,1-.445-.4c.053-.73-.408-1.308-.557-1.976-.08-.36-.214-.306-.487-.2-1.077.437-2.133.934-3.18,1.425-1.351.633-2.671,1.348-4.02,2-1.914.92-3.834,1.826-5.747,2.748-.193.093-.509.137-.516.375-.008.26.309.315.511.411,1.843.882,3.694,1.747,5.534,2.635Q44.5,36,48.128,37.786c.388.191.555.163.65-.316.115-.58.408-1.127.513-1.708.073-.405.235-.516.6-.492.766.052,1.532.109,2.3.139.319.013.312.2.311.424,0,.7,0,1.392,0,2.123m-1.264,3.353a7.133,7.133,0,0,0-1.324,1.209.749.749,0,0,1-1.082.126c-.58-.359-.936-.966-1.537-1.3-.307-.169-.205-.361-.014-.613a7.236,7.236,0,0,0,.634-1.137c.443-.877.424-.9-.519-1.226-1.776-.61-3.554-1.217-5.323-1.848-2.662-.948-5.317-1.913-7.973-2.876-.135-.049-.274-.132-.386-.018-.134.134.036.251.078.371q.858,2.437,1.725,4.87c1.049,2.944,2.109,5.883,3.137,8.833.15.43.308.486.672.27.568-.338,1.158-.64,1.722-.985.194-.119.319-.242.513,0,.452.559.919,1.106,1.393,1.647.287.328.31.567-.05.9a7.513,7.513,0,0,0-1.4,1.495c3.109,0,6.138-.007,9.167.008.416,0,.576-.1.574-.547-.017-3.007-.009-6.014-.009-9.182M38.3,10.1c-2.259-2.264-4.406-4.4-6.529-6.557-.36-.366-.583-.326-.909.02-.66.7-1.356,1.368-2.037,2.049q-1.944,1.943-3.883,3.89c-.12.121-.372.217-.272.435s.336.1.509.1c.516.014,1.034.013,1.55,0,.287-.006.427.079.429.4A9.31,9.31,0,0,0,27.3,12.6a.482.482,0,0,1-.494.658,9.245,9.245,0,0,0-1.593.43c-.472.1-.486.358-.293.756.8,1.656,1.588,3.322,2.374,4.987q1.875,3.972,3.747,7.947c.075.159.108.39.341.4s.216-.227.273-.349c2.034-4.376,4.1-8.738,6.291-13.037.1-.2.225-.456-.109-.568-.554-.186-.989-.655-1.666-.574-.518.062-.867-.183-.833-.822a9.116,9.116,0,0,0,.153-1.8c-.057-.4.114-.539.512-.526.72.023,1.441.007,2.3.007M10.327,24.455a.9.9,0,0,0-.592.378c-2.081,2.068-4.152,4.148-6.25,6.2-.247.242-.067.307.045.419Q6.689,34.62,9.857,37.78c.077.077.15.2.287.156.179-.062.122-.231.124-.359.007-.517.012-1.034,0-1.55-.007-.292.042-.421.395-.5.653-.145,1.309-.029,1.946-.133.592-.1.816.2.841.664a7.127,7.127,0,0,0,.417,1.306c.127.541.375.484.752.3,1.283-.61,2.574-1.2,3.858-1.814,3.216-1.529,6.429-3.063,9.677-4.611a19.7,19.7,0,0,0-2.984-1.456c-2.758-1.373-5.562-2.655-8.349-3.972-.728-.344-1.462-.679-2.187-1.029-.4-.195-.683-.18-.812.329a11.957,11.957,0,0,0-.453,1.576c-.055.509-.3.53-.693.548-.635.029-1.25-.128-1.875-.14-.377-.007-.489-.135-.479-.492.019-.7.006-1.4.006-2.154M38.2,52.313c-.779,0-1.452,0-2.126,0-.205,0-.444.047-.441-.289.007-.745-.208-1.473-.153-2.225.026-.365.11-.527.513-.581a7.876,7.876,0,0,0,1.38-.4c.524-.172.77-.39.442-1.025-.911-1.763-1.745-3.566-2.6-5.358-1.177-2.467-2.344-4.938-3.524-7.4-.079-.165-.045-.471-.338-.441-.21.021-.246.267-.322.426-.992,2.1-1.97,4.212-2.962,6.315q-1.568,3.325-3.158,6.64c-.187.391-.219.624.319.736.556.116,1.076.4,1.632.517.369.076.477.23.449.559-.057.669-.054,1.347-.075,2.011-.017.526-.157.524-.514.517-.47-.008-.94-.025-1.409-.018-.2,0-.472-.117-.574.119s.166.353.3.493c1.516,1.539,3.05,3.061,4.55,4.615a12.78,12.78,0,0,1,1.73,1.671L38.2,52.313m-9.015-23.36c-1.7-4.734-3.372-9.345-5.006-13.969-.218-.617-.452-.71-.986-.375-.573.36-1.23.988-1.763.91C20.8,15.426,20.479,14.5,19.95,14a2.289,2.289,0,0,1-.234-.263c-.209-.268-.326-.493.041-.775a9.392,9.392,0,0,0,1.05-1.04c.118-.125.365-.213.263-.44-.082-.18-.293-.094-.445-.095-2.821-.005-5.642,0-8.462-.012-.425,0-.59.1-.556.549.093,1.232.1,2.481.077,3.7-.028,1.61.01,3.224-.045,4.835-.005.158-.113.372.166.52.45-.467.917-.932,1.36-1.418.219-.24.341-.236.616-.023a19.13,19.13,0,0,0,1.692,1.437c.244.147.307.306.076.611-.358.472-.572,1.051-.9,1.554-.291.452-.108.664.31.812.971.343,1.946.674,2.914,1.025,2.928,1.062,5.846,2.153,8.785,3.182a12.907,12.907,0,0,0,2.521.788M11.668,41.35c-.175.171-.111.346-.111.5,0,2.821.015,5.641-.018,8.461-.007.589.2.678.719.674,2.726-.023,5.453-.007,8.179-.017.216,0,.532.14.631-.118s-.224-.373-.378-.53c-1.307-1.329-1.31-1.327,0-2.7a6.009,6.009,0,0,0,.486-.509c.205-.275.4-.193.633-.049.509.312,1.019.625,1.548.9a.412.412,0,0,0,.657-.278c.209-.653.445-1.3.677-1.944,1.377-3.83,2.76-7.658,4.122-11.495.066-.187.309-.422.109-.62s-.449.052-.638.119c-2.258.791-4.5,1.629-6.752,2.436q-3.309,1.186-6.633,2.331c-.419.143-.432.359-.286.685A10.422,10.422,0,0,0,15.53,40.8c.12.176.355.395.017.646-.536.4-1.06.82-1.554,1.269-.422.383-.744.364-1.072-.1a6.307,6.307,0,0,0-1.252-1.268" transform="translate(0 0)" fill="#fff"/>
  </g>
</svg>
