<svg id="Close_Icon" xmlns="http://www.w3.org/2000/svg" width="27.253" height="27.252" viewBox="0 0 27.253 27.252">
  <path id="Path_61054" data-name="Path 61054" d="M22.548,21.067,19.1,17.614l3.452-3.452a1.047,1.047,0,1,0-1.481-1.481l-3.452,3.452-3.452-3.452a1.047,1.047,0,0,0-1.481,1.481l3.452,3.452-3.452,3.452a1.012,1.012,0,0,0,0,1.481,1.04,1.04,0,0,0,1.481,0l3.452-3.452,3.452,3.452a1.052,1.052,0,0,0,1.481,0A1.04,1.04,0,0,0,22.548,21.067Z" transform="translate(-3.989 -3.988)" fill="#0c3443"/>
  <path id="Path_61055" data-name="Path 61055" d="M17,5.209a11.787,11.787,0,1,1-8.34,3.452A11.714,11.714,0,0,1,17,5.209m0-1.834A13.626,13.626,0,1,0,30.628,17,13.624,13.624,0,0,0,17,3.375Z" transform="translate(-3.375 -3.375)" fill="#0c3443"/>
</svg>
