<svg id="Google_Icon" xmlns="http://www.w3.org/2000/svg" width="53.554" height="54.782" viewBox="0 0 53.554 54.782">
  <g id="Group_109462" data-name="Group 109462">
    <path id="Path_91588" data-name="Path 91588" d="M278.121,246.743c6.472-6.04,9.348-16.107,7.622-25.743H260v10.642h14.669a12.111,12.111,0,0,1-5.465,8.2Z" transform="translate(-232.681 -198.589)" fill="#fff" opacity="0.629"/>
    <path id="Path_91589" data-name="Path 91589" d="M90,299.047a27.613,27.613,0,0,0,42.569,8.485l-8.917-6.9A16.482,16.482,0,0,1,99.06,292Z" transform="translate(-87.129 -259.379)" fill="#fff" opacity="0.968"/>
    <path id="Path_91590" data-name="Path 91590" d="M81.97,187.545a16.4,16.4,0,0,1,0-10.5L72.91,170a27.788,27.788,0,0,0,0,24.592Z" transform="translate(-70.039 -154.924)" fill="#fff" opacity="0.71"/>
    <path id="Path_91591" data-name="Path 91591" d="M99.06,87.294c3.164-9.923,16.683-15.676,25.743-7.191l7.91-7.766C121.5,61.551,99.636,61.983,90,80.247Z" transform="translate(-87.129 -65.171)" fill="#fff" opacity="0.359"/>
  </g>
</svg>
