<svg width="123" height="117" viewBox="0 0 123 117" fill="none" xmlns="http://www.w3.org/2000/svg">
<mask id="mask0_1_1601" style="mask-type:luminance" maskUnits="userSpaceOnUse" x="25" y="0" width="73" height="74">
<path d="M97.8241 0.5H25.0001V73.324H97.8241V0.5Z" fill="white"/>
</mask>
<g mask="url(#mask0_1_1601)">
<path d="M71.0931 14.899C71.0931 15.093 71.3991 15.287 71.6211 15.315C71.7865 15.3015 71.9427 15.2332 72.0651 15.121C71.9541 15.51 71.4821 15.593 70.9831 15.593C70.4281 15.593 70.1831 15.565 69.9831 15.371C69.9281 15.288 69.8721 15.204 69.7891 15.093L69.6781 15.176C69.9551 15.676 70.2611 16.147 70.7601 16.147C70.9635 16.1307 71.1616 16.0743 71.3431 15.981C71.6824 15.863 71.9819 15.6523 72.2075 15.3726C72.433 15.093 72.5756 14.7557 72.6191 14.399C72.6191 14.177 72.5081 14.094 72.2861 14.066C71.7311 14.094 71.0651 14.482 71.0931 14.899ZM71.7591 14.427C71.8342 14.4311 71.9056 14.461 71.9612 14.5116C72.0168 14.5623 72.0531 14.6306 72.0641 14.705C72.0751 14.7482 72.0757 14.7933 72.066 14.8367C72.0562 14.8802 72.0365 14.9207 72.0081 14.955C71.8141 14.927 71.5081 14.677 71.5081 14.511C71.5361 14.428 71.6191 14.428 71.7581 14.428" fill="white"/>
<path d="M73.2571 17.23C73.4547 17.1331 73.6332 17.0014 73.7841 16.841C74.0046 16.6315 74.153 16.3574 74.2078 16.0582C74.2626 15.759 74.221 15.4501 74.0891 15.176L73.5621 15.481C73.6696 15.6638 73.7216 15.874 73.7116 16.0859C73.7017 16.2977 73.6303 16.5021 73.5061 16.674C73.2291 16.369 72.9791 16.063 72.6731 15.786L72.2841 16.147C72.6451 16.536 72.9781 16.869 73.2551 17.229" fill="white"/>
<path d="M65.626 11.707L65.681 11.735L65.6531 12.068C65.6404 12.156 65.6621 12.2455 65.7137 12.3179C65.7653 12.3904 65.8427 12.4402 65.9301 12.457C67.4864 12.9211 68.9576 13.6333 70.287 14.566C70.481 14.427 70.8421 14.233 70.8981 14.039L71.3141 13.206C71.5247 13.1668 71.7295 13.1016 71.9241 13.012L71.6741 12.457C71.6444 12.4003 71.6312 12.3363 71.6362 12.2725C71.6411 12.2086 71.664 12.1475 71.7021 12.096L71.0641 12.401L71.147 12.651C70.953 13.1085 70.7306 13.5533 70.4811 13.983C69.1151 13.0856 67.6294 12.3851 66.0681 11.902C65.9851 11.874 65.985 11.791 65.985 11.625L66.1241 10.099L65.7081 10.543L65.735 10.709C65.208 10.848 64.875 10.931 64.735 11.125C64.605 11.3035 64.4845 11.4888 64.3741 11.68C64.6392 11.8343 64.9176 11.9645 65.2061 12.069C65.4001 12.069 65.4561 11.819 65.6221 11.708M64.9841 11.272C65.0518 11.2286 65.1266 11.1975 65.2051 11.18L65.5641 11.095L65.733 10.895C65.7318 11.1211 65.7135 11.3467 65.678 11.57C65.4229 11.5223 65.1785 11.4284 64.957 11.293L64.985 11.274" fill="white"/>
<path d="M53.554 14.4731L53.4791 14.7671L53.0731 14.784L52.9531 15.2511L53.4911 15.2281L53.566 14.9341L53.972 14.9171L54.062 14.5651H54.122C54.604 14.5911 55.144 14.5981 55.382 14.2281C55.5595 13.8654 55.618 13.4559 55.549 13.0581C57.0927 12.3969 58.732 11.9864 60.4051 11.8421L60.584 11.5091H60.6111C60.7181 11.7641 60.83 11.8411 61.071 11.8141C61.2739 11.7915 61.478 11.7821 61.6821 11.7861H61.821C61.904 11.5641 62.0981 11.2031 62.0431 11.0371L61.9041 10.1211C62.0659 9.96499 62.2058 9.78771 62.32 9.59406L61.7931 9.26105C61.7354 9.23351 61.6866 9.1903 61.6523 9.13638C61.618 9.08245 61.5996 9.01997 61.5991 8.95605L61.2661 9.59406L61.4601 9.73306C61.5686 10.2176 61.6428 10.7091 61.6821 11.2041C61.4411 11.2041 61.1971 11.2121 60.9521 11.2241C60.9031 10.7241 60.6331 10.2381 59.9621 10.2881C58.62 10.4255 57.2979 10.7146 56.0211 11.1501C56.3752 10.683 56.831 10.3027 57.3541 10.0381L57.576 9.37206C56.874 9.71648 56.2862 10.256 55.8831 10.9261C55.7858 11.0842 55.7374 11.2675 55.744 11.4531C55.7391 11.4878 55.7439 11.5233 55.758 11.5555C55.772 11.5877 55.7947 11.6154 55.8235 11.6355C55.8523 11.6556 55.8861 11.6673 55.9211 11.6693C55.9562 11.6714 55.9911 11.6637 56.0221 11.6471C57.2611 11.2131 58.5464 10.9245 59.8521 10.7871C59.9205 10.7755 59.9906 10.7791 60.0576 10.7976C60.1245 10.816 60.1866 10.8489 60.2394 10.8938C60.2923 10.9388 60.3347 10.9948 60.3637 11.0579C60.3926 11.121 60.4074 11.1896 60.407 11.2591C58.6671 11.4231 56.9619 11.8489 55.3491 12.5221C55.1491 12.1381 54.843 11.7561 54.524 11.7561C54.247 11.7561 54.1361 12.2281 54.1631 12.5891C54.2191 13.3661 54.4961 13.5331 55.0511 13.2551L55.273 13.1441L55.29 13.1371C55.2726 13.3273 55.2095 13.5104 55.106 13.6711C54.678 14.3931 54.456 14.4191 54.093 14.4451L53.554 14.4731ZM54.8271 12.7621C54.5771 12.9011 54.4111 12.8451 54.3831 12.6791C54.3709 12.6057 54.3871 12.5306 54.4283 12.4687C54.4696 12.4069 54.5327 12.3631 54.605 12.3461C54.7007 12.3483 54.7936 12.3784 54.8724 12.4325C54.9512 12.4867 55.0126 12.5626 55.049 12.6511L54.8271 12.7621Z" fill="white"/>
<path d="M50.2111 14.451L50.6111 14.37L50.6551 13.889L50.1281 13.997L50.1001 14.297L49.7001 14.378L49.6561 14.859L50.1831 14.751L50.2111 14.451Z" fill="white"/>
<path d="M65.2731 9.856L65.5731 10.13L65.9881 9.884L65.5881 9.52L65.3271 9.675L65.0271 9.401L64.6121 9.647L65.0121 10.011L65.2731 9.856Z" fill="white"/>
<path d="M49.7191 17.152C49.8963 17.1428 50.0628 17.0645 50.183 16.934C50.869 16.2027 51.604 15.5191 52.3831 14.888L52.356 14.438L52.4561 14.492C52.5323 14.5318 52.6162 14.555 52.7021 14.56C52.775 14.5516 52.8442 14.5232 52.9021 14.478C53.0381 14.396 53.57 14.014 53.843 13.864C53.8054 13.5646 53.6844 13.2818 53.4938 13.0479C53.3032 12.814 53.0507 12.6384 52.765 12.541L52.7511 13.1C52.9927 13.1732 53.2127 13.3043 53.3921 13.482L52.7101 13.932C52.6517 13.9742 52.582 13.9979 52.5101 14C52.2651 14 52.1421 13.632 51.8961 13.332C51.9022 13.5098 51.8932 13.6878 51.869 13.864C51.9888 14.0022 52.0854 14.1589 52.1551 14.328C51.3716 14.982 50.6248 15.6787 49.9181 16.415C49.8651 16.4756 49.8002 16.5247 49.7274 16.5591C49.6546 16.5935 49.5755 16.6125 49.4951 16.615C49.2631 16.615 49.059 16.397 48.881 16.056L48.813 16.083C48.922 16.424 49.2901 17.147 49.7271 17.147" fill="white"/>
<path d="M63.243 10.474C63.243 10.119 63.243 9.45105 63.216 9.09705C63.0563 9.29776 62.9148 9.51227 62.793 9.73804L62.848 11.938C63.1643 11.5214 63.3076 10.9987 63.248 10.479" fill="white"/>
<path d="M91.4541 24.147C91.0134 24.5862 90.5505 25.0024 90.0671 25.394C89.9767 23.4424 89.6681 21.507 89.1471 19.624C89.0665 19.1095 88.8813 18.6169 88.6028 18.1767C88.3243 17.7366 87.9585 17.3582 87.5281 17.065C87.0282 16.799 86.4439 16.7401 85.9011 16.901C84.9297 14.5622 83.6182 12.3796 82.0091 10.424C81.7725 10.136 81.4801 9.89896 81.1494 9.72709C80.8187 9.55522 80.4567 9.45213 80.0851 9.42403C79.5366 9.39306 78.9959 9.56498 78.5661 9.90703C77.015 8.37814 75.249 7.08383 73.3241 6.06503C72.9622 5.86203 72.563 5.73443 72.1506 5.68992C71.7381 5.6454 71.3209 5.6849 70.9241 5.80603C70.4534 5.96472 70.0557 6.28781 69.8041 6.71603C68.0731 6.0288 66.2562 5.58132 64.4041 5.38603C63.9791 5.32555 63.5462 5.35434 63.1329 5.47056C62.7197 5.58678 62.3352 5.78788 62.0041 6.06103C61.8203 6.22559 61.6669 6.42125 61.5511 6.63903C61.4375 6.42338 61.2872 6.22915 61.1071 6.06503C60.7759 5.79194 60.3914 5.59087 59.9782 5.47465C59.565 5.35843 59.132 5.32961 58.7071 5.39003C56.8549 5.58531 55.0381 6.03278 53.3071 6.72003C53.0555 6.29175 52.6578 5.96864 52.1871 5.81003C51.7903 5.68896 51.373 5.64949 50.9606 5.694C50.5481 5.73852 50.1489 5.86609 49.7871 6.06903C47.8623 7.08689 46.0963 8.38018 44.5451 9.90803C44.1153 9.5659 43.5745 9.39396 43.0261 9.42503C42.6554 9.45466 42.2945 9.55887 41.9651 9.73139C41.6357 9.90392 41.3445 10.1412 41.1091 10.429C39.5007 12.3837 38.1899 14.5653 37.2191 16.903C36.6765 16.7414 36.0921 16.7996 35.5921 17.065C35.1615 17.358 34.7955 17.7361 34.5169 18.1761C34.2383 18.6161 34.0528 19.1085 33.9721 19.623C33.4494 21.5115 33.1405 23.4526 33.0511 25.41C32.5603 25.0139 32.0907 24.5923 31.6441 24.147L31.2721 23.774V24.301C31.2654 26.4455 31.6222 28.5757 32.3271 30.601C33.0629 32.6581 34.0619 34.6113 35.2991 36.412C34.4544 36.3256 33.6219 36.1455 32.8171 35.875L32.3271 35.702L32.5461 36.173C34.1597 39.8163 36.8313 42.8903 40.2141 44.996C39.3891 45.2106 38.5463 45.3492 37.6961 45.41L37.1881 45.438L37.5591 45.787C40.6171 48.8366 44.4631 50.9757 48.6671 51.965C48.0753 52.3692 47.4561 52.7318 46.8141 53.05L46.5551 53.187L46.1911 53.38L46.5551 53.573C48.7152 54.7118 51.001 55.5941 53.3661 56.202C53.5935 58.4 54.2219 60.5376 55.2201 62.509C56.5622 65.0572 58.7839 67.0315 61.4721 68.065L61.5531 68.097L61.6341 68.065C64.3222 67.0294 66.5428 65.0529 67.8831 62.503C68.8805 60.5338 69.5089 58.3986 69.7371 56.203C72.1027 55.5923 74.3888 54.7073 76.5491 53.566L76.9131 53.373L76.5491 53.18L76.2901 53.043C75.6461 52.7273 75.025 52.367 74.4311 51.965C78.6341 50.9769 82.4796 48.8397 85.5381 45.792L85.9091 45.443L85.4011 45.415C84.5509 45.3542 83.708 45.2156 82.8831 45.001C86.2659 42.8954 88.9375 39.8213 90.5511 36.178L90.7701 35.707L90.2801 35.88C89.4752 36.1505 88.6428 36.3306 87.7981 36.417C89.036 34.6161 90.0356 32.6626 90.7721 30.605C91.4769 28.5797 91.8336 26.4495 91.8271 24.305V23.778L91.4541 24.147ZM87.3201 17.447C87.6934 17.7154 88.0095 18.0556 88.2499 18.4476C88.4903 18.8396 88.6501 19.2756 88.7201 19.73C89.2629 21.6865 89.5711 23.7007 89.6381 25.73C89.0991 26.144 88.5381 26.536 87.9461 26.903C87.9144 23.6179 87.2792 20.3665 86.0721 17.311C86.492 17.1974 86.9393 17.247 87.3241 17.45M80.0621 9.85703C80.3741 9.88244 80.6779 9.97076 80.9549 10.1167C81.2319 10.2626 81.4766 10.4631 81.6741 10.706C85.4649 15.3524 87.5292 21.1684 87.5161 27.165C86.9351 27.51 86.3361 27.829 85.7261 28.119C85.7261 28.029 85.7371 27.94 85.7431 27.848C85.7571 27.648 85.7711 27.432 85.7711 27.206C85.7748 22.7529 84.5588 18.3839 82.2551 14.573C81.3012 12.995 80.168 11.5326 78.8781 10.215C79.2186 9.96059 79.6376 9.83388 80.0621 9.85703ZM71.0721 6.21703C71.4122 6.11574 71.7692 6.08417 72.1218 6.12421C72.4744 6.16425 72.8153 6.27507 73.1241 6.45003C76.7473 8.38661 79.7751 11.2727 81.8831 14.799C84.1456 18.5417 85.3398 22.8326 85.3361 27.206C85.3361 27.417 85.3231 27.612 85.3091 27.819C85.2981 27.982 85.2871 28.149 85.2831 28.325C84.6961 28.589 84.1011 28.825 83.5041 29.031C83.5491 28.431 83.5891 27.816 83.5891 27.207C83.5917 21.7563 81.5835 16.4962 77.9491 12.434C75.8153 10.0327 73.1737 8.13655 70.2161 6.88303C70.416 6.56888 70.7184 6.33357 71.0721 6.21703ZM62.3071 6.38503C62.5921 6.15387 62.922 5.98431 63.2759 5.88707C63.6297 5.78982 63.9999 5.76699 64.3631 5.82003C69.4878 6.38947 74.2159 8.84981 77.6231 12.72C81.1872 16.703 83.1559 21.8612 83.1521 27.206C83.1521 27.861 83.1041 28.529 83.0521 29.179C82.4687 29.3654 81.8763 29.5223 81.2771 29.649C81.3678 28.8379 81.4102 28.0222 81.4041 27.206C81.4109 21.9782 79.3532 16.9591 75.6786 13.2407C72.0039 9.52218 67.0096 7.40512 61.7821 7.35003C61.8344 6.97586 62.0202 6.63318 62.3051 6.38503M74.2341 41.865C73.3196 41.9921 72.4298 42.2574 71.5951 42.652C70.5086 43.1799 69.3258 43.4804 68.1191 43.535C67.1321 43.5089 66.1597 43.2908 65.2561 42.893C65.1506 42.3979 65.0194 41.9086 64.8631 41.427C65.8804 41.9187 66.9897 42.1912 68.1191 42.227C69.3297 42.1796 70.5168 41.8777 71.6031 41.341C72.5568 40.8631 73.5996 40.589 74.6651 40.536C74.9741 40.536 75.2826 40.5594 75.5881 40.606C75.1547 41.0494 74.7034 41.4697 74.2341 41.867M73.7411 42.267C72.5131 43.2481 71.1561 44.0557 69.7081 44.667C68.9408 45.0182 68.1188 45.2347 67.2781 45.307C66.2721 45.307 65.6711 44.679 65.3411 43.277C66.2224 43.6449 67.1652 43.8434 68.1201 43.862C69.3695 43.8094 70.5948 43.5007 71.7201 42.955C72.3703 42.6622 73.0471 42.4311 73.7411 42.267ZM75.8621 40.315C75.4664 40.2406 75.0647 40.2031 74.6621 40.203C73.5532 40.2573 72.4674 40.5402 71.4731 41.034C70.426 41.552 69.2822 41.8449 68.1151 41.894C66.9607 41.8465 65.8294 41.5559 64.7951 41.041L64.7061 41.003C64.5427 40.3844 64.1723 39.8404 63.6567 39.4616C63.141 39.0828 62.5112 38.892 61.8721 38.921C60.6747 38.8801 59.4985 39.2437 58.5331 39.953C58.2949 40.1864 58.1465 40.4962 58.1141 40.828C57.6941 40.9605 57.321 41.2107 57.0391 41.549C56.3903 41.7729 55.7093 41.8894 55.0231 41.894C53.856 41.8449 52.7121 41.552 51.6651 41.034C50.6707 40.5402 49.585 40.2573 48.4761 40.203C48.0684 40.2032 47.6616 40.2417 47.2611 40.318C47.0197 40.0514 46.7837 39.7787 46.5531 39.5C46.3757 39.2834 46.2031 39.0634 46.0351 38.84C46.8137 38.5344 47.6399 38.3679 48.4761 38.348C49.5004 38.4106 50.5019 38.6767 51.4221 39.131C52.5472 39.6772 53.7725 39.9863 55.0221 40.039C56.2585 39.9882 57.471 39.6818 58.5831 39.139C59.5148 38.6766 60.5306 38.4075 61.5691 38.348C62.6076 38.4075 63.6233 38.6766 64.5551 39.139C65.6671 39.6818 66.8796 39.9882 68.1161 40.039C69.3656 39.9862 70.591 39.6772 71.7161 39.131C72.6362 38.6767 73.6378 38.4106 74.6621 38.348C75.5004 38.3681 76.3286 38.5353 77.1091 38.842C76.9584 39.0387 76.8037 39.2327 76.6451 39.424C76.3917 39.7294 76.1294 40.026 75.8581 40.314M56.8221 43.814L56.8711 43.914L57.3271 43.993L57.3411 43.893C57.3792 43.7018 57.4393 43.5156 57.5201 43.338C58.1971 43.364 58.9261 43.555 58.9261 44.262C58.9261 44.532 58.9261 45.353 56.7981 45.353C55.8935 45.3515 54.9948 45.2074 54.1351 44.926C52.3633 44.3462 50.7186 43.4335 49.2891 42.237C50.0232 42.3967 50.7382 42.634 51.4221 42.945C52.5472 43.4912 53.7725 43.8003 55.0221 43.853C55.6008 43.8503 56.1768 43.7716 56.7351 43.619C56.7601 43.683 56.7881 43.748 56.8211 43.819M56.6391 43.311C56.1119 43.4543 55.5683 43.5282 55.0221 43.531C53.8153 43.4766 52.6325 43.1761 51.5461 42.648C50.6885 42.2394 49.7708 41.9713 48.8281 41.854C48.3821 41.4647 47.9487 41.0484 47.5281 40.605C47.842 40.5558 48.1593 40.531 48.4771 40.531C49.5425 40.584 50.5853 40.8581 51.5391 41.336C52.6253 41.8727 53.8124 42.1746 55.0231 42.222C55.6137 42.2203 56.2013 42.1369 56.7691 41.974C56.6463 42.2303 56.5824 42.5108 56.5821 42.795C56.5823 42.969 56.6021 43.1424 56.6411 43.312M77.3191 38.565C76.4745 38.2256 75.576 38.0403 74.6661 38.018C73.5985 38.0784 72.5541 38.3532 71.5951 38.826C70.5087 39.3541 69.3258 39.6546 68.1191 39.709C66.9258 39.6563 65.7562 39.3585 64.6831 38.834C63.7124 38.3531 62.6538 38.0754 61.5721 38.018C60.4903 38.0754 59.4317 38.3531 58.4611 38.834C57.3879 39.3585 56.2183 39.6563 55.0251 39.709C53.8183 39.6546 52.6355 39.3541 51.5491 38.826C50.59 38.3532 49.5456 38.0784 48.4781 38.018C47.571 38.04 46.6752 38.2243 45.8331 38.562C45.5857 38.2207 45.3494 37.873 45.1241 37.519L45.1391 37.513C46.1887 37.0295 47.3233 36.7576 48.4781 36.713C49.5435 36.766 50.5863 37.0401 51.5401 37.518C52.6263 38.0547 53.8134 38.3566 55.0241 38.404C56.2223 38.3584 57.3973 38.0588 58.4711 37.525C59.4357 37.0392 60.4921 36.7626 61.5711 36.713C62.65 36.7626 63.7064 37.0392 64.6711 37.525C65.7449 38.0588 66.9198 38.3584 68.1181 38.404C69.3287 38.3566 70.5158 38.0547 71.6021 37.518C72.5558 37.0401 73.5986 36.766 74.6641 36.713C75.8188 36.7576 76.9535 37.0294 78.0031 37.513L78.0331 37.525C77.8071 37.879 77.5684 38.2257 77.3171 38.565M78.2101 37.242L78.1221 37.208C77.0358 36.7065 75.8607 36.4254 74.6651 36.381C73.5562 36.4353 72.4704 36.7182 71.4761 37.212C70.429 37.73 69.2852 38.0229 68.1181 38.072C66.964 38.0244 65.833 37.7338 64.7991 37.219C63.7934 36.7187 62.6942 36.4346 61.5721 36.385C60.4497 36.4359 59.3504 36.7213 58.3451 37.223C57.3111 37.7378 56.1801 38.0284 55.0261 38.076C53.859 38.0269 52.7151 37.734 51.6681 37.216C50.6737 36.7222 49.588 36.4393 48.4791 36.385C47.2834 36.4294 46.1084 36.7105 45.0221 37.212L44.9501 37.24C44.6487 36.7467 44.3701 36.2427 44.1141 35.728C44.5041 35.597 44.8791 35.456 45.2431 35.317C46.2627 34.8538 47.3605 34.5868 48.4791 34.53C49.5034 34.5926 50.5049 34.8587 51.4251 35.313C52.5502 35.8592 53.7755 36.1683 55.0251 36.221C56.2615 36.1702 57.474 35.8638 58.5861 35.321C59.5178 34.8586 60.5336 34.5895 61.5721 34.53C62.6106 34.5895 63.6263 34.8586 64.5581 35.321C65.6701 35.8638 66.8826 36.1702 68.1191 36.221C69.3686 36.1682 70.594 35.8592 71.7191 35.313C72.6392 34.8587 73.6408 34.5926 74.6651 34.53C75.7836 34.5868 76.8814 34.8538 77.9011 35.317C78.2701 35.457 78.6501 35.601 79.0461 35.733C78.7914 36.2484 78.5127 36.7527 78.2101 37.246M79.1891 35.436C78.7891 35.303 78.3951 35.155 78.0171 35.011C76.9606 34.532 75.8228 34.2578 74.6641 34.203C73.5965 34.2634 72.5521 34.5382 71.5931 35.011C70.5067 35.5391 69.3238 35.8396 68.1171 35.894C66.9238 35.8413 65.7542 35.5435 64.6811 35.019C63.7104 34.538 62.6518 34.2604 61.5701 34.203C60.4883 34.2604 59.4297 34.538 58.4591 35.019C57.3859 35.5435 56.2163 35.8413 55.0231 35.894C53.8163 35.8396 52.6335 35.5391 51.5471 35.011C50.588 34.5382 49.5436 34.2634 48.4761 34.203C47.3173 34.2578 46.1795 34.532 45.1231 35.011C44.7491 35.153 44.3641 35.299 43.9651 35.431C43.7851 35.053 43.6184 34.6714 43.4651 34.286C44.0651 34.116 44.6091 33.904 45.1391 33.697C46.1887 33.2137 47.3233 32.9419 48.4781 32.897C49.5435 32.95 50.5863 33.2241 51.5401 33.702C52.6263 34.2387 53.8134 34.5406 55.0241 34.588C56.223 34.5413 57.3983 34.2403 58.4721 33.705C59.4367 33.2192 60.4931 32.9426 61.5721 32.893C62.651 32.9426 63.7074 33.2192 64.6721 33.705C65.7459 34.2388 66.9208 34.5384 68.1191 34.584C69.3297 34.5366 70.5168 34.2347 71.6031 33.698C72.5568 33.2201 73.5996 32.946 74.6651 32.893C75.8198 32.9377 76.9544 33.2096 78.0041 33.693C78.5371 33.9 79.0861 34.113 79.6851 34.283C79.5331 34.671 79.3664 35.0537 79.1851 35.431M45.2851 16.598L50.7181 20.229L50.8391 20.048C52.0155 18.2878 53.6079 16.8449 55.4752 15.847C57.3424 14.8491 59.4269 14.3271 61.5441 14.3271C63.6612 14.3271 65.7457 14.8491 67.613 15.847C69.4802 16.8449 71.0726 18.2878 72.2491 20.048L72.3701 20.229L77.8191 16.588C79.8849 19.7433 80.9811 23.4347 80.9721 27.206C80.9721 27.45 80.9721 27.683 80.9631 27.906C79.9075 27.5287 78.7595 27.4958 77.6841 27.812C77.3814 26.5283 76.582 25.417 75.4612 24.7219C74.3403 24.0268 72.9895 23.8046 71.7051 24.104C71.575 22.978 71.0891 21.9229 70.3181 21.092C70.2251 20.992 70.1271 20.899 70.0271 20.808C70.0697 20.734 70.1134 20.6604 70.1581 20.587L70.5661 20.417L70.4001 20.017C70.1001 20.1404 69.8031 20.2664 69.5091 20.395C68.9105 19.9767 68.2342 19.6826 67.5201 19.53C66.6173 19.3225 65.6759 19.3557 64.79 19.6263C63.9041 19.8969 63.1048 20.3955 62.4721 21.072C62.7792 19.5608 63.355 18.1169 64.1721 16.809L64.2091 16.751L64.5721 16.565L64.3811 16.172C62.5464 17.064 60.7384 18.0307 58.9571 19.072C58.4846 18.4593 57.8333 18.0087 57.0934 17.7825C56.3534 17.5563 55.5615 17.5657 54.8272 17.8095C54.0929 18.0532 53.4525 18.5192 52.9947 19.143C52.5369 19.7668 52.2844 20.5174 52.2721 21.291H52.2001C51.757 21.2904 51.3213 21.4048 50.9357 21.623C50.55 21.8413 50.2277 22.1559 50.0001 22.536C49.4145 22.1014 48.7258 21.8267 48.0018 21.739C47.2778 21.6514 46.5435 21.7537 45.8711 22.036C45.2342 22.3114 44.6832 22.7531 44.2757 23.3147C43.8682 23.8763 43.6193 24.5372 43.5551 25.228C43.3609 25.1203 43.1467 25.0535 42.9257 25.0317C42.7047 25.0098 42.4816 25.0334 42.2701 25.101C42.5912 22.0699 43.6284 19.1585 45.2961 16.607M50.8531 29.645L50.8371 29.863L50.9741 29.873L50.9441 30.265L50.5491 30.232L49.7911 29.582C50.6681 29.423 51.5661 29.296 52.4771 29.201L52.1381 30.365L51.3721 30.301L51.4021 29.901L51.5381 29.911L51.5551 29.693L50.8531 29.645ZM48.8981 28.818C48.8681 28.788 48.8391 28.761 48.8111 28.735C48.7463 28.0062 48.7799 27.2719 48.9111 26.552C50.7851 25.0447 52.7084 23.626 54.6811 22.296L53.5221 26.355C53.4544 26.3591 53.3896 26.3841 53.3368 26.4265C53.2839 26.469 53.2456 26.5268 53.2271 26.592L53.2031 26.676L52.5461 28.976C51.5391 29.076 50.5461 29.22 49.5821 29.4L48.8981 28.818ZM49.1101 29.224L48.6681 29.615L48.4811 29.415L48.9081 29.036L49.1101 29.224ZM57.6101 30.824L57.3621 29.001C57.6234 29.0064 57.8847 29.014 58.1461 29.024C58.1304 29.5756 58.2009 30.1262 58.3551 30.656L58.3841 30.756L58.4841 30.733C58.8947 30.641 59.3127 30.5594 59.7381 30.488L60.2261 31.728C59.3887 31.716 58.5537 31.685 57.7211 31.635L57.6711 31.268L59.5921 31.429L59.6281 30.994L57.6101 30.824ZM56.7011 28.993L56.9421 30.768L56.0331 30.692L56.0071 28.992C56.2384 28.992 56.4697 28.993 56.7011 28.993ZM56.6721 27.153C56.6938 27.1576 56.7159 27.16 56.7381 27.16C56.7527 27.161 56.7674 27.161 56.7821 27.16C56.8191 27.1549 56.8549 27.1434 56.8881 27.126L57.1121 28.775H56.8921L56.6721 27.153ZM57.0021 31.207L57.0541 31.587C56.7174 31.563 56.3814 31.5364 56.0461 31.507L56.0401 31.127L57.0021 31.207ZM56.9211 28.99H57.1421L57.3881 30.799L57.1651 30.78L56.9211 28.99ZM57.4471 31.244L57.4981 31.616L57.2721 31.602L57.2211 31.226L57.4471 31.244ZM64.8251 23.251L64.7011 29.902C63.9331 29.891 63.1681 29.909 62.4141 29.957L63.3831 27.179L63.4121 27.097C63.4347 27.0336 63.4372 26.9647 63.4193 26.8997C63.4014 26.8348 63.364 26.7769 63.3121 26.734L64.4481 23.477L64.8311 23.251M64.6711 22.838L64.8481 22.331L64.8401 22.74L64.6711 22.84M60.4071 30.382C60.8071 30.3254 61.2144 30.278 61.6291 30.24L61.1101 31.73H60.9371L60.4071 30.382ZM60.7071 31.729H60.4721L59.9721 30.45L60.1931 30.416L60.7071 31.729ZM61.8721 30.219L62.1101 30.2L61.5781 31.725H61.3461L61.8721 30.219ZM61.9511 29.993L62.8801 27.329C62.9367 27.3748 63.0072 27.4002 63.0801 27.401L62.1801 29.975L61.9431 29.993M62.3431 30.183C63.1211 30.131 63.9111 30.111 64.7041 30.123L64.6901 30.863C64.4491 30.878 64.2111 30.892 63.9791 30.903L63.8851 30.42H63.4491V31.663C62.9071 31.689 62.3491 31.711 61.8071 31.722L62.3431 30.183ZM63.1081 26.665C63.0404 26.6653 62.9745 26.6865 62.9194 26.7257C62.8642 26.7649 62.8225 26.8202 62.8001 26.884L62.7711 26.966L61.7081 30.014C61.2414 30.056 60.7804 30.1094 60.3251 30.174L59.1641 27.222C60.7389 25.9131 62.4077 24.7216 64.1571 23.657L63.1081 26.665ZM60.1081 30.207L59.8871 30.242L58.8161 27.519L58.9771 27.365L60.1081 30.207ZM58.6471 27.089L57.9651 25.355C58.0389 25.3528 58.1096 25.3249 58.1651 25.276L58.8201 26.942L58.6441 27.09M58.6371 27.669L59.6641 30.279C59.2854 30.3457 58.9124 30.418 58.5451 30.496C58.3023 29.5867 58.312 28.6283 58.5731 27.724L58.6371 27.669ZM66.8221 30.691V30.231C67.4781 30.288 68.1311 30.367 68.7791 30.467C68.1301 30.551 67.4721 30.627 66.8221 30.691ZM68.6791 30.897L68.4941 31.251C68.1027 31.3004 67.7111 31.3457 67.3191 31.387L67.5011 31.039C67.8931 30.9964 68.2854 30.9494 68.6781 30.898M67.1101 31.081L66.9291 31.428C66.5404 31.466 66.1547 31.4994 65.7721 31.528L65.9511 31.186C66.3344 31.1554 66.7207 31.121 67.1101 31.081ZM66.6031 30.713C66.2111 30.75 65.8241 30.783 65.4431 30.813L65.4311 30.145C65.8217 30.1604 66.2127 30.1834 66.6041 30.214L66.6031 30.713ZM65.5671 31.213L65.3891 31.554C65.0041 31.581 64.6231 31.603 64.2511 31.619L64.4261 31.283C64.7994 31.2644 65.1804 31.241 65.5671 31.213ZM65.2721 22.091L65.4531 22.391L65.2801 22.491L65.2721 22.091ZM65.2641 21.655L65.2491 20.87H64.8671L64.8531 21.632L64.3731 23.01C63.5877 23.4767 62.8211 23.9644 62.0731 24.473C62.0921 23.7621 62.1492 23.0528 62.2441 22.348C62.2721 22.142 62.3051 21.939 62.3441 21.738C62.9191 20.9601 63.7088 20.367 64.6163 20.0318C65.5238 19.6966 66.5094 19.6337 67.4521 19.851C68.056 19.9808 68.6318 20.2179 69.1521 20.551C67.9394 21.0897 66.7697 21.668 65.6431 22.286L65.2641 21.655ZM62.0301 22.317C61.9279 23.0817 61.8695 23.8517 61.8551 24.623C60.8684 25.305 59.9127 26.0277 58.9881 26.791L58.2461 24.906L58.2141 24.825C58.1894 24.762 58.1457 24.7082 58.0891 24.6711C58.0325 24.634 57.9657 24.6155 57.8981 24.618L56.5091 21.087C58.8775 19.5771 61.3228 18.1912 63.8351 16.935C62.8715 18.5863 62.2572 20.4187 62.0301 22.317ZM57.6951 24.698C57.6435 24.7418 57.6069 24.8007 57.5906 24.8664C57.5743 24.932 57.579 25.0012 57.6041 25.064L57.6361 25.145L58.4581 27.235C58.1447 27.5017 57.8344 27.774 57.5271 28.052L57.8201 28.376C57.9714 28.2427 58.1234 28.1074 58.2761 27.97C58.215 28.2436 58.1746 28.5214 58.1551 28.801C57.8804 28.7904 57.6057 28.7824 57.3311 28.777L57.0611 26.789L57.0491 26.702C57.0399 26.635 57.0102 26.5724 56.964 26.523C56.9177 26.4736 56.8573 26.4397 56.7911 26.426L56.1011 21.347L56.3211 21.206L57.6951 24.698ZM56.0371 20.87L55.9571 20.279L56.1571 20.792L56.0351 20.87M56.5731 26.456C56.5127 26.4868 56.4634 26.5355 56.4321 26.5956C56.4007 26.6556 56.3888 26.7239 56.3981 26.791L56.4101 26.877L56.6721 28.765C56.4494 28.765 56.2271 28.765 56.0051 28.765L55.8931 21.477L55.9021 21.471L56.5731 26.456ZM53.1731 29.131C53.8844 29.0704 54.6014 29.0287 55.3241 29.006L55.2991 30.626L52.8061 30.417L53.1731 29.131ZM53.0051 28.931L52.7721 28.953L53.3211 27.032C53.3758 27.0724 53.4421 27.0941 53.5101 27.094H53.5311L53.0051 28.931ZM55.2891 31.065L55.2831 31.437C54.8864 31.397 54.4914 31.3534 54.0981 31.306L53.7531 30.936L55.2891 31.065ZM55.4391 21.258L55.1391 21.458L55.4571 20.344L55.4391 21.258ZM55.4311 21.786L55.3241 28.786C54.6234 28.8074 53.9267 28.847 53.2341 28.905L53.8211 26.849L53.8451 26.765C53.8642 26.7001 53.8624 26.6308 53.8399 26.5669C53.8175 26.503 53.7756 26.4478 53.7201 26.409L54.9511 22.101L55.4321 21.782M52.7051 29.171L52.9381 29.148L52.5821 30.396L52.3601 30.377L52.7051 29.171ZM69.5721 30.355L69.1121 30.418L69.1041 30.371C69.0731 30.188 69.0451 30.008 69.0181 29.829C69.2421 29.7984 69.4654 29.765 69.6881 29.729L69.7611 29.719L69.5721 30.355ZM68.9571 29.399C68.9124 29.0704 68.8744 28.7487 68.8431 28.434L69.3881 29.334L68.9571 29.395M69.6221 29.295L68.8001 27.933C68.7874 27.773 68.7771 27.6147 68.7691 27.458L69.8561 29.258L69.6221 29.293M68.8021 29.849C68.8221 29.9824 68.8431 30.1157 68.8651 30.249C68.3217 30.163 67.7747 30.0927 67.2241 30.038C67.7491 29.983 68.2771 29.92 68.8021 29.85M66.4101 29.681L66.3941 29.968C66.0681 29.9447 65.7421 29.9267 65.4161 29.914L65.2871 22.975L65.6771 22.756L66.8991 24.782C66.8556 24.8339 66.8295 24.8981 66.8245 24.9655C66.8195 25.033 66.8358 25.1003 66.8711 25.158L66.9161 25.233L68.5861 28.001C68.6227 28.4584 68.6741 28.9317 68.7401 29.421C67.9691 29.521 67.1951 29.61 66.4101 29.681ZM67.2621 25.382C67.3359 25.368 67.4023 25.3279 67.4491 25.269L68.5331 27.069C68.5384 27.2197 68.5454 27.3724 68.5541 27.527L67.2621 25.382ZM68.5211 26.624L67.4721 24.902L67.4271 24.827C67.3921 24.7692 67.34 24.7236 67.2781 24.6966C67.2161 24.6695 67.1473 24.6623 67.0811 24.676L65.8721 22.659C67.1354 21.9664 68.4514 21.325 69.8201 20.735C69.1563 21.9459 68.7479 23.2801 68.6201 24.655C68.5483 25.3121 68.5175 25.9731 68.5281 26.634M42.2291 25.451C42.4506 25.3563 42.6938 25.3237 42.9325 25.3567C43.1712 25.3896 43.3964 25.4869 43.5841 25.638L43.8261 25.826L43.8481 25.521C43.8674 24.841 44.0793 24.1804 44.4592 23.6161C44.8391 23.0518 45.3713 22.6068 45.9941 22.333C46.6421 22.0617 47.3518 21.972 48.047 22.0735C48.7422 22.175 49.3966 22.4638 49.9401 22.909L50.0981 23.04L50.1901 22.857C50.3759 22.484 50.6623 22.1703 51.0169 21.9514C51.3715 21.7324 51.7803 21.617 52.1971 21.618C52.2701 21.618 52.3441 21.618 52.4191 21.629L52.6051 21.647L52.5981 21.436C52.5981 21.406 52.5981 21.377 52.5981 21.347C52.5962 20.6381 52.8159 19.9464 53.2265 19.3685C53.6372 18.7907 54.2182 18.3556 54.8882 18.1242C55.5583 17.8928 56.2839 17.8767 56.9636 18.078C57.6433 18.2793 58.2431 18.688 58.6791 19.247C57.8957 19.709 57.1181 20.185 56.3461 20.675L55.8591 19.438V19.16H55.4721L55.4671 19.505L54.8561 21.643C52.4262 23.2614 50.0805 25.0027 47.8281 26.86L48.1061 27.197C48.2854 27.049 48.4654 26.902 48.6461 26.756C48.5571 27.3517 48.5327 27.9551 48.5731 28.556C48.4996 28.5 48.408 28.4728 48.3158 28.4798C48.2236 28.4869 48.1372 28.5275 48.0731 28.594C47.8551 28.812 47.9641 29.14 48.4551 29.631L48.8831 30.088L47.6021 29.981L47.5661 30.416L49.3281 30.564C50.2981 31.601 51.1461 32.509 52.1751 33.606C52.0051 33.537 51.8361 33.467 51.6691 33.397C50.6747 32.9032 49.589 32.6203 48.4801 32.566C47.2841 32.6101 46.1088 32.8908 45.0221 33.392C44.4901 33.599 43.9411 33.812 43.3471 33.979C42.842 32.6637 42.4949 31.2932 42.3131 29.896L42.2931 29.739C42.1915 28.8986 42.1441 28.0525 42.1511 27.206C42.1511 26.616 42.1781 26.031 42.2301 25.451M79.8041 33.98C79.2041 33.813 78.6581 33.599 78.1241 33.392C77.0373 32.8908 75.862 32.6101 74.6661 32.566C73.6021 32.6127 72.5591 32.8779 71.6021 33.345L72.0841 32.145C72.1852 31.8466 72.2043 31.5264 72.1391 31.218C72.0838 31.0715 72.0699 30.9125 72.0988 30.7586C72.1277 30.6046 72.1984 30.4616 72.3031 30.345L73.0031 29.333C73.0226 29.3045 73.0332 29.2709 73.0337 29.2363C73.0341 29.2017 73.0243 29.1678 73.0054 29.1388C72.9866 29.1098 72.9596 29.0871 72.9279 29.0734C72.8961 29.0597 72.8611 29.0558 72.8271 29.062C72.804 29.0663 72.782 29.0751 72.7625 29.088C72.7429 29.1008 72.7261 29.1175 72.7131 29.137L72.6241 29.271L72.0151 29.4L71.9661 29.611L71.7181 29.658L71.6051 29.489L71.3971 29.538C71.1699 29.5925 70.9717 29.7307 70.8421 29.925L70.7291 29.88L71.5101 28.352C72.1298 28.2889 72.7539 28.4166 73.2991 28.718C73.6444 28.8849 74.0087 29.0092 74.3841 29.088L74.4441 29.098L75.4231 27.177L75.3141 27.158C74.9519 27.0809 74.6003 26.9604 74.2671 26.799C73.7273 26.5089 73.118 26.3729 72.5061 26.406L72.6691 26.088L72.3781 25.939L70.1641 30.265L69.8101 30.319L69.9991 29.687L70.2281 29.649L70.4051 29.31L70.3191 29.192L70.0871 29.229L68.7471 27.008C68.7181 26.2304 68.7455 25.4517 68.8291 24.678C68.9487 23.4334 69.2994 22.2221 69.8631 21.106C69.9361 21.175 70.0081 21.244 70.0771 21.318C70.8412 22.1441 71.3063 23.2025 71.3981 24.324L71.4161 24.515L71.6021 24.467C72.2191 24.2984 72.8642 24.2586 73.4973 24.3501C74.1304 24.4415 74.7379 24.6623 75.2819 24.9987C75.826 25.3351 76.295 25.7798 76.6597 26.3053C77.0245 26.8308 77.2772 27.4257 77.4021 28.053L77.4391 28.225L77.6081 28.176C78.6985 27.8237 79.876 27.8494 80.9501 28.249C80.9281 28.783 80.8881 29.272 80.8281 29.739L80.8081 29.896C80.6322 31.2912 80.2967 32.6615 79.8081 33.98M73.9511 27.38C73.6829 27.2533 73.4058 27.1464 73.1221 27.06C72.981 26.8679 72.8106 26.6992 72.6171 26.56C73.1707 26.5532 73.717 26.6867 74.2051 26.948C74.5182 27.0968 74.8455 27.2137 75.1821 27.297L74.9581 27.736C74.6102 27.6555 74.2726 27.5354 73.9521 27.378M74.8811 27.887L74.6581 28.325C74.3102 28.2445 73.9726 28.1244 73.6521 27.967L73.6271 27.956C73.3886 27.8449 73.1435 27.7487 72.8931 27.668L73.1181 27.227C73.3807 27.3099 73.6376 27.4101 73.8871 27.527C74.2068 27.6818 74.542 27.8025 74.8871 27.887M72.7721 27.807C73.0403 27.8878 73.3024 27.9881 73.5561 28.107L73.5811 28.118C73.9009 28.2727 74.236 28.3934 74.5811 28.478L74.3581 28.915C74.0171 28.835 73.6859 28.7183 73.3701 28.567C72.9141 28.3326 72.4147 28.1944 71.9031 28.161H71.8671C72.1608 28.0199 72.4646 27.9009 72.7761 27.805M75.2851 13.465C76.1346 14.3127 76.9045 15.2366 77.5851 16.225L72.4981 19.625C71.273 17.8559 69.6373 16.41 67.7311 15.4114C65.8249 14.4128 63.705 13.8911 61.5531 13.8911C59.4011 13.8911 57.2813 14.4128 55.3751 15.4114C53.4689 16.41 51.8332 17.8559 50.6081 19.625L45.5321 16.24C46.2121 15.2481 46.982 14.3208 47.8321 13.47C51.4724 9.8301 56.4096 7.78524 61.5576 7.78524C66.7055 7.78524 71.6427 9.8301 75.2831 13.47M58.7571 5.82003C59.1205 5.76671 59.4911 5.78939 59.8453 5.88664C60.1996 5.9839 60.5298 6.1536 60.8151 6.38503C61.1 6.63318 61.2857 6.97586 61.3381 7.35003C56.1103 7.40486 51.1156 9.52177 47.4405 13.2402C43.7655 16.9587 41.7074 21.9779 41.7141 27.206C41.7079 28.0222 41.7503 28.8379 41.8411 29.649C41.2531 29.525 40.6591 29.368 40.0661 29.18C40.0161 28.529 39.9661 27.861 39.9661 27.206C39.964 21.8627 41.9334 16.7064 45.4971 12.725C48.9033 8.85288 53.6316 6.39069 58.7571 5.82003ZM49.9981 6.45103C50.3068 6.27596 50.6476 6.16499 51.0002 6.12478C51.3528 6.08457 51.7099 6.11595 52.0501 6.21703C52.4032 6.33352 52.7052 6.56844 52.9051 6.88203C49.9473 8.13587 47.3058 10.0324 45.1721 12.434C41.5379 16.496 39.5297 21.7557 39.5321 27.206C39.5321 27.816 39.5721 28.431 39.6171 29.032C39.0171 28.832 38.4251 28.592 37.8381 28.332C37.8381 28.155 37.8231 27.986 37.8121 27.822C37.7981 27.615 37.7851 27.422 37.7851 27.209C37.781 22.8345 38.9756 18.5425 41.2391 14.799C43.3468 11.2732 46.3753 8.38744 49.9981 6.45103ZM41.4431 10.709C41.6406 10.4654 41.8855 10.2643 42.1629 10.1179C42.4403 9.97146 42.7444 9.88272 43.0571 9.85703C43.4815 9.83379 43.9006 9.96051 44.2411 10.215C42.9518 11.5327 41.8193 12.9951 40.8661 14.573C38.5619 18.3838 37.3456 22.7528 37.3491 27.206C37.3491 27.431 37.3631 27.643 37.3771 27.848C37.3831 27.942 37.3891 28.033 37.3941 28.124C36.7841 27.835 36.1851 27.517 35.6041 27.174C35.5885 21.1757 37.6519 15.3573 41.4431 10.709ZM34.3971 19.732C34.4671 19.2777 34.627 18.8419 34.8674 18.4501C35.1078 18.0583 35.4238 17.7183 35.7971 17.45C36.1818 17.2471 36.6292 17.1975 37.0491 17.311C35.8383 20.3685 35.2004 23.6227 35.1671 26.911C34.5801 26.546 34.0131 26.155 33.4741 25.742C33.5404 23.7086 33.8489 21.6904 34.3931 19.73M58.6031 65.926C57.3626 64.9387 56.341 63.7043 55.6031 62.301C54.1436 59.2402 53.4503 55.8704 53.5831 52.482V52.356L58.6031 55.865V65.926ZM64.0581 66.255C63.2787 66.8107 62.4366 67.2725 61.5491 67.631C60.6616 67.2725 59.8194 66.8107 59.0401 66.255V55.974H64.0591L64.0581 66.255ZM69.5131 52.482C69.6458 55.8704 68.9526 59.2402 67.4931 62.301C66.7552 63.7043 65.7335 64.9387 64.4931 65.926V55.865L69.5121 52.352L69.5131 52.482ZM90.3581 30.465C89.5778 32.6335 88.5059 34.6857 87.1721 36.565L86.9051 36.953L87.3731 36.906C88.2399 36.8333 89.0981 36.681 89.9371 36.451C88.2707 39.9792 85.5815 42.9244 82.2191 44.904L81.7831 45.171L82.2781 45.301C83.1306 45.5369 83.9997 45.7081 84.8781 45.813C81.8323 48.7453 78.0251 50.7645 73.8891 51.641L73.4541 51.733L73.7941 52.02C74.4698 52.5503 75.2007 53.0063 75.9741 53.38C74.0026 54.3875 71.9287 55.1807 69.7881 55.746C69.9 54.663 69.9547 53.5748 69.9521 52.486V51.759L69.7741 51.726C66.8288 51.0769 64.0631 49.7859 61.6741 47.945L61.5461 47.852L61.4181 47.945C59.0291 49.7859 56.2633 51.0769 53.3181 51.726L53.1401 51.759V52.486C53.1373 53.5725 53.1917 54.6583 53.3031 55.739C51.163 55.1764 49.0895 54.3858 47.1181 53.381C47.8915 53.0073 48.6224 52.5514 49.2981 52.021L49.6381 51.734L49.2031 51.642C45.0693 50.7627 41.265 48.7418 38.2221 45.809C39.1004 45.7041 39.9695 45.5329 40.8221 45.297L41.3171 45.167L40.8811 44.9C37.5186 42.9204 34.8295 39.9752 33.1631 36.447C34.002 36.677 34.8603 36.8293 35.7271 36.902L36.1951 36.949L35.9251 36.565C34.5915 34.6856 33.52 32.6335 32.7401 30.465C32.1074 28.649 31.7615 26.7455 31.7151 24.823C34.5796 27.459 38.0955 29.283 41.9001 30.107C42.4307 33.664 43.9243 37.008 46.2191 39.777C48.2265 42.3439 50.9311 44.2781 54.0091 45.348C54.9108 45.6428 55.8534 45.7937 56.8021 45.795C58.5021 45.795 59.3661 45.281 59.3661 44.268C59.3661 43.509 58.8031 43.034 57.8041 42.927C57.9984 42.7404 58.2289 42.5955 58.4814 42.5014C58.7339 42.4073 59.003 42.366 59.2721 42.38L59.2861 42.312C58.9542 42.1205 58.5609 42.0655 58.1893 42.1588C57.8177 42.2522 57.497 42.4864 57.2951 42.812C57.2361 42.9044 57.1833 43.0007 57.1371 43.1C57.1151 43.14 57.0921 43.184 57.0701 43.231C57.035 43.0866 57.0172 42.9386 57.0171 42.79C57.0312 42.4103 57.1735 42.0464 57.4208 41.7579C57.6682 41.4694 58.0059 41.2731 58.3791 41.201L58.5491 41.159V40.984C58.5452 40.8481 58.5699 40.7129 58.6215 40.5872C58.6732 40.4614 58.7507 40.3479 58.8491 40.254C59.7313 39.6286 60.7954 39.3122 61.8761 39.354C62.2442 39.3239 62.614 39.3876 62.9508 39.5392C63.2877 39.6908 63.5805 39.9254 63.8021 40.221C64.3669 41.135 64.7347 42.1568 64.8821 43.221C65.2451 44.916 66.0291 45.739 67.2821 45.739C68.1781 45.667 69.0546 45.4389 69.8721 45.065C72.883 43.7463 75.5066 41.6792 77.4932 39.0603C79.4798 36.4415 80.7635 33.358 81.2221 30.103C85.0195 29.2773 88.5279 27.4532 91.3851 24.819C91.3384 26.743 90.9919 28.6479 90.3581 30.465Z" fill="white"/>
<path d="M60.0231 40.3801C59.5981 40.5001 59.4231 40.664 59.4231 40.936C59.424 41.0207 59.4351 41.105 59.4561 41.1871H59.6411L59.7061 40.9581H59.8061C59.8133 41.0354 59.8366 41.1104 59.8747 41.1781C59.9128 41.2458 59.9647 41.3048 60.0271 41.3511C60.172 41.3539 60.3142 41.3111 60.4337 41.229C60.5531 41.1469 60.6438 41.0294 60.6931 40.8931C60.7394 40.7633 60.8177 40.6473 60.9206 40.5557C61.0235 40.4642 61.1478 40.3999 61.2821 40.369L61.2491 40.2271C60.8371 40.2284 60.4267 40.2798 60.0271 40.3801" fill="white"/>
</g>
<mask id="mask1_1_1601" style="mask-type:luminance" maskUnits="userSpaceOnUse" x="0" y="79" width="123" height="38">
<path d="M122.24 79.339H6.10352e-05V116.71H122.24V79.339Z" fill="white"/>
</mask>
<g mask="url(#mask1_1_1601)">
<path d="M73.0441 111.353L72.5021 111.965L71.9101 111.423L72.4921 110.823L73.0441 111.353Z" fill="white"/>
<path d="M74.267 111.363L73.725 111.963L73.1251 111.421L73.717 110.821L74.267 111.363Z" fill="white"/>
<path d="M46.3151 81.5699L45.9661 82.0059C46.0531 83.2649 46.1031 84.7599 46.1031 86.1929C46.1278 86.9571 45.974 87.7165 45.6541 88.4109C45.4117 88.865 45.0482 89.243 44.6038 89.5027C44.1594 89.7624 43.6517 89.8937 43.1371 89.8819C42.7874 89.9031 42.4373 89.8475 42.1114 89.719C41.7855 89.5905 41.4916 89.3922 41.2505 89.1381C41.0094 88.8839 40.8269 88.58 40.7157 88.2478C40.6046 87.9156 40.5674 87.563 40.6071 87.2149C40.8124 86.6082 41.0711 86.0209 41.3801 85.4599L41.7161 85.5969C41.5509 85.9785 41.4662 86.3901 41.4671 86.8059C41.4671 87.7659 42.0671 88.3139 43.1621 88.3139C43.8147 88.3237 44.4558 88.1418 45.0061 87.7909C45.0061 87.2179 44.9561 86.6569 44.9191 86.0339C44.808 84.1693 44.5832 82.3132 44.2461 80.4759L45.3671 79.9149L46.3151 81.5699Z" fill="white"/>
<path d="M51.3511 85.7189V87.0279C51.353 87.0431 51.3515 87.0585 51.3466 87.073C51.3416 87.0875 51.3334 87.1006 51.3226 87.1114C51.3118 87.1222 51.2986 87.1304 51.2841 87.1354C51.2696 87.1403 51.2542 87.1419 51.2391 87.1399C50.9943 87.1297 50.7556 87.0608 50.5431 86.9389C50.3306 86.8171 50.1505 86.6459 50.0181 86.4399L49.8441 87.1499C49.4091 87.2353 48.9662 87.2729 48.5231 87.2619C47.9328 87.2587 47.3457 87.175 46.7781 87.0129L47.027 85.5669C47.5216 85.6815 48.0274 85.7398 48.535 85.7409C48.8693 85.7398 49.2032 85.7191 49.535 85.6789C49.1149 84.7904 48.8092 83.8523 48.6251 82.8869L49.884 82.3639C49.9362 83.1954 50.1125 84.0145 50.407 84.7939C50.607 85.3169 50.8431 85.6159 51.2421 85.6159C51.3291 85.6159 51.3541 85.6659 51.3541 85.7159" fill="white"/>
<path d="M56.784 85.7199V87.0279C56.786 87.0431 56.7844 87.0585 56.7795 87.073C56.7746 87.0875 56.7664 87.1006 56.7556 87.1115C56.7448 87.1223 56.7316 87.1305 56.7171 87.1354C56.7027 87.1403 56.6872 87.1419 56.672 87.1399H56.024C55.3697 87.1245 54.7321 86.9305 54.18 86.5789C53.6215 86.9269 52.9808 87.1204 52.323 87.1399H51.239C51.2239 87.1419 51.2084 87.1403 51.1939 87.1354C51.1795 87.1305 51.1663 87.1223 51.1555 87.1115C51.1447 87.1006 51.1365 87.0875 51.1316 87.073C51.1266 87.0585 51.1251 87.0431 51.127 87.0279V85.7199C51.127 85.6699 51.152 85.6199 51.239 85.6199C51.999 85.6199 52.5731 85.6069 53.0591 85.5829C52.7338 85.1846 52.4497 84.7544 52.211 84.2989C52.1174 84.3355 52.026 84.3772 51.937 84.4239L51.688 84.2239L52.024 82.8779C52.6972 82.5503 53.4318 82.3677 54.18 82.3419C55.301 82.3419 56.099 82.9029 56.099 83.7999C56.0336 84.4736 55.7438 85.1057 55.276 85.5949C55.662 85.6199 56.061 85.6199 56.676 85.6199C56.763 85.6199 56.788 85.6699 56.788 85.7199M53.088 83.9629C53.3442 84.4906 53.7044 84.961 54.147 85.3459C54.6232 85.0132 54.9672 84.5236 55.1191 83.9629C54.7896 83.8531 54.4443 83.7984 54.097 83.8009C53.7541 83.8037 53.4136 83.8583 53.087 83.9629" fill="white"/>
<path d="M59.384 81.196L59.035 81.632C59.122 82.841 59.16 83.551 59.16 84.449C59.17 85.3514 59.095 86.2527 58.936 87.141H56.668C56.6528 87.1429 56.6374 87.1414 56.623 87.1365C56.6085 87.1315 56.5953 87.1233 56.5845 87.1125C56.5737 87.1017 56.5655 87.0885 56.5605 87.0741C56.5556 87.0596 56.554 87.0442 56.556 87.029V85.719C56.556 85.669 56.581 85.619 56.668 85.619H58.168C58.155 85.295 58.118 84.934 58.081 84.51C57.9135 83.0258 57.6598 81.5527 57.321 80.098L58.443 79.537L59.384 81.196Z" fill="white"/>
<path d="M60.8211 87.252C60.5971 84.074 60.4591 82.429 60.1601 80.098L61.7061 79.537C61.8431 81.793 61.8931 83.525 61.9921 87.152L60.8211 87.252Z" fill="white"/>
<path d="M68.0381 83.8389C68.3241 84.4389 68.6241 84.9729 68.9981 85.8579L68.4501 86.9919C67.9288 87.1716 67.3815 87.2642 66.8301 87.2659C66.5909 87.287 66.3499 87.2604 66.121 87.1877C65.8922 87.1149 65.68 86.9975 65.4969 86.8421C65.3137 86.6868 65.1632 86.4967 65.0541 86.2828C64.9449 86.0688 64.8793 85.8354 64.8611 85.5959C64.9424 85.1177 65.1188 84.6607 65.3799 84.2519C65.641 83.8431 65.9814 83.4908 66.3811 83.2159C66.2691 83.0539 66.1571 82.8919 66.0451 82.7419L66.7801 81.8939L68.1511 83.4019L68.0381 83.8389ZM66.8041 80.5119L66.0811 81.3349L65.0591 80.3879L66.0591 79.3409L66.8941 80.1509L67.6791 79.3409L68.6261 80.2759L67.6911 81.3349L66.8041 80.5119ZM66.8911 85.8119C67.2055 85.8117 67.5175 85.7569 67.8131 85.6499C67.5353 85.0814 67.2275 84.5279 66.8911 83.9919C66.4377 84.3645 66.061 84.8216 65.7821 85.3379C65.9184 85.4965 66.0892 85.6217 66.2815 85.7039C66.4738 85.786 66.6823 85.823 66.8911 85.8119Z" fill="white"/>
<path d="M68.2381 89.0719V88.7229C68.7391 88.5728 69.2172 88.3548 69.6591 88.0749C70.2773 87.6988 70.7981 87.1822 71.1791 86.5669C70.7699 85.6298 70.2863 84.727 69.7331 83.8669L71.2161 83.0439C71.5822 84.0055 71.8006 85.017 71.8641 86.0439C71.8126 87.3185 71.3343 88.5388 70.506 89.5089L68.2381 89.0719Z" fill="white"/>
<path d="M73.097 87.252C72.873 84.074 72.736 82.429 72.437 80.098L73.9821 79.537C74.1191 81.793 74.169 83.525 74.269 87.152L73.097 87.252Z" fill="white"/>
<path d="M74.195 89.0719V88.7229C74.696 88.5727 75.1741 88.3547 75.616 88.0749C76.2343 87.6988 76.755 87.1821 77.136 86.5669C76.727 85.6299 76.2439 84.727 75.6911 83.8669L77.174 83.0439C77.5401 84.0055 77.7586 85.0169 77.8221 86.0439C77.7707 87.3185 77.2924 88.5388 76.4641 89.5089L74.195 89.0719ZM76.1391 82.4669L75.117 81.5199L76.117 80.4729L77.0771 81.4079L76.1391 82.4669Z" fill="white"/>
<path d="M82.3112 85.7319C82.3043 86.443 82.1514 87.145 81.8621 87.7946C81.5727 88.4441 81.1531 89.0273 80.6292 89.5079L78.3611 89.0719L78.3741 88.7229C78.8983 88.5819 79.4074 88.39 79.8942 88.1499C80.3665 87.9341 80.7871 87.6197 81.1281 87.2279C79.5951 86.9659 78.5861 86.4549 78.5861 85.4579C78.5861 84.4609 79.5211 82.8409 80.5051 82.8409C81.6761 82.8409 82.3112 84.1489 82.3112 85.7319ZM79.4832 85.1589C80.0057 85.5727 80.6381 85.8241 81.3021 85.8819C81.1281 85.0469 80.8281 84.1999 80.2681 84.1999C79.9311 84.1999 79.5952 84.6349 79.4832 85.1589Z" fill="white"/>
<path d="M25.8351 101.513L26.6421 101.563V102.234H23.4001V101.563L24.2071 101.327V97.264L22.1821 100.891H21.3991L19.3871 97.351V101.488L20.1701 101.563V102.234H17.7101V101.563L18.4181 101.339V96.233L17.6111 96.159V95.488H20.1111L22.2231 99.215L24.2601 95.488H26.5331V96.159L25.8331 96.359L25.8351 101.513Z" fill="white"/>
<path d="M30.054 101.587V102.233H27.2591V101.587L27.843 101.326V98.519H27.11V97.8479L29.4211 97.3259V101.537L30.054 101.587ZM29.632 95.922L28.5891 96.978L27.5361 95.9229L28.5921 94.8669L29.632 95.922Z" fill="white"/>
<path d="M35.8331 101.538L36.4791 101.588V102.234H33.6711V101.588L34.2711 101.327V99.339C34.2711 98.706 33.9711 98.482 33.5131 98.482C33.2128 98.4785 32.9185 98.5653 32.6681 98.731V101.538L33.2891 101.588V102.234H30.5061V101.588L31.0901 101.327V98.519H30.3571V97.848L32.6671 97.326V98.332L33.1021 97.549C33.4457 97.3942 33.8182 97.3138 34.1951 97.313C34.4193 97.2902 34.6457 97.3183 34.8576 97.3951C35.0695 97.4719 35.2613 97.5954 35.4189 97.7565C35.5765 97.9177 35.6957 98.1122 35.7678 98.3257C35.8398 98.5393 35.8628 98.7663 35.8351 98.99L35.8331 101.538Z" fill="white"/>
<path d="M39.6431 101.587V102.233H36.8481V101.587L37.4321 101.326V98.519H36.6941V97.848L39.0051 97.326V101.537L39.6431 101.587ZM39.2211 95.922L38.1771 96.978L37.1211 95.922L38.1771 94.866L39.2211 95.922Z" fill="white"/>
<path d="M42.699 99.19C43.991 99.55 44.4261 99.96 44.4261 100.69C44.4261 101.758 43.5561 102.367 42.2021 102.367C41.4671 102.373 40.739 102.225 40.0651 101.932L40.2891 100.491H40.9971V101.162C41.3875 101.383 41.8273 101.503 42.2761 101.51C42.8601 101.51 43.0831 101.348 43.0831 101.1C43.0831 100.852 42.8591 100.752 42.1021 100.516L41.816 100.416C40.599 100.068 40.201 99.683 40.201 98.938C40.201 97.907 41.0831 97.311 42.4371 97.311C42.9934 97.3021 43.5486 97.3647 44.0891 97.497V98.988H43.381L43.2191 98.404C42.9196 98.2502 42.5866 98.1732 42.2501 98.18C41.8401 98.18 41.5671 98.292 41.5671 98.54C41.5671 98.788 41.7531 98.888 42.4241 99.099L42.699 99.19Z" fill="white"/>
<path d="M48.5891 101.363L47.8691 102.195C47.5965 102.321 47.2992 102.384 46.999 102.381C46.7854 102.411 46.5679 102.391 46.3631 102.324C46.1583 102.256 45.9718 102.142 45.8181 101.991C45.6644 101.839 45.5476 101.655 45.4766 101.451C45.4057 101.247 45.3826 101.03 45.4091 100.816V98.5161H44.701V97.858L45.4091 97.647L46.254 96.2061H46.975V97.647H48.3751V98.5171H46.975V100.567C46.975 101.126 47.1861 101.3 47.5961 101.3C47.886 101.295 48.1708 101.223 48.428 101.089L48.5891 101.363Z" fill="white"/>
<path d="M52.5491 98.693C52.0661 98.6775 51.5829 98.7151 51.1081 98.805V101.538L51.7421 101.588V102.234H48.9471V101.588L49.5311 101.327V98.519H48.798V97.848L51.1081 97.326V98.382L51.5431 97.55C51.8553 97.3936 52.1999 97.3127 52.5491 97.314V98.693Z" fill="white"/>
<path d="M58.6241 97.463V98.134L58.1151 98.334L55.5311 104.719L54.1401 104.085L55.6181 102.234H54.9181L53.4181 98.346L52.8711 98.135V97.464H55.8771V98.135L55.0571 98.185L56.1131 101.253L57.0821 98.197L56.3241 98.135V97.464L58.6241 97.463Z" fill="white"/>
<path d="M61.0081 99.985C60.9827 99.6318 61.0326 99.2772 61.1546 98.9447C61.2766 98.6122 61.4679 98.3095 61.7157 98.0565C61.9635 97.8035 62.2622 97.606 62.5921 97.4771C62.9219 97.3483 63.2754 97.291 63.6291 97.309C63.9559 97.278 64.2855 97.318 64.5953 97.4265C64.9051 97.5349 65.1878 97.7091 65.4239 97.9371C65.66 98.1652 65.844 98.4416 65.9631 98.7475C66.0822 99.0533 66.1338 99.3814 66.1141 99.709C66.1387 100.062 66.0883 100.416 65.966 100.748C65.8437 101.08 65.6523 101.382 65.4046 101.634C65.1568 101.887 64.8584 102.084 64.5289 102.212C64.1994 102.341 63.8464 102.398 63.4931 102.38C63.1669 102.409 62.8382 102.367 62.5294 102.258C62.2207 102.149 61.9389 101.974 61.7034 101.747C61.4678 101.519 61.2839 101.244 61.1641 100.939C61.0444 100.634 60.9915 100.307 61.0091 99.98M64.4871 99.856C64.4871 98.8 64.1521 98.179 63.5551 98.179C62.9581 98.179 62.6361 98.8 62.6361 99.856C62.6361 100.912 62.9961 101.508 63.5801 101.508C64.1641 101.508 64.4871 100.924 64.4871 99.856Z" fill="white"/>
<path d="M68.8721 96.929V97.649H70.2631V98.519H68.8721V101.512L69.9651 101.587V102.233H66.7101V101.587L67.2941 101.326V98.519H66.5861V97.861L67.2941 97.65V96.93C67.2769 96.6287 67.3249 96.3272 67.4348 96.0461C67.5446 95.7649 67.7138 95.5108 67.9307 95.301C68.1477 95.0911 68.4073 94.9305 68.692 94.8301C68.9766 94.7297 69.2795 94.6918 69.5801 94.719C70.0136 94.7168 70.4451 94.7795 70.8601 94.905V96.048C70.488 95.8348 70.0712 95.7115 69.6431 95.688C69.1091 95.688 68.8731 96.036 68.8731 96.93" fill="white"/>
<path d="M75.8781 96.155L75.17 96.391V101.024C75.1772 101.477 75.1012 101.927 74.946 102.353C74.3823 103.038 73.7452 103.658 73.0461 104.204L72.7601 103.968C73.3116 103.088 73.5845 102.062 73.5431 101.024V96.204L72.7361 96.154V95.483H75.8791L75.8781 96.155Z" fill="white"/>
<path d="M82.2351 101.239V101.91L80.0111 102.32V101.351L79.5641 102.151C79.2209 102.307 78.8481 102.388 78.4711 102.387C78.2467 102.408 78.0206 102.378 77.8094 102.3C77.5982 102.221 77.4073 102.096 77.251 101.934C77.0947 101.772 76.9769 101.576 76.9065 101.362C76.8361 101.148 76.8147 100.921 76.8441 100.698V98.524H76.1241V97.853L78.4101 97.331V100.362C78.4101 100.995 78.7101 101.219 79.1551 101.219C79.4591 101.222 79.7573 101.136 80.0121 100.97V98.523H79.2791V97.852L81.5791 97.33V101.243L82.2351 101.239Z" fill="white"/>
<path d="M85.2811 99.19C86.5731 99.55 87.0081 99.96 87.0081 100.69C87.0081 101.758 86.1381 102.367 84.7841 102.367C84.0491 102.373 83.3211 102.225 82.6471 101.932L82.8711 100.491H83.5791V101.162C83.9695 101.383 84.4093 101.503 84.8581 101.51C85.4421 101.51 85.6661 101.348 85.6661 101.1C85.6661 100.852 85.4421 100.752 84.6851 100.516L84.399 100.416C83.182 100.068 82.7841 99.683 82.7841 98.938C82.7841 97.907 83.6661 97.311 85.0201 97.311C85.5764 97.3022 86.1316 97.3647 86.6721 97.497V98.988H85.9641L85.8031 98.404C85.5037 98.2502 85.1706 98.1732 84.834 98.18C84.424 98.18 84.1511 98.292 84.1511 98.54C84.1511 98.788 84.3381 98.888 85.0081 99.099L85.2811 99.19Z" fill="white"/>
<path d="M91.1691 101.363L90.4491 102.195C90.1765 102.321 89.8793 102.384 89.5791 102.381C89.3655 102.411 89.1479 102.391 88.9431 102.324C88.7383 102.256 88.5519 102.142 88.3982 101.991C88.2445 101.839 88.1276 101.655 88.0567 101.451C87.9858 101.247 87.9626 101.03 87.9891 100.816V98.5161H87.2811V97.858L87.9891 97.647L88.8341 96.2061H89.5541V97.647H90.9541V98.5171H89.5541V100.567C89.5541 101.126 89.7651 101.3 90.1751 101.3C90.465 101.295 90.7498 101.223 91.0071 101.089L91.1691 101.363Z" fill="white"/>
<path d="M94.324 101.587V102.233H91.5291V101.587L92.1131 101.326V98.519H91.3801V97.848L93.6911 97.326V101.537L94.324 101.587ZM93.902 95.922L92.8581 96.978L91.8021 95.922L92.8581 94.866L93.902 95.922Z" fill="white"/>
<path d="M99.1311 101.252L98.4481 102.159C98.0936 102.306 97.7138 102.382 97.3301 102.383C96.998 102.42 96.662 102.384 96.345 102.279C96.0279 102.174 95.7373 102.001 95.493 101.774C95.2488 101.546 95.0566 101.268 94.9298 100.959C94.803 100.65 94.7445 100.317 94.7582 99.983C94.7436 99.6122 94.8089 99.2426 94.9499 98.8993C95.091 98.5561 95.3043 98.2472 95.5754 97.9938C95.8465 97.7403 96.169 97.5483 96.521 97.4306C96.873 97.313 97.2461 97.2725 97.6151 97.312C98.0607 97.311 98.5042 97.3736 98.9321 97.498V99.436H98.1871L97.8871 98.219C97.8256 98.2089 97.7634 98.2049 97.7012 98.207C96.8322 98.207 96.3841 98.766 96.3841 99.747C96.3634 99.9446 96.387 100.144 96.4534 100.332C96.5197 100.519 96.6271 100.689 96.7676 100.83C96.9081 100.97 97.0782 101.077 97.2655 101.144C97.4528 101.21 97.6525 101.234 97.8501 101.213C98.2373 101.221 98.6208 101.135 98.9681 100.964L99.1311 101.252Z" fill="white"/>
<path d="M104.286 99.947H101.317C101.379 100.767 101.917 101.214 102.845 101.214C103.264 101.216 103.678 101.131 104.063 100.966L104.224 101.252L103.516 102.159C103.13 102.316 102.716 102.392 102.299 102.383C101.964 102.423 101.624 102.391 101.303 102.288C100.981 102.184 100.686 102.013 100.437 101.785C100.188 101.557 99.9916 101.278 99.8605 100.967C99.7295 100.656 99.6673 100.32 99.678 99.983C99.6462 99.6369 99.6883 99.2881 99.8017 98.9596C99.9151 98.6311 100.097 98.3306 100.336 98.0779C100.574 97.8252 100.864 97.6262 101.185 97.4942C101.507 97.3621 101.853 97.3 102.2 97.312C102.482 97.2768 102.767 97.3049 103.037 97.3941C103.306 97.4834 103.552 97.6317 103.757 97.8281C103.961 98.0245 104.12 98.2641 104.22 98.5294C104.321 98.7948 104.36 99.0792 104.337 99.362C104.34 99.5578 104.323 99.7534 104.287 99.946M101.331 99.313L102.909 99.176C102.859 98.567 102.598 98.182 102.201 98.182C101.716 98.182 101.419 98.592 101.331 99.312" fill="white"/>
<path d="M2.30706 111.878C3.25006 112.249 3.57106 112.63 3.57106 113.278C3.57106 114.231 2.82906 114.853 1.62506 114.853C0.918494 114.852 0.223892 114.671 -0.392944 114.326L-0.201944 113.032H0.229056V113.932C0.656263 114.17 1.13503 114.301 1.62406 114.313C2.36606 114.313 2.79806 113.962 2.79806 113.46C2.79806 113.109 2.61706 112.898 1.92506 112.597L1.16306 112.256C0.149056 111.848 -0.201944 111.507 -0.201944 110.819C-0.201944 109.826 0.570056 109.274 1.77406 109.274C2.2919 109.279 2.80727 109.346 3.30906 109.474V110.848H2.89806L2.71806 109.948C2.38668 109.845 2.04206 109.791 1.69506 109.787C1.06306 109.787 0.561056 110.078 0.561056 110.61C0.561056 111.001 0.772056 111.21 1.53406 111.533L2.30706 111.878Z" fill="white"/>
<path d="M6.98906 114.216L6.59806 114.708C6.37868 114.809 6.13961 114.86 5.89806 114.858C5.74863 114.877 5.59679 114.861 5.45455 114.812C5.31231 114.762 5.18356 114.68 5.0785 114.572C4.97344 114.464 4.89494 114.333 4.84922 114.19C4.8035 114.046 4.7918 113.894 4.81506 113.745V111.588H4.13306V111.231L4.81506 111.101L5.19606 110.108H5.58906V111.101H6.90306V111.593H5.58906V113.66C5.58906 114.131 5.76906 114.292 6.16106 114.292C6.42487 114.292 6.6841 114.223 6.91306 114.092L6.98906 114.216Z" fill="white"/>
<path d="M10.5221 114.246H11.1741V114.597C10.8958 114.723 10.5961 114.794 10.2911 114.808C10.2179 114.816 10.1439 114.808 10.0744 114.783C10.005 114.759 9.94192 114.719 9.88988 114.667C9.83785 114.615 9.79817 114.552 9.7738 114.482C9.74942 114.413 9.74096 114.339 9.74905 114.266V114.246L9.39806 114.697C9.15115 114.805 8.88443 114.859 8.61505 114.858C7.87305 114.858 7.39105 114.487 7.39105 113.825C7.39582 113.486 7.50437 113.157 7.70206 112.882L9.74905 112.742V112.301C9.76088 112.191 9.74747 112.08 9.70982 111.977C9.67218 111.873 9.61131 111.779 9.53188 111.703C9.45245 111.626 9.35656 111.569 9.25156 111.535C9.14655 111.501 9.03521 111.492 8.92606 111.508C8.48671 111.515 8.05467 111.622 7.66206 111.819L7.57205 111.688L7.96305 111.126C8.33704 110.985 8.73337 110.912 9.13306 110.912C9.97606 110.912 10.5171 111.293 10.5171 112.212L10.5221 114.246ZM9.75005 114.015V113.215H8.25005C8.19329 113.362 8.16283 113.518 8.16006 113.676C8.16006 114.047 8.40105 114.288 8.90205 114.288C9.20752 114.288 9.50544 114.193 9.75505 114.017" fill="white"/>
<path d="M14.0931 114.216L13.7021 114.708C13.4827 114.809 13.2436 114.86 13.0021 114.858C12.8526 114.877 12.7008 114.861 12.5586 114.812C12.4163 114.762 12.2876 114.68 12.1825 114.572C12.0774 114.464 11.9989 114.333 11.9532 114.19C11.9075 114.046 11.8958 113.894 11.9191 113.745V111.588H11.2371V111.231L11.9191 111.101L12.3001 110.108H12.6911V111.101H14.0051V111.593H12.6911V113.66C12.6911 114.131 12.8711 114.292 13.2631 114.292C13.5269 114.292 13.7861 114.223 14.0151 114.092L14.0931 114.216Z" fill="white"/>
<path d="M17.8151 112.891H15.3151C15.2956 113.071 15.3161 113.254 15.3751 113.426C15.4342 113.597 15.5303 113.754 15.6567 113.884C15.7832 114.014 15.9367 114.115 16.1065 114.179C16.2763 114.243 16.4581 114.269 16.6391 114.255C16.9867 114.255 17.3294 114.172 17.6391 114.014L17.7191 114.154L17.3381 114.666C17.0423 114.8 16.7198 114.866 16.3951 114.857C16.1435 114.878 15.8903 114.843 15.6533 114.756C15.4163 114.669 15.2011 114.532 15.0225 114.353C14.844 114.175 14.7065 113.96 14.6196 113.723C14.5326 113.486 14.4983 113.233 14.5191 112.981C14.4853 112.723 14.5071 112.46 14.583 112.211C14.6588 111.962 14.787 111.732 14.9589 111.536C15.1308 111.34 15.3425 111.184 15.5798 111.076C15.8171 110.969 16.0746 110.914 16.3351 110.914C16.5416 110.898 16.7491 110.927 16.943 111C17.1368 111.073 17.3122 111.188 17.4567 111.337C17.6013 111.485 17.7114 111.663 17.7794 111.859C17.8474 112.055 17.8715 112.263 17.8501 112.469C17.8522 112.61 17.8388 112.751 17.8101 112.89M15.3421 112.479L17.1421 112.409C17.1121 111.797 16.8211 111.396 16.3421 111.396C15.7901 111.396 15.4421 111.807 15.3491 112.479" fill="white"/>
<path d="M20.3531 112.962C20.3246 112.702 20.3516 112.44 20.4322 112.191C20.5127 111.943 20.6451 111.714 20.8205 111.521C20.9959 111.327 21.2104 111.173 21.4498 111.069C21.6891 110.964 21.9479 110.912 22.2091 110.915C22.4562 110.902 22.7031 110.943 22.933 111.035C23.1629 111.126 23.3704 111.266 23.5412 111.445C23.7121 111.624 23.8423 111.838 23.923 112.072C24.0038 112.306 24.0331 112.555 24.0091 112.801C24.0396 113.061 24.0145 113.324 23.9355 113.573C23.8564 113.822 23.7252 114.052 23.5506 114.246C23.376 114.441 23.1619 114.596 22.9227 114.701C22.6835 114.807 22.4245 114.86 22.1631 114.858C21.9149 114.869 21.6672 114.827 21.4367 114.734C21.2063 114.641 20.9984 114.499 20.8273 114.319C20.6561 114.139 20.5255 113.925 20.4444 113.69C20.3633 113.455 20.3335 113.205 20.3571 112.958M23.2161 112.878C23.2161 111.965 22.8251 111.393 22.1831 111.393C21.5411 111.393 21.1501 111.965 21.1501 112.878C21.1501 113.791 21.5501 114.363 22.1931 114.363C22.8361 114.363 23.2161 113.801 23.2161 112.878Z" fill="white"/>
<path d="M25.9511 110.474V111.096H27.2451V111.588H25.9511V114.337L26.8941 114.387V114.748H24.5561V114.387L25.1681 114.236V111.587H24.4961V111.226L25.1681 111.096V110.474C25.1681 109.374 25.7501 108.789 26.7131 108.789C27.0364 108.785 27.3572 108.847 27.6561 108.97V109.582C27.3769 109.415 27.0584 109.325 26.7331 109.321C26.2111 109.321 25.9511 109.62 25.9511 110.474Z" fill="white"/>
<path d="M31.097 109.903V114.337L31.789 114.377V114.748H29.622V114.381L30.2841 114.22V109.796L29.5211 109.766V109.381H31.748V109.762L31.097 109.903ZM33.9561 114.327L34.7791 114.377V114.748H33.2541L31.2881 112.109L33.2881 109.862L32.526 109.772V109.391H34.683V109.772L33.9911 109.832L32.0851 111.879L33.9561 114.327Z" fill="white"/>
<path d="M39.2631 114.207V114.568L37.7781 114.809V114.156L37.4871 114.638C37.2103 114.786 36.9008 114.862 36.5871 114.859C36.4146 114.878 36.2399 114.859 36.076 114.802C35.912 114.745 35.7629 114.652 35.6397 114.53C35.5165 114.408 35.4222 114.259 35.364 114.096C35.3057 113.932 35.2849 113.758 35.3031 113.585V111.585H34.6031V111.214L36.0781 110.943V113.431C36.0781 114.023 36.3891 114.254 36.8511 114.254C37.1863 114.267 37.5158 114.164 37.7841 113.963V111.585H37.0621V111.214L38.5621 110.943V114.203L39.2631 114.207Z" fill="white"/>
<path d="M45.8591 111.016V111.387L45.3671 111.517L44.1331 114.747H43.381L42.588 112.219L41.7881 114.747H41.0261L39.8121 111.517L39.3121 111.387V111.016H41.489V111.387L40.6261 111.427L41.5491 114.096L42.3721 111.387L43.0441 111.166L43.9171 114.055L44.817 111.437L44.0041 111.387V111.016H45.8591Z" fill="white"/>
<path d="M49.2141 114.246H49.8661V114.597C49.5879 114.723 49.2882 114.794 48.9831 114.808C48.9099 114.816 48.8359 114.808 48.7664 114.783C48.697 114.759 48.6339 114.719 48.5819 114.667C48.5299 114.615 48.4902 114.552 48.4658 114.483C48.4414 114.413 48.433 114.339 48.4411 114.266V114.246L48.0901 114.697C47.8432 114.805 47.5764 114.859 47.3071 114.858C46.5651 114.858 46.0831 114.487 46.0831 113.825C46.0879 113.486 46.1964 113.157 46.3941 112.882L48.4411 112.742V112.301C48.4529 112.191 48.4395 112.08 48.4019 111.977C48.3642 111.873 48.3033 111.779 48.2239 111.703C48.1445 111.626 48.0486 111.569 47.9436 111.535C47.8386 111.501 47.7272 111.492 47.6181 111.508C47.1787 111.515 46.7467 111.622 46.3541 111.819L46.2641 111.688L46.6551 111.126C47.0305 110.985 47.4282 110.914 47.8291 110.915C48.6721 110.915 49.2141 111.296 49.2141 112.215V114.246ZM48.4411 114.015V113.215H46.9411C46.8843 113.362 46.8538 113.518 46.8511 113.676C46.8511 114.047 47.0921 114.288 47.5931 114.288C47.8986 114.288 48.1965 114.193 48.4461 114.017" fill="white"/>
<path d="M52.223 114.39V114.751H50.156V114.39L50.778 114.239V111.59H50.046V111.219L51.546 110.948V114.339L52.223 114.39ZM51.711 109.855L51.119 110.455L50.527 109.855L51.119 109.255L51.711 109.855Z" fill="white"/>
<path d="M55.2331 114.216L54.8421 114.708C54.6227 114.809 54.3836 114.86 54.1421 114.858C53.9927 114.877 53.8408 114.861 53.6986 114.812C53.5563 114.762 53.4276 114.68 53.3225 114.572C53.2174 114.464 53.139 114.333 53.0932 114.19C53.0475 114.046 53.0358 113.894 53.0591 113.745V111.588H52.3771V111.231L53.0591 111.101L53.4401 110.108H53.8311V111.101H55.1451V111.593H53.8311V113.66C53.8311 114.131 54.0121 114.292 54.4031 114.292C54.6672 114.292 54.9268 114.223 55.1561 114.092L55.2331 114.216Z" fill="white"/>
<path d="M79.2501 114.031V114.607C79.251 114.619 79.2493 114.631 79.2451 114.642C79.2409 114.654 79.2343 114.664 79.2257 114.673C79.2172 114.681 79.2069 114.688 79.1956 114.692C79.1842 114.696 79.1721 114.698 79.16 114.697C78.8309 114.694 78.5037 114.647 78.1871 114.557L77.8461 114.057C77.6461 114.488 77.2341 114.699 76.2711 114.699H68.5291C67.3551 114.699 66.7431 114.167 66.6931 113.164C66.8238 112.717 66.9811 112.278 67.1641 111.85L67.3851 111.93C67.2707 112.221 67.2065 112.53 67.1951 112.843C67.1951 113.595 67.6951 113.957 68.6801 113.957H76.2661C76.6224 113.969 76.9783 113.922 77.3191 113.817C77.3891 113.317 77.4301 112.924 77.5101 112.252L78.282 112.091C78.162 112.813 78.041 113.415 77.941 113.791C78.3314 113.924 78.7433 113.982 79.1551 113.962C79.2251 113.962 79.2451 114.002 79.2451 114.042" fill="white"/>
<path d="M81.404 112.918C81.4109 113.512 81.3707 114.106 81.284 114.694H79.157C79.145 114.695 79.1329 114.693 79.1216 114.689C79.1102 114.685 79.1 114.678 79.0914 114.67C79.0829 114.661 79.0763 114.651 79.0721 114.639C79.0679 114.628 79.0662 114.616 79.0671 114.604V114.032C79.0671 113.992 79.087 113.952 79.157 113.952H80.904C80.8652 113.142 80.6992 112.343 80.412 111.584L80.974 111.303L81.5961 112.657L81.404 112.918ZM79.167 116.169L79.7491 115.557L80.3011 116.099L79.7591 116.711L79.167 116.169ZM80.391 116.169L80.9731 115.557L81.5251 116.099L80.9941 116.711L80.391 116.169Z" fill="white"/>
<path d="M85.8611 113.951C85.9311 113.951 85.951 113.991 85.951 114.031V114.603C85.9519 114.615 85.9503 114.627 85.946 114.638C85.9418 114.65 85.9352 114.66 85.9267 114.669C85.9182 114.677 85.9079 114.684 85.8965 114.688C85.8852 114.692 85.8731 114.694 85.8611 114.693H85.1081C84.886 115.453 84.4252 116.121 83.7941 116.599L82.2591 116.358L82.2791 116.127C82.6914 116.112 83.0978 116.024 83.4791 115.866C83.9996 115.63 84.4127 115.207 84.6371 114.681C83.3131 114.591 82.4701 114.109 82.4701 113.407C82.4701 112.665 83.0821 111.481 83.8951 111.481C84.7271 111.481 85.2191 112.481 85.2191 113.881V113.951H85.8611ZM82.9311 113.369C83.4492 113.76 84.0822 113.968 84.7311 113.961C84.6111 112.988 84.3101 112.161 83.7981 112.161C83.4071 112.161 83.0251 112.733 82.9351 113.361" fill="white"/>
<path d="M85.861 114.693C85.849 114.694 85.8369 114.692 85.8256 114.688C85.8142 114.684 85.8039 114.677 85.7954 114.669C85.7869 114.66 85.7803 114.65 85.7761 114.638C85.7718 114.627 85.7701 114.615 85.771 114.603V114.031C85.771 113.991 85.791 113.951 85.861 113.951H87.115C87.185 113.951 87.205 113.991 87.205 114.031V114.603C87.2059 114.615 87.2042 114.627 87.2 114.638C87.1958 114.65 87.1892 114.66 87.1807 114.669C87.1721 114.677 87.1618 114.684 87.1505 114.688C87.1392 114.692 87.1271 114.694 87.115 114.693H85.861Z" fill="white"/>
<path d="M87.115 114.693C87.103 114.694 87.0909 114.692 87.0796 114.688C87.0682 114.684 87.058 114.677 87.0494 114.669C87.0409 114.66 87.0343 114.65 87.0301 114.638C87.0259 114.627 87.0241 114.615 87.025 114.603V114.031C87.025 113.991 87.045 113.951 87.115 113.951H88.3691C88.4391 113.951 88.459 113.991 88.459 114.031V114.603C88.4599 114.615 88.4582 114.627 88.454 114.638C88.4498 114.65 88.4432 114.66 88.4347 114.669C88.4261 114.677 88.4159 114.684 88.4045 114.688C88.3932 114.692 88.3811 114.694 88.3691 114.693H87.115Z" fill="white"/>
<path d="M88.368 114.693C88.356 114.694 88.3439 114.692 88.3326 114.688C88.3212 114.684 88.311 114.677 88.3024 114.669C88.2939 114.66 88.2873 114.65 88.2831 114.638C88.2789 114.627 88.2772 114.615 88.2781 114.603V114.031C88.2781 113.991 88.298 113.951 88.368 113.951H89.6221C89.6921 113.951 89.712 113.991 89.712 114.031V114.603C89.7129 114.615 89.7112 114.627 89.707 114.638C89.7028 114.65 89.6962 114.66 89.6877 114.669C89.6791 114.677 89.6688 114.684 89.6575 114.688C89.6462 114.692 89.6341 114.694 89.6221 114.693H88.368Z" fill="white"/>
<path d="M94.077 114.032V114.604C94.0779 114.616 94.0762 114.628 94.072 114.639C94.0678 114.651 94.0612 114.661 94.0527 114.67C94.0441 114.678 94.0338 114.685 94.0225 114.689C94.0112 114.693 93.999 114.695 93.987 114.694C93.7208 114.696 93.4563 114.652 93.205 114.564L92.944 114.153C92.763 114.544 92.402 114.695 91.844 114.695H89.625C89.6129 114.696 89.6009 114.694 89.5895 114.69C89.5782 114.686 89.5679 114.679 89.5594 114.671C89.5508 114.662 89.5442 114.652 89.54 114.64C89.5358 114.629 89.5341 114.617 89.535 114.605V114.033C89.535 113.993 89.555 113.953 89.625 113.953H92.484C92.5171 113.808 92.5339 113.66 92.534 113.511C92.534 112.699 92.072 112.167 91.034 111.766L90.793 111.896L89.98 111.304L90.04 110.804C90.9287 109.849 91.937 109.013 93.04 108.316L93.06 109.249C92.2186 109.768 91.4261 110.363 90.692 111.025C92.428 111.476 93.092 112.279 93.092 113.343C93.0931 113.497 93.083 113.652 93.062 113.805C93.3627 113.906 93.6779 113.957 93.995 113.955C94.065 113.955 94.085 113.995 94.085 114.035" fill="white"/>
<path d="M95.863 109.968L95.6631 110.219C95.7331 111.119 95.743 111.664 95.743 112.386C95.7437 113.157 95.7003 113.927 95.613 114.693H93.988C93.976 114.694 93.9639 114.692 93.9526 114.688C93.9412 114.684 93.931 114.677 93.9224 114.669C93.9139 114.66 93.9073 114.65 93.9031 114.638C93.8989 114.627 93.8972 114.615 93.8981 114.603V114.031C93.8981 113.991 93.918 113.951 93.988 113.951H95.2021C95.2121 113.61 95.2021 113.188 95.1821 112.707C95.1571 111.405 95.0095 110.108 94.7411 108.834L95.303 108.573L95.863 109.968Z" fill="white"/>
<path d="M97.1161 114.774C96.9961 112.738 96.9251 110.992 96.7351 108.865L97.5081 108.574C97.6081 110.56 97.6481 112.296 97.7081 114.714L97.1161 114.774Z" fill="white"/>
<path d="M103.958 113.951C104.028 113.951 104.048 113.991 104.048 114.031V114.603C104.049 114.615 104.047 114.627 104.043 114.638C104.039 114.65 104.032 114.66 104.024 114.669C104.015 114.677 104.005 114.684 103.994 114.688C103.982 114.692 103.97 114.694 103.958 114.693H102.904C102.813 114.57 102.732 114.439 102.663 114.302L102.111 114.663C101.238 114.392 100.445 113.931 100.445 113.339C100.445 112.747 101.145 111.985 102.345 111.373L102.315 111.052L103.047 110.752C103.087 111.752 103.107 113.019 103.137 113.952L103.958 113.951ZM102.573 114.021C102.493 113.158 102.463 112.721 102.392 111.914C101.789 112.181 101.281 112.625 100.937 113.188C101.365 113.652 101.946 113.947 102.573 114.021ZM102.381 109.396L101.839 110.008L101.247 109.466L101.829 108.866L102.381 109.396ZM103.605 109.406L103.063 110.006L102.463 109.464L103.055 108.864L103.605 109.406Z" fill="white"/>
<path d="M103.958 114.693C103.946 114.694 103.934 114.692 103.923 114.688C103.911 114.684 103.901 114.677 103.892 114.669C103.884 114.66 103.877 114.65 103.873 114.638C103.869 114.627 103.867 114.615 103.868 114.603V114.031C103.868 113.991 103.888 113.951 103.958 113.951H105.212C105.282 113.951 105.302 113.991 105.302 114.031V114.603C105.303 114.615 105.301 114.627 105.297 114.638C105.293 114.65 105.286 114.66 105.278 114.669C105.269 114.677 105.259 114.684 105.248 114.688C105.236 114.692 105.224 114.694 105.212 114.693H103.958Z" fill="white"/>
<path d="M105.212 114.693C105.2 114.694 105.188 114.692 105.177 114.688C105.165 114.684 105.155 114.677 105.146 114.669C105.138 114.66 105.131 114.65 105.127 114.638C105.123 114.627 105.121 114.615 105.122 114.603V114.031C105.122 113.991 105.142 113.951 105.212 113.951H106.466C106.536 113.951 106.556 113.991 106.556 114.031V114.603C106.557 114.615 106.555 114.627 106.551 114.638C106.547 114.65 106.54 114.66 106.532 114.669C106.523 114.677 106.513 114.684 106.502 114.688C106.49 114.692 106.478 114.694 106.466 114.693H105.212Z" fill="white"/>
<path d="M106.466 114.693C106.454 114.694 106.442 114.692 106.431 114.688C106.419 114.684 106.409 114.677 106.4 114.669C106.392 114.66 106.385 114.65 106.381 114.638C106.377 114.627 106.375 114.615 106.376 114.603V114.031C106.376 113.991 106.396 113.951 106.466 113.951H107.72C107.79 113.951 107.81 113.991 107.81 114.031V114.603C107.811 114.615 107.809 114.627 107.805 114.638C107.801 114.65 107.794 114.66 107.786 114.669C107.777 114.677 107.767 114.684 107.755 114.688C107.744 114.692 107.732 114.694 107.72 114.693H106.466Z" fill="white"/>
<path d="M107.72 114.693C107.708 114.694 107.696 114.692 107.685 114.688C107.673 114.684 107.663 114.677 107.654 114.669C107.646 114.66 107.639 114.65 107.635 114.638C107.631 114.627 107.629 114.615 107.63 114.603V114.031C107.63 113.991 107.65 113.951 107.72 113.951H108.974C109.044 113.951 109.064 113.991 109.064 114.031V114.603C109.065 114.615 109.063 114.627 109.059 114.638C109.055 114.65 109.048 114.66 109.04 114.669C109.031 114.677 109.021 114.684 109.01 114.688C108.998 114.692 108.986 114.694 108.974 114.693H107.72Z" fill="white"/>
<path d="M108.974 114.693C108.962 114.694 108.95 114.692 108.939 114.688C108.927 114.684 108.917 114.677 108.908 114.669C108.9 114.66 108.893 114.65 108.889 114.638C108.885 114.627 108.883 114.615 108.884 114.603V114.031C108.884 113.991 108.904 113.951 108.974 113.951H110.228C110.299 113.951 110.319 113.991 110.319 114.031V114.603C110.32 114.615 110.318 114.627 110.314 114.638C110.309 114.65 110.303 114.66 110.294 114.669C110.285 114.677 110.275 114.684 110.264 114.688C110.252 114.692 110.24 114.694 110.228 114.693H108.974Z" fill="white"/>
<path d="M110.227 114.693C110.215 114.694 110.203 114.692 110.192 114.688C110.18 114.684 110.17 114.677 110.161 114.669C110.153 114.66 110.146 114.65 110.142 114.638C110.138 114.627 110.136 114.615 110.137 114.603V114.031C110.137 113.991 110.157 113.951 110.227 113.951H111.481C111.551 113.951 111.571 113.991 111.571 114.031V114.603C111.572 114.615 111.57 114.627 111.566 114.638C111.562 114.65 111.555 114.66 111.547 114.669C111.538 114.677 111.528 114.684 111.516 114.688C111.505 114.692 111.493 114.694 111.481 114.693H110.227Z" fill="white"/>
<path d="M111.482 114.693C111.47 114.694 111.458 114.692 111.447 114.688C111.435 114.684 111.425 114.677 111.416 114.669C111.408 114.66 111.401 114.65 111.397 114.638C111.393 114.627 111.391 114.615 111.392 114.603V114.031C111.392 113.991 111.412 113.951 111.482 113.951H112.736C112.806 113.951 112.826 113.991 112.826 114.031V114.603C112.827 114.615 112.825 114.627 112.821 114.638C112.817 114.65 112.81 114.66 112.802 114.669C112.793 114.677 112.783 114.684 112.772 114.688C112.76 114.692 112.748 114.694 112.736 114.693H111.482Z" fill="white"/>
<path d="M114.612 109.968L114.412 110.219C114.482 111.119 114.492 111.664 114.492 112.386C114.493 113.157 114.449 113.927 114.362 114.693H112.737C112.725 114.694 112.713 114.692 112.702 114.688C112.69 114.684 112.68 114.677 112.671 114.669C112.663 114.66 112.656 114.65 112.652 114.638C112.648 114.627 112.646 114.615 112.647 114.603V114.031C112.647 113.991 112.667 113.951 112.737 113.951H113.951C113.961 113.61 113.951 113.188 113.931 112.707C113.906 111.405 113.758 110.108 113.489 108.834L114.051 108.573L114.612 109.968Z" fill="white"/>
<path d="M118.352 113.881C118.339 114.413 118.204 114.935 117.957 115.406C117.71 115.878 117.358 116.286 116.928 116.6L115.393 116.359L115.413 116.128C115.825 116.113 116.232 116.025 116.613 115.867C117.099 115.647 117.493 115.264 117.727 114.784C116.373 114.563 115.58 114.152 115.58 113.46C115.58 112.748 116.212 111.524 117.025 111.524C117.857 111.524 118.349 112.487 118.349 113.882M116.062 113.4C116.569 113.83 117.204 114.08 117.868 114.112C117.778 113.089 117.468 112.212 116.925 112.212C116.525 112.212 116.142 112.764 116.062 113.396" fill="white"/>
<path d="M120.882 111.162C121.373 111.96 121.662 112.866 121.725 113.801C121.725 114.101 121.691 114.401 121.625 114.694C121.195 114.761 120.76 114.795 120.325 114.794C119.854 114.792 119.386 114.731 118.93 114.613L119.061 113.913C119.472 114.01 119.893 114.057 120.315 114.053C120.628 114.053 120.941 114.023 121.248 113.963C121.24 113.92 121.237 113.877 121.238 113.833C121.083 113.058 120.75 112.33 120.265 111.706L120.882 111.162Z" fill="white"/>
<path d="M60.817 108.574H60.23V116.6H60.817V108.574Z" fill="white"/>
</g>
</svg>
