<svg xmlns="http://www.w3.org/2000/svg" xmlns:xlink="http://www.w3.org/1999/xlink" width="200.949" height="72.824" viewBox="0 0 200.949 72.824">
  <defs>
    <clipPath id="clip-path">
      <rect id="Rectangle_38486" data-name="Rectangle 38486" width="72.824" height="72.824" fill="#0c3443"/>
    </clipPath>
    <clipPath id="clip-path-2">
      <rect id="Rectangle_38488" data-name="Rectangle 38488" width="122.24" height="37.371" fill="#0c3443"/>
    </clipPath>
  </defs>
  <g id="MOJ_Logo" transform="translate(-671.394 -47)">
    <g id="Group_108188" data-name="Group 108188" transform="translate(799.519 47)">
      <g id="Group_108187" data-name="Group 108187" transform="translate(0 0)" clip-path="url(#clip-path)">
        <path id="Path_67750" data-name="Path 67750" d="M705.425,160.316c0,.194.306.388.528.416a.747.747,0,0,0,.444-.194c-.111.389-.583.472-1.082.472-.555,0-.8-.028-1-.222-.055-.083-.111-.167-.194-.278l-.111.083c.277.5.583.971,1.082.971a1.545,1.545,0,0,0,.583-.166,1.921,1.921,0,0,0,1.276-1.582c0-.222-.111-.305-.333-.333-.555.028-1.221.416-1.193.833m.666-.472a.326.326,0,0,1,.305.278.283.283,0,0,1-.056.25c-.194-.028-.5-.278-.5-.444.028-.083.111-.083.25-.083" transform="translate(-659.332 -145.917)" fill="#0c3443"/>
        <path id="Path_67751" data-name="Path 67751" d="M752.781,181.881a1.828,1.828,0,0,0,.527-.389,1.437,1.437,0,0,0,.305-1.665l-.527.305a1.092,1.092,0,0,1-.056,1.193c-.277-.305-.527-.611-.833-.888l-.389.361c.361.389.694.722.971,1.082" transform="translate(-704.524 -165.151)" fill="#0c3443"/>
        <path id="Path_67752" data-name="Path 67752" d="M608.079,88.343l.055.028-.028.333a.346.346,0,0,0,.277.389,15.1,15.1,0,0,1,4.357,2.109c.194-.139.555-.333.611-.527l.416-.833a2.593,2.593,0,0,0,.61-.194l-.25-.555a.341.341,0,0,1,.028-.361l-.638.305.083.25a11.909,11.909,0,0,1-.666,1.332,17.41,17.41,0,0,0-4.413-2.081c-.083-.028-.083-.111-.083-.277l.139-1.526-.416.444.027.166c-.527.139-.86.222-1,.416a6.264,6.264,0,0,0-.361.555,5.117,5.117,0,0,0,.832.389c.194,0,.25-.25.416-.361m-.638-.436a.686.686,0,0,1,.221-.092l.359-.085.169-.2a4.46,4.46,0,0,1-.055.675,2.135,2.135,0,0,1-.721-.277l.028-.019" transform="translate(-567.453 -77.136)" fill="#0c3443"/>
        <path id="Path_67753" data-name="Path 67753" d="M398.025,71.389l-.075.294-.406.017-.12.467.538-.023.075-.294.406-.017.09-.352.06,0c.482.026,1.022.033,1.26-.337a1.917,1.917,0,0,0,.167-1.17,15.777,15.777,0,0,1,4.856-1.216l.179-.333h.027c.107.255.219.332.46.305a4.7,4.7,0,0,1,.611-.028h.139c.083-.222.277-.583.222-.749l-.139-.916a2.488,2.488,0,0,0,.416-.527l-.527-.333a.341.341,0,0,1-.194-.305l-.333.638.194.139a10.545,10.545,0,0,1,.222,1.471c-.241,0-.485.008-.73.02-.049-.5-.319-.986-.99-.936a17.84,17.84,0,0,0-3.941.862,3.859,3.859,0,0,1,1.333-1.112l.222-.666a4.066,4.066,0,0,0-1.693,1.554.941.941,0,0,0-.139.527.19.19,0,0,0,.278.194,16.953,16.953,0,0,1,3.83-.86.476.476,0,0,1,.555.472v0a17.363,17.363,0,0,0-5.058,1.263c-.2-.384-.506-.766-.825-.766-.277,0-.388.472-.361.833.056.777.333.944.888.666l.222-.111.017-.007a1.187,1.187,0,0,1-.184.534c-.428.722-.65.748-1.013.774v0Zm1.273-1.711c-.25.139-.416.083-.444-.083a.293.293,0,0,1,.222-.333.493.493,0,0,1,.444.305Z" transform="translate(-369.471 -57.416)" fill="#0c3443"/>
        <path id="Path_67754" data-name="Path 67754" d="M337.536,156.806l.4-.081.044-.481-.527.108-.028.3-.4.081-.044.481.527-.108Z" transform="translate(-312.325 -142.855)" fill="#0c3443"/>
        <path id="Path_67755" data-name="Path 67755" d="M611.862,74.416l.3.274.415-.246-.4-.364-.261.155-.3-.274-.415.246.4.364Z" transform="translate(-571.589 -65.06)" fill="#0c3443"/>
        <path id="Path_67756" data-name="Path 67756" d="M322.31,136.155a.679.679,0,0,0,.464-.218,22.024,22.024,0,0,1,2.2-2.046l-.027-.45.1.054a.609.609,0,0,0,.246.068.4.4,0,0,0,.2-.082c.136-.082.668-.464.941-.614a1.61,1.61,0,0,0-1.078-1.323l-.014.559a1.548,1.548,0,0,1,.641.382l-.682.45a.359.359,0,0,1-.2.068c-.245,0-.368-.368-.614-.668a3.129,3.129,0,0,1-.027.532,1.694,1.694,0,0,1,.286.464,27.747,27.747,0,0,0-2.237,2.087.586.586,0,0,1-.423.2c-.232,0-.436-.218-.614-.559l-.068.027c.109.341.477,1.064.914,1.064" transform="translate(-297.591 -119.503)" fill="#0c3443"/>
        <path id="Path_67757" data-name="Path 67757" d="M578.247,69.764c0-.355,0-1.023-.027-1.377a4.329,4.329,0,0,0-.423.641l.055,2.2a2.031,2.031,0,0,0,.4-1.459" transform="translate(-540.004 -59.79)" fill="#0c3443"/>
        <path id="Path_67758" data-name="Path 67758" d="M60.182,18.782a18.12,18.12,0,0,1-1.387,1.247,26.176,26.176,0,0,0-.92-5.77A3.809,3.809,0,0,0,56.256,11.7a2.158,2.158,0,0,0-1.627-.164,25.719,25.719,0,0,0-3.892-6.477,2.759,2.759,0,0,0-1.924-1,2.237,2.237,0,0,0-1.519.483A22.382,22.382,0,0,0,42.052.7a3.072,3.072,0,0,0-2.4-.259,2.064,2.064,0,0,0-1.12.91,20.444,20.444,0,0,0-5.4-1.33,3.088,3.088,0,0,0-2.4.675,2.1,2.1,0,0,0-.453.578A2.1,2.1,0,0,0,29.835.7a3.089,3.089,0,0,0-2.4-.675,20.443,20.443,0,0,0-5.4,1.33,2.063,2.063,0,0,0-1.12-.91,3.073,3.073,0,0,0-2.4.259,22.38,22.38,0,0,0-5.242,3.839,2.236,2.236,0,0,0-1.519-.483A2.761,2.761,0,0,0,9.837,5.064a25.707,25.707,0,0,0-3.89,6.474A2.157,2.157,0,0,0,4.32,11.7,3.808,3.808,0,0,0,2.7,14.258a26.171,26.171,0,0,0-.921,5.787A18.056,18.056,0,0,1,.372,18.782L0,18.409v.527a18.988,18.988,0,0,0,1.055,6.3,25.326,25.326,0,0,0,2.972,5.811,11.449,11.449,0,0,1-2.482-.537l-.49-.173.219.471a19.872,19.872,0,0,0,7.668,8.823,13.964,13.964,0,0,1-2.518.414l-.508.028.371.349A23.285,23.285,0,0,0,17.395,46.6a15.455,15.455,0,0,1-1.853,1.085l-.259.137-.364.193.364.193a31.334,31.334,0,0,0,6.811,2.629,18.083,18.083,0,0,0,1.854,6.307A11.888,11.888,0,0,0,30.2,62.7l.081.032.081-.032a11.888,11.888,0,0,0,6.249-5.562,18.078,18.078,0,0,0,1.854-6.3,31.372,31.372,0,0,0,6.812-2.637l.364-.193-.364-.193-.259-.137A15.459,15.459,0,0,1,43.159,46.6a23.285,23.285,0,0,0,11.107-6.173l.371-.349-.508-.028a13.965,13.965,0,0,1-2.518-.414,19.871,19.871,0,0,0,7.668-8.823l.219-.471-.49.173a11.449,11.449,0,0,1-2.482.537A25.327,25.327,0,0,0,59.5,25.24a18.99,18.99,0,0,0,1.055-6.3v-.527Zm-4.134-6.7a3.46,3.46,0,0,1,1.4,2.283,25.6,25.6,0,0,1,.918,6c-.539.414-1.1.806-1.692,1.173A26.807,26.807,0,0,0,54.8,11.946a1.72,1.72,0,0,1,1.252.139M48.79,4.492a2.32,2.32,0,0,1,1.612.849A25.946,25.946,0,0,1,56.244,21.8c-.581.345-1.18.664-1.79.954,0-.09.011-.179.017-.271.014-.2.028-.416.028-.642A24.379,24.379,0,0,0,50.983,9.208,23.906,23.906,0,0,0,47.606,4.85a1.813,1.813,0,0,1,1.184-.358M39.8.852a2.636,2.636,0,0,1,2.052.233,22.636,22.636,0,0,1,8.759,8.349,23.942,23.942,0,0,1,3.453,12.407c0,.211-.013.406-.027.613-.011.163-.022.33-.026.506-.587.264-1.182.5-1.779.706.045-.6.085-1.215.085-1.824a22.14,22.14,0,0,0-5.64-14.773,21.643,21.643,0,0,0-7.733-5.551A1.613,1.613,0,0,1,39.8.852m-8.765.168A2.655,2.655,0,0,1,33.091.455a20.714,20.714,0,0,1,13.26,6.9A21.7,21.7,0,0,1,51.88,21.841c0,.655-.048,1.323-.1,1.973a18.232,18.232,0,0,1-1.775.47,20.589,20.589,0,0,0,.127-2.443A19.831,19.831,0,0,0,30.51,1.985a1.568,1.568,0,0,1,.523-.965M42.962,36.5a9.107,9.107,0,0,0-2.639.787,8.871,8.871,0,0,1-3.476.883,7.606,7.606,0,0,1-2.863-.642,14.6,14.6,0,0,0-.393-1.466,8.07,8.07,0,0,0,3.256.8,8.627,8.627,0,0,0,3.484-.886,7.687,7.687,0,0,1,3.062-.805,6.122,6.122,0,0,1,.923.07q-.65.665-1.354,1.261m-.493.4a17.145,17.145,0,0,1-4.033,2.4,7.352,7.352,0,0,1-2.43.64c-1.006,0-1.607-.628-1.937-2.03a7.6,7.6,0,0,0,2.779.585,9.131,9.131,0,0,0,3.6-.907,11.192,11.192,0,0,1,2.021-.687M44.59,34.95a6.494,6.494,0,0,0-1.2-.112,8.054,8.054,0,0,0-3.189.831,8.366,8.366,0,0,1-3.358.86,8.208,8.208,0,0,1-3.32-.853l-.089-.038A2.8,2.8,0,0,0,30.6,33.556a5.332,5.332,0,0,0-3.339,1.032,1.418,1.418,0,0,0-.419.875,2.3,2.3,0,0,0-1.075.721,6.312,6.312,0,0,1-2.016.345,8.367,8.367,0,0,1-3.358-.86,8.054,8.054,0,0,0-3.189-.831,6.5,6.5,0,0,0-1.215.115q-.362-.4-.708-.818-.266-.325-.518-.66a7.146,7.146,0,0,1,2.441-.492,7.717,7.717,0,0,1,2.946.783,9.125,9.125,0,0,0,3.6.908,8.957,8.957,0,0,0,3.561-.9,7.708,7.708,0,0,1,2.986-.791,7.708,7.708,0,0,1,2.986.791,8.957,8.957,0,0,0,3.561.9,9.126,9.126,0,0,0,3.6-.908,7.717,7.717,0,0,1,2.946-.783,7.16,7.16,0,0,1,2.447.494q-.226.295-.464.582-.38.458-.787.89m-19.036,3.5.049.1.456.079.014-.1a2.543,2.543,0,0,1,.179-.555c.677.026,1.406.217,1.406.924,0,.27,0,1.091-2.128,1.091a8.611,8.611,0,0,1-2.663-.427,14.649,14.649,0,0,1-4.846-2.689,10.587,10.587,0,0,1,2.133.708,9.125,9.125,0,0,0,3.6.908,6.617,6.617,0,0,0,1.713-.234c.025.064.053.129.086.2m-.182-.508a6.288,6.288,0,0,1-1.617.22,8.866,8.866,0,0,1-3.476-.883,8.862,8.862,0,0,0-2.718-.794q-.669-.584-1.3-1.249a6.123,6.123,0,0,1,.949-.074,7.687,7.687,0,0,1,3.062.805,8.627,8.627,0,0,0,3.484.886,6.4,6.4,0,0,0,1.746-.248,1.907,1.907,0,0,0-.187.821,2.321,2.321,0,0,0,.059.517M46.047,33.2a7.614,7.614,0,0,0-2.653-.547,7.963,7.963,0,0,0-3.071.808,8.865,8.865,0,0,1-3.476.883,8.7,8.7,0,0,1-3.436-.875,7.955,7.955,0,0,0-3.111-.816,7.955,7.955,0,0,0-3.111.816,8.7,8.7,0,0,1-3.436.875,8.866,8.866,0,0,1-3.476-.883,7.962,7.962,0,0,0-3.071-.808,7.6,7.6,0,0,0-2.645.544q-.371-.512-.709-1.043l.015-.006a8.79,8.79,0,0,1,3.339-.8,7.687,7.687,0,0,1,3.062.805,8.627,8.627,0,0,0,3.484.886,8.468,8.468,0,0,0,3.447-.879,7.675,7.675,0,0,1,3.1-.812,7.675,7.675,0,0,1,3.1.812,8.468,8.468,0,0,0,3.447.879,8.627,8.627,0,0,0,3.484-.886,7.687,7.687,0,0,1,3.062-.805,8.789,8.789,0,0,1,3.339.8l.03.012q-.339.531-.716,1.04m.893-1.323-.088-.034a9.047,9.047,0,0,0-3.457-.827,8.054,8.054,0,0,0-3.189.831,8.366,8.366,0,0,1-3.358.86,8.206,8.206,0,0,1-3.319-.853A8.042,8.042,0,0,0,30.3,31.02a8.042,8.042,0,0,0-3.227.838,8.206,8.206,0,0,1-3.319.853,8.367,8.367,0,0,1-3.358-.86,8.054,8.054,0,0,0-3.189-.831,9.047,9.047,0,0,0-3.457.827l-.072.028q-.452-.74-.836-1.512c.39-.131.765-.272,1.129-.411a8.917,8.917,0,0,1,3.236-.787,7.717,7.717,0,0,1,2.946.783,9.125,9.125,0,0,0,3.6.908,8.957,8.957,0,0,0,3.561-.9,7.708,7.708,0,0,1,2.986-.791,7.708,7.708,0,0,1,2.986.791,8.957,8.957,0,0,0,3.561.9,9.126,9.126,0,0,0,3.6-.908,7.717,7.717,0,0,1,2.946-.783,8.917,8.917,0,0,1,3.236.787c.369.14.749.284,1.145.416q-.382.773-.836,1.513m.979-1.81c-.4-.133-.794-.281-1.172-.425a9.167,9.167,0,0,0-3.353-.808,7.963,7.963,0,0,0-3.071.808,8.865,8.865,0,0,1-3.476.883,8.7,8.7,0,0,1-3.436-.875,7.955,7.955,0,0,0-3.111-.816,7.955,7.955,0,0,0-3.111.816,8.7,8.7,0,0,1-3.436.875,8.866,8.866,0,0,1-3.476-.883,7.962,7.962,0,0,0-3.071-.808,9.168,9.168,0,0,0-3.353.808c-.374.142-.759.288-1.158.42q-.27-.567-.5-1.145c.6-.17,1.144-.382,1.674-.589a8.8,8.8,0,0,1,3.339-.8,7.687,7.687,0,0,1,3.062.805,8.627,8.627,0,0,0,3.484.886A8.468,8.468,0,0,0,27.2,28.34a7.675,7.675,0,0,1,3.1-.812,7.675,7.675,0,0,1,3.1.812,8.468,8.468,0,0,0,3.447.879,8.627,8.627,0,0,0,3.484-.886,7.687,7.687,0,0,1,3.062-.805,8.794,8.794,0,0,1,3.339.8c.533.207,1.082.42,1.681.59q-.228.582-.5,1.148m-33.9-18.833,5.433,3.631.121-.181a12.876,12.876,0,0,1,21.41,0l.121.181,5.449-3.641A19.3,19.3,0,0,1,49.7,21.841c0,.244,0,.477-.009.7a5.3,5.3,0,0,0-3.279-.094,4.981,4.981,0,0,0-5.979-3.708,5.326,5.326,0,0,0-1.387-3.012c-.093-.1-.191-.193-.291-.284q.064-.111.131-.221l.408-.17-.166-.4q-.45.185-.891.378a5.465,5.465,0,0,0-1.989-.865A5.289,5.289,0,0,0,31.2,15.707a12.89,12.89,0,0,1,1.7-4.263l.037-.058L33.3,11.2l-.191-.393q-2.752,1.338-5.424,2.9A3.731,3.731,0,0,0,21,15.926h-.072a2.56,2.56,0,0,0-2.2,1.245,4.2,4.2,0,0,0-4.129-.5,3.868,3.868,0,0,0-2.316,3.192,1.628,1.628,0,0,0-1.285-.127,19.228,19.228,0,0,1,3.026-8.494m5.557,13.038-.016.218.137.01-.03.392-.395-.033-.758-.65c.877-.159,1.775-.286,2.686-.381L20.866,25l-.766-.064.03-.4.136.01.017-.218Zm-1.955-.827c-.03-.03-.059-.057-.087-.083a8.151,8.151,0,0,1,.1-2.183q2.811-2.261,5.77-4.256l-1.159,4.059a.327.327,0,0,0-.295.237l-.024.084h0l-.657,2.3c-1.007.1-2,.244-2.964.424Zm.212.406-.442.391-.187-.2.427-.379Zm8.5,1.6-.248-1.823q.392.008.784.023a5.3,5.3,0,0,0,.209,1.632l.029.1.1-.023q.616-.138,1.254-.245l.488,1.24q-1.256-.018-2.505-.093l-.05-.367,1.921.161.036-.435Zm-.909-1.831.241,1.775-.909-.076-.026-1.7q.347,0,.694,0M25.4,21.788a.324.324,0,0,0,.066.007.328.328,0,0,0,.044,0h0a.325.325,0,0,0,.106-.034l.224,1.649-.22,0Zm.33,4.054.052.38q-.505-.036-1.008-.08l-.006-.38Zm-.081-2.217.221,0,.246,1.809-.223-.019Zm.526,2.254.051.372L26,26.237l-.051-.376Zm7.378-7.993-.124,6.651c-.768-.011-1.533.007-2.287.055l.969-2.778.029-.082a.328.328,0,0,0-.1-.363l1.136-3.257.383-.226m-.16-.413.177-.507-.008.409-.169.1m-4.264,7.542q.6-.085,1.222-.142l-.519,1.49h-.173Zm.3,1.347-.235,0-.5-1.279.221-.034Zm1.165-1.51.238-.019-.532,1.525-.232,0Zm.079-.226.929-2.664a.324.324,0,0,0,.2.072h0l-.9,2.574-.237.018m.4.19c.778-.052,1.568-.072,2.361-.06l-.014.74c-.241.015-.479.029-.711.04l-.094-.483h-.436v1.243c-.542.026-1.1.048-1.642.059Zm.765-3.518a.328.328,0,0,0-.308.219l-.029.082-1.063,3.048q-.7.063-1.383.16l-1.161-2.952a41.844,41.844,0,0,1,4.993-3.565Zm-3,3.542-.221.035-1.071-2.723L27.705,22Zm-1.461-3.118-.682-1.734a.317.317,0,0,0,.2-.079l.655,1.666-.176.148m-.007.579,1.027,2.61q-.568.1-1.119.217a5.178,5.178,0,0,1,.028-2.772l.064-.055m8.185,3.022v-.46c.656.057,1.309.136,1.957.236-.649.084-1.307.16-1.957.224m1.857.206-.185.354q-.587.074-1.175.136l.182-.348q.588-.064,1.177-.141m-1.568.183-.181.347q-.583.057-1.157.1l.179-.342q.575-.046,1.159-.106m-.507-.367c-.392.037-.779.07-1.16.1l-.012-.668q.586.023,1.173.069Zm-1.036.5-.178.341c-.385.027-.766.049-1.138.065l.175-.336q.56-.028,1.14-.07M34,16.726l.181.3-.173.1Zm-.008-.436-.015-.785h-.382l-.014.762-.48,1.378q-1.178.7-2.3,1.463a19.918,19.918,0,0,1,.171-2.125c.028-.206.061-.409.1-.61a4.965,4.965,0,0,1,5.108-1.887,5.164,5.164,0,0,1,1.7.7q-1.819.808-3.509,1.735Zm-3.234.662a20.268,20.268,0,0,0-.175,2.306q-1.48,1.023-2.867,2.168l-.742-1.885-.032-.081a.326.326,0,0,0-.316-.207l-1.389-3.531a81.1,81.1,0,0,1,7.326-4.152,13.97,13.97,0,0,0-1.805,5.381m-4.335,2.382a.323.323,0,0,0-.091.366l.032.081.822,2.09q-.47.4-.931.817l.293.324q.227-.2.456-.406a5.607,5.607,0,0,0-.121.831q-.412-.016-.824-.024l-.27-1.988-.012-.087a.327.327,0,0,0-.258-.276l-.69-5.079.22-.141Zm-1.658-3.828-.08-.591.2.513-.122.078m.538,5.586a.326.326,0,0,0-.175.335l.012.086L25.4,23.4q-.334,0-.667,0l-.112-7.288.009-.006Zm-3.4,2.675q1.067-.091,2.151-.125l-.025,1.62-2.493-.209Zm-.168-.2-.233.022.549-1.921a.318.318,0,0,0,.189.062l.021,0ZM24.017,25.7l-.006.372q-.595-.06-1.185-.131l-.345-.37Zm.15-9.807-.3.2.318-1.114Zm-.008.528-.107,7q-1.051.032-2.09.119l.587-2.056.024-.084a.323.323,0,0,0-.125-.356l1.231-4.308.481-.319m-2.727,7.389.233-.023-.356,1.248-.222-.019ZM38.3,24.99l-.46.063-.008-.047c-.031-.183-.059-.363-.086-.542q.336-.046.67-.1l.073-.01Zm-.615-.956q-.067-.493-.114-.965l.545.9-.431.061m.665-.1-.822-1.362q-.019-.24-.031-.475l1.087,1.8-.234.035m-.82.556q.03.2.063.4-.815-.129-1.641-.211c.525-.055,1.053-.118,1.578-.188m-2.392-.169-.016.287q-.489-.035-.978-.054l-.129-6.939.39-.219,1.222,2.026a.323.323,0,0,0-.028.376l.045.075,1.67,2.768q.055.686.154,1.42c-.771.1-1.545.19-2.33.261m.852-4.3a.314.314,0,0,0,.187-.113l1.084,1.8q.008.226.021.458Zm1.259,1.242L36.2,19.537l-.045-.075a.327.327,0,0,0-.346-.151L34.6,17.294q1.895-1.039,3.948-1.924a10.1,10.1,0,0,0-1.2,3.92,15.893,15.893,0,0,0-.092,1.979M10.957,20.086a1.328,1.328,0,0,1,1.355.187l.242.188.022-.305a3.594,3.594,0,0,1,2.146-3.188,3.869,3.869,0,0,1,3.946.576l.158.131.092-.183a2.236,2.236,0,0,1,2.007-1.239c.073,0,.147,0,.222.011l.186.018-.007-.211c0-.03,0-.059,0-.089a3.4,3.4,0,0,1,6.081-2.1q-1.175.693-2.333,1.428l-.487-1.237,0-.278H24.2l-.005.345-.611,2.138a85.868,85.868,0,0,0-7.028,5.217l.278.337q.269-.222.54-.441a8.382,8.382,0,0,0-.073,1.8.377.377,0,0,0-.5.038c-.218.218-.109.546.382,1.037l.428.457-1.281-.107-.036.435,1.762.148c.97,1.037,1.818,1.945,2.847,3.042-.17-.069-.339-.139-.506-.209a8.054,8.054,0,0,0-3.189-.831,9.052,9.052,0,0,0-3.458.826c-.532.207-1.081.42-1.675.587a17.8,17.8,0,0,1-1.034-4.083l-.02-.157h0a19.746,19.746,0,0,1-.142-2.533c0-.59.027-1.175.079-1.755m37.574,8.529c-.6-.167-1.146-.381-1.68-.588a9.052,9.052,0,0,0-3.458-.826,7.761,7.761,0,0,0-3.064.779l.482-1.2a1.756,1.756,0,0,0,.055-.927.855.855,0,0,1,.164-.873l.7-1.012a.175.175,0,0,0-.176-.271h0a.175.175,0,0,0-.114.075l-.089.134-.609.129-.049.211-.248.047-.113-.169-.208.049a.927.927,0,0,0-.555.387l-.113-.045.781-1.528a3.057,3.057,0,0,1,1.789.366,4.728,4.728,0,0,0,1.085.37l.06.01.979-1.921-.109-.019a4.6,4.6,0,0,1-1.047-.359,3.339,3.339,0,0,0-1.761-.393l.163-.318-.291-.149L38.892,24.9l-.354.054.189-.632.229-.038.177-.339-.086-.118-.232.037-1.34-2.221a16.116,16.116,0,0,1,.082-2.33,10.059,10.059,0,0,1,1.034-3.572c.073.069.145.138.214.212a5.031,5.031,0,0,1,1.321,3.006l.018.191.186-.048a4.661,4.661,0,0,1,5.8,3.586l.037.172.169-.049a5.093,5.093,0,0,1,3.342.073c-.022.534-.062,1.023-.122,1.49h0l-.02.157a18.359,18.359,0,0,1-1,4.084m-5.857-6.6a6.088,6.088,0,0,0-.829-.32,2.271,2.271,0,0,0-.505-.5,3.279,3.279,0,0,1,1.588.388,5.17,5.17,0,0,0,.977.349l-.224.439a4.673,4.673,0,0,1-1.006-.358m.929.509-.223.438a4.678,4.678,0,0,1-1.006-.358l-.025-.011a6.344,6.344,0,0,0-.734-.288l.225-.441a6.23,6.23,0,0,1,.769.3,5.06,5.06,0,0,0,1,.36M41.5,22.442a5.762,5.762,0,0,1,.784.3l.025.011a5.072,5.072,0,0,0,1,.36l-.223.437a4.853,4.853,0,0,1-.988-.348,3.741,3.741,0,0,0-1.467-.406h-.036a6.55,6.55,0,0,1,.909-.356M44.013,8.1a19.6,19.6,0,0,1,2.3,2.76l-5.087,3.4a13.313,13.313,0,0,0-21.89,0L14.26,10.875a19.6,19.6,0,0,1,2.3-2.77,19.412,19.412,0,0,1,27.451,0M27.485.455a2.655,2.655,0,0,1,2.058.565,1.568,1.568,0,0,1,.523.965A19.832,19.832,0,0,0,10.442,21.841a20.579,20.579,0,0,0,.127,2.443c-.588-.124-1.182-.281-1.775-.469-.05-.651-.1-1.319-.1-1.974A21.7,21.7,0,0,1,14.225,7.36,20.713,20.713,0,0,1,27.485.455m-8.759.631A2.637,2.637,0,0,1,20.778.852a1.613,1.613,0,0,1,.855.665A21.644,21.644,0,0,0,13.9,7.069,22.14,22.14,0,0,0,8.26,21.841c0,.61.04,1.225.085,1.826-.6-.2-1.192-.44-1.779-.7,0-.177-.015-.346-.026-.51-.014-.207-.027-.4-.027-.613A23.942,23.942,0,0,1,9.967,9.434a22.635,22.635,0,0,1,8.758-8.348M10.171,5.344a2.323,2.323,0,0,1,1.614-.852,1.812,1.812,0,0,1,1.184.358A23.91,23.91,0,0,0,9.594,9.208,24.379,24.379,0,0,0,6.077,21.841c0,.225.014.437.028.642.006.094.012.185.017.276-.61-.289-1.209-.607-1.79-.95A25.944,25.944,0,0,1,10.171,5.344M3.125,14.367a3.46,3.46,0,0,1,1.4-2.282,1.721,1.721,0,0,1,1.252-.139,26.812,26.812,0,0,0-1.882,9.6c-.587-.365-1.154-.756-1.693-1.169a25.6,25.6,0,0,1,.919-6.012M27.331,60.561a11.436,11.436,0,0,1-3-3.625,20.911,20.911,0,0,1-2.02-9.819v-.126L27.331,50.5Zm5.455.329a12.181,12.181,0,0,1-2.509,1.376,12.18,12.18,0,0,1-2.509-1.376V50.609h5.019Zm5.455-13.773a20.911,20.911,0,0,1-2.02,9.819,11.435,11.435,0,0,1-3,3.625V50.5l5.019-3.513ZM59.086,25.1A25.394,25.394,0,0,1,55.9,31.2l-.267.388.468-.047a14.192,14.192,0,0,0,2.564-.455,19.447,19.447,0,0,1-7.718,8.453l-.436.267.495.13a17.565,17.565,0,0,0,2.6.512,22.6,22.6,0,0,1-10.989,5.828l-.435.092.34.287a11.958,11.958,0,0,0,2.18,1.36,30.97,30.97,0,0,1-6.186,2.366,30.973,30.973,0,0,0,.164-3.26v-.727l-.178-.033a20.5,20.5,0,0,1-8.1-3.781l-.128-.093-.128.093a20.5,20.5,0,0,1-8.1,3.781l-.178.033v.727a30.976,30.976,0,0,0,.163,3.253,30.953,30.953,0,0,1-6.185-2.358,11.955,11.955,0,0,0,2.18-1.36l.34-.287-.435-.092A22.6,22.6,0,0,1,6.95,40.444a17.565,17.565,0,0,0,2.6-.512l.495-.13-.436-.267a19.447,19.447,0,0,1-7.718-8.453,14.191,14.191,0,0,0,2.564.455l.468.047L4.653,31.2a25.394,25.394,0,0,1-3.185-6.1A18.508,18.508,0,0,1,.443,19.458a21.881,21.881,0,0,0,10.185,5.284,19.713,19.713,0,0,0,4.319,9.67,16.958,16.958,0,0,0,7.79,5.571,9.031,9.031,0,0,0,2.793.447c1.7,0,2.564-.514,2.564-1.527,0-.759-.563-1.234-1.562-1.341A1.971,1.971,0,0,1,28,37.015l.014-.068a1.475,1.475,0,0,0-1.991.5,2.486,2.486,0,0,0-.158.288c-.022.04-.045.084-.067.131a1.88,1.88,0,0,1-.053-.441,1.682,1.682,0,0,1,1.362-1.589l.17-.042,0-.175a.971.971,0,0,1,.3-.73,4.906,4.906,0,0,1,3.027-.9,2.184,2.184,0,0,1,1.926.867,7.721,7.721,0,0,1,1.08,3c.363,1.695,1.147,2.518,2.4,2.518A7.715,7.715,0,0,0,38.6,39.7a19.269,19.269,0,0,0,11.35-14.962,21.839,21.839,0,0,0,10.163-5.284A18.508,18.508,0,0,1,59.086,25.1" transform="translate(6.272 4.865)" fill="#0c3443"/>
        <path id="Path_67759" data-name="Path 67759" d="M516.618,639.184c-.425.12-.6.284-.6.556a1.056,1.056,0,0,0,.033.251h.185l.065-.229h.1a.553.553,0,0,0,.221.393.694.694,0,0,0,.666-.458.821.821,0,0,1,.589-.524l-.033-.142a5.092,5.092,0,0,0-1.222.153" transform="translate(-481.595 -599.304)" fill="#0c3443"/>
      </g>
    </g>
    <g id="Group_108190" data-name="Group 108190" transform="translate(671.394 58.84)">
      <g id="Group_108189" data-name="Group 108189" clip-path="url(#clip-path-2)">
        <path id="Path_67760" data-name="Path 67760" d="M2.7,287.359c.943.371,1.264.752,1.264,1.4,0,.953-.742,1.575-1.946,1.575A4.15,4.15,0,0,1,0,289.807l.191-1.294H.622v.9a3.015,3.015,0,0,0,1.395.381c.742,0,1.174-.351,1.174-.853,0-.351-.181-.562-.873-.863l-.762-.341C.542,287.329.191,286.988.191,286.3c0-.993.772-1.545,1.976-1.545a6.451,6.451,0,0,1,1.535.2v1.374H3.291l-.18-.9a3.574,3.574,0,0,0-1.023-.161c-.632,0-1.134.291-1.134.823,0,.391.211.6.973.923Z" transform="translate(0 -254.82)" fill="#0c3443"/>
        <path id="Path_67761" data-name="Path 67761" d="M45.9,296.785l-.391.492a1.634,1.634,0,0,1-.7.15.971.971,0,0,1-1.083-1.113v-2.157h-.682V293.8l.682-.13.381-.993H44.5v.993h1.314v.492H44.5v2.067c0,.471.18.632.572.632a1.514,1.514,0,0,0,.752-.2Z" transform="translate(-38.518 -261.908)" fill="#0c3443"/>
        <path id="Path_67762" data-name="Path 67762" d="M77.189,303.734h.652v.351a2.4,2.4,0,0,1-.883.211.491.491,0,0,1-.542-.542v-.02l-.351.451a1.93,1.93,0,0,1-.783.161c-.742,0-1.224-.371-1.224-1.033a1.656,1.656,0,0,1,.311-.943l2.047-.14v-.441a.723.723,0,0,0-.823-.793,2.924,2.924,0,0,0-1.264.311l-.09-.131.391-.562A3.328,3.328,0,0,1,75.8,300.4c.843,0,1.384.381,1.384,1.3Zm-.772-.231v-.8h-1.5a1.347,1.347,0,0,0-.09.461c0,.371.241.612.742.612a1.482,1.482,0,0,0,.853-.271" transform="translate(-66.274 -268.827)" fill="#0c3443"/>
        <path id="Path_67763" data-name="Path 67763" d="M113.47,296.785l-.391.492a1.634,1.634,0,0,1-.7.15.971.971,0,0,1-1.083-1.113v-2.157h-.682V293.8l.682-.13.381-.993h.391v.993h1.314v.492h-1.314v2.067c0,.471.18.632.572.632a1.514,1.514,0,0,0,.752-.2Z" transform="translate(-98.984 -261.908)" fill="#0c3443"/>
        <path id="Path_67764" data-name="Path 67764" d="M145.206,302.379h-2.5a1.235,1.235,0,0,0,1.324,1.364,2.206,2.206,0,0,0,1-.241l.08.14-.381.512a2.14,2.14,0,0,1-.943.191,1.739,1.739,0,0,1-1.876-1.876,1.83,1.83,0,0,1,1.816-2.067,1.413,1.413,0,0,1,1.515,1.555,1.932,1.932,0,0,1-.04.421m-2.468-.411,1.8-.07c-.03-.612-.321-1.013-.8-1.013-.552,0-.9.411-.993,1.083" transform="translate(-126.998 -268.827)" fill="#0c3443"/>
        <path id="Path_67765" data-name="Path 67765" d="M197.363,302.45a1.846,1.846,0,0,1,1.856-2.047,1.721,1.721,0,0,1,1.8,1.886,1.842,1.842,0,0,1-1.846,2.057,1.737,1.737,0,0,1-1.806-1.9m2.859-.08c0-.913-.391-1.485-1.033-1.485s-1.033.572-1.033,1.485.4,1.485,1.043,1.485,1.023-.562,1.023-1.485" transform="translate(-176.617 -268.827)" fill="#0c3443"/>
        <path id="Path_67766" data-name="Path 67766" d="M238.234,281.855v.622h1.294v.492h-1.294v2.749l.943.05v.361h-2.338v-.361l.612-.151v-2.649h-.672v-.361l.672-.13v-.622c0-1.1.582-1.685,1.545-1.685a2.394,2.394,0,0,1,.943.181v.612a1.84,1.84,0,0,0-.923-.261c-.522,0-.782.3-.782,1.154" transform="translate(-211.89 -250.72)" fill="#0c3443"/>
        <path id="Path_67767" data-name="Path 67767" d="M286.168,286.322v4.434l.692.04v.371h-2.167V290.8l.662-.161v-4.424l-.763-.03V285.8h2.227v.381Zm2.859,4.424.823.05v.371h-1.525l-1.966-2.639,2-2.247-.762-.09v-.381h2.157v.381l-.692.06-1.906,2.047Z" transform="translate(-254.678 -255.758)" fill="#0c3443"/>
        <path id="Path_67768" data-name="Path 67768" d="M337.549,303.951v.361l-1.485.241V303.9l-.291.482a1.875,1.875,0,0,1-.9.221,1.16,1.16,0,0,1-1.284-1.274v-2h-.7v-.371l1.475-.271v2.488c0,.592.311.823.773.823a1.46,1.46,0,0,0,.933-.291v-2.378h-.722v-.371l1.5-.271v3.26Z" transform="translate(-297.893 -269.083)" fill="#0c3443"/>
        <path id="Path_67769" data-name="Path 67769" d="M384.2,301.358v.371l-.492.13-1.234,3.23h-.752l-.793-2.528-.8,2.528h-.762l-1.214-3.23-.5-.13v-.371h2.177v.371l-.863.04.923,2.669.823-2.709.672-.221.873,2.889.9-2.618-.813-.05v-.371Z" transform="translate(-337.948 -269.681)" fill="#0c3443"/>
        <path id="Path_67770" data-name="Path 67770" d="M445.289,303.734h.652v.351a2.4,2.4,0,0,1-.883.211.491.491,0,0,1-.542-.542v-.02l-.351.451a1.93,1.93,0,0,1-.783.161c-.742,0-1.224-.371-1.224-1.033a1.657,1.657,0,0,1,.311-.943l2.047-.14v-.441a.723.723,0,0,0-.823-.793,2.925,2.925,0,0,0-1.264.311l-.09-.131.391-.562a3.327,3.327,0,0,1,1.174-.211c.843,0,1.385.381,1.385,1.3Zm-.773-.231v-.8h-1.5a1.347,1.347,0,0,0-.09.461c0,.371.241.612.742.612a1.481,1.481,0,0,0,.853-.271" transform="translate(-395.682 -268.827)" fill="#0c3443"/>
        <path id="Path_67771" data-name="Path 67771" d="M482.033,289.7v.361h-2.067V289.7l.622-.151V286.9h-.732v-.371l1.5-.271v3.391Zm-.512-4.535-.592.6-.592-.6.592-.6Z" transform="translate(-429.417 -254.649)" fill="#0c3443"/>
        <path id="Path_67772" data-name="Path 67772" d="M504.856,296.785l-.391.492a1.635,1.635,0,0,1-.7.15.971.971,0,0,1-1.083-1.113v-2.157H502V293.8l.682-.13.381-.993h.391v.993h1.314v.492h-1.314v2.067c0,.471.181.632.572.632a1.514,1.514,0,0,0,.753-.2Z" transform="translate(-449.23 -261.908)" fill="#0c3443"/>
        <path id="Path_67773" data-name="Path 67773" d="M650.784,311.424V312a.084.084,0,0,1-.09.09,3.671,3.671,0,0,1-.973-.14l-.341-.5c-.2.431-.612.642-1.575.642h-7.742c-1.174,0-1.786-.532-1.836-1.535a11.723,11.723,0,0,1,.471-1.314l.221.08a2.778,2.778,0,0,0-.19.913c0,.752.5,1.114,1.485,1.114H647.8a3.206,3.206,0,0,0,1.053-.14c.07-.5.111-.893.191-1.565l.772-.161c-.12.722-.241,1.324-.341,1.7a3.282,3.282,0,0,0,1.214.171c.07,0,.09.04.09.08" transform="translate(-571.141 -276.732)" fill="#0c3443"/>
        <path id="Path_67774" data-name="Path 67774" d="M685.25,300.034l-.542.612-.592-.542.582-.6Z" transform="translate(-612.206 -268.02)" fill="#0c3443"/>
        <path id="Path_67775" data-name="Path 67775" d="M696.808,300.045l-.542.6-.6-.542.592-.6Z" transform="translate(-622.541 -268.021)" fill="#0c3443"/>
        <path id="Path_67776" data-name="Path 67776" d="M758.3,305.7a11.285,11.285,0,0,1-.12,1.776h-2.127a.084.084,0,0,1-.09-.09v-.572c0-.04.02-.08.09-.08H757.8a7.737,7.737,0,0,0-.492-2.368l.562-.281.622,1.354Zm-2.237,3.251.582-.612.552.542-.542.612Zm1.224,0,.582-.612.552.542-.531.612Z" transform="translate(-676.503 -272.121)" fill="#0c3443"/>
        <path id="Path_67777" data-name="Path 67777" d="M789.916,308.27c.07,0,.09.04.09.08v.572a.084.084,0,0,1-.09.09h-.753a3.689,3.689,0,0,1-1.314,1.906l-1.535-.241.02-.231a3.471,3.471,0,0,0,1.2-.261A2.288,2.288,0,0,0,788.692,309c-1.324-.09-2.167-.572-2.167-1.274,0-.742.612-1.926,1.425-1.926.832,0,1.324,1,1.324,2.4v.07Zm-2.93-.582a2.937,2.937,0,0,0,1.8.592c-.12-.973-.421-1.8-.933-1.8-.391,0-.773.572-.863,1.2" transform="translate(-703.662 -273.658)" fill="#0c3443"/>
        <path id="Path_67778" data-name="Path 67778" d="M819.808,330.023a.084.084,0,0,1-.09-.09v-.572c0-.04.02-.08.09-.08h1.254c.07,0,.09.04.09.08v.572a.084.084,0,0,1-.09.09Z" transform="translate(-733.554 -294.669)" fill="#0c3443"/>
        <path id="Path_67779" data-name="Path 67779" d="M831.737,330.023a.084.084,0,0,1-.09-.09v-.572c0-.04.02-.08.09-.08h1.254c.07,0,.09.04.09.08v.572a.084.084,0,0,1-.09.09Z" transform="translate(-744.23 -294.669)" fill="#0c3443"/>
        <path id="Path_67780" data-name="Path 67780" d="M843.667,330.023a.084.084,0,0,1-.09-.09v-.572c0-.04.02-.08.09-.08h1.254c.07,0,.09.04.09.08v.572a.084.084,0,0,1-.09.09Z" transform="translate(-754.906 -294.669)" fill="#0c3443"/>
        <path id="Path_67781" data-name="Path 67781" d="M860.052,281.361v.572a.084.084,0,0,1-.09.09,2.326,2.326,0,0,1-.782-.13l-.261-.411c-.181.391-.542.542-1.1.542H855.6a.084.084,0,0,1-.09-.09v-.572c0-.04.02-.08.09-.08h2.859a1.99,1.99,0,0,0,.05-.442c0-.812-.462-1.344-1.5-1.745l-.241.13-.813-.592.06-.5a15.144,15.144,0,0,1,3-2.488l.02.933a16.373,16.373,0,0,0-2.368,1.776c1.736.451,2.4,1.254,2.4,2.318a3.232,3.232,0,0,1-.03.462,2.887,2.887,0,0,0,.933.15c.07,0,.09.04.09.08" transform="translate(-765.581 -246.668)" fill="#0c3443"/>
        <path id="Path_67782" data-name="Path 67782" d="M898.988,279.517l-.2.251c.07.9.08,1.445.08,2.167a20.209,20.209,0,0,1-.13,2.307h-1.625a.084.084,0,0,1-.09-.09v-.572c0-.04.02-.08.09-.08h1.214c.01-.341,0-.763-.02-1.244a20.712,20.712,0,0,0-.441-3.873l.562-.261Z" transform="translate(-802.732 -248.888)" fill="#0c3443"/>
        <path id="Path_67783" data-name="Path 67783" d="M924.411,284.323c-.12-2.036-.191-3.782-.381-5.909l.773-.291c.1,1.986.14,3.722.2,6.14Z" transform="translate(-826.902 -248.888)" fill="#0c3443"/>
        <path id="Path_67784" data-name="Path 67784" d="M962.854,285.977c.07,0,.09.04.09.08v.572a.084.084,0,0,1-.09.09H961.8a2.73,2.73,0,0,1-.241-.391l-.552.361c-.873-.271-1.666-.732-1.666-1.324s.7-1.354,1.9-1.966l-.03-.321.732-.3c.04,1,.06,2.267.09,3.2Zm-1.385.07c-.08-.863-.11-1.3-.181-2.107a3.242,3.242,0,0,0-1.455,1.274,2.646,2.646,0,0,0,1.635.833m-.191-4.625-.542.612-.592-.542.582-.6Zm1.224.01-.542.6-.6-.542.592-.6Z" transform="translate(-858.503 -251.365)" fill="#0c3443"/>
        <path id="Path_67785" data-name="Path 67785" d="M991.976,330.023a.084.084,0,0,1-.09-.09v-.572c0-.04.02-.08.09-.08h1.254c.07,0,.09.04.09.08v.572a.084.084,0,0,1-.09.09Z" transform="translate(-887.625 -294.669)" fill="#0c3443"/>
        <path id="Path_67786" data-name="Path 67786" d="M1003.905,330.023a.084.084,0,0,1-.09-.09v-.572c0-.04.02-.08.09-.08h1.254c.07,0,.09.04.09.08v.572a.084.084,0,0,1-.09.09Z" transform="translate(-898.3 -294.669)" fill="#0c3443"/>
        <path id="Path_67787" data-name="Path 67787" d="M1015.835,330.023a.084.084,0,0,1-.09-.09v-.572c0-.04.02-.08.09-.08h1.254c.07,0,.09.04.09.08v.572a.084.084,0,0,1-.09.09Z" transform="translate(-908.976 -294.669)" fill="#0c3443"/>
        <path id="Path_67788" data-name="Path 67788" d="M1027.765,330.023a.084.084,0,0,1-.09-.09v-.572c0-.04.02-.08.09-.08h1.254c.07,0,.09.04.09.08v.572a.084.084,0,0,1-.09.09Z" transform="translate(-919.652 -294.669)" fill="#0c3443"/>
        <path id="Path_67789" data-name="Path 67789" d="M1039.694,330.023a.084.084,0,0,1-.09-.09v-.572c0-.04.02-.08.09-.08h1.254c.071,0,.091.04.091.08v.572a.085.085,0,0,1-.091.09Z" transform="translate(-930.327 -294.669)" fill="#0c3443"/>
        <path id="Path_67790" data-name="Path 67790" d="M1051.624,330.023a.084.084,0,0,1-.09-.09v-.572c0-.04.02-.08.09-.08h1.254c.07,0,.09.04.09.08v.572a.084.084,0,0,1-.09.09Z" transform="translate(-941.004 -294.669)" fill="#0c3443"/>
        <path id="Path_67791" data-name="Path 67791" d="M1063.553,330.023a.084.084,0,0,1-.09-.09v-.572c0-.04.02-.08.09-.08h1.254c.07,0,.09.04.09.08v.572a.084.084,0,0,1-.09.09Z" transform="translate(-951.678 -294.669)" fill="#0c3443"/>
        <path id="Path_67792" data-name="Path 67792" d="M1077.359,279.517l-.2.251c.07.9.08,1.445.08,2.167a20.182,20.182,0,0,1-.13,2.307h-1.625a.084.084,0,0,1-.09-.09v-.572c0-.04.02-.08.09-.08h1.214c.01-.341,0-.763-.02-1.244a20.69,20.69,0,0,0-.442-3.873l.562-.261Z" transform="translate(-962.354 -248.888)" fill="#0c3443"/>
        <path id="Path_67793" data-name="Path 67793" d="M1104.5,308.541a3.469,3.469,0,0,1-1.424,2.719l-1.535-.241.02-.231a3.472,3.472,0,0,0,1.2-.261,2.292,2.292,0,0,0,1.114-1.083c-1.354-.221-2.147-.632-2.147-1.324,0-.712.632-1.936,1.445-1.936.832,0,1.324.963,1.324,2.358m-2.287-.482a3.018,3.018,0,0,0,1.806.712c-.09-1.023-.4-1.9-.943-1.9-.4,0-.783.552-.863,1.184" transform="translate(-985.755 -273.999)" fill="#0c3443"/>
        <path id="Path_67794" data-name="Path 67794" d="M1137.093,302.747a5.78,5.78,0,0,1,.843,2.639,4.049,4.049,0,0,1-.1.893,8.339,8.339,0,0,1-1.3.1,5.66,5.66,0,0,1-1.395-.181l.131-.7a5.287,5.287,0,0,0,1.254.14,4.9,4.9,0,0,0,.933-.09.6.6,0,0,1-.01-.13,5.1,5.1,0,0,0-.973-2.127Z" transform="translate(-1015.818 -270.924)" fill="#0c3443"/>
        <path id="Path_67795" data-name="Path 67795" d="M771.92,7.11l-.349.436c.087,1.259.137,2.754.137,4.187a4.92,4.92,0,0,1-.449,2.218,2.781,2.781,0,0,1-2.517,1.471,2.4,2.4,0,0,1-2.53-2.667A10.846,10.846,0,0,1,766.985,11l.336.137a3.027,3.027,0,0,0-.249,1.209c0,.96.6,1.508,1.695,1.508a3.337,3.337,0,0,0,1.844-.523c0-.573-.05-1.134-.087-1.757a45.929,45.929,0,0,0-.673-5.558l1.121-.561Z" transform="translate(-685.673 -4.879)" fill="#0c3443"/>
        <path id="Path_67796" data-name="Path 67796" d="M829.476,32.161V33.47a.1.1,0,0,1-.112.112,1.527,1.527,0,0,1-1.221-.7l-.174.71a6.074,6.074,0,0,1-1.321.112,6.481,6.481,0,0,1-1.745-.249l.249-1.446a6.745,6.745,0,0,0,1.508.174,8.555,8.555,0,0,0,1-.062,11.625,11.625,0,0,1-.91-2.792l1.259-.523a8.352,8.352,0,0,0,.523,2.43c.2.523.436.822.835.822.087,0,.112.05.112.1" transform="translate(-738.193 -25.781)" fill="#0c3443"/>
        <path id="Path_67797" data-name="Path 67797" d="M871.94,31.95v1.308a.1.1,0,0,1-.112.112h-.648a3.591,3.591,0,0,1-1.844-.561,3.72,3.72,0,0,1-1.857.561h-1.084a.1.1,0,0,1-.112-.112V31.95c0-.05.025-.1.112-.1.76,0,1.334-.013,1.82-.037a7.631,7.631,0,0,1-.848-1.284,2.7,2.7,0,0,0-.274.125l-.249-.2.336-1.346a5.347,5.347,0,0,1,2.156-.536c1.121,0,1.919.561,1.919,1.458a3.02,3.02,0,0,1-.823,1.795c.386.025.785.025,1.4.025.087,0,.112.05.112.1m-3.7-1.757a4.351,4.351,0,0,0,1.059,1.383,2.477,2.477,0,0,0,.972-1.383,3.158,3.158,0,0,0-1.022-.162,3.4,3.4,0,0,0-1.01.162" transform="translate(-775.224 -25.57)" fill="#0c3443"/>
        <path id="Path_67798" data-name="Path 67798" d="M920.8,3.554l-.349.436c.087,1.209.125,1.919.125,2.817a14.384,14.384,0,0,1-.224,2.692h-2.268a.1.1,0,0,1-.112-.112V8.077c0-.05.025-.1.112-.1h1.5c-.013-.324-.05-.685-.087-1.109a38.484,38.484,0,0,0-.76-4.412l1.122-.561Z" transform="translate(-821.484 -1.697)" fill="#0c3443"/>
        <path id="Path_67799" data-name="Path 67799" d="M952.9,9.61c-.224-3.178-.362-4.823-.661-7.154l1.546-.561c.137,2.256.187,3.988.286,7.615Z" transform="translate(-852.147 -1.697)" fill="#0c3443"/>
        <path id="Path_67800" data-name="Path 67800" d="M1000.118,4.5c.286.6.586,1.134.96,2.019l-.548,1.134a5.022,5.022,0,0,1-1.62.274,1.815,1.815,0,0,1-1.969-1.67,3.626,3.626,0,0,1,1.52-2.38c-.112-.162-.224-.324-.336-.474l.735-.848,1.371,1.508Zm-1.234-3.327-.723.823-1.022-.947,1-1.047.835.81.785-.81.947.935-.935,1.059Zm.087,5.3a2.715,2.715,0,0,0,.922-.162,17.918,17.918,0,0,0-.922-1.658,4.525,4.525,0,0,0-1.109,1.346,1.367,1.367,0,0,0,1.109.474" transform="translate(-892.148)" fill="#0c3443"/>
        <path id="Path_67801" data-name="Path 67801" d="M1029.073,41.243v-.349a5.732,5.732,0,0,0,1.421-.648,4.6,4.6,0,0,0,1.52-1.508,19.182,19.182,0,0,0-1.446-2.7l1.483-.823a10.2,10.2,0,0,1,.648,3,5.69,5.69,0,0,1-1.358,3.465Z" transform="translate(-920.903 -31.51)" fill="#0c3443"/>
        <path id="Path_67802" data-name="Path 67802" d="M1069.688,9.61c-.224-3.178-.361-4.823-.66-7.154l1.545-.561c.137,2.256.187,3.988.287,7.615Z" transform="translate(-956.659 -1.697)" fill="#0c3443"/>
        <path id="Path_67803" data-name="Path 67803" d="M1085.747,19.387v-.349a5.733,5.733,0,0,0,1.421-.648,4.6,4.6,0,0,0,1.52-1.508,19.206,19.206,0,0,0-1.445-2.7l1.483-.823a10.2,10.2,0,0,1,.648,3,5.689,5.689,0,0,1-1.358,3.465Zm1.944-6.605-1.022-.947,1-1.047.96.935Z" transform="translate(-971.62 -9.654)" fill="#0c3443"/>
        <path id="Path_67804" data-name="Path 67804" d="M1129.3,36.206a5.192,5.192,0,0,1-1.682,3.776l-2.268-.436.013-.349a8.325,8.325,0,0,0,1.52-.573,3.644,3.644,0,0,0,1.234-.922c-1.533-.262-2.542-.773-2.542-1.77s.935-2.617,1.919-2.617c1.171,0,1.807,1.308,1.807,2.891m-2.829-.573a3.406,3.406,0,0,0,1.819.723c-.174-.835-.474-1.682-1.034-1.682-.337,0-.673.436-.785.96" transform="translate(-1007.057 -29.813)" fill="#0c3443"/>
        <path id="Path_67805" data-name="Path 67805" d="M341.6,159.659l.807.05v.671h-3.242v-.671l.807-.236V155.41l-2.025,3.627h-.783l-2.012-3.54v4.137l.783.075v.671h-2.46v-.671l.708-.224v-5.106l-.807-.074v-.671h2.5l2.112,3.727,2.037-3.727h2.273v.671l-.7.2Z" transform="translate(-298.33 -137.485)" fill="#0c3443"/>
        <path id="Path_67806" data-name="Path 67806" d="M426.718,154.444v.646h-2.795v-.646l.584-.261v-2.807h-.733v-.671l2.311-.522v4.211Zm-.422-5.665-1.043,1.056L424.2,148.78l1.056-1.056Z" transform="translate(-379.23 -132.196)" fill="#0c3443"/>
        <path id="Path_67807" data-name="Path 67807" d="M460.1,175.229l.646.05v.646h-2.808v-.646l.6-.261V173.03c0-.633-.3-.857-.758-.857a1.5,1.5,0,0,0-.845.249v2.807l.621.05v.646h-2.783v-.646l.584-.261V172.21h-.733v-.671l2.31-.522v1.006l.435-.783a2.677,2.677,0,0,1,1.093-.236,1.5,1.5,0,0,1,1.64,1.677Z" transform="translate(-406.832 -153.03)" fill="#0c3443"/>
        <path id="Path_67808" data-name="Path 67808" d="M517.949,154.444v.646h-2.795v-.646l.584-.261v-2.807H515v-.671l2.311-.522v4.211Zm-.422-5.665-1.044,1.056-1.056-1.056,1.056-1.056Z" transform="translate(-460.871 -132.196)" fill="#0c3443"/>
        <path id="Path_67809" data-name="Path 67809" d="M549.665,172.881c1.292.36,1.727.77,1.727,1.5,0,1.068-.87,1.677-2.224,1.677a5.244,5.244,0,0,1-2.137-.435l.224-1.441h.708v.671a2.676,2.676,0,0,0,1.279.348c.584,0,.807-.162.807-.41s-.224-.348-.981-.584l-.286-.1c-1.217-.348-1.615-.733-1.615-1.478,0-1.031.882-1.627,2.236-1.627a6.509,6.509,0,0,1,1.652.186v1.491h-.708l-.162-.584a2.03,2.03,0,0,0-.969-.224c-.41,0-.683.112-.683.36s.186.348.857.559Z" transform="translate(-489.531 -153.03)" fill="#0c3443"/>
        <path id="Path_67810" data-name="Path 67810" d="M595,165.642l-.72.832a2.023,2.023,0,0,1-.87.186,1.406,1.406,0,0,1-1.59-1.565v-2.3h-.708v-.658l.708-.211.845-1.441h.721v1.441h1.4v.87h-1.4v2.05c0,.559.211.733.621.733a1.875,1.875,0,0,0,.832-.211Z" transform="translate(-528.976 -143.618)" fill="#0c3443"/>
        <path id="Path_67811" data-name="Path 67811" d="M633.859,172.385a6.607,6.607,0,0,0-1.441.112v2.733l.634.05v.646h-2.795v-.646l.584-.261v-2.808h-.733v-.671l2.31-.522v1.056l.435-.832a2.228,2.228,0,0,1,1.006-.236Z" transform="translate(-563.875 -153.031)" fill="#0c3443"/>
        <path id="Path_67812" data-name="Path 67812" d="M674.62,172.423v.671l-.509.2-2.584,6.385-1.391-.634,1.478-1.851h-.7l-1.5-3.888-.547-.211v-.671h3.006v.671l-.82.05,1.056,3.068.969-3.056-.758-.062v-.671Z" transform="translate(-598.561 -154.299)" fill="#0c3443"/>
        <path id="Path_67813" data-name="Path 67813" d="M746.272,173.676A2.5,2.5,0,0,1,748.893,171a2.274,2.274,0,0,1,2.485,2.4,2.5,2.5,0,0,1-2.621,2.671,2.286,2.286,0,0,1-2.484-2.4m3.478-.124c0-1.056-.335-1.677-.932-1.677s-.919.621-.919,1.677.36,1.652.944,1.652.907-.584.907-1.652" transform="translate(-667.829 -153.03)" fill="#0c3443"/>
        <path id="Path_67814" data-name="Path 67814" d="M801.618,148.517v.72h1.391v.87h-1.391V153.1l1.093.075v.646h-3.255v-.646l.584-.261v-2.807h-.708v-.658l.708-.211v-.72a2.1,2.1,0,0,1,2.286-2.211,4.344,4.344,0,0,1,1.28.186v1.143a2.752,2.752,0,0,0-1.217-.36c-.534,0-.77.348-.77,1.242" transform="translate(-715.311 -130.927)" fill="#0c3443"/>
        <path id="Path_67815" data-name="Path 67815" d="M860.972,154.3l-.708.236v4.633a3.709,3.709,0,0,1-.224,1.329,12.128,12.128,0,0,1-1.9,1.851l-.286-.236a5.157,5.157,0,0,0,.783-2.944v-4.82l-.807-.05v-.671h3.143Z" transform="translate(-767.659 -137.484)" fill="#0c3443"/>
        <path id="Path_67816" data-name="Path 67816" d="M896.2,175.036v.671l-2.224.41v-.969l-.447.8a2.63,2.63,0,0,1-1.093.236,1.5,1.5,0,0,1-1.627-1.689v-2.174h-.72v-.671l2.286-.522v3.031c0,.633.3.857.745.857a1.54,1.54,0,0,0,.857-.249v-2.447h-.733v-.671l2.3-.522v3.913Z" transform="translate(-796.529 -153.136)" fill="#0c3443"/>
        <path id="Path_67817" data-name="Path 67817" d="M954.766,172.881c1.292.36,1.727.77,1.727,1.5,0,1.068-.87,1.677-2.224,1.677a5.244,5.244,0,0,1-2.137-.435l.224-1.441h.708v.671a2.676,2.676,0,0,0,1.279.348c.584,0,.808-.162.808-.41s-.224-.348-.981-.584l-.286-.1c-1.217-.348-1.615-.733-1.615-1.478,0-1.031.882-1.627,2.236-1.627a6.512,6.512,0,0,1,1.652.186v1.491h-.708l-.161-.584a2.031,2.031,0,0,0-.969-.224c-.41,0-.683.112-.683.36s.187.348.857.559Z" transform="translate(-852.05 -153.03)" fill="#0c3443"/>
        <path id="Path_67818" data-name="Path 67818" d="M1000.1,165.642l-.72.832a2.024,2.024,0,0,1-.87.186,1.406,1.406,0,0,1-1.59-1.565v-2.3h-.708v-.658l.708-.211.845-1.441h.72v1.441h1.4v.87h-1.4v2.05c0,.559.211.733.621.733a1.874,1.874,0,0,0,.832-.211Z" transform="translate(-891.496 -143.618)" fill="#0c3443"/>
        <path id="Path_67819" data-name="Path 67819" d="M1038.152,154.444v.646h-2.795v-.646l.584-.261v-2.807h-.733v-.671l2.311-.522v4.211Zm-.422-5.665-1.044,1.056-1.056-1.056,1.056-1.056Z" transform="translate(-926.393 -132.196)" fill="#0c3443"/>
        <path id="Path_67820" data-name="Path 67820" d="M1071.725,174.943l-.683.907a2.944,2.944,0,0,1-1.118.224,2.319,2.319,0,0,1-2.572-2.4,2.584,2.584,0,0,1,2.857-2.671,4.675,4.675,0,0,1,1.317.186v1.938h-.745l-.3-1.217a.943.943,0,0,0-.186-.012c-.869,0-1.317.559-1.317,1.54a1.334,1.334,0,0,0,1.466,1.466,2.418,2.418,0,0,0,1.118-.249Z" transform="translate(-955.159 -153.03)" fill="#0c3443"/>
        <path id="Path_67821" data-name="Path 67821" d="M1118.758,173.639h-2.969c.062.82.6,1.267,1.528,1.267a3.05,3.05,0,0,0,1.218-.248l.161.286-.708.907a3.043,3.043,0,0,1-1.217.224,2.342,2.342,0,0,1-2.621-2.4,2.448,2.448,0,0,1,2.522-2.671,1.907,1.907,0,0,1,2.137,2.05,2.986,2.986,0,0,1-.05.584m-2.956-.633,1.578-.137c-.05-.609-.311-.994-.708-.994-.485,0-.782.41-.87,1.13" transform="translate(-997.037 -153.031)" fill="#0c3443"/>
        <rect id="Rectangle_38487" data-name="Rectangle 38487" width="0.587" height="8.026" transform="translate(60.623 29.235)" fill="#0c3443"/>
      </g>
    </g>
  </g>
</svg>
