<svg width="22" height="19" viewBox="0 0 22 19" fill="none" xmlns="http://www.w3.org/2000/svg">
<path d="M14.181 17.2579C13.8699 17.7756 13.4301 18.204 12.9044 18.5014C12.3787 18.7988 11.785 18.9551 11.181 18.9551C10.577 18.9551 9.98328 18.7988 9.45758 18.5014C8.93189 18.204 8.4921 17.7756 8.18099 17.2579L1.34299 5.85785C1.02457 5.32685 0.852705 4.72089 0.844934 4.10178C0.837164 3.48267 0.993765 2.87259 1.29876 2.33376C1.60375 1.79494 2.04623 1.34666 2.58103 1.03467C3.11584 0.722683 3.72384 0.558149 4.34299 0.557854L18.018 0.557854C18.6371 0.558149 19.2451 0.722683 19.78 1.03467C20.3148 1.34666 20.7572 1.79494 21.0622 2.33376C21.3672 2.87259 21.5238 3.48267 21.5161 4.10178C21.5083 4.72089 21.3364 5.32685 21.018 5.85785L14.181 17.2579Z" fill="#8E2C2C"/>
</svg>
