<svg id="Group_109054" data-name="Group 109054" xmlns="http://www.w3.org/2000/svg" width="27.534" height="15.297" viewBox="0 0 27.534 15.297">
  <path id="Path_87587" data-name="Path 87587" d="M19.848,13.33,18.2,14.977a1.09,1.09,0,0,1-1.542,0L6.069,4.389l-2.88,2.88a1.089,1.089,0,0,1-1.54,0L0,5.62,5.3.319a1.089,1.089,0,0,1,1.54,0L8.49,1.968l0,0Z" transform="translate(7.686 0)" fill="#13359a" opacity="0.469"/>
  <path id="Path_87588" data-name="Path 87588" d="M0,13.33l1.648,1.648a1.09,1.09,0,0,0,1.542,0L13.779,4.389l2.88,2.88a1.089,1.089,0,0,0,1.54,0L19.849,5.62l-5.3-5.3a1.089,1.089,0,0,0-1.54,0L11.358,1.968l0,0Z" transform="translate(0 0)" fill="#13359a"/>
</svg>
