<svg id="Group_109054" data-name="Group 109054" xmlns="http://www.w3.org/2000/svg" width="14.565" height="8.092" viewBox="0 0 14.565 8.092">
  <path id="Path_87587" data-name="Path 87587" d="M10.5,7.051l-.872.872a.577.577,0,0,1-.816,0l-5.6-5.6L1.687,3.845a.576.576,0,0,1-.815,0L0,2.973,2.8.169a.576.576,0,0,1,.815,0l.872.872h0Z" transform="translate(4.066 0)" fill="#13359a" opacity="0.469"/>
  <path id="Path_87588" data-name="Path 87588" d="M0,7.051l.872.872a.577.577,0,0,0,.816,0l5.6-5.6L8.813,3.845a.576.576,0,0,0,.815,0l.872-.872L7.7.169a.576.576,0,0,0-.815,0l-.872.872h0Z" transform="translate(0 0)" fill="#13359a"/>
</svg>
