<svg xmlns="http://www.w3.org/2000/svg" xmlns:xlink="http://www.w3.org/1999/xlink" width="24.4" height="27.837" viewBox="0 0 24.4 27.837">
  <defs>
    <clipPath id="clip-path">
      <rect id="Rectangle_35253" data-name="Rectangle 35253" width="24.4" height="27.837" fill="#34515c"/>
    </clipPath>
  </defs>
  <g id="Group_96776" data-name="Group 96776" transform="translate(0 0)">
    <g id="Group_96776-2" data-name="Group 96776" transform="translate(0 0)" clip-path="url(#clip-path)">
      <path id="Path_61039" data-name="Path 61039" d="M12.173,27.831c-2.569,0-5.139.018-7.708-.006A4.078,4.078,0,0,1,.458,25.356a5.565,5.565,0,0,1-.425-2.109C-.015,20.49,0,17.731.015,14.973a4.336,4.336,0,0,1,4.564-4.531c.75,0,.635.067.654-.649a34.535,34.535,0,0,1,.152-4A6.428,6.428,0,0,1,8.691.948,6.936,6.936,0,0,1,12,0a6.917,6.917,0,0,1,6.453,3.932,7.354,7.354,0,0,1,.681,3.2c0,.929.015,1.859-.008,2.787-.01.4.112.542.52.522a4.611,4.611,0,0,1,3.2,1.019A3.937,3.937,0,0,1,24.252,13.9a9.886,9.886,0,0,1,.13,1.775c.013,2.483.036,4.966-.013,7.448a5.983,5.983,0,0,1-.419,2.2,4.091,4.091,0,0,1-4.069,2.507c-2.569.019-5.139,0-7.708,0m.008-1.694q3.789,0,7.579,0a2.7,2.7,0,0,0,2.927-2.9q.024-4.095,0-8.19a2.692,2.692,0,0,0-2.9-2.884q-7.6-.014-15.2,0a2.678,2.678,0,0,0-2.878,2.9q-.008,4.073,0,8.146a2.71,2.71,0,0,0,2.936,2.927q3.768,0,7.535,0M17.4,10.442c0-1.367.025-2.658-.008-3.947a4.723,4.723,0,0,0-.92-2.584A5.3,5.3,0,0,0,9.528,2.459,4.826,4.826,0,0,0,7.024,6.4c-.088,1.155-.039,2.32-.084,3.479-.017.431.1.573.554.57,3.135-.02,6.27-.01,9.406-.01Z" transform="translate(0 0)" fill="#34515c"/>
    </g>
  </g>
</svg>
