<svg xmlns="http://www.w3.org/2000/svg" xmlns:xlink="http://www.w3.org/1999/xlink" width="23.964" height="19.167" viewBox="0 0 23.964 19.167">
  <defs>
    <clipPath id="clip-path">
      <rect id="Rectangle_16847" data-name="Rectangle 16847" width="23.964" height="19.167" fill="#34515c"/>
    </clipPath>
  </defs>
  <g id="Group_96958" data-name="Group 96958" transform="translate(-375.499 -557.498)">
    <g id="Group_34325" data-name="Group 34325" transform="translate(375.499 557.498)" clip-path="url(#clip-path)">
      <path id="Path_1469" data-name="Path 1469" d="M23.963,18.558a.619.619,0,0,1-.339.544.6.6,0,0,1-.676-.094c-.352-.266-.695-.543-1.041-.816L8.476,7.586.408,1.218C.026.917-.072.682.049.377A.564.564,0,0,1,.8.051,2.871,2.871,0,0,1,1.338.41Q11.593,8.5,21.846,16.6q.9.711,1.8,1.426a.667.667,0,0,1,.319.536" transform="translate(0 0)" fill="#34515c"/>
      <path id="Path_1470" data-name="Path 1470" d="M83.667,23.993l-.9-.681c.372-.565.752-1.11,1.1-1.677a13.931,13.931,0,0,0,.64-1.24.436.436,0,0,0,.005-.321A12.662,12.662,0,0,0,81.236,15.6a10.279,10.279,0,0,0-3.013-1.924,8.511,8.511,0,0,0-4.649-.516,8.2,8.2,0,0,0-2.392.753.315.315,0,0,1-.4-.05c-.254-.211-.518-.409-.793-.624A8.538,8.538,0,0,1,72.723,12.1a9.509,9.509,0,0,1,7.505,1.267,14.6,14.6,0,0,1,5.4,6.293,1.222,1.222,0,0,1,.053,1,14.543,14.543,0,0,1-2.013,3.333" transform="translate(-63.001 -10.649)" fill="#34515c"/>
      <path id="Path_1471" data-name="Path 1471" d="M27.794,69a9.563,9.563,0,0,1-3.389,1.226,9.8,9.8,0,0,1-3.96-.135,9.649,9.649,0,0,1-2.7-1.139,14.286,14.286,0,0,1-5.592-6.4,1.213,1.213,0,0,1-.037-1,14.939,14.939,0,0,1,2.006-3.316l.936.716c-.408.6-.817,1.169-1.2,1.76a12.207,12.207,0,0,0-.612,1.114.383.383,0,0,0,0,.3,13,13,0,0,0,5.161,5.866,8.473,8.473,0,0,0,5.811,1.083,8.167,8.167,0,0,0,2.392-.753.3.3,0,0,1,.378.045c.253.214.519.412.805.638" transform="translate(-10.824 -52.418)" fill="#34515c"/>
      <path id="Path_1472" data-name="Path 1472" d="M78.408,94.721a4.737,4.737,0,0,1-4.742-.729,4.869,4.869,0,0,1-1.757-4.285l.071-.046c.352.273.712.538,1.05.827.072.061.082.209.1.32a3.467,3.467,0,0,0,1.22,2.219,3.726,3.726,0,0,0,2.784.855.55.55,0,0,1,.334.1c.314.231.614.482.942.744" transform="translate(-64.711 -80.706)" fill="#34515c"/>
      <path id="Path_1473" data-name="Path 1473" d="M109.089,53.342c-.4-.32-.744-.589-1.074-.877a.5.5,0,0,1-.1-.291,3.533,3.533,0,0,0-1.866-2.706,3.056,3.056,0,0,0-2.133-.4.3.3,0,0,1-.211-.03c-.358-.265-.708-.542-1.1-.843a4.543,4.543,0,0,1,4.6.635,4.743,4.743,0,0,1,1.88,4.509" transform="translate(-92.358 -43.066)" fill="#34515c"/>
    </g>
  </g>
</svg>
