<svg id="Group_96776" data-name="Group 96776" xmlns="http://www.w3.org/2000/svg" xmlns:xlink="http://www.w3.org/1999/xlink" width="19.433" height="22.171" viewBox="0 0 19.433 22.171">
  <defs>
    <clipPath id="clip-path">
      <rect id="Rectangle_35253" data-name="Rectangle 35253" width="19.433" height="22.171" fill="#34515c"/>
    </clipPath>
  </defs>
  <g id="Group_96776-2" data-name="Group 96776" transform="translate(0 0)" clip-path="url(#clip-path)">
    <path id="Path_61039" data-name="Path 61039" d="M9.7,22.166c-2.046,0-4.093.015-6.139-.005A3.248,3.248,0,0,1,.365,20.2a4.432,4.432,0,0,1-.338-1.679c-.038-2.2-.028-4.394-.015-6.591A3.453,3.453,0,0,1,3.647,8.317c.6,0,.506.053.521-.517a27.506,27.506,0,0,1,.121-3.183A5.12,5.12,0,0,1,6.922.755,5.525,5.525,0,0,1,9.558,0,5.509,5.509,0,0,1,14.7,3.134a5.857,5.857,0,0,1,.542,2.552c0,.74.012,1.48-.006,2.22-.008.316.089.432.414.416a3.673,3.673,0,0,1,2.548.812,3.136,3.136,0,0,1,1.12,1.936,7.874,7.874,0,0,1,.1,1.414c.011,1.977.029,3.955-.011,5.932a4.765,4.765,0,0,1-.334,1.751,3.258,3.258,0,0,1-3.241,2c-2.046.015-4.093,0-6.139,0M9.7,20.817q3.018,0,6.036,0a2.154,2.154,0,0,0,2.331-2.307q.019-3.261,0-6.523a2.144,2.144,0,0,0-2.309-2.3q-6.053-.011-12.107,0A2.133,2.133,0,0,0,1.362,12q-.006,3.244,0,6.488A2.159,2.159,0,0,0,3.7,20.816q3,0,6,0m4.157-12.5c0-1.089.02-2.117-.007-3.144a3.762,3.762,0,0,0-.733-2.058A4.225,4.225,0,0,0,7.588,1.958,3.843,3.843,0,0,0,5.594,5.1c-.07.92-.031,1.848-.067,2.771-.013.344.08.456.441.454,2.5-.016,4.994-.008,7.491-.008Z" transform="translate(0 0)" fill="#34515c"/>
  </g>
</svg>
