<svg id="Group_96958" data-name="Group 96958" xmlns="http://www.w3.org/2000/svg" xmlns:xlink="http://www.w3.org/1999/xlink" width="19.086" height="15.266" viewBox="0 0 19.086 15.266">
  <defs>
    <clipPath id="clip-path">
      <rect id="Rectangle_16847" data-name="Rectangle 16847" width="19.086" height="15.266" fill="#34515c"/>
    </clipPath>
  </defs>
  <g id="Group_34325" data-name="Group 34325" clip-path="url(#clip-path)">
    <path id="Path_1469" data-name="Path 1469" d="M19.086,14.78a.493.493,0,0,1-.27.433.481.481,0,0,1-.539-.075c-.28-.212-.553-.433-.829-.65L6.751,6.042.325.971C.021.73-.057.543.039.3A.449.449,0,0,1,.64.04a2.287,2.287,0,0,1,.426.286Q9.234,6.771,17.4,13.218q.717.566,1.432,1.136a.531.531,0,0,1,.254.427" transform="translate(0 0)" fill="#34515c"/>
    <path id="Path_1470" data-name="Path 1470" d="M80.883,21.518l-.718-.543c.3-.45.6-.884.873-1.336a11.1,11.1,0,0,0,.51-.987.348.348,0,0,0,0-.256,10.085,10.085,0,0,0-2.6-3.565,8.187,8.187,0,0,0-2.4-1.532,6.779,6.779,0,0,0-3.7-.411,6.528,6.528,0,0,0-1.9.6.251.251,0,0,1-.317-.04c-.2-.168-.412-.326-.632-.5a6.8,6.8,0,0,1,2.176-.9,7.574,7.574,0,0,1,5.977,1.009,11.625,11.625,0,0,1,4.3,5.012.973.973,0,0,1,.042.793,11.582,11.582,0,0,1-1.6,2.655" transform="translate(-64.424 -10.89)" fill="#34515c"/>
    <path id="Path_1471" data-name="Path 1471" d="M24.584,66.807a7.617,7.617,0,0,1-2.7.977,7.806,7.806,0,0,1-3.154-.108,7.685,7.685,0,0,1-2.152-.907,11.378,11.378,0,0,1-4.454-5.1.966.966,0,0,1-.029-.793,11.9,11.9,0,0,1,1.6-2.641l.745.57c-.325.474-.651.931-.955,1.4a9.722,9.722,0,0,0-.487.887.305.305,0,0,0,0,.236A10.356,10.356,0,0,0,17.109,66a6.748,6.748,0,0,0,4.628.863,6.5,6.5,0,0,0,1.9-.6.237.237,0,0,1,.3.036c.2.171.413.328.641.508" transform="translate(-11.069 -53.602)" fill="#34515c"/>
    <path id="Path_1472" data-name="Path 1472" d="M77.082,93.691A3.773,3.773,0,0,1,73.3,93.11a3.878,3.878,0,0,1-1.4-3.413l.056-.036c.28.218.567.428.837.658.057.049.065.166.078.255a2.762,2.762,0,0,0,.972,1.767,2.968,2.968,0,0,0,2.218.681.438.438,0,0,1,.266.077c.25.184.489.384.75.592" transform="translate(-66.172 -82.529)" fill="#34515c"/>
    <path id="Path_1473" data-name="Path 1473" d="M107.769,52.223c-.316-.255-.592-.469-.855-.7a.4.4,0,0,1-.081-.232,2.814,2.814,0,0,0-1.486-2.155,2.434,2.434,0,0,0-1.7-.317.237.237,0,0,1-.168-.024c-.285-.211-.564-.431-.874-.672a3.618,3.618,0,0,1,3.666.506,3.778,3.778,0,0,1,1.5,3.591" transform="translate(-94.444 -44.039)" fill="#34515c"/>
  </g>
</svg>
