<svg id="Group_109043" data-name="Group 109043" xmlns="http://www.w3.org/2000/svg" xmlns:xlink="http://www.w3.org/1999/xlink" width="25.072" height="28.098" viewBox="0 0 25.072 28.098">
  <defs>
    <clipPath id="clip-path">
      <rect id="Rectangle_52793" data-name="Rectangle 52793" width="25.072" height="28.098" fill="#1a3065" stroke="#1a3065" stroke-width="1.1"/>
    </clipPath>
  </defs>
  <g id="Group_109042" data-name="Group 109042" transform="translate(0 0)" clip-path="url(#clip-path)">
    <path id="Path_87579" data-name="Path 87579" d="M20.485,17.725a5.674,5.674,0,0,0-1.328-1.944,4.976,4.976,0,0,0-1.707-1.138,8.535,8.535,0,0,0,.332-1.944V10.137a7.938,7.938,0,0,0-.332-2.086,9.274,9.274,0,0,0-1.043-2.324,8.9,8.9,0,0,0-.522-2.181,7.453,7.453,0,0,0-.379-.854.3.3,0,0,0-.047-.522h-.285A4.816,4.816,0,0,0,13.657.8,6.006,6.006,0,0,0,11.57.084a7.443,7.443,0,0,0-2.7.095A4.717,4.717,0,0,0,7.113.843,4,4,0,0,0,5.69,2.171H5.478a.207.207,0,0,0-.141.055c-.1.093-.241.289.069.484,0,0-.285.125-.711,1.69,0,0-.047.237-.237,1.375a5.665,5.665,0,0,0-.948,1.944,13.883,13.883,0,0,0-.474,2.608,13.99,13.99,0,0,0,.142,2.845,8.376,8.376,0,0,0,.19,1.47A6.676,6.676,0,0,0,1.138,16.4,5.98,5.98,0,0,0,0,19.052v4.689a.179.179,0,0,0,.064.114.278.278,0,0,0,.451-.127q0-.014.007-.028V19.621a5.6,5.6,0,0,1,.759-2.466,5.28,5.28,0,0,1,2.561-2.086l1.138-.285a9.385,9.385,0,0,0,2.229-.854,2.952,2.952,0,0,0,1.375,1.233,3.879,3.879,0,0,0,3.082.237,3.886,3.886,0,0,0,2.042-1.47,3.764,3.764,0,0,0,1.8.711,10.73,10.73,0,0,1,2.418.9,5.831,5.831,0,0,1,1.517,1.423,6.411,6.411,0,0,1,.806,1.9l.095.379V23.7a.3.3,0,0,0,.285.237s.19.047.285-.19V19.44a5.865,5.865,0,0,0-.427-1.716M6.39,2.115A4.549,4.549,0,0,1,8.333.845a8.288,8.288,0,0,1,3.2-.238,4.7,4.7,0,0,1,2.923,1.511l.061.077H6.319ZM6,2.716h8.844A5.329,5.329,0,0,1,15.727,4.9a9.215,9.215,0,0,0-1.217-.782,13.3,13.3,0,0,1-3.059.782,10.067,10.067,0,0,1-3.96-.4s-.19-.047-1.138-.427a6.9,6.9,0,0,0-1.209.83A7.069,7.069,0,0,1,6,2.716M7.066,13.409a11.439,11.439,0,0,1-3.177,1.043,14.794,14.794,0,0,1-.285-2.94,9.526,9.526,0,0,1,.237-2.94A9.625,9.625,0,0,1,4.789,6.2a7.34,7.34,0,0,1,1.3-1.3V9.07a3.993,3.993,0,0,0,1.162,2.11Zm4.552,1.423a3.6,3.6,0,0,1-2.845-.237,3.128,3.128,0,0,1-1.185-1.043l.19-1.9s1.778,1.284,2.667,1.211a5.3,5.3,0,0,0,2.62-1.187l.237,1.849a4.355,4.355,0,0,1-1.683,1.3m1.66-4.078a6.383,6.383,0,0,1-2.854,1.578A6.039,6.039,0,0,1,8.2,11.275,3.7,3.7,0,0,1,6.62,8.762V4.779a9.812,9.812,0,0,0,3.67.711,9.767,9.767,0,0,0,3.936-.711V8.941a3.647,3.647,0,0,1-.948,1.813m3.7,3.7A11.439,11.439,0,0,1,13.8,13.409l-.19-2.229a3.993,3.993,0,0,0,1.162-2.11V4.9a7.339,7.339,0,0,1,1.3,1.3,9.626,9.626,0,0,1,.948,2.371,9.526,9.526,0,0,1,.237,2.94,14.793,14.793,0,0,1-.285,2.94" transform="translate(2.08 2.077)" fill="#1a3065" stroke="#1a3065" stroke-width="1.1"/>
    <path id="Path_87580" data-name="Path 87580" d="M709.559,1258.007h-.9a.332.332,0,0,1,0-.664h.9a.332.332,0,0,1,0,.664" transform="translate(-696.596 -1238.134)" fill="#1a3065" stroke="#1a3065" stroke-width="1.1"/>
    <path id="Path_87581" data-name="Path 87581" d="M709.559,1379.832h-.9a.332.332,0,1,1,0-.664h.9a.332.332,0,1,1,0,.664" transform="translate(-696.596 -1358.299)" fill="#1a3065" stroke="#1a3065" stroke-width="1.1"/>
    <path id="Path_87582" data-name="Path 87582" d="M709.559,1505.138h-.9a.332.332,0,0,1,0-.664h.9a.332.332,0,0,1,0,.664" transform="translate(-696.596 -1481.898)" fill="#1a3065" stroke="#1a3065" stroke-width="1.1"/>
  </g>
</svg>
