<svg width="22" height="20" viewBox="0 0 22 20" fill="none" xmlns="http://www.w3.org/2000/svg">
<path d="M8.18 2.55904C8.49111 2.04133 8.93089 1.61294 9.45659 1.31553C9.98229 1.01812 10.576 0.861816 11.18 0.861816C11.784 0.861816 12.3777 1.01812 12.9034 1.31553C13.4291 1.61294 13.8689 2.04133 14.18 2.55904L21.018 13.959C21.3364 14.49 21.5083 15.096 21.5161 15.7151C21.5238 16.3342 21.3672 16.9443 21.0622 17.4831C20.7572 18.022 20.3148 18.4702 19.78 18.7822C19.2452 19.0942 18.6372 19.2587 18.018 19.259H4.343C3.72384 19.2587 3.11585 19.0942 2.58104 18.7822C2.04623 18.4702 1.60376 18.022 1.29877 17.4831C0.993772 16.9443 0.83717 16.3342 0.844941 15.7151C0.852712 15.096 1.02458 14.49 1.343 13.959L8.18 2.55904Z" fill="#689A4A"/>
</svg>
