<svg xmlns="http://www.w3.org/2000/svg" xmlns:xlink="http://www.w3.org/1999/xlink" width="74.439" height="66.555" viewBox="0 0 74.439 66.555">
  <defs>
    <clipPath id="clip-path">
      <rect id="Rectangle_52785" data-name="Rectangle 52785" width="74.439" height="66.555" fill="#ae9e79"/>
    </clipPath>
  </defs>
  <g id="Group_109005" data-name="Group 109005" transform="translate(0)">
    <g id="Group_109004" data-name="Group 109004" transform="translate(0)" clip-path="url(#clip-path)">
      <path id="Path_87559" data-name="Path 87559" d="M37.365,7.446l-.624.31L3.764,40.73c-2.175,2.23-5.186-.449-3.011-2.8l33.5-33.592H18.386A3.681,3.681,0,0,1,16.938,3.5,2.076,2.076,0,0,1,18.617.212c6.55.388,13.852-.6,20.312-.032,1.179.1,2.174.466,2.386,1.762L41.287,23.29c-.378,2.706-3.922,1.606-3.922.434Z" transform="translate(0 0)" fill="#ae9e79"/>
      <path id="Path_87560" data-name="Path 87560" d="M155.407,50.445c8.344-.762,8.975,12.119.758,12.392-7.762.258-8.726-11.664-.758-12.392m-.934,7.763c2.169,1.866,4.87-1.455,2.858-3.166-2.272-1.931-4.656,1.619-2.858,3.166" transform="translate(-87.595 -29.465)" fill="#ae9e79"/>
      <path id="Path_87561" data-name="Path 87561" d="M75.538,90.368c8.344-.762,8.975,12.119.758,12.392-7.762.258-8.726-11.664-.758-12.392M74.6,98.131c2.169,1.866,4.87-1.455,2.858-3.166-2.272-1.931-4.656,1.619-2.858,3.166" transform="translate(-40.914 -52.799)" fill="#ae9e79"/>
      <path id="Path_87562" data-name="Path 87562" d="M115.473,90.368c8.344-.762,8.975,12.119.758,12.392-7.762.258-8.726-11.664-.758-12.392m-.934,7.763c2.169,1.866,4.87-1.455,2.858-3.166-2.272-1.931-4.656,1.619-2.858,3.166" transform="translate(-64.255 -52.799)" fill="#ae9e79"/>
      <path id="Path_87563" data-name="Path 87563" d="M35.6,130.291c8.344-.762,8.975,12.119.758,12.392-7.762.258-8.726-11.664-.758-12.392m-.934,7.763c2.169,1.866,4.87-1.455,2.858-3.166-2.272-1.931-4.656,1.619-2.858,3.166" transform="translate(-17.573 -76.133)" fill="#ae9e79"/>
      <path id="Path_87564" data-name="Path 87564" d="M155.623,10.541c8.36-.422,8.614,12.347.347,12.389-7.849.039-8.292-11.988-.347-12.389m-1.149,7.768c2.169,1.866,4.87-1.455,2.858-3.166-2.272-1.931-4.656,1.619-2.858,3.166" transform="translate(-87.595 -6.155)" fill="#ae9e79"/>
      <path id="Path_87565" data-name="Path 87565" d="M115.688,50.465c8.36-.422,8.614,12.347.347,12.389-7.85.039-8.292-11.988-.347-12.389m-1.15,7.768c2.169,1.866,4.87-1.455,2.858-3.166-2.272-1.931-4.656,1.619-2.858,3.166" transform="translate(-64.254 -29.489)" fill="#ae9e79"/>
      <path id="Path_87566" data-name="Path 87566" d="M155.623,90.388c8.36-.422,8.614,12.347.347,12.389-7.849.039-8.292-11.988-.347-12.389m-1.149,7.768c2.169,1.866,4.87-1.455,2.858-3.166-2.272-1.931-4.656,1.619-2.858,3.166" transform="translate(-87.595 -52.823)" fill="#ae9e79"/>
      <path id="Path_87567" data-name="Path 87567" d="M75.753,130.311c8.36-.422,8.614,12.347.347,12.389-7.85.039-8.292-11.988-.347-12.389m-1.15,7.768c2.169,1.866,4.87-1.455,2.858-3.166-2.272-1.931-4.656,1.619-2.858,3.166" transform="translate(-40.913 -76.157)" fill="#ae9e79"/>
      <path id="Path_87568" data-name="Path 87568" d="M115.688,130.311c8.36-.422,8.614,12.347.347,12.389-7.85.039-8.292-11.988-.347-12.389m-1.15,7.768c2.169,1.866,4.87-1.455,2.858-3.166-2.272-1.931-4.656,1.619-2.858,3.166" transform="translate(-64.254 -76.157)" fill="#ae9e79"/>
      <path id="Path_87569" data-name="Path 87569" d="M155.623,130.311c8.36-.422,8.614,12.347.347,12.389-7.849.039-8.292-11.988-.347-12.389m-1.149,7.768c2.169,1.866,4.87-1.455,2.858-3.166-2.272-1.931-4.656,1.619-2.858,3.166" transform="translate(-87.595 -76.157)" fill="#ae9e79"/>
    </g>
  </g>
</svg>
