<svg id="Group_109040" data-name="Group 109040" xmlns="http://www.w3.org/2000/svg" xmlns:xlink="http://www.w3.org/1999/xlink" width="32.767" height="26.748" viewBox="0 0 32.767 26.748">
  <defs>
    <clipPath id="clip-path">
      <rect id="Rectangle_38077" data-name="Rectangle 38077" width="32.767" height="26.748" fill="#c2cce5" stroke="#c1cce4" stroke-width="0.3"/>
    </clipPath>
  </defs>
  <g id="Group_98944" data-name="Group 98944" transform="translate(0 0)" clip-path="url(#clip-path)">
    <path id="Path_63170" data-name="Path 63170" d="M37.581,2.924H30.194V1.466h.433q3.51,0,7.02,0A.586.586,0,0,0,38.2,1.2a2.914,2.914,0,0,1,4.71-.011.623.623,0,0,0,.582.279c2.08-.01,4.16-.005,6.24-.005h.435V2.925H43.52a2.764,2.764,0,0,1-.858,2.064,5.432,5.432,0,0,1-1.079.7c-.19.1-.309.181-.309.428q.011,7.929.007,15.858c0,.084.014.168.024.288h9.607v1.45H30.2v-1.43h9.6c.008-.168.02-.3.02-.432q0-7.817.006-15.635a.485.485,0,0,0-.353-.545A2.781,2.781,0,0,1,37.627,3.2c-.007-.073-.023-.144-.046-.279m2.994,1.512a1.42,1.42,0,0,0,1.472-1.508,1.447,1.447,0,0,0-1.508-1.481,1.465,1.465,0,0,0-1.483,1.481,1.447,1.447,0,0,0,1.52,1.509" transform="translate(-24.189 1.52)" fill="#c2cce5" stroke="#c1cce4" stroke-width="0.3"/>
    <path id="Path_63171" data-name="Path 63171" d="M125.86,30.762c.612.986,1.2,1.93,1.782,2.871,1.263,2.024,2.522,4.051,3.8,6.067a2.436,2.436,0,0,1,.318,1.072,2.3,2.3,0,0,1-.908,2.205c-.844.721-1.582,1.566-2.375,2.347a.549.549,0,0,1-.349.138q-2.3.014-4.6,0a.652.652,0,0,1-.4-.186q-1.521-1.5-3.018-3.018a1.5,1.5,0,0,1-.21-.437c0-.01,0-.025,0-.037a4.035,4.035,0,0,1,.769-2.838c1.7-2.568,3.3-5.195,4.946-7.8.072-.115.15-.226.254-.383m3.736,8.772-3.73-6.059-3.821,6.059Zm-8.359,1.492a2.737,2.737,0,0,0,.322.623q1.058,1.095,2.156,2.149a.772.772,0,0,0,.48.194q1.634.025,3.268,0a.722.722,0,0,0,.45-.179c.739-.713,1.457-1.448,2.192-2.166a.511.511,0,0,0,.136-.622Z" transform="translate(-100.535 -24.673)" fill="#c2cce5" stroke="#c1cce4" stroke-width="0.3"/>
    <path id="Path_63172" data-name="Path 63172" d="M5.973,30.868c1.748,2.8,3.448,5.567,5.207,8.3a3.694,3.694,0,0,1,.692,2.418,1.313,1.313,0,0,1-.4.961c-.977.928-1.911,1.9-2.869,2.852a.548.548,0,0,1-.343.153q-2.32.015-4.64,0a.6.6,0,0,1-.374-.169Q1.7,43.856.179,42.311a.626.626,0,0,1-.166-.379c-.02-.457-.014-.915,0-1.373A.711.711,0,0,1,.1,40.212q2.858-4.576,5.727-9.146c.038-.06.083-.116.143-.2M2.165,39.614H9.7L5.981,33.566,2.165,39.614m8.308,1.592-.119-.084H1.373a2.312,2.312,0,0,0,.286.6c.713.739,1.442,1.463,2.181,2.177a.718.718,0,0,0,.448.182c1.089.015,2.178.018,3.267,0a.827.827,0,0,0,.508-.217q1.072-1.027,2.1-2.1a2.349,2.349,0,0,0,.3-.565" transform="translate(1.52 -24.763)" fill="#c2cce5" stroke="#c1cce4" stroke-width="0.3"/>
  </g>
</svg>
