<svg width="28" height="23" viewBox="0 0 28 23" fill="none" xmlns="http://www.w3.org/2000/svg">
<path d="M11.1956 19.735C11.1665 20.1377 11.1144 20.5383 11.0396 20.935C10.9513 21.2954 10.7744 21.628 10.5251 21.9028C10.2758 22.1777 9.96192 22.3859 9.61184 22.5089C9.26175 22.6318 8.88654 22.6654 8.52016 22.6068C8.15379 22.5482 7.80783 22.3991 7.51359 22.173C6.28759 21.184 5.12759 20.112 3.93859 19.073C3.24326 18.4664 2.54893 17.8594 1.85559 17.252C1.5873 17.0353 1.36917 16.7631 1.21623 16.454C1.06328 16.1449 0.979161 15.8063 0.969656 15.4616C0.960152 15.1168 1.02549 14.7741 1.16117 14.4571C1.29685 14.14 1.49965 13.8562 1.75559 13.625C3.62059 11.949 5.52259 10.309 7.41559 8.65903C7.72193 8.37773 8.10551 8.19461 8.51687 8.1333C8.92823 8.07199 9.34853 8.13529 9.72359 8.31503C10.1112 8.4656 10.448 8.7232 10.6948 9.05781C10.9416 9.39243 11.0882 9.79029 11.1176 10.205C11.1486 10.456 11.1486 10.705 11.1666 11.019H17.4586C18.1946 11.019 18.4216 11.243 18.4276 11.968C18.4276 12.296 18.4196 12.623 18.4276 12.951C18.416 13.1341 18.4596 13.3165 18.5526 13.4746C18.6456 13.6327 18.7839 13.7593 18.9496 13.838C19.1227 13.9153 19.316 13.9347 19.501 13.8935C19.686 13.8522 19.8527 13.7525 19.9766 13.609C21.7273 12.0544 23.4803 10.5017 25.2356 8.95103C25.9176 8.34603 25.9096 7.85103 25.2356 7.26103C23.5103 5.7357 21.7869 4.20803 20.0656 2.67803C19.7826 2.42803 19.5136 2.16403 19.0656 2.32203C18.9116 2.35985 18.7728 2.44396 18.668 2.56304C18.5633 2.68212 18.4975 2.83044 18.4796 2.98803C18.4366 3.40903 18.4396 3.83403 18.4306 4.25703C18.4166 4.94003 18.1856 5.17503 17.5036 5.17603C15.9256 5.17603 14.3476 5.17603 12.7696 5.17603C12.2436 5.17603 11.9696 4.96803 11.9326 4.56203C11.8806 4.03703 12.1586 3.74603 12.7456 3.74303C14.0206 3.73603 15.2946 3.74303 16.5686 3.74303H16.9906C17.0056 3.46003 17.0116 3.20803 17.0336 2.95703C17.0523 2.54709 17.1871 2.15089 17.4222 1.81453C17.6573 1.47818 17.983 1.21549 18.3616 1.05703C18.7187 0.866196 19.1245 0.785793 19.5274 0.826032C19.9304 0.866271 20.3122 1.02534 20.6246 1.28303C21.8576 2.30403 23.0456 3.38303 24.2496 4.43503C24.9426 5.04303 25.6396 5.64703 26.3156 6.27403C26.5862 6.49768 26.804 6.77851 26.9531 7.09633C27.1023 7.41415 27.1792 7.76107 27.1784 8.11216C27.1775 8.46325 27.0989 8.80978 26.9482 9.12687C26.7974 9.44395 26.5783 9.72371 26.3066 9.94603C24.5359 11.536 22.7556 13.113 20.9656 14.677C20.709 14.938 20.3938 15.1338 20.0461 15.2481C19.6984 15.3624 19.3285 15.3918 18.9671 15.334C18.6058 15.2761 18.2635 15.1327 17.9689 14.9156C17.6743 14.6985 17.4359 14.414 17.2736 14.086C17.1353 13.7144 17.0495 13.3253 17.0186 12.93C17.0058 12.772 17.0058 12.6131 17.0186 12.455H10.6856C9.94359 12.455 9.73859 12.247 9.72759 11.506C9.74321 11.1054 9.72682 10.7041 9.67859 10.306C9.66711 10.146 9.60907 9.99275 9.51164 9.86524C9.4142 9.73773 9.28161 9.64149 9.13019 9.58836C8.97876 9.53523 8.81511 9.52752 8.65936 9.5662C8.50362 9.60487 8.36257 9.68824 8.25359 9.80603C6.41093 11.422 4.57759 13.047 2.75359 14.681C2.64771 14.7644 2.56212 14.8707 2.50327 14.992C2.44442 15.1132 2.41385 15.2463 2.41385 15.381C2.41385 15.5158 2.44442 15.6488 2.50327 15.7701C2.56212 15.8913 2.64771 15.9976 2.75359 16.081C4.58159 17.713 6.41493 19.3377 8.25359 20.955C8.36494 21.0709 8.50741 21.152 8.66383 21.1887C8.82025 21.2254 8.98394 21.2161 9.13519 21.1618C9.28643 21.1076 9.41876 21.0108 9.51624 20.8831C9.61372 20.7554 9.67219 20.6022 9.68459 20.442C9.73207 20.0211 9.74845 19.5973 9.73359 19.174C9.74959 18.529 9.97359 18.301 10.6186 18.299C12.1966 18.299 13.7746 18.299 15.3526 18.299C15.8736 18.299 16.1306 18.468 16.2166 18.849C16.3296 19.349 15.9836 19.729 15.3976 19.732C14.1476 19.738 12.8976 19.732 11.6466 19.732H11.1956" fill="#0B3443"/>
</svg>
