<svg xmlns="http://www.w3.org/2000/svg" xmlns:xlink="http://www.w3.org/1999/xlink" width="22.022" height="21.984" viewBox="0 0 22.022 21.984">
  <defs>
    <clipPath id="clip-path">
      <rect id="Rectangle_38374" data-name="Rectangle 38374" width="22.022" height="21.984" transform="translate(0)" fill="#b39d74"/>
    </clipPath>
  </defs>
  <g id="Search_Icon" transform="translate(0)" clip-path="url(#clip-path)">
    <path id="Path_67624" data-name="Path 67624" d="M15.977,14.527l6.046,6.044L20.6,21.984l-6.033-6.037a8.9,8.9,0,0,1-8.533,1.462,8.44,8.44,0,0,1-4.666-3.694,9,9,0,0,1,1.44-11.3A9.057,9.057,0,0,1,14.7,2.044a9.052,9.052,0,0,1,1.281,12.483M15.87,8.954a6.919,6.919,0,1,0-6.917,6.9,6.9,6.9,0,0,0,6.917-6.9" transform="translate(0 0)" fill="#b39d74"/>
  </g>
</svg>
