<svg width="319" height="19" viewBox="0 0 319 19" fill="none" xmlns="http://www.w3.org/2000/svg">
<mask id="mask0_403_3570" style="mask-type:luminance" maskUnits="userSpaceOnUse" x="0" y="0" width="319" height="19">
<path d="M318.132 0.222656H0.188965V18.6717H318.132V0.222656Z" fill="white"/>
</mask>
<g mask="url(#mask0_403_3570)">
<path d="M0.188965 18.6717C78.408 8.50366 157.369 2.04366 236.253 0.458656C239.805 0.422656 257.773 0.247656 260.954 0.222656C270.042 0.359656 281.526 0.361656 290.607 0.600656C294.218 0.720656 311.436 1.33166 315.321 1.46266C315.709 1.4766 316.089 1.56779 316.441 1.7309C316.793 1.894 317.109 2.12572 317.37 2.41248C317.631 2.69924 317.832 3.03525 317.962 3.40081C318.092 3.76637 318.147 4.15412 318.124 4.54131C318.102 4.92851 318.003 5.30735 317.832 5.65561C317.661 6.00388 317.423 6.31456 317.131 6.56943C316.838 6.8243 316.498 7.01824 316.13 7.13985C315.761 7.26147 315.373 7.30832 314.986 7.27766C311.078 7.06666 293.856 6.15266 290.426 5.96766C281.39 5.56266 269.955 5.35066 260.908 5.04666C257.859 5.01466 239.762 4.85866 236.287 4.82766C157.475 4.95666 78.505 9.95666 0.188965 18.6717Z" fill="#B39D74"/>
</g>
</svg>
