<svg id="Group_109037" data-name="Group 109037" xmlns="http://www.w3.org/2000/svg" xmlns:xlink="http://www.w3.org/1999/xlink" width="242.209" height="14.055" viewBox="0 0 242.209 14.055">
  <defs>
    <clipPath id="clip-path">
      <rect id="Rectangle_52783" data-name="Rectangle 52783" width="242.209" height="14.055" fill="#b39d74"/>
    </clipPath>
  </defs>
  <g id="Group_108998" data-name="Group 108998" transform="translate(0 0)" clip-path="url(#clip-path)">
    <path id="Path_87556" data-name="Path 87556" d="M0,14.055A1654.536,1654.536,0,0,1,179.834.18C182.54.155,196.228.019,198.651,0c6.923.1,15.672.106,22.59.288,2.751.091,15.868.557,18.827.657a2.219,2.219,0,1,1-.255,4.43c-2.977-.161-16.1-.857-18.71-1-6.884-.309-15.6-.47-22.487-.7-2.323-.025-16.109-.143-18.757-.167A1652.738,1652.738,0,0,0,0,14.055" transform="translate(0 0)" fill="#b39d74"/>
  </g>
</svg>
