<svg xmlns="http://www.w3.org/2000/svg" width="59.557" height="59.557" viewBox="0 0 59.557 59.557">
  <g id="Group_109009" data-name="Group 109009" transform="translate(1.45 1.45)">
    <g id="Signature">
      <path id="Path_67715" data-name="Path 67715" d="M233.726,184.727h0a16.393,16.393,0,0,1,4.8-11.592l18-18a4.8,4.8,0,0,1,6.79,0h0a4.8,4.8,0,0,1,0,6.79l-18,18A16.393,16.393,0,0,1,233.726,184.727Z" transform="translate(-208.071 -137.673)" fill="none" stroke="#ae9e79" stroke-linecap="round" stroke-linejoin="round" stroke-width="2.9"/>
      <line id="Line_117" data-name="Line 117" x1="6.79" y1="6.79" transform="translate(42.63 23.288)" fill="none" stroke="#ae9e79" stroke-linecap="round" stroke-linejoin="round" stroke-width="2.9"/>
      <path id="Path_67716" data-name="Path 67716" d="M63.213,69.831v2.025a4.8,4.8,0,0,1-4.8,4.8H24.8a4.8,4.8,0,0,1-4.8-4.8V24.8A4.8,4.8,0,0,1,24.8,20h26.82a4.8,4.8,0,0,1,3.4,1.406l6.79,6.79a4.8,4.8,0,0,1,1.225,2.088" transform="translate(-20 -20)" fill="none" stroke="#ae9e79" stroke-linecap="round" stroke-linejoin="round" stroke-width="2.9"/>
      <path id="Path_67717" data-name="Path 67717" d="M100,376.8a4.8,4.8,0,1,1,9.6,0h6.449" transform="translate(-90.397 -329.747)" fill="none" stroke="#ae9e79" stroke-linecap="round" stroke-linejoin="round" stroke-width="2.9"/>
      <line id="Line_118" data-name="Line 118" x2="5.764" transform="translate(12.957 12.957)" fill="none" stroke="#ae9e79" stroke-linecap="round" stroke-linejoin="round" stroke-width="2.9"/>
      <line id="Line_119" data-name="Line 119" x2="5.764" transform="translate(12.957 18.722)" fill="none" stroke="#ae9e79" stroke-linecap="round" stroke-linejoin="round" stroke-width="2.9"/>
    </g>
  </g>
</svg>
