<svg width="26" height="26" viewBox="0 0 26 26" fill="none" xmlns="http://www.w3.org/2000/svg">
<path d="M12.9814 2.47602C15.0846 2.47661 17.1405 3.10071 18.8891 4.26943C20.6377 5.43816 22.0007 7.09904 22.8056 9.04217C23.6105 10.9853 23.8213 13.1234 23.4114 15.1863C23.0014 17.2492 21.9891 19.1443 20.5024 20.632C18.4999 22.5891 15.8066 23.6776 13.0066 23.6616C10.2067 23.6455 7.52603 22.5261 5.54615 20.5462C3.56627 18.5664 2.44687 15.8857 2.43082 13.0858C2.41476 10.2858 3.50333 7.59248 5.46036 5.59002C6.44579 4.59941 7.61793 3.81412 8.90891 3.27959C10.1999 2.74507 11.5841 2.47194 12.9814 2.47602ZM12.9814 0.822022C10.5509 0.82222 8.17502 1.54313 6.15423 2.89358C4.13345 4.24403 2.55849 6.16338 1.62852 8.40892C0.69855 10.6545 0.45533 13.1253 0.929617 15.5091C1.4039 17.8929 2.5744 20.0825 4.29308 21.801C6.01177 23.5196 8.20146 24.6899 10.5853 25.164C12.9691 25.6381 15.4399 25.3946 17.6854 24.4645C19.9309 23.5343 21.8501 21.9592 23.2004 19.9383C24.5507 17.9174 25.2714 15.5415 25.2714 13.111C25.2716 11.497 24.9539 9.89884 24.3364 8.40768C23.7188 6.91653 22.8135 5.56165 21.6722 4.42045C20.5309 3.27924 19.176 2.37407 17.6848 1.75664C16.1936 1.13922 14.5953 0.821628 12.9814 0.822022Z" fill="#9A7A44"/>
</svg>
