<svg id="Group_109541" data-name="Group 109541" xmlns="http://www.w3.org/2000/svg" xmlns:xlink="http://www.w3.org/1999/xlink" width="46.057" height="37.597" viewBox="0 0 46.057 37.597">
  <defs>
    <clipPath id="clip-path">
      <rect id="Rectangle_38077" data-name="Rectangle 38077" width="46.057" height="37.597" fill="#b39d74" stroke="#b39d74" stroke-width="0.5"/>
    </clipPath>
  </defs>
  <g id="Group_98944" data-name="Group 98944" transform="translate(0)" clip-path="url(#clip-path)">
    <path id="Path_63170" data-name="Path 63170" d="M40.578,4.11H30.194V2.06H30.8q4.934,0,9.867.005a.824.824,0,0,0,.774-.375,4.1,4.1,0,0,1,6.621-.016.875.875,0,0,0,.818.393c2.923-.014,5.847-.008,8.771-.008h.611V4.112H48.925a3.886,3.886,0,0,1-1.207,2.9A7.635,7.635,0,0,1,46.2,7.99c-.268.145-.435.254-.434.6q.016,11.145.009,22.29c0,.118.019.236.033.405h13.5v2.038H30.208v-2.01h13.5c.011-.237.028-.422.028-.607q0-10.988.009-21.976a.682.682,0,0,0-.5-.766A3.909,3.909,0,0,1,40.642,4.5c-.01-.1-.033-.2-.064-.393m4.209,2.126a2,2,0,0,0,2.068-2.12,2.033,2.033,0,0,0-2.12-2.082,2.059,2.059,0,0,0-2.084,2.081,2.034,2.034,0,0,0,2.136,2.121" transform="translate(-21.754 2.136)" fill="#b39d74" stroke="#b39d74" stroke-width="0.5"/>
    <path id="Path_63171" data-name="Path 63171" d="M128.293,30.762c.86,1.385,1.68,2.712,2.505,4.036,1.775,2.845,3.545,5.694,5.339,8.527a3.423,3.423,0,0,1,.447,1.507,3.23,3.23,0,0,1-1.276,3.1c-1.186,1.013-2.223,2.2-3.338,3.3a.772.772,0,0,1-.491.194q-3.235.019-6.47,0a.917.917,0,0,1-.566-.262q-2.138-2.1-4.243-4.242a2.108,2.108,0,0,1-.3-.615c-.007-.014,0-.034,0-.052a5.672,5.672,0,0,1,1.081-3.989c2.383-3.61,4.643-7.3,6.952-10.961.1-.161.21-.318.357-.539m5.251,12.33L128.3,34.575l-5.37,8.517ZM121.8,45.19a3.847,3.847,0,0,0,.452.876q1.487,1.538,3.03,3.021a1.086,1.086,0,0,0,.674.273q2.3.035,4.593,0a1.014,1.014,0,0,0,.633-.252c1.039-1,2.048-2.036,3.081-3.045a.719.719,0,0,0,.191-.874Z" transform="translate(-92.697 -22.203)" fill="#b39d74" stroke="#b39d74" stroke-width="0.5"/>
    <path id="Path_63172" data-name="Path 63172" d="M8.4,30.868c2.456,3.93,4.846,7.825,7.319,11.667a5.192,5.192,0,0,1,.972,3.4,1.846,1.846,0,0,1-.558,1.351c-1.373,1.305-2.686,2.675-4.033,4.008a.77.77,0,0,1-.482.214q-3.261.021-6.522,0a.845.845,0,0,1-.526-.238Q2.394,49.125.252,46.952a.881.881,0,0,1-.233-.532c-.028-.642-.019-1.287,0-1.93A1,1,0,0,1,.145,44Q4.163,37.57,8.2,31.146c.053-.085.117-.163.2-.278M3.043,43.161h10.6l-5.232-8.5-5.364,8.5M14.72,45.4l-.167-.118H1.931a3.249,3.249,0,0,0,.4.848c1,1.039,2.027,2.056,3.065,3.06a1.009,1.009,0,0,0,.63.255c1.531.022,3.062.025,4.593,0a1.163,1.163,0,0,0,.714-.3q1.507-1.443,2.959-2.945a3.3,3.3,0,0,0,.427-.794" transform="translate(2.136 -22.287)" fill="#b39d74" stroke="#b39d74" stroke-width="0.5"/>
  </g>
</svg>
