<svg id="Group_109045" data-name="Group 109045" xmlns="http://www.w3.org/2000/svg" xmlns:xlink="http://www.w3.org/1999/xlink" width="315.297" height="18.296" viewBox="0 0 315.297 18.296">
  <defs>
    <clipPath id="clip-path">
      <rect id="Rectangle_52783" data-name="Rectangle 52783" width="315.297" height="18.296" fill="#b39d74"/>
    </clipPath>
  </defs>
  <g id="Group_108998" data-name="Group 108998" transform="translate(0 0)" clip-path="url(#clip-path)">
    <path id="Path_87556" data-name="Path 87556" d="M0,18.3C77.568,8.212,155.872,1.806,234.1.234,237.622.2,255.441.025,258.595,0,267.607.136,279,.138,288,.375c3.581.119,20.656.725,24.508.855A2.889,2.889,0,1,1,312.178,7c-3.875-.21-20.954-1.116-24.355-1.3-8.961-.4-20.3-.612-29.272-.914-3.024-.032-20.97-.186-24.416-.217C155.977,4.695,77.664,9.653,0,18.3" transform="translate(0 0)" fill="#b39d74"/>
  </g>
</svg>
