<svg xmlns="http://www.w3.org/2000/svg" width="71.11" height="71.109" viewBox="0 0 71.11 71.109">
  <g id="Group_109009" data-name="Group 109009" transform="translate(1.45 1.45)">
    <g id="Signature">
      <path id="Path_67715" data-name="Path 67715" d="M233.726,191.049h0a19.735,19.735,0,0,1,5.781-13.955l21.675-21.675a5.781,5.781,0,0,1,8.175,0h0a5.78,5.78,0,0,1,0,8.175l-21.675,21.675A19.735,19.735,0,0,1,233.726,191.049Z" transform="translate(-202.84 -134.4)" fill="none" stroke="#ae9e79" stroke-linecap="round" stroke-linejoin="round" stroke-width="2.9"/>
      <line id="Line_117" data-name="Line 117" x1="8.175" y1="8.175" transform="translate(51.323 28.037)" fill="none" stroke="#ae9e79" stroke-linecap="round" stroke-linejoin="round" stroke-width="2.9"/>
      <path id="Path_67716" data-name="Path 67716" d="M72.024,79.992v2.437a5.781,5.781,0,0,1-5.78,5.78H25.78A5.781,5.781,0,0,1,20,82.429V25.78A5.781,5.781,0,0,1,25.78,20H58.069a5.78,5.78,0,0,1,4.087,1.693l8.175,8.175a5.778,5.778,0,0,1,1.475,2.513" transform="translate(-20 -20)" fill="none" stroke="#ae9e79" stroke-linecap="round" stroke-linejoin="round" stroke-width="2.9"/>
      <path id="Path_67717" data-name="Path 67717" d="M100,377.781a5.78,5.78,0,1,1,11.561,0h7.764" transform="translate(-88.439 -321.132)" fill="none" stroke="#ae9e79" stroke-linecap="round" stroke-linejoin="round" stroke-width="2.9"/>
      <line id="Line_118" data-name="Line 118" x2="6.939" transform="translate(15.599 15.6)" fill="none" stroke="#ae9e79" stroke-linecap="round" stroke-linejoin="round" stroke-width="2.9"/>
      <line id="Line_119" data-name="Line 119" x2="6.939" transform="translate(15.599 22.539)" fill="none" stroke="#ae9e79" stroke-linecap="round" stroke-linejoin="round" stroke-width="2.9"/>
    </g>
  </g>
</svg>
