<svg xmlns="http://www.w3.org/2000/svg" width="35.299" height="35.3" viewBox="0 0 35.299 35.3">
  <g id="Group_109095" data-name="Group 109095" transform="translate(1.026 1.028)">
    <path id="Icon_awesome-phone-alt" data-name="Icon awesome-phone-alt" d="M.949,23.512l7.278-3.119a1.56,1.56,0,0,1,1.82.448l3.223,3.938A24.088,24.088,0,0,0,24.785,13.264l-3.938-3.223a1.556,1.556,0,0,1-.448-1.82L23.518.943a1.57,1.57,0,0,1,1.787-.9L32.064,1.6a1.56,1.56,0,0,1,1.209,1.52A30.15,30.15,0,0,1,3.119,33.273,1.56,1.56,0,0,1,1.6,32.064L.039,25.306a1.579,1.579,0,0,1,.91-1.794Z" transform="translate(0 0)" fill="#ae9e79" stroke="#fff" stroke-width="2"/>
  </g>
</svg>
