<svg id="Group_109075" data-name="Group 109075" xmlns="http://www.w3.org/2000/svg" xmlns:xlink="http://www.w3.org/1999/xlink" width="26.515" height="24.028" viewBox="0 0 26.515 24.028">
  <defs>
    <clipPath id="clip-path">
      <rect id="Rectangle_52806" data-name="Rectangle 52806" width="26.515" height="24.028" fill="#fff"/>
    </clipPath>
  </defs>
  <g id="Group_109074" data-name="Group 109074" clip-path="url(#clip-path)">
    <path id="Path_87598" data-name="Path 87598" d="M0,0C2.785,0,5.45,0,8.115.014a.666.666,0,0,1,.428.27q2.665,3.487,5.312,6.987c.1.131.213.253.346.41.984-1.123,1.946-2.219,2.9-3.317C18.3,2.995,19.486,1.619,20.687.257a.716.716,0,0,1,.454-.244C22.372-.006,23.6,0,24.948,0c-.4.464-.734.866-1.079,1.261q-3.755,4.293-7.52,8.577a.43.43,0,0,0-.03.66q4.921,6.5,9.827,13.012c.108.143.21.289.37.509h-.528c-2.389,0-4.778-.006-7.167.007a.8.8,0,0,1-.73-.35q-2.9-3.829-5.833-7.636c-.092-.12-.2-.231-.332-.388-.649.732-1.282,1.439-1.908,2.152q-2.633,3-5.268,6.005a.641.641,0,0,1-.419.2c-1.232.016-2.465.009-3.808.009l9.525-10.854L0,0M21.771,21.63c-.146-.209-.219-.323-.3-.431q-2.983-3.937-5.967-7.874Q11.449,7.97,7.392,2.616c-.1-.135-.269-.3-.412-.31-.73-.031-1.463-.015-2.273-.015.125.181.2.293.277.4q3.543,4.642,7.087,9.283,3.572,4.678,7.15,9.352a.7.7,0,0,0,.419.293c.673.031,1.348.014,2.131.014" transform="translate(0 -0.001)" fill="#fff"/>
  </g>
</svg>
