<svg id="Group_109040" data-name="Group 109040" xmlns="http://www.w3.org/2000/svg" xmlns:xlink="http://www.w3.org/1999/xlink" width="37.976" height="31" viewBox="0 0 37.976 31">
  <defs>
    <clipPath id="clip-path">
      <rect id="Rectangle_38077" data-name="Rectangle 38077" width="37.976" height="31" fill="#c2cce5" stroke="#c1cce4" stroke-width="0.3"/>
    </clipPath>
  </defs>
  <g id="Group_98944" data-name="Group 98944" transform="translate(0 0)" clip-path="url(#clip-path)">
    <path id="Path_63170" data-name="Path 63170" d="M38.756,3.389H30.194V1.7h.5q4.068,0,8.136,0a.679.679,0,0,0,.639-.309,3.378,3.378,0,0,1,5.459-.013A.722.722,0,0,0,45.6,1.7c2.41-.011,4.821-.006,7.232-.006h.5V3.39h-7.7a3.2,3.2,0,0,1-.995,2.392,6.3,6.3,0,0,1-1.25.806c-.221.12-.358.209-.358.5q.013,9.189.008,18.379c0,.1.016.194.028.334H54.2v1.681h-24V25.82H41.337c.009-.2.023-.348.023-.5q0-9.06.007-18.12a.562.562,0,0,0-.409-.632,3.223,3.223,0,0,1-2.149-2.855c-.008-.084-.027-.167-.053-.324m3.471,1.753a1.646,1.646,0,0,0,1.705-1.748,1.677,1.677,0,0,0-1.748-1.717,1.7,1.7,0,0,0-1.719,1.716,1.677,1.677,0,0,0,1.761,1.749" transform="translate(-23.235 1.762)" fill="#c2cce5" stroke="#c1cce4" stroke-width="0.3"/>
    <path id="Path_63171" data-name="Path 63171" d="M126.814,30.762c.709,1.142,1.385,2.236,2.066,3.327,1.464,2.346,2.923,4.695,4.4,7.031a2.823,2.823,0,0,1,.368,1.242,2.663,2.663,0,0,1-1.052,2.556c-.978.835-1.833,1.814-2.753,2.72a.637.637,0,0,1-.4.16q-2.667.016-5.335,0a.756.756,0,0,1-.467-.216q-1.763-1.735-3.5-3.5a1.738,1.738,0,0,1-.244-.507c-.006-.012,0-.028,0-.043a4.677,4.677,0,0,1,.892-3.289c1.965-2.977,3.828-6.021,5.732-9.038.084-.133.173-.262.294-.444m4.33,10.167-4.323-7.023-4.428,7.023Zm-9.688,1.73a3.172,3.172,0,0,0,.373.722q1.226,1.269,2.5,2.491a.9.9,0,0,0,.556.225q1.893.029,3.787,0a.836.836,0,0,0,.522-.208c.857-.827,1.689-1.678,2.54-2.511a.593.593,0,0,0,.158-.721Z" transform="translate(-97.463 -23.705)" fill="#c2cce5" stroke="#c1cce4" stroke-width="0.3"/>
    <path id="Path_63172" data-name="Path 63172" d="M6.922,30.868c2.025,3.241,4,6.452,6.035,9.62a4.281,4.281,0,0,1,.8,2.8A1.522,1.522,0,0,1,13.3,44.4c-1.133,1.076-2.214,2.206-3.325,3.3a.635.635,0,0,1-.4.177q-2.689.017-5.377,0a.7.7,0,0,1-.434-.2Q1.974,45.921.207,44.13a.726.726,0,0,1-.192-.439c-.023-.53-.016-1.061,0-1.591a.825.825,0,0,1,.108-.4q3.313-5.3,6.637-10.6c.044-.07.1-.135.165-.23M2.509,41h8.736l-4.314-7.01L2.509,41m9.628,1.845-.138-.1H1.592a2.679,2.679,0,0,0,.331.7c.826.857,1.672,1.7,2.528,2.523a.832.832,0,0,0,.52.211c1.262.018,2.525.02,3.787,0a.959.959,0,0,0,.589-.251q1.243-1.19,2.44-2.428a2.722,2.722,0,0,0,.352-.654" transform="translate(1.761 -23.792)" fill="#c2cce5" stroke="#c1cce4" stroke-width="0.3"/>
  </g>
</svg>
