<svg width="27" height="22" viewBox="0 0 27 22" fill="none" xmlns="http://www.w3.org/2000/svg">
<mask id="mask0_1_3991" style="mask-type:luminance" maskUnits="userSpaceOnUse" x="0" y="0" width="27" height="22">
<path d="M26.42 0.978027H0.0460205V21.501H26.42V0.978027Z" fill="white"/>
</mask>
<g mask="url(#mask0_1_3991)">
<path d="M13.192 21.501C10.5894 21.4733 8.06186 20.6254 5.96903 19.078C3.44964 17.2706 1.46344 14.818 0.219026 11.978C0.104212 11.7417 0.0445557 11.4823 0.0445557 11.2195C0.0445557 10.9568 0.104212 10.6974 0.219026 10.461C1.61835 7.25206 3.97022 4.55075 6.95603 2.72303C8.5569 1.73778 10.3713 1.15197 12.246 1.01503C13.9712 0.889172 15.7037 1.12311 17.3337 1.70203C18.9637 2.28094 20.4557 3.1922 21.715 4.37803C23.6401 6.09203 25.1875 8.18776 26.259 10.532C26.3658 10.7467 26.4213 10.9833 26.4213 11.223C26.4213 11.4628 26.3658 11.6993 26.259 11.914C24.9554 14.8222 22.8993 17.3298 20.303 19.178C18.4406 20.5336 16.2236 21.3172 13.923 21.433C13.679 21.443 13.436 21.474 13.192 21.496M13.046 19.309C14.9291 19.3171 16.7778 18.8045 18.388 17.828C20.8201 16.3067 22.7755 14.1324 24.031 11.553C24.09 11.4565 24.122 11.3459 24.1236 11.2328C24.1252 11.1196 24.0963 11.0082 24.04 10.91C23.0671 8.95358 21.7062 7.21563 20.04 5.80203C18.446 4.38627 16.4612 3.48553 14.346 3.21803C12.9485 3.05979 11.5332 3.19411 10.1904 3.61246C8.84754 4.03081 7.60644 4.72403 6.54603 5.64803C4.78759 7.08855 3.35847 8.88936 2.35503 10.929C2.30256 11.0207 2.2758 11.1248 2.27756 11.2304C2.27932 11.336 2.30954 11.4392 2.36503 11.529C3.24225 13.2557 4.40879 14.8193 5.81403 16.152C7.74178 18.0766 10.3241 19.2038 13.046 19.309Z" fill="white"/>
<path d="M13.192 21.501C10.5894 21.4733 8.06186 20.6254 5.96903 19.078C3.44964 17.2706 1.46344 14.818 0.219026 11.978C0.104212 11.7417 0.0445557 11.4823 0.0445557 11.2195C0.0445557 10.9568 0.104212 10.6974 0.219026 10.461C1.61835 7.25206 3.97022 4.55075 6.95603 2.72303C8.5569 1.73778 10.3713 1.15197 12.246 1.01503C13.9712 0.889172 15.7037 1.12311 17.3337 1.70203C18.9637 2.28094 20.4557 3.1922 21.715 4.37803C23.6401 6.09203 25.1875 8.18776 26.259 10.532C26.3658 10.7467 26.4213 10.9833 26.4213 11.223C26.4213 11.4628 26.3658 11.6993 26.259 11.914C24.9554 14.8222 22.8993 17.3298 20.303 19.178C18.4406 20.5336 16.2236 21.3172 13.923 21.433C13.679 21.443 13.436 21.474 13.192 21.496M13.046 19.309C14.9291 19.3171 16.7778 18.8045 18.388 17.828C20.8201 16.3067 22.7755 14.1324 24.031 11.553C24.09 11.4565 24.122 11.3459 24.1236 11.2328C24.1252 11.1196 24.0963 11.0082 24.04 10.91C23.0671 8.95358 21.7062 7.21563 20.04 5.80203C18.446 4.38627 16.4612 3.48553 14.346 3.21803C12.9485 3.05979 11.5332 3.19411 10.1904 3.61246C8.84754 4.03081 7.60644 4.72403 6.54603 5.64803C4.78759 7.08855 3.35847 8.88936 2.35503 10.929C2.30256 11.0207 2.2758 11.1248 2.27756 11.2304C2.27932 11.336 2.30954 11.4392 2.36503 11.529C3.24225 13.2557 4.40879 14.8193 5.81403 16.152C7.74178 18.0766 10.3241 19.2038 13.046 19.309Z" stroke="#22499C"/>
<path d="M7.35603 11.2201C7.3588 10.0627 7.70472 8.93206 8.35005 7.97125C8.99538 7.01043 9.91113 6.26256 10.9815 5.82219C12.0519 5.38183 13.2288 5.26876 14.3634 5.49728C15.498 5.72579 16.5394 6.28563 17.3559 7.10601C18.1723 7.92638 18.7272 8.97043 18.9503 10.1061C19.1734 11.2419 19.0547 12.4182 18.6092 13.4865C18.1637 14.5547 17.4115 15.4669 16.4476 16.1076C15.4837 16.7483 14.3514 17.0888 13.194 17.0861C11.6415 17.0826 10.154 16.4627 9.05843 15.3627C7.9629 14.2627 7.34911 12.7726 7.35203 11.2201M9.55203 11.1541C9.51826 11.8953 9.71697 12.6285 10.1204 13.2512C10.5238 13.8739 11.1118 14.3549 11.802 14.6271C12.5336 14.9309 13.3437 14.9907 14.112 14.7976C14.8803 14.6045 15.5658 14.1687 16.0667 13.555C16.5677 12.9414 16.8573 12.1825 16.8927 11.3911C16.9281 10.5997 16.7072 9.81799 16.263 9.16206C15.9245 8.64751 15.4554 8.23206 14.9038 7.95815C14.3521 7.68424 13.7376 7.56171 13.123 7.60307C13.2265 8.09265 13.2059 8.60035 13.063 9.07992C12.9201 9.55949 12.6595 9.9957 12.305 10.3488C11.9505 10.702 11.5132 10.9608 11.0331 11.1018C10.553 11.2428 10.0452 11.2615 9.55603 11.1561" fill="white"/>
<path d="M7.35603 11.2201C7.3588 10.0627 7.70472 8.93206 8.35005 7.97125C8.99538 7.01043 9.91113 6.26256 10.9815 5.82219C12.0519 5.38183 13.2288 5.26876 14.3634 5.49728C15.498 5.72579 16.5394 6.28563 17.3559 7.10601C18.1723 7.92638 18.7272 8.97043 18.9503 10.1061C19.1734 11.2419 19.0547 12.4182 18.6092 13.4865C18.1637 14.5547 17.4115 15.4669 16.4476 16.1076C15.4837 16.7483 14.3514 17.0888 13.194 17.0861C11.6415 17.0826 10.154 16.4627 9.05843 15.3627C7.9629 14.2627 7.34911 12.7726 7.35203 11.2201M9.55203 11.1541C9.51826 11.8953 9.71697 12.6285 10.1204 13.2512C10.5238 13.8739 11.1118 14.3549 11.802 14.6271C12.5336 14.9309 13.3437 14.9907 14.112 14.7976C14.8803 14.6045 15.5658 14.1687 16.0667 13.555C16.5677 12.9414 16.8573 12.1825 16.8927 11.3911C16.9281 10.5997 16.7072 9.81799 16.263 9.16206C15.9245 8.64751 15.4554 8.23206 14.9038 7.95815C14.3521 7.68424 13.7376 7.56171 13.123 7.60307C13.2265 8.09265 13.2059 8.60035 13.063 9.07992C12.9201 9.55949 12.6595 9.9957 12.305 10.3488C11.9505 10.702 11.5132 10.9608 11.0331 11.1018C10.553 11.2428 10.0452 11.2615 9.55603 11.1561" stroke="#22499C"/>
</g>
</svg>
