<svg id="Group_109094" data-name="Group 109094" xmlns="http://www.w3.org/2000/svg" width="33.483" height="33.483" viewBox="0 0 33.483 33.483">
  <path id="Icon_simple-whatsapp" data-name="Icon simple-whatsapp" d="M24.412,20.065c-.42-.209-2.465-1.21-2.846-1.348s-.66-.209-.939.209-1.076,1.345-1.317,1.621-.487.293-.9.1a11.323,11.323,0,0,1-3.352-2.072,12.657,12.657,0,0,1-2.316-2.888c-.243-.419-.027-.649.181-.858.19-.188.42-.481.629-.73a3.537,3.537,0,0,0,.414-.692.767.767,0,0,0-.035-.731c-.1-.209-.938-2.26-1.286-3.078s-.679-.712-.938-.712c-.24-.021-.518-.021-.8-.021a1.573,1.573,0,0,0-1.112.5A4.658,4.658,0,0,0,8.34,12.825a8.163,8.163,0,0,0,1.7,4.29c.208.272,2.937,4.457,7.115,6.257,1,.419,1.772.67,2.377.878a5.772,5.772,0,0,0,2.623.169,4.293,4.293,0,0,0,2.813-1.989,3.453,3.453,0,0,0,.251-1.988c-.1-.188-.377-.293-.8-.481m-7.6,10.384H16.8a13.956,13.956,0,0,1-7.052-1.925l-.5-.3L4.018,29.48,5.42,24.4l-.333-.523A13.837,13.837,0,0,1,26.637,6.8,13.656,13.656,0,0,1,30.7,16.555,13.854,13.854,0,0,1,16.835,30.345M28.628,4.812A16.939,16.939,0,0,0,16.8,0,16.588,16.588,0,0,0,2.366,24.886L0,33.483l8.838-2.3A16.828,16.828,0,0,0,16.8,33.2h.008a16.658,16.658,0,0,0,16.67-16.6A16.455,16.455,0,0,0,28.607,4.866" transform="translate(0 0)" fill="#ae9e79"/>
</svg>
