<svg id="Yasir_Main_BG" xmlns="http://www.w3.org/2000/svg" xmlns:xlink="http://www.w3.org/1999/xlink" width="1920" height="1080" viewBox="0 0 1920 1080">
  <defs>
    <linearGradient id="linear-gradient" x1="0.266" y1="-0.03" x2="0.64" y2="0.68" gradientUnits="objectBoundingBox">
      <stop offset="0" stop-color="#dde8ee"/>
      <stop offset="1" stop-color="#f7fafb"/>
    </linearGradient>
    <clipPath id="clip-path">
      <rect id="Rectangle_52826" data-name="Rectangle 52826" width="608" height="1080" fill="#fff"/>
    </clipPath>
    <clipPath id="clip-path-2">
      <path id="Path_75784" data-name="Path 75784" d="M-19327.145-19790.279l-79.592,82.766-9.738,46.371-42.645,44.09-21.135,20.631,74.895,2.994-73.18,76.563,5.32,20.773-37.375,47.328-47.328,49.809,11.49,10.854h27.531l21.479,5.729-55.928,58.443-15.309,20.846-23.609,54.73-54.967,56.9,11.217,8.627h51.436l-2.859,19.309-17.662,7.986-42.131,43.916-7.912,7.3,5.824,4.7-31,57.832-40.623,40.863-17.908,19.973,27.527,5.215,41.7,3.33-72.674,75.148-32.631,69.365-46.76,48.73,10.248,9.477h40.324l11.959,10.957-9.893,18.15h-12.328l-32.715,33.184-10.279,12.785,12.932,44.588-36.324,12.811-63.689,66.344-30.275,28.3,2.828,49.193v33.736l-1.361,28.742,6.186,38.279-4.824,51.033-69.029,160.635,19.125-1665.6Z" transform="translate(19925 19768)" fill="none" stroke="#707070" stroke-width="1"/>
    </clipPath>
    <clipPath id="clip-path-3">
      <rect id="Rectangle_40607" data-name="Rectangle 40607" width="812.99" height="1015.133" transform="translate(0 -428.387)" fill="none" stroke="#fff" stroke-width="7"/>
    </clipPath>
    <clipPath id="clip-path-4">
      <rect id="Rectangle_40636" data-name="Rectangle 40636" width="812.99" height="586.745" fill="none" stroke="#fff" stroke-width="7"/>
    </clipPath>
    <clipPath id="clip-path-5">
      <rect id="Rectangle_40897" data-name="Rectangle 40897" width="946.879" height="883.89" fill="none" stroke="#fff" stroke-width="7"/>
    </clipPath>
  </defs>
  <rect id="Rectangle_52829" data-name="Rectangle 52829" width="1920" height="1080" fill="url(#linear-gradient)"/>
  <g id="Mask_Group_152" data-name="Mask Group 152" opacity="0.666" clip-path="url(#clip-path)">
    <g id="Mask_Group_132" data-name="Mask Group 132" transform="translate(10)" clip-path="url(#clip-path-2)">
      <g id="Group_108542" data-name="Group 108542" transform="matrix(0.921, 0.391, -0.391, 0.921, -4435.923, -2166.721)">
        <g id="Group_108403" data-name="Group 108403" transform="translate(4939.115 303.775)">
          <g id="Group_108402" data-name="Group 108402" clip-path="url(#clip-path-3)">
            <path id="Path_71864" data-name="Path 71864" d="M1155.663,223.392l105.112,40.127-16.882,44.215,145.8,55.711a13.139,13.139,0,0,1,7.554,16.881l-10.05,26.229-2.233,5.848,5.778,2.2,26.209,10.014a13.055,13.055,0,0,1,7.558,16.886l-32.156,84.218-26.215-10.01a13.047,13.047,0,0,1-7.553-16.881l17.483-45.786L1207.824,388.8a13.112,13.112,0,0,1-7.578-16.931l10.029-26.16,136.254,52.021,2.233-5.848L1180.5,327.6a13.026,13.026,0,0,1-7.577-16.926l9.964-26.195,22.58,8.587,2.2-5.778-54.586-20.854a13.049,13.049,0,0,1-7.494-16.742Z" transform="translate(-634.688 289.881)" fill="none" stroke="#fff" stroke-width="7"/>
            <path id="Path_71865" data-name="Path 71865" d="M1241.482,273.639l-8.478,22.2-55.756-21.287,14.674-38.442,39.511,15.086A17.4,17.4,0,0,1,1241.482,273.639Z" transform="translate(-505.589 340.41)" fill="none" stroke="#fff" stroke-width="7"/>
            <rect id="Rectangle_40579" data-name="Rectangle 40579" width="41.14" height="54.014" transform="translate(616.201 593.783) rotate(-69.096)" fill="none" stroke="#fff" stroke-width="7"/>
            <path id="Path_71866" data-name="Path 71866" d="M1461.978,188.158,1421.85,293.27l-44.214-16.881-55.711,145.8a13.138,13.138,0,0,1-16.882,7.553l-26.23-10.049-5.847-2.233-2.2,5.778-10.014,26.21A13.056,13.056,0,0,1,1243.863,457l-84.218-32.157,10.009-26.215a13.048,13.048,0,0,1,16.882-7.553l45.786,17.483,64.244-168.242a13.112,13.112,0,0,1,16.932-7.578l26.159,10.029-52.022,136.254,5.848,2.233,64.288-168.267a13.027,13.027,0,0,1,16.927-7.578l26.195,9.965-8.588,22.58,5.778,2.2,20.854-54.587a13.049,13.049,0,0,1,16.742-7.493Z" transform="translate(-575.52 106.567)" fill="none" stroke="#fff" stroke-width="7"/>
            <path id="Path_71867" data-name="Path 71867" d="M1217.917,273.973l-22.2-8.473L1217,209.744l38.442,14.674-15.087,39.511A17.389,17.389,0,0,1,1217.917,273.973Z" transform="translate(-432.235 235.666)" fill="none" stroke="#fff" stroke-width="7"/>
            <rect id="Rectangle_40580" data-name="Rectangle 40580" width="54.014" height="41.14" transform="translate(786.676 440.41) rotate(-69.097)" fill="none" stroke="#fff" stroke-width="7"/>
            <path id="Path_71868" data-name="Path 71868" d="M1479.869,494.474l-105.112-40.127,16.881-44.215-145.8-55.711a13.139,13.139,0,0,1-7.553-16.881l10.049-26.23,2.233-5.848-5.778-2.2-26.21-10.014a13.055,13.055,0,0,1-7.558-16.886l32.157-84.218L1269.4,202.15a13.047,13.047,0,0,1,7.552,16.881l-17.483,45.786,168.242,64.244a13.111,13.111,0,0,1,7.577,16.931l-10.029,26.16L1289,320.131l-2.232,5.848,168.267,64.288a13.026,13.026,0,0,1,7.578,16.926l-9.964,26.195-22.58-8.587-2.2,5.778,54.586,20.854a13.049,13.049,0,0,1,7.494,16.742Z" transform="translate(-374.863 165.739)" fill="none" stroke="#fff" stroke-width="7"/>
            <path id="Path_71869" data-name="Path 71869" d="M1222.094,250.412l8.473-22.2,55.756,21.287-14.673,38.442-39.511-15.086A17.39,17.39,0,0,1,1222.094,250.412Z" transform="translate(-332.001 309.02)" fill="none" stroke="#fff" stroke-width="7"/>
            <rect id="Rectangle_40581" data-name="Rectangle 40581" width="41.139" height="54.014" transform="matrix(0.357, -0.934, 0.934, 0.357, 944.645, 598.86)" fill="none" stroke="#fff" stroke-width="7"/>
            <path id="Path_71870" data-name="Path 71870" d="M1190.9,512.365l40.127-105.112,44.215,16.881,55.711-145.8a13.138,13.138,0,0,1,16.881-7.553l26.23,10.049,5.847,2.233,2.2-5.778,10.014-26.21a13.055,13.055,0,0,1,16.886-7.558l84.218,32.157-10.009,26.215a13.047,13.047,0,0,1-16.881,7.553l-45.786-17.483L1356.308,460.2a13.112,13.112,0,0,1-16.932,7.578l-26.159-10.029L1365.238,321.5l-5.848-2.233L1295.1,487.533a13.027,13.027,0,0,1-16.927,7.578l-26.195-9.965,8.587-22.58-5.777-2.2-20.854,54.587a13.048,13.048,0,0,1-16.742,7.493Z" transform="translate(-451.378 366.396)" fill="none" stroke="#fff" stroke-width="7"/>
            <path id="Path_71871" data-name="Path 71871" d="M1241.143,254.59l22.2,8.473-21.287,55.756-38.442-14.674,15.086-39.511A17.389,17.389,0,0,1,1241.143,254.59Z" transform="translate(-400.845 409.258)" fill="none" stroke="#fff" stroke-width="7"/>
            <rect id="Rectangle_40582" data-name="Rectangle 40582" width="54.014" height="41.139" transform="matrix(0.357, -0.934, 0.934, 0.357, 781.599, 768.858)" fill="none" stroke="#fff" stroke-width="7"/>
            <path id="Path_71872" data-name="Path 71872" d="M1073.917,282.392l105.111,40.133-16.886,44.215,145.8,55.7a13.143,13.143,0,0,1,7.553,16.886l-10.049,26.23-2.238,5.848,5.784,2.208,26.2,10.009a13.049,13.049,0,0,1,7.553,16.882L1310.6,584.725l-26.22-10.009a13.045,13.045,0,0,1-7.548-16.877l17.478-45.791L1126.073,447.8a13.113,13.113,0,0,1-7.574-16.931l10.025-26.165,136.254,52.022,2.238-5.843L1098.744,386.6a13.02,13.02,0,0,1-7.573-16.926l9.964-26.195,22.58,8.587,2.2-5.778-54.592-20.854a13.044,13.044,0,0,1-7.489-16.742Z" transform="translate(-959.431 524.254)" fill="none" stroke="#fff" stroke-width="7"/>
            <path id="Path_71873" data-name="Path 71873" d="M1159.733,332.644l-8.478,22.2L1095.5,333.554l14.674-38.442,39.516,15.091A17.394,17.394,0,0,1,1159.733,332.644Z" transform="translate(-830.335 574.783)" fill="none" stroke="#fff" stroke-width="7"/>
            <rect id="Rectangle_40583" data-name="Rectangle 40583" width="41.141" height="54.014" transform="translate(209.708 887.159) rotate(-69.102)" fill="none" stroke="#fff" stroke-width="7"/>
            <path id="Path_71874" data-name="Path 71874" d="M1380.228,247.161,1340.1,352.273l-44.215-16.886-55.7,145.8a13.144,13.144,0,0,1-16.886,7.553l-26.23-10.049-5.847-2.238-2.208,5.783L1179,508.442A13.049,13.049,0,0,1,1162.117,516l-84.222-32.147,10.009-26.219a13.045,13.045,0,0,1,16.877-7.548l45.791,17.478,64.244-168.242a13.114,13.114,0,0,1,16.932-7.573l26.165,10.024-52.022,136.254,5.843,2.238,64.288-168.272a13.021,13.021,0,0,1,16.927-7.573l26.194,9.965-8.587,22.58,5.777,2.2,20.854-54.592a13.044,13.044,0,0,1,16.742-7.488Z" transform="translate(-900.265 340.942)" fill="none" stroke="#fff" stroke-width="7"/>
            <path id="Path_71875" data-name="Path 71875" d="M1136.162,332.973l-22.2-8.473,21.287-55.756,38.442,14.674L1158.6,322.933A17.388,17.388,0,0,1,1136.162,332.973Z" transform="translate(-756.98 470.038)" fill="none" stroke="#fff" stroke-width="7"/>
            <rect id="Rectangle_40584" data-name="Rectangle 40584" width="54.013" height="41.141" transform="translate(380.184 733.787) rotate(-69.103)" fill="none" stroke="#fff" stroke-width="7"/>
            <path id="Path_71876" data-name="Path 71876" d="M1398.113,553.474,1293,513.342l16.886-44.215-145.8-55.7a13.145,13.145,0,0,1-7.554-16.886l10.05-26.23,2.237-5.848-5.782-2.208-26.2-10.01a13.048,13.048,0,0,1-7.553-16.881l32.146-84.223,26.22,10.009a13.045,13.045,0,0,1,7.547,16.876l-17.478,45.791,168.242,64.244a13.114,13.114,0,0,1,7.573,16.931l-10.025,26.165-136.254-52.022-2.238,5.843,168.272,64.288a13.02,13.02,0,0,1,7.573,16.926l-9.964,26.195-22.579-8.587-2.2,5.778,54.592,20.854a13.044,13.044,0,0,1,7.489,16.742Z" transform="translate(-699.602 400.112)" fill="none" stroke="#fff" stroke-width="7"/>
            <path id="Path_71877" data-name="Path 71877" d="M1140.344,309.407l8.473-22.2,55.756,21.287L1189.9,346.939l-39.516-15.091A17.388,17.388,0,0,1,1140.344,309.407Z" transform="translate(-656.746 543.393)" fill="none" stroke="#fff" stroke-width="7"/>
            <rect id="Rectangle_40585" data-name="Rectangle 40585" width="41.141" height="54.013" transform="translate(538.15 892.238) rotate(-69.103)" fill="none" stroke="#fff" stroke-width="7"/>
            <path id="Path_71878" data-name="Path 71878" d="M1109.146,571.359l40.133-105.112,44.214,16.886,55.7-145.8a13.143,13.143,0,0,1,16.886-7.553l26.23,10.049,5.847,2.238,2.208-5.783,10.009-26.2a13.049,13.049,0,0,1,16.881-7.553l84.223,32.147-10.009,26.219a13.045,13.045,0,0,1-16.876,7.548L1338.8,350.961,1274.558,519.2a13.113,13.113,0,0,1-16.931,7.573l-26.165-10.024L1283.484,380.5l-5.843-2.238-64.289,168.272a13.02,13.02,0,0,1-16.927,7.573l-26.194-9.965,8.587-22.58-5.778-2.2-20.854,54.592a13.043,13.043,0,0,1-16.742,7.489Z" transform="translate(-776.123 600.775)" fill="none" stroke="#fff" stroke-width="7"/>
            <path id="Path_71879" data-name="Path 71879" d="M1159.4,313.59l22.2,8.473-21.287,55.756-38.442-14.674,15.091-39.516A17.388,17.388,0,0,1,1159.4,313.59Z" transform="translate(-725.59 643.631)" fill="none" stroke="#fff" stroke-width="7"/>
            <rect id="Rectangle_40586" data-name="Rectangle 40586" width="54.014" height="41.141" transform="translate(375.104 1062.232) rotate(-69.102)" fill="none" stroke="#fff" stroke-width="7"/>
            <path id="Path_71880" data-name="Path 71880" d="M992.163,223.392l105.112,40.127-16.881,44.215,145.8,55.706a13.144,13.144,0,0,1,7.554,16.886l-10.05,26.229-2.238,5.848,5.782,2.2,26.21,10.014A13.052,13.052,0,0,1,1261,441.507l-32.152,84.218-26.215-10.01a13.052,13.052,0,0,1-7.552-16.886l17.483-45.781L1044.319,388.8a13.113,13.113,0,0,1-7.573-16.931l10.024-26.165,136.26,52.021,2.232-5.848L1016.99,327.6a13.03,13.03,0,0,1-7.573-16.931l9.965-26.19,22.58,8.587,2.2-5.783-54.592-20.849a13.056,13.056,0,0,1-7.488-16.747Z" transform="translate(-1284.178 289.881)" fill="none" stroke="#fff" stroke-width="7"/>
            <path id="Path_71881" data-name="Path 71881" d="M1077.978,273.639l-8.473,22.2-55.756-21.292,14.678-38.437,39.511,15.081A17.394,17.394,0,0,1,1077.978,273.639Z" transform="translate(-1155.08 340.41)" fill="none" stroke="#fff" stroke-width="7"/>
            <rect id="Rectangle_40587" data-name="Rectangle 40587" width="41.139" height="54.014" transform="translate(-196.789 593.784) rotate(-69.102)" fill="none" stroke="#fff" stroke-width="7"/>
            <path id="Path_71882" data-name="Path 71882" d="M1298.478,188.158,1258.35,293.27l-44.214-16.881-55.706,145.8a13.143,13.143,0,0,1-16.886,7.553l-26.23-10.049-5.848-2.238-2.2,5.783-10.014,26.21A13.053,13.053,0,0,1,1080.362,457l-84.217-32.152,10.01-26.215a13.052,13.052,0,0,1,16.886-7.553l45.781,17.483,64.243-168.247A13.114,13.114,0,0,1,1150,232.741l26.165,10.024L1124.14,379.024l5.848,2.233,64.283-168.272a13.03,13.03,0,0,1,16.932-7.573l26.189,9.965-8.587,22.58,5.783,2.2,20.849-54.592a13.057,13.057,0,0,1,16.748-7.489Z" transform="translate(-1225.01 106.567)" fill="none" stroke="#fff" stroke-width="7"/>
            <path id="Path_71883" data-name="Path 71883" d="M1054.417,273.973l-22.2-8.473,21.292-55.756,38.437,14.679-15.082,39.511A17.394,17.394,0,0,1,1054.417,273.973Z" transform="translate(-1081.725 235.666)" fill="none" stroke="#fff" stroke-width="7"/>
            <rect id="Rectangle_40588" data-name="Rectangle 40588" width="54.014" height="41.139" transform="translate(-26.309 440.412) rotate(-69.103)" fill="none" stroke="#fff" stroke-width="7"/>
            <path id="Path_71884" data-name="Path 71884" d="M1316.367,494.474l-105.112-40.127,16.882-44.215-145.8-55.706a13.144,13.144,0,0,1-7.553-16.886l10.05-26.23,2.237-5.848-5.782-2.2-26.21-10.014a13.052,13.052,0,0,1-7.553-16.886l32.151-84.218,26.215,10.009a13.052,13.052,0,0,1,7.553,16.886l-17.483,45.781,168.247,64.244a13.114,13.114,0,0,1,7.573,16.931l-10.025,26.165L1125.5,320.136l-2.233,5.848,168.272,64.283a13.03,13.03,0,0,1,7.572,16.931l-9.964,26.19-22.58-8.587-2.2,5.783,54.592,20.849a13.056,13.056,0,0,1,7.489,16.747Z" transform="translate(-1024.351 165.739)" fill="none" stroke="#fff" stroke-width="7"/>
            <path id="Path_71885" data-name="Path 71885" d="M1058.594,250.412l8.473-22.2,55.756,21.292-14.679,38.437-39.511-15.081A17.4,17.4,0,0,1,1058.594,250.412Z" transform="translate(-981.492 309.02)" fill="none" stroke="#fff" stroke-width="7"/>
            <rect id="Rectangle_40589" data-name="Rectangle 40589" width="41.138" height="54.014" transform="translate(131.655 598.865) rotate(-69.103)" fill="none" stroke="#fff" stroke-width="7"/>
            <path id="Path_71886" data-name="Path 71886" d="M1027.4,512.363l40.127-105.112,44.216,16.881,55.706-145.8a13.143,13.143,0,0,1,16.886-7.553l26.23,10.049,5.847,2.238,2.2-5.783,10.015-26.21a13.053,13.053,0,0,1,16.886-7.553l84.218,32.152L1319.72,301.89a13.053,13.053,0,0,1-16.887,7.553l-45.781-17.483-64.244,168.247a13.113,13.113,0,0,1-16.931,7.573l-26.165-10.024L1201.734,321.5l-5.848-2.233L1131.6,487.536a13.03,13.03,0,0,1-16.931,7.573l-26.19-9.965,8.588-22.58-5.783-2.2-20.849,54.592a13.056,13.056,0,0,1-16.748,7.489Z" transform="translate(-1100.868 366.398)" fill="none" stroke="#fff" stroke-width="7"/>
            <path id="Path_71887" data-name="Path 71887" d="M1077.643,254.59l22.2,8.473-21.292,55.756-38.437-14.679L1055.2,264.63A17.393,17.393,0,0,1,1077.643,254.59Z" transform="translate(-1050.335 409.258)" fill="none" stroke="#fff" stroke-width="7"/>
            <rect id="Rectangle_40590" data-name="Rectangle 40590" width="54.014" height="41.139" transform="translate(-31.391 768.86) rotate(-69.102)" fill="none" stroke="#fff" stroke-width="7"/>
            <path id="Path_71888" data-name="Path 71888" d="M1155.666,105.392l105.107,40.127-16.882,44.215,145.8,55.706a13.147,13.147,0,0,1,7.554,16.886l-10.05,26.229-2.227,5.848,5.772,2.2,26.209,10.014A13.051,13.051,0,0,1,1424.5,323.5l-32.156,84.223-26.21-10.009a13.049,13.049,0,0,1-7.553-16.881l17.478-45.786L1207.827,270.8a13.113,13.113,0,0,1-7.578-16.931l10.024-26.165,136.254,52.026,2.233-5.848L1180.5,209.6a13.028,13.028,0,0,1-7.578-16.926l9.959-26.2,22.58,8.592,2.208-5.783-54.587-20.849a13.043,13.043,0,0,1-7.494-16.742Z" transform="translate(-634.686 -178.864)" fill="none" stroke="#fff" stroke-width="7"/>
            <path id="Path_71889" data-name="Path 71889" d="M1241.478,155.639l-8.473,22.2-55.756-21.292,14.674-38.437,39.511,15.086A17.382,17.382,0,0,1,1241.478,155.639Z" transform="translate(-505.589 -128.335)" fill="none" stroke="#fff" stroke-width="7"/>
            <rect id="Rectangle_40591" data-name="Rectangle 40591" width="41.139" height="54.014" transform="translate(616.201 7.038) rotate(-69.102)" fill="none" stroke="#fff" stroke-width="7"/>
            <path id="Path_71890" data-name="Path 71890" d="M1461.978,70.161,1421.85,175.268l-44.214-16.881-55.707,145.8a13.145,13.145,0,0,1-16.886,7.553l-26.23-10.049-5.847-2.228-2.2,5.773-10.014,26.21A13.052,13.052,0,0,1,1243.868,339l-84.223-32.157,10.009-26.21a13.049,13.049,0,0,1,16.882-7.553l45.786,17.478,64.244-168.237a13.114,13.114,0,0,1,16.932-7.578l26.165,10.024-52.027,136.254,5.848,2.233,64.288-168.262a13.029,13.029,0,0,1,16.927-7.578l26.2,9.96-8.592,22.58,5.783,2.208,20.849-54.587a13.042,13.042,0,0,1,16.742-7.493Z" transform="translate(-575.52 -362.176)" fill="none" stroke="#fff" stroke-width="7"/>
            <path id="Path_71891" data-name="Path 71891" d="M1217.917,155.973l-22.2-8.473,21.292-55.756,38.438,14.674-15.087,39.511A17.381,17.381,0,0,1,1217.917,155.973Z" transform="translate(-432.235 -233.08)" fill="none" stroke="#fff" stroke-width="7"/>
            <rect id="Rectangle_40592" data-name="Rectangle 40592" width="54.014" height="41.139" transform="translate(786.681 -146.333) rotate(-69.103)" fill="none" stroke="#fff" stroke-width="7"/>
            <path id="Path_71892" data-name="Path 71892" d="M1479.864,376.474l-105.107-40.127,16.881-44.215-145.8-55.706a13.146,13.146,0,0,1-7.553-16.886l10.049-26.23,2.228-5.848-5.773-2.2-26.21-10.014a13.051,13.051,0,0,1-7.558-16.881l32.157-84.223,26.209,10.009a13.048,13.048,0,0,1,7.553,16.881l-17.478,45.786L1427.7,211.062a13.114,13.114,0,0,1,7.579,16.931l-10.025,26.165L1289,202.131l-2.232,5.848,168.262,64.288a13.028,13.028,0,0,1,7.577,16.926l-9.959,26.2-22.58-8.592-2.208,5.783,54.588,20.849a13.043,13.043,0,0,1,7.494,16.742Z" transform="translate(-374.863 -303.006)" fill="none" stroke="#fff" stroke-width="7"/>
            <path id="Path_71893" data-name="Path 71893" d="M1222.1,132.412l8.473-22.2,55.756,21.292-14.673,38.437-39.511-15.086A17.381,17.381,0,0,1,1222.1,132.412Z" transform="translate(-332.003 -159.725)" fill="none" stroke="#fff" stroke-width="7"/>
            <rect id="Rectangle_40593" data-name="Rectangle 40593" width="41.138" height="54.014" transform="translate(944.645 12.12) rotate(-69.103)" fill="none" stroke="#fff" stroke-width="7"/>
            <path id="Path_71894" data-name="Path 71894" d="M1190.9,394.36l40.127-105.107,44.215,16.881,55.706-145.8a13.146,13.146,0,0,1,16.886-7.553l26.23,10.049,5.847,2.228,2.2-5.773,10.014-26.21a13.052,13.052,0,0,1,16.882-7.558l84.222,32.157-10.009,26.21a13.049,13.049,0,0,1-16.881,7.553l-45.786-17.478L1356.308,342.2a13.114,13.114,0,0,1-16.932,7.578l-26.165-10.024L1365.238,203.5l-5.848-2.233L1295.1,369.528a13.029,13.029,0,0,1-16.927,7.578l-26.2-9.96,8.591-22.58-5.782-2.208-20.849,54.587a13.042,13.042,0,0,1-16.742,7.494Z" transform="translate(-451.378 -102.35)" fill="none" stroke="#fff" stroke-width="7"/>
            <path id="Path_71895" data-name="Path 71895" d="M1241.143,136.592l22.2,8.473-21.292,55.756-38.437-14.674,15.086-39.511A17.381,17.381,0,0,1,1241.143,136.592Z" transform="translate(-400.845 -59.489)" fill="none" stroke="#fff" stroke-width="7"/>
            <rect id="Rectangle_40594" data-name="Rectangle 40594" width="54.014" height="41.139" transform="translate(781.599 182.115) rotate(-69.102)" fill="none" stroke="#fff" stroke-width="7"/>
            <path id="Path_71896" data-name="Path 71896" d="M1073.913,164.391l105.112,40.132-16.886,44.215,145.8,55.7a13.151,13.151,0,0,1,7.554,16.891l-10.05,26.229-2.238,5.848,5.782,2.2,26.21,10.014a13.048,13.048,0,0,1,7.553,16.881L1310.6,466.729l-26.22-10.009a13.048,13.048,0,0,1-7.547-16.881l17.478-45.786-168.242-64.244a13.113,13.113,0,0,1-7.572-16.931l10.024-26.165,136.259,52.021,2.233-5.848L1098.746,268.6a13.012,13.012,0,0,1-7.573-16.926l9.959-26.195,22.58,8.587,2.208-5.783-54.6-20.849a13.058,13.058,0,0,1-7.489-16.747Z" transform="translate(-959.433 55.504)" fill="none" stroke="#fff" stroke-width="7"/>
            <path id="Path_71897" data-name="Path 71897" d="M1159.724,214.639l-8.473,22.2L1095.5,215.549l14.668-38.437,39.516,15.086A17.39,17.39,0,0,1,1159.724,214.639Z" transform="translate(-830.331 106.038)" fill="none" stroke="#fff" stroke-width="7"/>
            <rect id="Rectangle_40595" data-name="Rectangle 40595" width="41.139" height="54.014" transform="translate(209.706 300.411) rotate(-69.102)" fill="none" stroke="#fff" stroke-width="7"/>
            <path id="Path_71898" data-name="Path 71898" d="M1380.232,129.158,1340.1,234.27l-44.214-16.886-55.7,145.8a13.15,13.15,0,0,1-16.891,7.553l-26.23-10.049-5.847-2.238-2.2,5.783L1179,390.444A13.049,13.049,0,0,1,1162.117,398l-84.222-32.152,10.009-26.22a13.049,13.049,0,0,1,16.881-7.548l45.786,17.478,64.244-168.242a13.114,13.114,0,0,1,16.932-7.573l26.165,10.024-52.022,136.259,5.848,2.233,64.283-168.267a13.013,13.013,0,0,1,16.927-7.573l26.194,9.96-8.587,22.58,5.782,2.208,20.849-54.6a13.058,13.058,0,0,1,16.748-7.488Z" transform="translate(-900.265 -127.806)" fill="none" stroke="#fff" stroke-width="7"/>
            <path id="Path_71899" data-name="Path 71899" d="M1136.167,214.969l-22.2-8.473,21.292-55.751,38.437,14.669-15.086,39.516A17.39,17.39,0,0,1,1136.167,214.969Z" transform="translate(-756.98 1.297)" fill="none" stroke="#fff" stroke-width="7"/>
            <rect id="Rectangle_40596" data-name="Rectangle 40596" width="54.014" height="41.139" transform="translate(380.186 147.039) rotate(-69.103)" fill="none" stroke="#fff" stroke-width="7"/>
            <path id="Path_71900" data-name="Path 71900" d="M1398.117,435.474,1293,395.346l16.886-44.215-145.8-55.7a13.154,13.154,0,0,1-7.554-16.891l10.05-26.23,2.237-5.848-5.782-2.2-26.21-10.014a13.052,13.052,0,0,1-7.553-16.886l32.152-84.218,26.22,10.01a13.048,13.048,0,0,1,7.547,16.881l-17.478,45.786,168.242,64.244a13.113,13.113,0,0,1,7.573,16.931l-10.024,26.165-136.259-52.021-2.233,5.843,168.267,64.288a13.012,13.012,0,0,1,7.572,16.926l-9.959,26.195-22.579-8.587-2.208,5.783,54.6,20.844a13.066,13.066,0,0,1,7.489,16.752Z" transform="translate(-699.606 -68.634)" fill="none" stroke="#fff" stroke-width="7"/>
            <path id="Path_71901" data-name="Path 71901" d="M1140.344,191.412l8.473-22.2,55.75,21.292L1189.9,228.939l-39.516-15.086A17.39,17.39,0,0,1,1140.344,191.412Z" transform="translate(-656.746 74.648)" fill="none" stroke="#fff" stroke-width="7"/>
            <rect id="Rectangle_40597" data-name="Rectangle 40597" width="41.138" height="54.014" transform="translate(538.15 305.492) rotate(-69.103)" fill="none" stroke="#fff" stroke-width="7"/>
            <path id="Path_71902" data-name="Path 71902" d="M1109.146,453.363l40.127-105.112,44.215,16.886,55.7-145.8a13.151,13.151,0,0,1,16.891-7.553l26.23,10.049,5.847,2.238,2.2-5.783,10.015-26.21a13.049,13.049,0,0,1,16.881-7.553l84.223,32.152L1401.47,242.9a13.049,13.049,0,0,1-16.882,7.548L1338.8,232.965l-64.244,168.242a13.113,13.113,0,0,1-16.931,7.573l-26.165-10.024L1283.484,262.5l-5.848-2.233-64.283,168.267a13.012,13.012,0,0,1-16.927,7.573l-26.194-9.96,8.587-22.58-5.783-2.208-20.849,54.6a13.058,13.058,0,0,1-16.748,7.489Z" transform="translate(-776.123 132.025)" fill="none" stroke="#fff" stroke-width="7"/>
            <path id="Path_71903" data-name="Path 71903" d="M1159.393,195.59l22.2,8.473L1160.3,259.813l-38.437-14.669,15.086-39.516A17.389,17.389,0,0,1,1159.393,195.59Z" transform="translate(-725.59 174.885)" fill="none" stroke="#fff" stroke-width="7"/>
            <rect id="Rectangle_40598" data-name="Rectangle 40598" width="54.014" height="41.139" transform="translate(375.104 475.488) rotate(-69.102)" fill="none" stroke="#fff" stroke-width="7"/>
            <path id="Path_71904" data-name="Path 71904" d="M992.166,105.391l105.107,40.132-16.881,44.215,145.8,55.7a13.151,13.151,0,0,1,7.554,16.891l-10.049,26.229-2.233,5.848,5.778,2.2,26.21,10.014A13.049,13.049,0,0,1,1261,323.506l-32.152,84.223-26.209-10.009a13.054,13.054,0,0,1-7.554-16.886l17.479-45.781-168.242-64.244a13.117,13.117,0,0,1-7.573-16.931l10.019-26.17,136.26,52.026,2.232-5.848L1016.994,209.6a13.031,13.031,0,0,1-7.573-16.931l9.96-26.195,22.58,8.587,2.208-5.783-54.592-20.844a13.051,13.051,0,0,1-7.488-16.747Z" transform="translate(-1284.176 -178.868)" fill="none" stroke="#fff" stroke-width="7"/>
            <path id="Path_71905" data-name="Path 71905" d="M1077.974,155.639l-8.473,22.2-55.751-21.3,14.674-38.432,39.511,15.081A17.384,17.384,0,0,1,1077.974,155.639Z" transform="translate(-1155.076 -128.335)" fill="none" stroke="#fff" stroke-width="7"/>
            <rect id="Rectangle_40599" data-name="Rectangle 40599" width="41.14" height="54.016" transform="translate(-196.787 7.043) rotate(-69.112)" fill="none" stroke="#fff" stroke-width="7"/>
            <path id="Path_71906" data-name="Path 71906" d="M1298.483,70.161,1258.35,175.268l-44.214-16.881-55.7,145.8a13.15,13.15,0,0,1-16.891,7.553l-26.23-10.049-5.848-2.233-2.2,5.778-10.014,26.21A13.049,13.049,0,0,1,1080.367,339l-84.222-32.152,10.01-26.21a13.054,13.054,0,0,1,16.886-7.553l45.781,17.478,64.243-168.242A13.118,13.118,0,0,1,1150,114.744l26.17,10.019L1124.14,261.023l5.848,2.233L1194.27,94.989a13.032,13.032,0,0,1,16.932-7.573l26.195,9.96-8.587,22.58,5.783,2.208,20.844-54.592a13.052,13.052,0,0,1,16.748-7.488Z" transform="translate(-1225.01 -362.176)" fill="none" stroke="#fff" stroke-width="7"/>
            <path id="Path_71907" data-name="Path 71907" d="M1054.417,155.969l-22.2-8.473,21.3-55.751,38.432,14.674-15.082,39.511A17.384,17.384,0,0,1,1054.417,155.969Z" transform="translate(-1081.725 -233.076)" fill="none" stroke="#fff" stroke-width="7"/>
            <rect id="Rectangle_40600" data-name="Rectangle 40600" width="54.016" height="41.14" transform="matrix(0.357, -0.934, 0.934, 0.357, -26.307, -146.327)" fill="none" stroke="#fff" stroke-width="7"/>
            <path id="Path_71908" data-name="Path 71908" d="M1316.363,376.474l-105.107-40.127,16.881-44.215-145.8-55.7a13.153,13.153,0,0,1-7.552-16.891l10.049-26.23,2.233-5.848-5.778-2.2-26.21-10.014a13.052,13.052,0,0,1-7.553-16.886l32.152-84.218,26.21,10.009a13.054,13.054,0,0,1,7.552,16.886l-17.478,45.781,168.242,64.244a13.117,13.117,0,0,1,7.573,16.931l-10.02,26.165L1125.5,202.136l-2.232,5.843,168.267,64.288a13.03,13.03,0,0,1,7.572,16.931l-9.959,26.195-22.579-8.587-2.208,5.778,54.592,20.844a13.059,13.059,0,0,1,7.489,16.752Z" transform="translate(-1024.347 -303.006)" fill="none" stroke="#fff" stroke-width="7"/>
            <path id="Path_71909" data-name="Path 71909" d="M1058.6,132.412l8.474-22.2,55.75,21.3-14.673,38.432-39.511-15.081A17.384,17.384,0,0,1,1058.6,132.412Z" transform="translate(-981.49 -159.725)" fill="none" stroke="#fff" stroke-width="7"/>
            <rect id="Rectangle_40601" data-name="Rectangle 40601" width="41.14" height="54.016" transform="translate(131.659 12.127) rotate(-69.112)" fill="none" stroke="#fff" stroke-width="7"/>
            <path id="Path_71910" data-name="Path 71910" d="M1027.4,394.358l40.127-105.107,44.216,16.881,55.7-145.8a13.151,13.151,0,0,1,16.891-7.553l26.23,10.049,5.847,2.233,2.2-5.778,10.015-26.21a13.049,13.049,0,0,1,16.881-7.553l84.223,32.152-10.009,26.21a13.055,13.055,0,0,1-16.887,7.553l-45.781-17.478L1192.808,342.2a13.117,13.117,0,0,1-16.931,7.573l-26.165-10.019L1201.734,203.5l-5.848-2.233L1131.6,369.531a13.03,13.03,0,0,1-16.931,7.573l-26.195-9.96,8.587-22.58-5.778-2.208-20.849,54.592a13.051,13.051,0,0,1-16.748,7.489Z" transform="translate(-1100.868 -102.347)" fill="none" stroke="#fff" stroke-width="7"/>
            <path id="Path_71911" data-name="Path 71911" d="M1077.643,136.592l22.2,8.473-21.3,55.751-38.432-14.673,15.082-39.511A17.383,17.383,0,0,1,1077.643,136.592Z" transform="translate(-1050.335 -59.49)" fill="none" stroke="#fff" stroke-width="7"/>
            <rect id="Rectangle_40602" data-name="Rectangle 40602" width="54.016" height="41.14" transform="translate(-31.391 182.119) rotate(-69.111)" fill="none" stroke="#fff" stroke-width="7"/>
            <path id="Path_71912" data-name="Path 71912" d="M1073.917,46.391l105.107,40.132-16.886,44.215,145.8,55.7a13.149,13.149,0,0,1,7.554,16.891l-10.049,26.229-2.233,5.848,5.778,2.2,26.21,10.014a13.045,13.045,0,0,1,7.553,16.876L1310.6,348.724l-26.22-10a13.054,13.054,0,0,1-7.548-16.886l17.478-45.786-168.241-64.239a13.115,13.115,0,0,1-7.574-16.931l10.025-26.17,136.254,52.026,2.238-5.848L1098.744,150.6a13.025,13.025,0,0,1-7.573-16.931l9.964-26.195,22.58,8.592,2.2-5.783-54.592-20.849a13.053,13.053,0,0,1-7.489-16.752Z" transform="translate(-959.431 -413.241)" fill="none" stroke="#fff" stroke-width="7"/>
            <path id="Path_71913" data-name="Path 71913" d="M1159.729,96.639l-8.478,22.2L1095.5,97.549l14.674-38.437L1149.689,74.2A17.389,17.389,0,0,1,1159.729,96.639Z" transform="translate(-830.331 -362.708)" fill="none" stroke="#fff" stroke-width="7"/>
            <rect id="Rectangle_40603" data-name="Rectangle 40603" width="41.14" height="54.016" transform="translate(209.709 -286.334) rotate(-69.105)" fill="none" stroke="#fff" stroke-width="7"/>
            <path id="Path_71914" data-name="Path 71914" d="M1380.229,11.161,1340.1,116.268l-44.214-16.886-55.7,145.8a13.149,13.149,0,0,1-16.891,7.553l-26.23-10.049-5.847-2.233-2.2,5.778L1179,272.442A13.046,13.046,0,0,1,1162.119,280L1077.9,247.848l10-26.22a13.054,13.054,0,0,1,16.886-7.548l45.786,17.478,64.239-168.242a13.116,13.116,0,0,1,16.932-7.573l26.17,10.024-52.027,136.254,5.848,2.238,64.283-168.272a13.026,13.026,0,0,1,16.932-7.573l26.194,9.965-8.592,22.58,5.783,2.2,20.849-54.592a13.054,13.054,0,0,1,16.753-7.488Z" transform="translate(-900.261 -596.549)" fill="none" stroke="#fff" stroke-width="7"/>
            <path id="Path_71915" data-name="Path 71915" d="M1136.163,96.974l-22.2-8.478,21.287-55.751,38.437,14.674L1158.6,86.934A17.39,17.39,0,0,1,1136.163,96.974Z" transform="translate(-756.976 -467.449)" fill="none" stroke="#fff" stroke-width="7"/>
            <rect id="Rectangle_40604" data-name="Rectangle 40604" width="54.016" height="41.14" transform="translate(380.187 -439.7) rotate(-69.106)" fill="none" stroke="#fff" stroke-width="7"/>
            <path id="Path_71916" data-name="Path 71916" d="M1398.113,317.47l-105.107-40.127,16.886-44.215-145.8-55.7a13.151,13.151,0,0,1-7.552-16.891l10.049-26.23,2.233-5.848-5.778-2.2-26.21-10.014a13.045,13.045,0,0,1-7.553-16.876l32.146-84.223,26.22,10a13.054,13.054,0,0,1,7.547,16.886l-17.478,45.786,168.242,64.239a13.115,13.115,0,0,1,7.573,16.931l-10.025,26.165-136.254-52.021-2.238,5.843,168.272,64.288a13.025,13.025,0,0,1,7.573,16.931l-9.964,26.195-22.579-8.592-2.2,5.783,54.592,20.844a13.06,13.06,0,0,1,7.489,16.757Z" transform="translate(-699.602 -537.375)" fill="none" stroke="#fff" stroke-width="7"/>
            <path id="Path_71917" data-name="Path 71917" d="M1140.344,73.408l8.478-22.2,55.75,21.287L1189.9,110.935l-39.516-15.086A17.39,17.39,0,0,1,1140.344,73.408Z" transform="translate(-656.746 -394.094)" fill="none" stroke="#fff" stroke-width="7"/>
            <rect id="Rectangle_40605" data-name="Rectangle 40605" width="41.14" height="54.016" transform="translate(538.151 -281.25) rotate(-69.106)" fill="none" stroke="#fff" stroke-width="7"/>
            <path id="Path_71918" data-name="Path 71918" d="M1109.146,335.358l40.127-105.107,44.215,16.886,55.7-145.8a13.149,13.149,0,0,1,16.891-7.553l26.23,10.049,5.847,2.233,2.2-5.778,10.015-26.21a13.045,13.045,0,0,1,16.876-7.553l84.223,32.147-10,26.22a13.054,13.054,0,0,1-16.887,7.548L1338.8,114.96,1274.558,283.2a13.116,13.116,0,0,1-16.931,7.573l-26.165-10.024L1283.484,144.5l-5.848-2.238-64.283,168.272a13.025,13.025,0,0,1-16.931,7.573l-26.195-9.965,8.592-22.58-5.783-2.2-20.849,54.592a13.053,13.053,0,0,1-16.752,7.488Z" transform="translate(-776.123 -336.72)" fill="none" stroke="#fff" stroke-width="7"/>
            <path id="Path_71919" data-name="Path 71919" d="M1159.393,77.589l22.2,8.478L1160.3,141.818l-38.437-14.674,15.086-39.516A17.389,17.389,0,0,1,1159.393,77.589Z" transform="translate(-725.59 -293.864)" fill="none" stroke="#fff" stroke-width="7"/>
            <rect id="Rectangle_40606" data-name="Rectangle 40606" width="54.016" height="41.14" transform="translate(375.103 -111.26) rotate(-69.105)" fill="none" stroke="#fff" stroke-width="7"/>
          </g>
        </g>
        <g id="Group_108405" data-name="Group 108405" transform="translate(4939.115 890.516)">
          <g id="Group_108404" data-name="Group 108404" transform="translate(0 0)" clip-path="url(#clip-path-4)">
            <path id="Path_71920" data-name="Path 71920" d="M1155.666,341.392l105.112,40.132-16.886,44.215,145.8,55.706a13.141,13.141,0,0,1,7.554,16.881l-10.05,26.234-2.227,5.842,5.772,2.208,26.209,10.01a13.057,13.057,0,0,1,7.558,16.886l-32.152,84.223-26.214-10.014a13.041,13.041,0,0,1-7.553-16.876l17.483-45.791L1207.827,506.8a13.111,13.111,0,0,1-7.578-16.931l10.029-26.16,136.249,52.026,2.238-5.848L1180.5,445.6a13.034,13.034,0,0,1-7.578-16.931l9.965-26.195,22.58,8.587,2.2-5.778-54.587-20.854a13.041,13.041,0,0,1-7.494-16.742Z" transform="translate(-634.686 171.886)" fill="none" stroke="#fff" stroke-width="7"/>
            <path id="Path_71921" data-name="Path 71921" d="M1241.478,391.644l-8.478,22.2-55.751-21.287,14.674-38.442,39.51,15.091A17.386,17.386,0,0,1,1241.478,391.644Z" transform="translate(-505.585 222.415)" fill="none" stroke="#fff" stroke-width="7"/>
            <rect id="Rectangle_40608" data-name="Rectangle 40608" width="41.141" height="54.015" transform="translate(616.202 593.789) rotate(-69.096)" fill="none" stroke="#fff" stroke-width="7"/>
            <path id="Path_71922" data-name="Path 71922" d="M1461.983,306.161,1421.85,411.273l-44.214-16.886-55.707,145.8a13.139,13.139,0,0,1-16.881,7.553l-26.235-10.049-5.842-2.228-2.208,5.773-10.009,26.21A13.057,13.057,0,0,1,1243.868,575l-84.223-32.152,10.015-26.214a13.041,13.041,0,0,1,16.876-7.553l45.791,17.483,64.244-168.242a13.111,13.111,0,0,1,16.931-7.578l26.16,10.029-52.027,136.249,5.848,2.237,64.288-168.267a13.034,13.034,0,0,1,16.931-7.578l26.195,9.965-8.587,22.58,5.778,2.2,20.854-54.587a13.04,13.04,0,0,1,16.742-7.493Z" transform="translate(-575.52 -11.426)" fill="none" stroke="#fff" stroke-width="7"/>
            <path id="Path_71923" data-name="Path 71923" d="M1217.913,391.974l-22.2-8.478L1217,327.745l38.442,14.674-15.092,39.511A17.385,17.385,0,0,1,1217.913,391.974Z" transform="translate(-432.231 117.674)" fill="none" stroke="#fff" stroke-width="7"/>
            <rect id="Rectangle_40609" data-name="Rectangle 40609" width="54.015" height="41.141" transform="translate(786.679 440.416) rotate(-69.097)" fill="none" stroke="#fff" stroke-width="7"/>
            <path id="Path_71924" data-name="Path 71924" d="M1479.865,612.474l-105.112-40.127,16.886-44.215-145.8-55.706a13.14,13.14,0,0,1-7.553-16.881l10.05-26.234,2.227-5.843-5.773-2.208-26.209-10.015a13.053,13.053,0,0,1-7.558-16.886l32.152-84.218,26.215,10.014a13.042,13.042,0,0,1,7.552,16.876l-17.483,45.791L1427.7,447.062A13.119,13.119,0,0,1,1435.282,464l-10.029,26.16L1289,438.126l-2.238,5.852,168.267,64.288a13.034,13.034,0,0,1,7.578,16.931l-9.964,26.195-22.58-8.587-2.2,5.778,54.586,20.854a13.041,13.041,0,0,1,7.494,16.742Z" transform="translate(-374.86 47.744)" fill="none" stroke="#fff" stroke-width="7"/>
            <path id="Path_71925" data-name="Path 71925" d="M1222.094,368.408l8.478-22.2,55.75,21.287-14.673,38.442-39.511-15.091A17.386,17.386,0,0,1,1222.094,368.408Z" transform="translate(-332.001 191.029)" fill="none" stroke="#fff" stroke-width="7"/>
            <rect id="Rectangle_40610" data-name="Rectangle 40610" width="41.141" height="54.015" transform="matrix(0.357, -0.934, 0.934, 0.357, 944.646, 598.869)" fill="none" stroke="#fff" stroke-width="7"/>
            <path id="Path_71926" data-name="Path 71926" d="M1190.9,630.359l40.132-105.112,44.215,16.886,55.706-145.8a13.14,13.14,0,0,1,16.881-7.553l26.235,10.049,5.842,2.228,2.208-5.773,10.009-26.21a13.057,13.057,0,0,1,16.886-7.558l84.223,32.152-10.014,26.215a13.042,13.042,0,0,1-16.877,7.553l-45.791-17.483L1356.308,578.2a13.113,13.113,0,0,1-16.932,7.578l-26.159-10.029L1365.243,439.5l-5.848-2.238-64.288,168.267a13.034,13.034,0,0,1-16.931,7.578l-26.195-9.965,8.587-22.58-5.777-2.2-20.854,54.587a13.04,13.04,0,0,1-16.742,7.494Z" transform="translate(-451.378 248.397)" fill="none" stroke="#fff" stroke-width="7"/>
            <path id="Path_71927" data-name="Path 71927" d="M1241.149,372.588l22.2,8.478-21.287,55.751-38.442-14.674,15.091-39.511A17.386,17.386,0,0,1,1241.149,372.588Z" transform="translate(-400.845 291.255)" fill="none" stroke="#fff" stroke-width="7"/>
            <rect id="Rectangle_40611" data-name="Rectangle 40611" width="54.015" height="41.141" transform="matrix(0.357, -0.934, 0.934, 0.357, 781.6, 768.855)" fill="none" stroke="#fff" stroke-width="7"/>
            <path id="Path_71928" data-name="Path 71928" d="M1073.917,400.392l105.107,40.132-16.886,44.215,145.8,55.706a13.138,13.138,0,0,1,7.554,16.881l-10.049,26.234-2.233,5.843,5.778,2.208,26.21,10.009a13.052,13.052,0,0,1,7.553,16.886L1310.6,702.73l-26.215-10.014a13.043,13.043,0,0,1-7.548-16.877l17.473-45.791L1126.073,565.8a13.112,13.112,0,0,1-7.574-16.931l10.025-26.16,136.254,52.021,2.238-5.848L1098.744,504.6a13.025,13.025,0,0,1-7.573-16.931l9.964-26.195,22.575,8.587,2.208-5.778-54.592-20.854a13.044,13.044,0,0,1-7.489-16.742Z" transform="translate(-959.431 406.259)" fill="none" stroke="#fff" stroke-width="7"/>
            <path id="Path_71929" data-name="Path 71929" d="M1159.729,450.644l-8.478,22.2L1095.5,451.554l14.674-38.442,39.516,15.091A17.387,17.387,0,0,1,1159.729,450.644Z" transform="translate(-830.331 456.788)" fill="none" stroke="#fff" stroke-width="7"/>
            <rect id="Rectangle_40612" data-name="Rectangle 40612" width="41.139" height="54.015" transform="translate(209.709 887.168) rotate(-69.109)" fill="none" stroke="#fff" stroke-width="7"/>
            <path id="Path_71930" data-name="Path 71930" d="M1380.232,365.161,1340.1,470.268l-44.214-16.886-55.706,145.8a13.138,13.138,0,0,1-16.882,7.553l-26.234-10.049-5.843-2.233-2.208,5.778L1179,626.442A13.053,13.053,0,0,1,1162.117,634l-84.222-32.152,10.014-26.215a13.043,13.043,0,0,1,16.876-7.548l45.791,17.473,64.244-168.237a13.112,13.112,0,0,1,16.931-7.573l26.16,10.024-52.022,136.254,5.848,2.238,64.283-168.272a13.026,13.026,0,0,1,16.932-7.573l26.194,9.965-8.587,22.575,5.778,2.208,20.854-54.592a13.044,13.044,0,0,1,16.743-7.489Z" transform="translate(-900.265 222.947)" fill="none" stroke="#fff" stroke-width="7"/>
            <path id="Path_71931" data-name="Path 71931" d="M1136.163,450.974l-22.2-8.478,21.287-55.751,38.442,14.674L1158.6,440.934A17.388,17.388,0,0,1,1136.163,450.974Z" transform="translate(-756.976 352.047)" fill="none" stroke="#fff" stroke-width="7"/>
            <rect id="Rectangle_40613" data-name="Rectangle 40613" width="54.015" height="41.139" transform="translate(380.189 733.796) rotate(-69.109)" fill="none" stroke="#fff" stroke-width="7"/>
            <path id="Path_71932" data-name="Path 71932" d="M1398.113,671.473,1293.006,631.34l16.886-44.215-145.8-55.706a13.138,13.138,0,0,1-7.552-16.881l10.049-26.234,2.233-5.838-5.778-2.213-26.21-10a13.056,13.056,0,0,1-7.553-16.886l32.152-84.223,26.215,10.01a13.044,13.044,0,0,1,7.547,16.876l-17.472,45.791,168.237,64.244a13.111,13.111,0,0,1,7.573,16.931l-10.025,26.16L1207.251,497.13l-2.238,5.853,168.272,64.278a13.025,13.025,0,0,1,7.573,16.931l-9.964,26.195-22.575-8.587-2.208,5.778,54.592,20.854a13.047,13.047,0,0,1,7.489,16.747Z" transform="translate(-699.602 282.113)" fill="none" stroke="#fff" stroke-width="7"/>
            <path id="Path_71933" data-name="Path 71933" d="M1140.344,427.407l8.478-22.2,55.75,21.287L1189.9,464.939l-39.516-15.091A17.388,17.388,0,0,1,1140.344,427.407Z" transform="translate(-656.746 425.398)" fill="none" stroke="#fff" stroke-width="7"/>
            <rect id="Rectangle_40614" data-name="Rectangle 40614" width="41.139" height="54.015" transform="translate(538.153 892.243) rotate(-69.109)" fill="none" stroke="#fff" stroke-width="7"/>
            <path id="Path_71934" data-name="Path 71934" d="M1109.146,689.357l40.133-105.107,44.214,16.886,55.706-145.8a13.139,13.139,0,0,1,16.882-7.553l26.234,10.049,5.843,2.233,2.208-5.778,10.009-26.21a13.053,13.053,0,0,1,16.886-7.553l84.222,32.152-10.014,26.215a13.044,13.044,0,0,1-16.876,7.548L1338.8,468.964,1274.558,637.2a13.112,13.112,0,0,1-16.931,7.573l-26.16-10.024L1283.489,498.5l-5.848-2.238-64.283,168.271a13.027,13.027,0,0,1-16.932,7.573l-26.194-9.965,8.587-22.575-5.778-2.208-20.854,54.592a13.044,13.044,0,0,1-16.742,7.489Z" transform="translate(-776.123 482.772)" fill="none" stroke="#fff" stroke-width="7"/>
            <path id="Path_71935" data-name="Path 71935" d="M1159.4,431.588l22.2,8.478-21.287,55.751-38.442-14.674,15.091-39.516A17.387,17.387,0,0,1,1159.4,431.588Z" transform="translate(-725.59 525.628)" fill="none" stroke="#fff" stroke-width="7"/>
            <rect id="Rectangle_40615" data-name="Rectangle 40615" width="54.015" height="41.139" transform="translate(375.109 1062.234) rotate(-69.109)" fill="none" stroke="#fff" stroke-width="7"/>
            <path id="Path_71936" data-name="Path 71936" d="M992.166,341.392l105.112,40.127-16.886,44.22,145.8,55.7a13.146,13.146,0,0,1,7.554,16.886l-10.049,26.229-2.233,5.848,5.778,2.2,26.21,10.015A13.052,13.052,0,0,1,1261,559.507l-32.146,84.223-26.214-10.014a13.047,13.047,0,0,1-7.554-16.881l17.483-45.786L1044.322,506.8a13.113,13.113,0,0,1-7.573-16.931l10.024-26.165,136.255,52.026,2.238-5.848L1016.994,445.6a13.026,13.026,0,0,1-7.573-16.926l9.965-26.195,22.58,8.587,2.2-5.783-54.592-20.849a13.044,13.044,0,0,1-7.488-16.742Z" transform="translate(-1284.176 171.886)" fill="none" stroke="#fff" stroke-width="7"/>
            <path id="Path_71937" data-name="Path 71937" d="M1077.982,391.639l-8.483,22.2-55.751-21.292,14.678-38.437,39.511,15.086A17.393,17.393,0,0,1,1077.982,391.639Z" transform="translate(-1155.08 222.415)" fill="none" stroke="#fff" stroke-width="7"/>
            <rect id="Rectangle_40616" data-name="Rectangle 40616" width="41.14" height="54.016" transform="translate(-196.789 593.79) rotate(-69.102)" fill="none" stroke="#fff" stroke-width="7"/>
            <path id="Path_71938" data-name="Path 71938" d="M1298.482,306.161l-40.128,105.112-44.219-16.886-55.7,145.8a13.145,13.145,0,0,1-16.886,7.553l-26.23-10.049-5.848-2.233-2.2,5.778-10.014,26.21A13.053,13.053,0,0,1,1080.366,575l-84.223-32.147,10.015-26.214a13.047,13.047,0,0,1,16.881-7.553l45.786,17.483,64.243-168.247A13.114,13.114,0,0,1,1150,350.744l26.165,10.024-52.026,136.254,5.847,2.237,64.288-168.272a13.027,13.027,0,0,1,16.927-7.573l26.195,9.965-8.587,22.58,5.782,2.2,20.849-54.592a13.044,13.044,0,0,1,16.742-7.489Z" transform="translate(-1225.014 -11.426)" fill="none" stroke="#fff" stroke-width="7"/>
            <path id="Path_71939" data-name="Path 71939" d="M1054.417,391.973l-22.2-8.478,21.292-55.751,38.437,14.679-15.087,39.511A17.387,17.387,0,0,1,1054.417,391.973Z" transform="translate(-1081.725 117.67)" fill="none" stroke="#fff" stroke-width="7"/>
            <rect id="Rectangle_40617" data-name="Rectangle 40617" width="54.015" height="41.14" transform="translate(-26.312 440.418) rotate(-69.103)" fill="none" stroke="#fff" stroke-width="7"/>
            <path id="Path_71940" data-name="Path 71940" d="M1316.363,612.478,1211.25,572.35l16.886-44.22-145.8-55.7a13.145,13.145,0,0,1-7.552-16.886l10.049-26.229,2.233-5.848-5.778-2.2-26.21-10.014a13.052,13.052,0,0,1-7.553-16.886l32.146-84.223,26.215,10.014a13.046,13.046,0,0,1,7.552,16.881l-17.483,45.786,168.247,64.244A13.114,13.114,0,0,1,1271.78,464l-10.025,26.165L1125.5,438.135l-2.238,5.848,168.272,64.288a13.026,13.026,0,0,1,7.572,16.926l-9.964,26.194-22.58-8.587-2.2,5.783,54.592,20.849a13.044,13.044,0,0,1,7.489,16.742Z" transform="translate(-1024.347 47.74)" fill="none" stroke="#fff" stroke-width="7"/>
            <path id="Path_71941" data-name="Path 71941" d="M1058.594,368.412l8.478-22.2,55.751,21.292-14.679,38.437-39.511-15.086A17.387,17.387,0,0,1,1058.594,368.412Z" transform="translate(-981.492 191.025)" fill="none" stroke="#fff" stroke-width="7"/>
            <rect id="Rectangle_40618" data-name="Rectangle 40618" width="41.14" height="54.016" transform="translate(131.655 598.869) rotate(-69.103)" fill="none" stroke="#fff" stroke-width="7"/>
            <path id="Path_71942" data-name="Path 71942" d="M1027.4,630.359l40.127-105.112,44.22,16.886,55.7-145.8a13.145,13.145,0,0,1,16.886-7.553l26.23,10.049,5.847,2.233,2.2-5.778,10.015-26.21a13.053,13.053,0,0,1,16.886-7.553l84.222,32.147-10.014,26.214a13.047,13.047,0,0,1-16.882,7.553l-45.786-17.483L1192.808,578.2a13.113,13.113,0,0,1-16.931,7.573l-26.165-10.024L1201.739,439.5l-5.848-2.237L1131.6,605.532a13.026,13.026,0,0,1-16.927,7.573l-26.195-9.965,8.588-22.58-5.783-2.2-20.849,54.592a13.043,13.043,0,0,1-16.742,7.489Z" transform="translate(-1100.868 248.407)" fill="none" stroke="#fff" stroke-width="7"/>
            <path id="Path_71943" data-name="Path 71943" d="M1077.643,372.59l22.2,8.478-21.292,55.751-38.437-14.679,15.086-39.511A17.387,17.387,0,0,1,1077.643,372.59Z" transform="translate(-1050.335 291.263)" fill="none" stroke="#fff" stroke-width="7"/>
            <rect id="Rectangle_40619" data-name="Rectangle 40619" width="54.016" height="41.14" transform="translate(-31.391 768.867) rotate(-69.102)" fill="none" stroke="#fff" stroke-width="7"/>
            <path id="Path_71944" data-name="Path 71944" d="M1155.663,223.392l105.112,40.127-16.882,44.215,145.8,55.711a13.139,13.139,0,0,1,7.554,16.881l-10.05,26.229-2.233,5.848,5.778,2.2,26.209,10.014a13.055,13.055,0,0,1,7.558,16.886l-32.156,84.218-26.215-10.01a13.047,13.047,0,0,1-7.553-16.881l17.483-45.786L1207.824,388.8a13.112,13.112,0,0,1-7.578-16.931l10.029-26.16,136.254,52.021,2.233-5.848L1180.5,327.6a13.026,13.026,0,0,1-7.577-16.926l9.964-26.195,22.58,8.587,2.2-5.778-54.586-20.854a13.049,13.049,0,0,1-7.494-16.742Z" transform="translate(-634.688 -296.859)" fill="none" stroke="#fff" stroke-width="7"/>
            <path id="Path_71945" data-name="Path 71945" d="M1241.482,273.639l-8.478,22.2-55.756-21.287,14.674-38.442,39.511,15.086A17.4,17.4,0,0,1,1241.482,273.639Z" transform="translate(-505.589 -246.33)" fill="none" stroke="#fff" stroke-width="7"/>
            <rect id="Rectangle_40620" data-name="Rectangle 40620" width="41.14" height="54.014" transform="translate(616.201 7.042) rotate(-69.096)" fill="none" stroke="#fff" stroke-width="7"/>
            <path id="Path_71946" data-name="Path 71946" d="M1461.978,188.158,1421.85,293.27l-44.214-16.881-55.711,145.8a13.138,13.138,0,0,1-16.882,7.553l-26.23-10.049-5.847-2.233-2.2,5.778-10.014,26.21A13.056,13.056,0,0,1,1243.863,457l-84.218-32.157,10.009-26.215a13.048,13.048,0,0,1,16.882-7.553l45.786,17.483,64.244-168.242a13.112,13.112,0,0,1,16.932-7.578l26.159,10.029-52.022,136.254,5.848,2.233,64.288-168.267a13.027,13.027,0,0,1,16.927-7.578l26.195,9.965-8.588,22.58,5.778,2.2,20.854-54.587a13.049,13.049,0,0,1,16.742-7.493Z" transform="translate(-575.52 -480.173)" fill="none" stroke="#fff" stroke-width="7"/>
            <path id="Path_71947" data-name="Path 71947" d="M1217.917,273.973l-22.2-8.473L1217,209.744l38.442,14.674-15.087,39.511A17.389,17.389,0,0,1,1217.917,273.973Z" transform="translate(-432.235 -351.075)" fill="none" stroke="#fff" stroke-width="7"/>
            <rect id="Rectangle_40621" data-name="Rectangle 40621" width="54.014" height="41.14" transform="translate(786.676 -146.33) rotate(-69.097)" fill="none" stroke="#fff" stroke-width="7"/>
            <path id="Path_71948" data-name="Path 71948" d="M1479.869,494.474l-105.112-40.127,16.881-44.215-145.8-55.711a13.139,13.139,0,0,1-7.553-16.881l10.049-26.23,2.233-5.848-5.778-2.2-26.21-10.014a13.055,13.055,0,0,1-7.558-16.886l32.157-84.218L1269.4,202.15a13.047,13.047,0,0,1,7.552,16.881l-17.483,45.786,168.242,64.244a13.111,13.111,0,0,1,7.577,16.931l-10.029,26.16L1289,320.131l-2.232,5.848,168.267,64.288a13.026,13.026,0,0,1,7.578,16.926l-9.964,26.195-22.58-8.587-2.2,5.778,54.586,20.854a13.049,13.049,0,0,1,7.494,16.742Z" transform="translate(-374.863 -421.001)" fill="none" stroke="#fff" stroke-width="7"/>
            <path id="Path_71949" data-name="Path 71949" d="M1222.094,250.412l8.473-22.2,55.756,21.287-14.673,38.442-39.511-15.086A17.39,17.39,0,0,1,1222.094,250.412Z" transform="translate(-332.001 -277.72)" fill="none" stroke="#fff" stroke-width="7"/>
            <rect id="Rectangle_40622" data-name="Rectangle 40622" width="41.139" height="54.014" transform="matrix(0.357, -0.934, 0.934, 0.357, 944.645, 12.119)" fill="none" stroke="#fff" stroke-width="7"/>
            <path id="Path_71950" data-name="Path 71950" d="M1190.9,512.365l40.127-105.112,44.215,16.881,55.711-145.8a13.138,13.138,0,0,1,16.881-7.553l26.23,10.049,5.847,2.233,2.2-5.778,10.014-26.21a13.055,13.055,0,0,1,16.886-7.558l84.218,32.157-10.009,26.215a13.047,13.047,0,0,1-16.881,7.553l-45.786-17.483L1356.308,460.2a13.112,13.112,0,0,1-16.932,7.578l-26.159-10.029L1365.238,321.5l-5.848-2.233L1295.1,487.533a13.027,13.027,0,0,1-16.927,7.578l-26.195-9.965,8.587-22.58-5.777-2.2-20.854,54.587a13.048,13.048,0,0,1-16.742,7.493Z" transform="translate(-451.378 -220.345)" fill="none" stroke="#fff" stroke-width="7"/>
            <path id="Path_71951" data-name="Path 71951" d="M1241.143,254.59l22.2,8.473-21.287,55.756-38.442-14.674,15.086-39.511A17.389,17.389,0,0,1,1241.143,254.59Z" transform="translate(-400.845 -177.482)" fill="none" stroke="#fff" stroke-width="7"/>
            <rect id="Rectangle_40623" data-name="Rectangle 40623" width="54.014" height="41.139" transform="matrix(0.357, -0.934, 0.934, 0.357, 781.599, 182.118)" fill="none" stroke="#fff" stroke-width="7"/>
            <path id="Path_71952" data-name="Path 71952" d="M1073.917,282.392l105.111,40.133-16.886,44.215,145.8,55.7a13.143,13.143,0,0,1,7.553,16.886l-10.049,26.23-2.238,5.848,5.784,2.208,26.2,10.009a13.049,13.049,0,0,1,7.553,16.882L1310.6,584.725l-26.22-10.009a13.045,13.045,0,0,1-7.548-16.877l17.478-45.791L1126.073,447.8a13.113,13.113,0,0,1-7.574-16.931l10.025-26.165,136.254,52.022,2.238-5.843L1098.744,386.6a13.02,13.02,0,0,1-7.573-16.926l9.964-26.195,22.58,8.587,2.2-5.778-54.592-20.854a13.044,13.044,0,0,1-7.489-16.742Z" transform="translate(-959.431 -62.487)" fill="none" stroke="#fff" stroke-width="7"/>
            <path id="Path_71953" data-name="Path 71953" d="M1159.733,332.644l-8.478,22.2L1095.5,333.554l14.674-38.442,39.516,15.091A17.394,17.394,0,0,1,1159.733,332.644Z" transform="translate(-830.335 -11.958)" fill="none" stroke="#fff" stroke-width="7"/>
            <rect id="Rectangle_40624" data-name="Rectangle 40624" width="41.141" height="54.014" transform="translate(209.708 300.418) rotate(-69.102)" fill="none" stroke="#fff" stroke-width="7"/>
            <path id="Path_71954" data-name="Path 71954" d="M1380.228,247.161,1340.1,352.273l-44.215-16.886-55.7,145.8a13.144,13.144,0,0,1-16.886,7.553l-26.23-10.049-5.847-2.238-2.208,5.783L1179,508.442A13.049,13.049,0,0,1,1162.117,516l-84.222-32.147,10.009-26.219a13.045,13.045,0,0,1,16.877-7.548l45.791,17.478,64.244-168.242a13.114,13.114,0,0,1,16.932-7.573l26.165,10.024-52.022,136.254,5.843,2.238,64.288-168.272a13.021,13.021,0,0,1,16.927-7.573l26.194,9.965-8.587,22.58,5.777,2.2,20.854-54.592a13.044,13.044,0,0,1,16.742-7.488Z" transform="translate(-900.265 -245.799)" fill="none" stroke="#fff" stroke-width="7"/>
            <path id="Path_71955" data-name="Path 71955" d="M1136.162,332.973l-22.2-8.473,21.287-55.756,38.442,14.674L1158.6,322.933A17.388,17.388,0,0,1,1136.162,332.973Z" transform="translate(-756.98 -116.702)" fill="none" stroke="#fff" stroke-width="7"/>
            <rect id="Rectangle_40625" data-name="Rectangle 40625" width="54.013" height="41.141" transform="translate(380.184 147.046) rotate(-69.103)" fill="none" stroke="#fff" stroke-width="7"/>
            <path id="Path_71956" data-name="Path 71956" d="M1398.113,553.474,1293,513.342l16.886-44.215-145.8-55.7a13.145,13.145,0,0,1-7.554-16.886l10.05-26.23,2.237-5.848-5.782-2.208-26.2-10.01a13.048,13.048,0,0,1-7.553-16.881l32.146-84.223,26.22,10.009a13.045,13.045,0,0,1,7.547,16.876l-17.478,45.791,168.242,64.244a13.114,13.114,0,0,1,7.573,16.931l-10.025,26.165-136.254-52.022-2.238,5.843,168.272,64.288a13.02,13.02,0,0,1,7.573,16.926l-9.964,26.195-22.579-8.587-2.2,5.778,54.592,20.854a13.044,13.044,0,0,1,7.489,16.742Z" transform="translate(-699.602 -186.629)" fill="none" stroke="#fff" stroke-width="7"/>
            <path id="Path_71957" data-name="Path 71957" d="M1140.344,309.407l8.473-22.2,55.756,21.287L1189.9,346.939l-39.516-15.091A17.388,17.388,0,0,1,1140.344,309.407Z" transform="translate(-656.746 -43.348)" fill="none" stroke="#fff" stroke-width="7"/>
            <rect id="Rectangle_40626" data-name="Rectangle 40626" width="41.141" height="54.013" transform="translate(538.15 305.497) rotate(-69.103)" fill="none" stroke="#fff" stroke-width="7"/>
            <path id="Path_71958" data-name="Path 71958" d="M1109.146,571.359l40.133-105.112,44.214,16.886,55.7-145.8a13.143,13.143,0,0,1,16.886-7.553l26.23,10.049,5.847,2.238,2.208-5.783,10.009-26.2a13.049,13.049,0,0,1,16.881-7.553l84.223,32.147-10.009,26.219a13.045,13.045,0,0,1-16.876,7.548L1338.8,350.961,1274.558,519.2a13.113,13.113,0,0,1-16.931,7.573l-26.165-10.024L1283.484,380.5l-5.843-2.238-64.289,168.272a13.02,13.02,0,0,1-16.927,7.573l-26.194-9.965,8.587-22.58-5.778-2.2-20.854,54.592a13.043,13.043,0,0,1-16.742,7.489Z" transform="translate(-776.123 14.034)" fill="none" stroke="#fff" stroke-width="7"/>
            <path id="Path_71959" data-name="Path 71959" d="M1159.4,313.59l22.2,8.473-21.287,55.756-38.442-14.674,15.091-39.516A17.388,17.388,0,0,1,1159.4,313.59Z" transform="translate(-725.59 56.89)" fill="none" stroke="#fff" stroke-width="7"/>
            <rect id="Rectangle_40627" data-name="Rectangle 40627" width="54.014" height="41.141" transform="translate(375.104 475.492) rotate(-69.102)" fill="none" stroke="#fff" stroke-width="7"/>
            <path id="Path_71960" data-name="Path 71960" d="M992.163,223.392l105.112,40.127-16.881,44.215,145.8,55.706a13.144,13.144,0,0,1,7.554,16.886l-10.05,26.229-2.238,5.848,5.782,2.2,26.21,10.014A13.052,13.052,0,0,1,1261,441.507l-32.152,84.218-26.215-10.01a13.052,13.052,0,0,1-7.552-16.886l17.483-45.781L1044.319,388.8a13.113,13.113,0,0,1-7.573-16.931l10.024-26.165,136.26,52.021,2.232-5.848L1016.99,327.6a13.03,13.03,0,0,1-7.573-16.931l9.965-26.19,22.58,8.587,2.2-5.783-54.592-20.849a13.056,13.056,0,0,1-7.488-16.747Z" transform="translate(-1284.178 -296.859)" fill="none" stroke="#fff" stroke-width="7"/>
            <path id="Path_71961" data-name="Path 71961" d="M1077.978,273.639l-8.473,22.2-55.756-21.292,14.678-38.437,39.511,15.081A17.394,17.394,0,0,1,1077.978,273.639Z" transform="translate(-1155.08 -246.33)" fill="none" stroke="#fff" stroke-width="7"/>
            <rect id="Rectangle_40628" data-name="Rectangle 40628" width="41.139" height="54.014" transform="translate(-196.789 7.043) rotate(-69.102)" fill="none" stroke="#fff" stroke-width="7"/>
            <path id="Path_71962" data-name="Path 71962" d="M1298.478,188.158,1258.35,293.27l-44.214-16.881-55.706,145.8a13.143,13.143,0,0,1-16.886,7.553l-26.23-10.049-5.848-2.238-2.2,5.783-10.014,26.21A13.053,13.053,0,0,1,1080.362,457l-84.217-32.152,10.01-26.215a13.052,13.052,0,0,1,16.886-7.553l45.781,17.483,64.243-168.247A13.114,13.114,0,0,1,1150,232.741l26.165,10.024L1124.14,379.024l5.848,2.233,64.283-168.272a13.03,13.03,0,0,1,16.932-7.573l26.189,9.965-8.587,22.58,5.783,2.2,20.849-54.592a13.057,13.057,0,0,1,16.748-7.489Z" transform="translate(-1225.01 -480.173)" fill="none" stroke="#fff" stroke-width="7"/>
            <path id="Path_71963" data-name="Path 71963" d="M1054.417,273.973l-22.2-8.473,21.292-55.756,38.437,14.679-15.082,39.511A17.394,17.394,0,0,1,1054.417,273.973Z" transform="translate(-1081.725 -351.075)" fill="none" stroke="#fff" stroke-width="7"/>
            <rect id="Rectangle_40629" data-name="Rectangle 40629" width="54.014" height="41.139" transform="translate(-26.309 -146.329) rotate(-69.103)" fill="none" stroke="#fff" stroke-width="7"/>
            <path id="Path_71964" data-name="Path 71964" d="M1316.367,494.474l-105.112-40.127,16.882-44.215-145.8-55.706a13.144,13.144,0,0,1-7.553-16.886l10.05-26.23,2.237-5.848-5.782-2.2-26.21-10.014a13.052,13.052,0,0,1-7.553-16.886l32.151-84.218,26.215,10.009a13.052,13.052,0,0,1,7.553,16.886l-17.483,45.781,168.247,64.244a13.114,13.114,0,0,1,7.573,16.931l-10.025,26.165L1125.5,320.136l-2.233,5.848,168.272,64.283a13.03,13.03,0,0,1,7.572,16.931l-9.964,26.19-22.58-8.587-2.2,5.783,54.592,20.849a13.056,13.056,0,0,1,7.489,16.747Z" transform="translate(-1024.351 -421.001)" fill="none" stroke="#fff" stroke-width="7"/>
            <path id="Path_71965" data-name="Path 71965" d="M1058.594,250.412l8.473-22.2,55.756,21.292-14.679,38.437-39.511-15.081A17.4,17.4,0,0,1,1058.594,250.412Z" transform="translate(-981.492 -277.72)" fill="none" stroke="#fff" stroke-width="7"/>
            <rect id="Rectangle_40630" data-name="Rectangle 40630" width="41.138" height="54.014" transform="translate(131.655 12.124) rotate(-69.103)" fill="none" stroke="#fff" stroke-width="7"/>
            <path id="Path_71966" data-name="Path 71966" d="M1027.4,512.363l40.127-105.112,44.216,16.881,55.706-145.8a13.143,13.143,0,0,1,16.886-7.553l26.23,10.049,5.847,2.238,2.2-5.783,10.015-26.21a13.053,13.053,0,0,1,16.886-7.553l84.218,32.152L1319.72,301.89a13.053,13.053,0,0,1-16.887,7.553l-45.781-17.483-64.244,168.247a13.113,13.113,0,0,1-16.931,7.573l-26.165-10.024L1201.734,321.5l-5.848-2.233L1131.6,487.536a13.03,13.03,0,0,1-16.931,7.573l-26.19-9.965,8.588-22.58-5.783-2.2-20.849,54.592a13.056,13.056,0,0,1-16.748,7.489Z" transform="translate(-1100.868 -220.342)" fill="none" stroke="#fff" stroke-width="7"/>
            <path id="Path_71967" data-name="Path 71967" d="M1077.643,254.59l22.2,8.473-21.292,55.756-38.437-14.679L1055.2,264.63A17.393,17.393,0,0,1,1077.643,254.59Z" transform="translate(-1050.335 -177.483)" fill="none" stroke="#fff" stroke-width="7"/>
            <rect id="Rectangle_40631" data-name="Rectangle 40631" width="54.014" height="41.139" transform="translate(-31.391 182.12) rotate(-69.102)" fill="none" stroke="#fff" stroke-width="7"/>
            <path id="Path_71968" data-name="Path 71968" d="M1073.913,164.391l105.112,40.132-16.886,44.215,145.8,55.7a13.151,13.151,0,0,1,7.554,16.891l-10.05,26.229-2.238,5.848,5.782,2.2,26.21,10.014a13.048,13.048,0,0,1,7.553,16.881L1310.6,466.729l-26.22-10.009a13.048,13.048,0,0,1-7.547-16.881l17.478-45.786-168.242-64.244a13.113,13.113,0,0,1-7.572-16.931l10.024-26.165,136.259,52.021,2.233-5.848L1098.746,268.6a13.012,13.012,0,0,1-7.573-16.926l9.959-26.195,22.58,8.587,2.208-5.783-54.6-20.849a13.058,13.058,0,0,1-7.489-16.747Z" transform="translate(-959.433 -531.236)" fill="none" stroke="#fff" stroke-width="7"/>
            <path id="Path_71969" data-name="Path 71969" d="M1159.724,214.639l-8.473,22.2L1095.5,215.549l14.668-38.437,39.516,15.086A17.39,17.39,0,0,1,1159.724,214.639Z" transform="translate(-830.331 -480.703)" fill="none" stroke="#fff" stroke-width="7"/>
            <rect id="Rectangle_40632" data-name="Rectangle 40632" width="41.139" height="54.014" transform="translate(209.706 -286.33) rotate(-69.102)" fill="none" stroke="#fff" stroke-width="7"/>
            <path id="Path_71970" data-name="Path 71970" d="M1380.232,129.158,1340.1,234.27l-44.214-16.886-55.7,145.8a13.15,13.15,0,0,1-16.891,7.553l-26.23-10.049-5.847-2.238-2.2,5.783L1179,390.444A13.049,13.049,0,0,1,1162.117,398l-84.222-32.152,10.009-26.22a13.049,13.049,0,0,1,16.881-7.548l45.786,17.478,64.244-168.242a13.114,13.114,0,0,1,16.932-7.573l26.165,10.024-52.022,136.259,5.848,2.233,64.283-168.267a13.013,13.013,0,0,1,16.927-7.573l26.194,9.96-8.587,22.58,5.782,2.208,20.849-54.6a13.058,13.058,0,0,1,16.748-7.488Z" transform="translate(-900.265 -714.546)" fill="none" stroke="#fff" stroke-width="7"/>
            <path id="Path_71971" data-name="Path 71971" d="M1136.167,214.969l-22.2-8.473,21.292-55.751,38.437,14.669-15.086,39.516A17.39,17.39,0,0,1,1136.167,214.969Z" transform="translate(-756.98 -585.444)" fill="none" stroke="#fff" stroke-width="7"/>
            <rect id="Rectangle_40633" data-name="Rectangle 40633" width="54.014" height="41.139" transform="translate(380.186 -439.701) rotate(-69.103)" fill="none" stroke="#fff" stroke-width="7"/>
            <path id="Path_71972" data-name="Path 71972" d="M1398.117,435.474,1293,395.346l16.886-44.215-145.8-55.7a13.154,13.154,0,0,1-7.554-16.891l10.05-26.23,2.237-5.848-5.782-2.2-26.21-10.014a13.052,13.052,0,0,1-7.553-16.886l32.152-84.218,26.22,10.01a13.048,13.048,0,0,1,7.547,16.881l-17.478,45.786,168.242,64.244a13.113,13.113,0,0,1,7.573,16.931l-10.024,26.165-136.259-52.021-2.233,5.843,168.267,64.288a13.012,13.012,0,0,1,7.572,16.926l-9.959,26.195-22.579-8.587-2.208,5.783,54.6,20.844a13.066,13.066,0,0,1,7.489,16.752Z" transform="translate(-699.606 -655.374)" fill="none" stroke="#fff" stroke-width="7"/>
            <path id="Path_71973" data-name="Path 71973" d="M1140.344,191.412l8.473-22.2,55.75,21.292L1189.9,228.939l-39.516-15.086A17.39,17.39,0,0,1,1140.344,191.412Z" transform="translate(-656.746 -512.093)" fill="none" stroke="#fff" stroke-width="7"/>
            <rect id="Rectangle_40634" data-name="Rectangle 40634" width="41.138" height="54.014" transform="translate(538.15 -281.248) rotate(-69.103)" fill="none" stroke="#fff" stroke-width="7"/>
            <path id="Path_71974" data-name="Path 71974" d="M1109.146,453.363l40.127-105.112,44.215,16.886,55.7-145.8a13.151,13.151,0,0,1,16.891-7.553l26.23,10.049,5.847,2.238,2.2-5.783,10.015-26.21a13.049,13.049,0,0,1,16.881-7.553l84.223,32.152L1401.47,242.9a13.049,13.049,0,0,1-16.882,7.548L1338.8,232.965l-64.244,168.242a13.113,13.113,0,0,1-16.931,7.573l-26.165-10.024L1283.484,262.5l-5.848-2.233-64.283,168.267a13.012,13.012,0,0,1-16.927,7.573l-26.194-9.96,8.587-22.58-5.783-2.208-20.849,54.6a13.058,13.058,0,0,1-16.748,7.489Z" transform="translate(-776.123 -454.715)" fill="none" stroke="#fff" stroke-width="7"/>
            <path id="Path_71975" data-name="Path 71975" d="M1159.393,195.59l22.2,8.473L1160.3,259.813l-38.437-14.669,15.086-39.516A17.389,17.389,0,0,1,1159.393,195.59Z" transform="translate(-725.59 -411.855)" fill="none" stroke="#fff" stroke-width="7"/>
            <rect id="Rectangle_40635" data-name="Rectangle 40635" width="54.014" height="41.139" transform="translate(375.104 -111.253) rotate(-69.102)" fill="none" stroke="#fff" stroke-width="7"/>
          </g>
        </g>
        <g id="Group_108423" data-name="Group 108423" transform="translate(4126.129 6.631)">
          <g id="Group_108422" data-name="Group 108422" clip-path="url(#clip-path-5)">
            <path id="Path_72424" data-name="Path 72424" d="M992.163,223.392l105.112,40.127-16.881,44.215,145.8,55.706a13.144,13.144,0,0,1,7.554,16.886l-10.05,26.229-2.238,5.848,5.782,2.2,26.21,10.014A13.052,13.052,0,0,1,1261,441.507l-32.152,84.218-26.215-10.01a13.052,13.052,0,0,1-7.552-16.886l17.483-45.781L1044.319,388.8a13.113,13.113,0,0,1-7.573-16.931l10.024-26.165,136.26,52.021,2.232-5.848L1016.99,327.6a13.03,13.03,0,0,1-7.573-16.931l9.965-26.19,22.58,8.587,2.2-5.783-54.592-20.849a13.056,13.056,0,0,1-7.488-16.747Z" transform="translate(-471.193 587.026)" fill="none" stroke="#fff" stroke-width="7"/>
            <path id="Path_72425" data-name="Path 72425" d="M1077.978,273.639l-8.473,22.2-55.756-21.292,14.678-38.437,39.511,15.081A17.394,17.394,0,0,1,1077.978,273.639Z" transform="translate(-342.094 637.555)" fill="none" stroke="#fff" stroke-width="7"/>
            <rect id="Rectangle_40869" data-name="Rectangle 40869" width="41.139" height="54.014" transform="translate(616.197 890.928) rotate(-69.102)" fill="none" stroke="#fff" stroke-width="7"/>
            <path id="Path_72426" data-name="Path 72426" d="M1298.478,188.158,1258.35,293.27l-44.214-16.881-55.706,145.8a13.143,13.143,0,0,1-16.886,7.553l-26.23-10.049-5.848-2.238-2.2,5.783-10.014,26.21A13.053,13.053,0,0,1,1080.362,457l-84.217-32.152,10.01-26.215a13.052,13.052,0,0,1,16.886-7.553l45.781,17.483,64.243-168.247A13.114,13.114,0,0,1,1150,232.741l26.165,10.024L1124.14,379.024l5.848,2.233,64.283-168.272a13.03,13.03,0,0,1,16.932-7.573l26.189,9.965-8.587,22.58,5.783,2.2,20.849-54.592a13.057,13.057,0,0,1,16.748-7.489Z" transform="translate(-412.025 403.712)" fill="none" stroke="#fff" stroke-width="7"/>
            <path id="Path_72427" data-name="Path 72427" d="M1054.417,273.973l-22.2-8.473,21.292-55.756,38.437,14.679-15.082,39.511A17.394,17.394,0,0,1,1054.417,273.973Z" transform="translate(-268.74 532.81)" fill="none" stroke="#fff" stroke-width="7"/>
            <rect id="Rectangle_40870" data-name="Rectangle 40870" width="54.014" height="41.139" transform="translate(786.676 737.556) rotate(-69.103)" fill="none" stroke="#fff" stroke-width="7"/>
            <path id="Path_72428" data-name="Path 72428" d="M1316.367,494.474l-105.112-40.127,16.882-44.215-145.8-55.706a13.144,13.144,0,0,1-7.553-16.886l10.05-26.23,2.237-5.848-5.782-2.2-26.21-10.014a13.052,13.052,0,0,1-7.553-16.886l32.151-84.218,26.215,10.009a13.052,13.052,0,0,1,7.553,16.886l-17.483,45.781,168.247,64.244a13.114,13.114,0,0,1,7.573,16.931l-10.025,26.165L1125.5,320.136l-2.233,5.848,168.272,64.283a13.03,13.03,0,0,1,7.572,16.931l-9.964,26.19-22.58-8.587-2.2,5.783,54.592,20.849a13.056,13.056,0,0,1,7.489,16.747Z" transform="translate(-211.366 462.883)" fill="none" stroke="#fff" stroke-width="7"/>
            <path id="Path_72429" data-name="Path 72429" d="M1058.594,250.412l8.473-22.2,55.756,21.292-14.679,38.437-39.511-15.081A17.4,17.4,0,0,1,1058.594,250.412Z" transform="translate(-168.506 606.165)" fill="none" stroke="#fff" stroke-width="7"/>
            <rect id="Rectangle_40871" data-name="Rectangle 40871" width="41.138" height="54.014" transform="translate(944.641 896.009) rotate(-69.103)" fill="none" stroke="#fff" stroke-width="7"/>
            <path id="Path_72430" data-name="Path 72430" d="M1027.4,512.363l40.127-105.112,44.216,16.881,55.706-145.8a13.143,13.143,0,0,1,16.886-7.553l26.23,10.049,5.847,2.238,2.2-5.783,10.015-26.21a13.053,13.053,0,0,1,16.886-7.553l84.218,32.152L1319.72,301.89a13.053,13.053,0,0,1-16.887,7.553l-45.781-17.483-64.244,168.247a13.113,13.113,0,0,1-16.931,7.573l-26.165-10.024L1201.734,321.5l-5.848-2.233L1131.6,487.536a13.03,13.03,0,0,1-16.931,7.573l-26.19-9.965,8.588-22.58-5.783-2.2-20.849,54.592a13.056,13.056,0,0,1-16.748,7.489Z" transform="translate(-287.883 663.542)" fill="none" stroke="#fff" stroke-width="7"/>
            <path id="Path_72431" data-name="Path 72431" d="M1077.643,254.59l22.2,8.473-21.292,55.756-38.437-14.679L1055.2,264.63A17.393,17.393,0,0,1,1077.643,254.59Z" transform="translate(-237.35 706.402)" fill="none" stroke="#fff" stroke-width="7"/>
            <rect id="Rectangle_40872" data-name="Rectangle 40872" width="54.014" height="41.139" transform="translate(781.594 1066.005) rotate(-69.102)" fill="none" stroke="#fff" stroke-width="7"/>
            <path id="Path_72432" data-name="Path 72432" d="M910.415,282.391l105.112,40.133-16.881,44.215,145.8,55.706A13.141,13.141,0,0,1,1152,439.331l-10.049,26.229-2.238,5.848,5.783,2.208,26.209,10.009a13.043,13.043,0,0,1,7.548,16.881L1147.1,584.724l-26.214-10a13.049,13.049,0,0,1-7.553-16.881l17.483-45.786L962.571,447.808A13.113,13.113,0,0,1,955,430.877l10.024-26.165,136.254,52.022,2.238-5.848L935.243,386.6a13.034,13.034,0,0,1-7.573-16.931l9.965-26.19,22.58,8.582,2.2-5.783-54.587-20.844a13.047,13.047,0,0,1-7.493-16.747Z" transform="translate(-795.94 821.394)" fill="none" stroke="#fff" stroke-width="7"/>
            <path id="Path_72433" data-name="Path 72433" d="M996.228,332.639l-8.473,22.2L932,333.554l14.678-38.442L986.188,310.2A17.376,17.376,0,0,1,996.228,332.639Z" transform="translate(-666.84 871.927)" fill="none" stroke="#fff" stroke-width="7"/>
            <rect id="Rectangle_40873" data-name="Rectangle 40873" width="41.14" height="54.017" transform="translate(209.7 1184.297) rotate(-69.096)" fill="none" stroke="#fff" stroke-width="7"/>
            <path id="Path_72434" data-name="Path 72434" d="M1216.729,247.16,1176.6,352.272l-44.215-16.881-55.706,145.8a13.142,13.142,0,0,1-16.886,7.553l-26.229-10.049-5.848-2.238-2.208,5.783-10.01,26.21a13.043,13.043,0,0,1-16.882,7.548L914.4,483.847l10-26.215a13.049,13.049,0,0,1,16.881-7.553l45.786,17.483,64.244-168.247a13.113,13.113,0,0,1,16.931-7.573l26.165,10.024-52.021,136.254,5.847,2.237,64.284-168.272a13.034,13.034,0,0,1,16.931-7.573l26.19,9.965-8.582,22.58,5.783,2.2,20.845-54.587a13.047,13.047,0,0,1,16.747-7.493Z" transform="translate(-736.766 638.082)" fill="none" stroke="#fff" stroke-width="7"/>
            <path id="Path_72435" data-name="Path 72435" d="M972.667,332.973l-22.2-8.473,21.287-55.756,38.442,14.679L995.1,322.933A17.376,17.376,0,0,1,972.667,332.973Z" transform="translate(-593.485 767.183)" fill="none" stroke="#fff" stroke-width="7"/>
            <rect id="Rectangle_40874" data-name="Rectangle 40874" width="54.016" height="41.14" transform="translate(380.178 1030.928) rotate(-69.097)" fill="none" stroke="#fff" stroke-width="7"/>
            <path id="Path_72436" data-name="Path 72436" d="M1234.615,553.47,1129.5,513.343l16.881-44.215-145.8-55.706a13.144,13.144,0,0,1-7.553-16.886l10.05-26.229,2.238-5.848-5.783-2.208-26.209-10.01a13.046,13.046,0,0,1-7.548-16.886l32.147-84.213,26.214,10a13.049,13.049,0,0,1,7.553,16.881l-17.483,45.786,168.247,64.244a13.113,13.113,0,0,1,7.573,16.931l-10.024,26.165-136.254-52.022-2.238,5.843,168.271,64.288a13.034,13.034,0,0,1,7.573,16.931l-9.965,26.19-22.58-8.582-2.2,5.778,54.587,20.845a13.055,13.055,0,0,1,7.494,16.752Z" transform="translate(-536.109 697.26)" fill="none" stroke="#fff" stroke-width="7"/>
            <path id="Path_72437" data-name="Path 72437" d="M976.846,309.412l8.473-22.2,55.755,21.287L1026.4,346.939l-39.511-15.091A17.376,17.376,0,0,1,976.846,309.412Z" transform="translate(-493.253 840.537)" fill="none" stroke="#fff" stroke-width="7"/>
            <rect id="Rectangle_40875" data-name="Rectangle 40875" width="41.139" height="54.016" transform="translate(538.141 1189.378) rotate(-69.096)" fill="none" stroke="#fff" stroke-width="7"/>
            <path id="Path_72438" data-name="Path 72438" d="M945.646,571.361l40.127-105.112,44.215,16.881,55.706-145.8a13.142,13.142,0,0,1,16.887-7.553l26.229,10.049,5.853,2.238,2.2-5.783,10.01-26.21a13.042,13.042,0,0,1,16.881-7.548l84.218,32.147-10,26.215a13.049,13.049,0,0,1-16.882,7.553L1175.3,350.959l-64.243,168.247a13.11,13.11,0,0,1-16.926,7.573l-26.17-10.024L1119.983,380.5l-5.847-2.238-64.283,168.272a13.034,13.034,0,0,1-16.931,7.573l-26.189-9.965,8.582-22.58-5.778-2.2-20.849,54.587a13.046,13.046,0,0,1-16.747,7.493Z" transform="translate(-612.628 897.917)" fill="none" stroke="#fff" stroke-width="7"/>
            <path id="Path_72439" data-name="Path 72439" d="M995.894,313.592l22.2,8.473-21.287,55.756-38.442-14.679,15.091-39.511A17.376,17.376,0,0,1,995.894,313.592Z" transform="translate(-562.095 940.773)" fill="none" stroke="#fff" stroke-width="7"/>
            <rect id="Rectangle_40876" data-name="Rectangle 40876" width="54.017" height="41.14" transform="translate(375.096 1359.374) rotate(-69.096)" fill="none" stroke="#fff" stroke-width="7"/>
            <path id="Path_72440" data-name="Path 72440" d="M828.663,223.391l105.112,40.132-16.881,44.21,145.8,55.706a13.154,13.154,0,0,1,7.558,16.891l-10.054,26.229-2.232,5.848,5.783,2.2,26.209,10.014a13.05,13.05,0,0,1,7.553,16.881l-32.157,84.218-26.214-10a13.052,13.052,0,0,1-7.553-16.886l17.483-45.786L880.819,388.808a13.125,13.125,0,0,1-7.573-16.936l10.024-26.165,136.259,52.026,2.232-5.848L853.5,327.6a13.025,13.025,0,0,1-7.573-16.931l9.96-26.19,22.58,8.582,2.2-5.783-54.587-20.844a13.062,13.062,0,0,1-7.493-16.752Z" transform="translate(-1120.683 587.022)" fill="none" stroke="#fff" stroke-width="7"/>
            <path id="Path_72441" data-name="Path 72441" d="M914.483,273.639,906,295.836l-55.756-21.282,14.678-38.442,39.511,15.081A17.4,17.4,0,0,1,914.483,273.639Z" transform="translate(-991.585 637.555)" fill="none" stroke="#fff" stroke-width="7"/>
            <rect id="Rectangle_40877" data-name="Rectangle 40877" width="41.141" height="54.016" transform="translate(-196.794 890.922) rotate(-69.096)" fill="none" stroke="#fff" stroke-width="7"/>
            <path id="Path_72442" data-name="Path 72442" d="M1134.979,188.158,1094.847,293.27l-44.209-16.881-55.706,145.8a13.154,13.154,0,0,1-16.891,7.558L951.81,419.689l-5.848-2.233-2.2,5.783-10.014,26.21A13.049,13.049,0,0,1,916.864,457l-84.218-32.157,10-26.215a13.053,13.053,0,0,1,16.886-7.553l45.786,17.483,64.239-168.247a13.125,13.125,0,0,1,16.936-7.573l26.165,10.024L960.636,379.024l5.848,2.233,64.283-168.267a13.026,13.026,0,0,1,16.931-7.573l26.189,9.96-8.582,22.58,5.783,2.2,20.844-54.587a13.061,13.061,0,0,1,16.752-7.493Z" transform="translate(-1061.511 403.712)" fill="none" stroke="#fff" stroke-width="7"/>
            <path id="Path_72443" data-name="Path 72443" d="M890.913,273.973l-22.2-8.473L890,209.744l38.442,14.679-15.082,39.511A17.392,17.392,0,0,1,890.913,273.973Z" transform="translate(-918.226 532.81)" fill="none" stroke="#fff" stroke-width="7"/>
            <rect id="Rectangle_40878" data-name="Rectangle 40878" width="54.016" height="41.14" transform="translate(-26.314 737.556) rotate(-69.097)" fill="none" stroke="#fff" stroke-width="7"/>
            <path id="Path_72444" data-name="Path 72444" d="M1152.872,494.474,1047.76,454.342l16.882-44.21-145.8-55.706a13.154,13.154,0,0,1-7.558-16.891l10.054-26.23,2.233-5.848-5.783-2.2L891.581,293.24a13.049,13.049,0,0,1-7.553-16.881l32.156-84.218,26.215,10a13.053,13.053,0,0,1,7.553,16.886l-17.483,45.786,168.247,64.239a13.125,13.125,0,0,1,7.573,16.936l-10.024,26.165L962.005,320.131l-2.233,5.848,168.267,64.283a13.026,13.026,0,0,1,7.573,16.931l-9.96,26.19-22.58-8.582-2.2,5.783,54.587,20.844a13.062,13.062,0,0,1,7.494,16.752Z" transform="translate(-860.856 462.883)" fill="none" stroke="#fff" stroke-width="7"/>
            <path id="Path_72445" data-name="Path 72445" d="M895.1,250.407l8.473-22.2,55.756,21.282-14.679,38.442-39.511-15.081A17.393,17.393,0,0,1,895.1,250.407Z" transform="translate(-817.993 606.165)" fill="none" stroke="#fff" stroke-width="7"/>
            <rect id="Rectangle_40879" data-name="Rectangle 40879" width="41.14" height="54.016" transform="translate(131.65 896.004) rotate(-69.096)" fill="none" stroke="#fff" stroke-width="7"/>
            <path id="Path_72446" data-name="Path 72446" d="M863.9,512.367l40.127-105.112,44.21,16.881,55.706-145.8a13.154,13.154,0,0,1,16.891-7.558l26.23,10.054,5.853,2.233,2.2-5.783,10.01-26.21a13.049,13.049,0,0,1,16.881-7.553l84.218,32.157-10,26.215a13.052,13.052,0,0,1-16.886,7.553l-45.786-17.483-64.239,168.247a13.125,13.125,0,0,1-16.936,7.573l-26.16-10.024L1038.234,321.5l-5.847-2.233L968.1,487.534a13.026,13.026,0,0,1-16.931,7.573l-26.189-9.96,8.582-22.58-5.778-2.2-20.849,54.587a13.062,13.062,0,0,1-16.752,7.493Z" transform="translate(-937.373 663.538)" fill="none" stroke="#fff" stroke-width="7"/>
            <path id="Path_72447" data-name="Path 72447" d="M914.144,254.589l22.2,8.478-21.281,55.756-38.442-14.679L891.7,264.633A17.4,17.4,0,0,1,914.144,254.589Z" transform="translate(-886.84 706.399)" fill="none" stroke="#fff" stroke-width="7"/>
            <rect id="Rectangle_40880" data-name="Rectangle 40880" width="54.016" height="41.14" transform="translate(-31.402 1066) rotate(-69.096)" fill="none" stroke="#fff" stroke-width="7"/>
            <path id="Path_72448" data-name="Path 72448" d="M992.166,105.391l105.107,40.132-16.881,44.215,145.8,55.7a13.151,13.151,0,0,1,7.554,16.891l-10.049,26.229-2.233,5.848,5.778,2.2,26.21,10.014A13.049,13.049,0,0,1,1261,323.506l-32.152,84.223-26.209-10.009a13.054,13.054,0,0,1-7.554-16.886l17.479-45.781-168.242-64.244a13.117,13.117,0,0,1-7.573-16.931l10.019-26.17,136.26,52.026,2.232-5.848L1016.994,209.6a13.031,13.031,0,0,1-7.573-16.931l9.96-26.195,22.58,8.587,2.208-5.783-54.592-20.844a13.051,13.051,0,0,1-7.488-16.747Z" transform="translate(-471.191 118.276)" fill="none" stroke="#fff" stroke-width="7"/>
            <path id="Path_72449" data-name="Path 72449" d="M1077.974,155.639l-8.473,22.2-55.751-21.3,14.674-38.432,39.511,15.081A17.384,17.384,0,0,1,1077.974,155.639Z" transform="translate(-342.09 168.809)" fill="none" stroke="#fff" stroke-width="7"/>
            <rect id="Rectangle_40881" data-name="Rectangle 40881" width="41.14" height="54.016" transform="translate(616.198 304.187) rotate(-69.112)" fill="none" stroke="#fff" stroke-width="7"/>
            <path id="Path_72450" data-name="Path 72450" d="M1298.483,70.161,1258.35,175.268l-44.214-16.881-55.7,145.8a13.15,13.15,0,0,1-16.891,7.553l-26.23-10.049-5.848-2.233-2.2,5.778-10.014,26.21A13.049,13.049,0,0,1,1080.367,339l-84.222-32.152,10.01-26.21a13.054,13.054,0,0,1,16.886-7.553l45.781,17.478,64.243-168.242A13.118,13.118,0,0,1,1150,114.744l26.17,10.019L1124.14,261.023l5.848,2.233L1194.27,94.989a13.032,13.032,0,0,1,16.932-7.573l26.195,9.96-8.587,22.58,5.783,2.208,20.844-54.592a13.052,13.052,0,0,1,16.748-7.488Z" transform="translate(-412.025 -65.032)" fill="none" stroke="#fff" stroke-width="7"/>
            <path id="Path_72451" data-name="Path 72451" d="M1054.417,155.969l-22.2-8.473,21.3-55.751,38.432,14.674-15.082,39.511A17.384,17.384,0,0,1,1054.417,155.969Z" transform="translate(-268.74 64.069)" fill="none" stroke="#fff" stroke-width="7"/>
            <rect id="Rectangle_40882" data-name="Rectangle 40882" width="54.016" height="41.14" transform="matrix(0.357, -0.934, 0.934, 0.357, 786.679, 150.817)" fill="none" stroke="#fff" stroke-width="7"/>
            <path id="Path_72452" data-name="Path 72452" d="M1316.363,376.474l-105.107-40.127,16.881-44.215-145.8-55.7a13.153,13.153,0,0,1-7.552-16.891l10.049-26.23,2.233-5.848-5.778-2.2-26.21-10.014a13.052,13.052,0,0,1-7.553-16.886l32.152-84.218,26.21,10.009a13.054,13.054,0,0,1,7.552,16.886l-17.478,45.781,168.242,64.244a13.117,13.117,0,0,1,7.573,16.931l-10.02,26.165L1125.5,202.136l-2.232,5.843,168.267,64.288a13.03,13.03,0,0,1,7.572,16.931l-9.959,26.195-22.579-8.587-2.208,5.778,54.592,20.844a13.059,13.059,0,0,1,7.489,16.752Z" transform="translate(-211.362 -5.862)" fill="none" stroke="#fff" stroke-width="7"/>
            <path id="Path_72453" data-name="Path 72453" d="M1058.6,132.412l8.474-22.2,55.75,21.3-14.673,38.432-39.511-15.081A17.384,17.384,0,0,1,1058.6,132.412Z" transform="translate(-168.505 137.419)" fill="none" stroke="#fff" stroke-width="7"/>
            <rect id="Rectangle_40883" data-name="Rectangle 40883" width="41.14" height="54.016" transform="translate(944.644 309.271) rotate(-69.112)" fill="none" stroke="#fff" stroke-width="7"/>
            <path id="Path_72454" data-name="Path 72454" d="M1027.4,394.358l40.127-105.107,44.216,16.881,55.7-145.8a13.151,13.151,0,0,1,16.891-7.553l26.23,10.049,5.847,2.233,2.2-5.778,10.015-26.21a13.049,13.049,0,0,1,16.881-7.553l84.223,32.152-10.009,26.21a13.055,13.055,0,0,1-16.887,7.553l-45.781-17.478L1192.808,342.2a13.117,13.117,0,0,1-16.931,7.573l-26.165-10.019L1201.734,203.5l-5.848-2.233L1131.6,369.531a13.03,13.03,0,0,1-16.931,7.573l-26.195-9.96,8.587-22.58-5.778-2.208-20.849,54.592a13.051,13.051,0,0,1-16.748,7.489Z" transform="translate(-287.883 194.797)" fill="none" stroke="#fff" stroke-width="7"/>
            <path id="Path_72455" data-name="Path 72455" d="M1077.643,136.592l22.2,8.473-21.3,55.751-38.432-14.673,15.082-39.511A17.383,17.383,0,0,1,1077.643,136.592Z" transform="translate(-237.35 237.655)" fill="none" stroke="#fff" stroke-width="7"/>
            <rect id="Rectangle_40884" data-name="Rectangle 40884" width="54.016" height="41.14" transform="translate(781.595 479.263) rotate(-69.111)" fill="none" stroke="#fff" stroke-width="7"/>
            <path id="Path_72456" data-name="Path 72456" d="M910.413,164.39l105.112,40.137-16.881,44.21,145.8,55.706a13.145,13.145,0,0,1,7.553,16.886l-10.049,26.234-2.238,5.848,5.783,2.2,26.214,10.014a13.042,13.042,0,0,1,7.548,16.881L1147.1,466.728l-26.214-10a13.053,13.053,0,0,1-7.553-16.886l17.483-45.781L962.569,329.812A13.117,13.117,0,0,1,955,312.876l10.024-26.16,136.259,52.021,2.232-5.848L935.246,268.607a13.026,13.026,0,0,1-7.573-16.931l9.96-26.19,22.58,8.577,2.208-5.778-54.592-20.844a13.064,13.064,0,0,1-7.493-16.752Z" transform="translate(-795.938 352.645)" fill="none" stroke="#fff" stroke-width="7"/>
            <path id="Path_72457" data-name="Path 72457" d="M996.224,214.639l-8.473,22.2L932,215.549l14.674-38.437L986.184,192.2A17.382,17.382,0,0,1,996.224,214.639Z" transform="translate(-666.836 403.182)" fill="none" stroke="#fff" stroke-width="7"/>
            <rect id="Rectangle_40885" data-name="Rectangle 40885" width="41.14" height="54.018" transform="translate(209.699 597.549) rotate(-69.096)" fill="none" stroke="#fff" stroke-width="7"/>
            <path id="Path_72458" data-name="Path 72458" d="M1216.734,129.158,1176.6,234.27l-44.21-16.881-55.706,145.8a13.146,13.146,0,0,1-16.886,7.553l-26.234-10.049-5.848-2.238-2.2,5.783L1015.5,390.449A13.043,13.043,0,0,1,998.614,398L914.4,365.845l10-26.214a13.052,13.052,0,0,1,16.886-7.553l45.781,17.483,64.244-168.247a13.117,13.117,0,0,1,16.936-7.573l26.16,10.024-52.021,136.259,5.847,2.233,64.284-168.267a13.026,13.026,0,0,1,16.931-7.573l26.19,9.96-8.577,22.58,5.778,2.208,20.845-54.592a13.063,13.063,0,0,1,16.752-7.493Z" transform="translate(-736.766 169.339)" fill="none" stroke="#fff" stroke-width="7"/>
            <path id="Path_72459" data-name="Path 72459" d="M972.667,214.969l-22.2-8.473,21.292-55.751,38.437,14.674-15.086,39.511A17.382,17.382,0,0,1,972.667,214.969Z" transform="translate(-593.485 298.441)" fill="none" stroke="#fff" stroke-width="7"/>
            <rect id="Rectangle_40886" data-name="Rectangle 40886" width="54.018" height="41.14" transform="translate(380.181 444.184) rotate(-69.097)" fill="none" stroke="#fff" stroke-width="7"/>
            <path id="Path_72460" data-name="Path 72460" d="M1234.62,435.474l-105.112-40.132,16.882-44.21-145.8-55.706a13.146,13.146,0,0,1-7.553-16.886l10.049-26.235,2.238-5.848-5.783-2.2L973.329,234.24a13.045,13.045,0,0,1-7.548-16.881l32.152-84.218,26.215,10a13.052,13.052,0,0,1,7.553,16.886l-17.483,45.776,168.247,64.249a13.116,13.116,0,0,1,7.573,16.936l-10.025,26.16-136.259-52.026-2.233,5.853,168.267,64.278a13.032,13.032,0,0,1,7.573,16.936l-9.96,26.185-22.58-8.572-2.208,5.778,54.592,20.844a13.063,13.063,0,0,1,7.493,16.752Z" transform="translate(-536.109 228.511)" fill="none" stroke="#fff" stroke-width="7"/>
            <path id="Path_72461" data-name="Path 72461" d="M976.847,191.411l8.473-22.2,55.75,21.292L1026.4,228.938l-39.51-15.086A17.381,17.381,0,0,1,976.847,191.411Z" transform="translate(-493.249 371.788)" fill="none" stroke="#fff" stroke-width="7"/>
            <rect id="Rectangle_40887" data-name="Rectangle 40887" width="41.139" height="54.018" transform="translate(538.146 602.63) rotate(-69.096)" fill="none" stroke="#fff" stroke-width="7"/>
            <path id="Path_72462" data-name="Path 72462" d="M945.644,453.365l40.137-105.112,44.21,16.881,55.706-145.8a13.146,13.146,0,0,1,16.886-7.553l26.234,10.049,5.848,2.238,2.2-5.783,10.014-26.215a13.042,13.042,0,0,1,16.881-7.548l84.218,32.152-10,26.215a13.052,13.052,0,0,1-16.886,7.553l-45.781-17.483-64.244,168.247a13.117,13.117,0,0,1-16.936,7.573l-26.16-10.024L1119.992,262.5l-5.847-2.233-64.283,168.267a13.026,13.026,0,0,1-16.931,7.573l-26.189-9.96,8.577-22.58-5.778-2.208L988.7,455.951a13.064,13.064,0,0,1-16.752,7.493Z" transform="translate(-612.636 429.168)" fill="none" stroke="#fff" stroke-width="7"/>
            <path id="Path_72463" data-name="Path 72463" d="M995.894,195.592l22.2,8.473L996.8,259.816l-38.437-14.673,15.086-39.511A17.381,17.381,0,0,1,995.894,195.592Z" transform="translate(-562.095 472.028)" fill="none" stroke="#fff" stroke-width="7"/>
            <rect id="Rectangle_40888" data-name="Rectangle 40888" width="54.019" height="41.139" transform="translate(375.094 772.629) rotate(-69.096)" fill="none" stroke="#fff" stroke-width="7"/>
            <path id="Path_72464" data-name="Path 72464" d="M828.666,105.39l105.107,40.137-16.881,44.21,145.8,55.706a13.151,13.151,0,0,1,7.558,16.886l-10.054,26.234-2.228,5.848,5.778,2.2,26.21,10.009a13.053,13.053,0,0,1,7.553,16.881l-32.157,84.223-26.209-10a13.054,13.054,0,0,1-7.553-16.886l17.478-45.786L880.822,270.812a13.127,13.127,0,0,1-7.573-16.936l10.02-26.165,136.259,52.026,2.232-5.848L853.5,209.607a13.027,13.027,0,0,1-7.573-16.931l9.955-26.195,22.58,8.582,2.208-5.778-54.587-20.844a13.055,13.055,0,0,1-7.494-16.752Z" transform="translate(-1120.681 118.272)" fill="none" stroke="#fff" stroke-width="7"/>
            <path id="Path_72465" data-name="Path 72465" d="M914.474,155.643,906,177.84,850.25,156.553l14.673-38.442L904.434,133.2A17.383,17.383,0,0,1,914.474,155.643Z" transform="translate(-991.581 168.805)" fill="none" stroke="#fff" stroke-width="7"/>
            <rect id="Rectangle_40889" data-name="Rectangle 40889" width="41.142" height="54.017" transform="translate(-196.794 304.182) rotate(-69.105)" fill="none" stroke="#fff" stroke-width="7"/>
            <path id="Path_72466" data-name="Path 72466" d="M1134.984,70.161l-40.137,105.107-44.209-16.881-55.706,145.8a13.15,13.15,0,0,1-16.886,7.558L951.81,301.687l-5.848-2.228-2.2,5.778-10.01,26.21A13.052,13.052,0,0,1,916.869,339l-84.223-32.157,10-26.21a13.054,13.054,0,0,1,16.886-7.553l45.786,17.478,64.239-168.242a13.127,13.127,0,0,1,16.936-7.573l26.165,10.019L960.636,261.023l5.848,2.233,64.283-168.262a13.028,13.028,0,0,1,16.931-7.573l26.195,9.955-8.583,22.58,5.778,2.208,20.844-54.587a13.055,13.055,0,0,1,16.752-7.493Z" transform="translate(-1061.511 -65.032)" fill="none" stroke="#fff" stroke-width="7"/>
            <path id="Path_72467" data-name="Path 72467" d="M890.913,155.969l-22.2-8.473L890,91.745l38.442,14.674-15.087,39.511A17.382,17.382,0,0,1,890.913,155.969Z" transform="translate(-918.226 64.069)" fill="none" stroke="#fff" stroke-width="7"/>
            <rect id="Rectangle_40890" data-name="Rectangle 40890" width="54.017" height="41.142" transform="translate(-26.312 150.815) rotate(-69.106)" fill="none" stroke="#fff" stroke-width="7"/>
            <path id="Path_72468" data-name="Path 72468" d="M1152.866,376.474,1047.76,336.342l16.882-44.21-145.8-55.706a13.15,13.15,0,0,1-7.558-16.886l10.054-26.234,2.228-5.848-5.778-2.2-26.209-10.009a13.058,13.058,0,0,1-7.553-16.886l32.156-84.218,26.21,10a13.055,13.055,0,0,1,7.553,16.886l-17.478,45.786,168.242,64.239a13.127,13.127,0,0,1,7.573,16.936l-10.019,26.165L962.005,202.126l-2.233,5.853,168.262,64.278a13.033,13.033,0,0,1,7.573,16.936l-9.955,26.195-22.58-8.582-2.208,5.778,54.587,20.844a13.055,13.055,0,0,1,7.494,16.752Z" transform="translate(-860.856 -5.862)" fill="none" stroke="#fff" stroke-width="7"/>
            <path id="Path_72469" data-name="Path 72469" d="M895.1,132.407l8.473-22.2,55.75,21.287-14.674,38.442-39.51-15.086A17.382,17.382,0,0,1,895.1,132.407Z" transform="translate(-817.995 137.419)" fill="none" stroke="#fff" stroke-width="7"/>
            <rect id="Rectangle_40891" data-name="Rectangle 40891" width="41.142" height="54.017" transform="translate(131.65 309.265) rotate(-69.105)" fill="none" stroke="#fff" stroke-width="7"/>
            <path id="Path_72470" data-name="Path 72470" d="M863.894,394.362l40.137-105.107,44.209,16.881,55.706-145.8a13.15,13.15,0,0,1,16.886-7.558l26.235,10.054,5.848,2.228,2.2-5.778,10.01-26.21a13.052,13.052,0,0,1,16.881-7.553l84.223,32.157-10,26.21a13.054,13.054,0,0,1-16.886,7.553l-45.786-17.478-64.239,168.242a13.127,13.127,0,0,1-16.936,7.573L986.215,339.76,1038.242,203.5l-5.847-2.233L968.111,369.529A13.028,13.028,0,0,1,951.18,377.1l-26.195-9.955,8.583-22.58-5.778-2.208-20.845,54.587a13.055,13.055,0,0,1-16.752,7.493Z" transform="translate(-937.381 194.793)" fill="none" stroke="#fff" stroke-width="7"/>
            <path id="Path_72471" data-name="Path 72471" d="M914.148,136.591l22.2,8.478-21.287,55.746-38.442-14.669L891.7,146.635A17.385,17.385,0,0,1,914.148,136.591Z" transform="translate(-886.844 237.651)" fill="none" stroke="#fff" stroke-width="7"/>
            <rect id="Rectangle_40892" data-name="Rectangle 40892" width="54.018" height="41.142" transform="translate(-31.401 479.258) rotate(-69.105)" fill="none" stroke="#fff" stroke-width="7"/>
            <path id="Path_72472" data-name="Path 72472" d="M910.416,46.39l105.107,40.137-16.881,44.21,145.8,55.706a13.143,13.143,0,0,1,7.553,16.886l-10.049,26.234-2.233,5.848,5.778,2.2,26.214,10.014a13.037,13.037,0,0,1,7.548,16.876L1147.1,348.728l-26.215-10a13.054,13.054,0,0,1-7.553-16.886l17.483-45.786L962.572,211.807A13.115,13.115,0,0,1,955,194.871l10.024-26.16,136.254,52.026,2.238-5.848L935.244,150.6a13.032,13.032,0,0,1-7.573-16.931l9.965-26.19,22.58,8.582,2.2-5.778L907.831,89.436a13.048,13.048,0,0,1-7.494-16.747Z" transform="translate(-795.936 -116.101)" fill="none" stroke="#fff" stroke-width="7"/>
            <path id="Path_72473" data-name="Path 72473" d="M996.232,96.639l-8.483,22.2L932,97.549l14.678-38.437L986.188,74.2A17.388,17.388,0,0,1,996.232,96.639Z" transform="translate(-666.84 -65.563)" fill="none" stroke="#fff" stroke-width="7"/>
            <rect id="Rectangle_40893" data-name="Rectangle 40893" width="41.144" height="54.021" transform="matrix(0.357, -0.934, 0.934, 0.357, 209.699, 10.804)" fill="none" stroke="#fff" stroke-width="7"/>
            <path id="Path_72474" data-name="Path 72474" d="M1216.734,11.161,1176.6,116.268l-44.21-16.881-55.706,145.8a13.144,13.144,0,0,1-16.886,7.553l-26.234-10.049-5.848-2.233-2.2,5.778L1015.5,272.447A13.037,13.037,0,0,1,998.619,280L914.4,247.848l10-26.215a13.054,13.054,0,0,1,16.886-7.553l45.786,17.483,64.244-168.247a13.115,13.115,0,0,1,16.936-7.573l26.16,10.024-52.026,136.254,5.847,2.238,64.289-168.272a13.032,13.032,0,0,1,16.931-7.573l26.19,9.965-8.583,22.58,5.778,2.2,20.849-54.587a13.048,13.048,0,0,1,16.747-7.493Z" transform="translate(-736.766 -299.405)" fill="none" stroke="#fff" stroke-width="7"/>
            <path id="Path_72475" data-name="Path 72475" d="M972.663,96.973l-22.2-8.478,21.287-55.751,38.437,14.679L995.1,86.933A17.381,17.381,0,0,1,972.663,96.973Z" transform="translate(-593.481 -170.308)" fill="none" stroke="#fff" stroke-width="7"/>
            <rect id="Rectangle_40894" data-name="Rectangle 40894" width="54.021" height="41.144" transform="translate(380.181 -142.559) rotate(-69.099)" fill="none" stroke="#fff" stroke-width="7"/>
            <path id="Path_72476" data-name="Path 72476" d="M1234.615,317.474l-105.107-40.132,16.882-44.21-145.8-55.706a13.144,13.144,0,0,1-7.553-16.886l10.049-26.234,2.233-5.848-5.778-2.2L973.329,116.24a13.043,13.043,0,0,1-7.548-16.881l32.147-84.218,26.214,10a13.054,13.054,0,0,1,7.553,16.886l-17.483,45.786,168.247,64.244A13.115,13.115,0,0,1,1190.032,169l-10.024,26.16-136.254-52.031-2.238,5.853,168.271,64.288a13.031,13.031,0,0,1,7.573,16.931l-9.965,26.19-22.58-8.582-2.2,5.778,54.587,20.844a13.055,13.055,0,0,1,7.494,16.752Z" transform="translate(-536.109 -240.235)" fill="none" stroke="#fff" stroke-width="7"/>
            <path id="Path_72477" data-name="Path 72477" d="M976.846,73.407l8.478-22.2,55.75,21.287L1026.4,110.934,986.885,95.847A17.382,17.382,0,0,1,976.846,73.407Z" transform="translate(-493.253 -96.953)" fill="none" stroke="#fff" stroke-width="7"/>
            <rect id="Rectangle_40895" data-name="Rectangle 40895" width="41.143" height="54.021" transform="translate(538.141 15.89) rotate(-69.099)" fill="none" stroke="#fff" stroke-width="7"/>
            <path id="Path_72478" data-name="Path 72478" d="M945.644,335.36l40.137-105.107,44.21,16.881,55.706-145.8a13.144,13.144,0,0,1,16.886-7.553l26.234,10.049,5.848,2.233,2.2-5.778,10.014-26.215a13.037,13.037,0,0,1,16.876-7.548l84.223,32.147-10,26.215a13.054,13.054,0,0,1-16.886,7.553l-45.786-17.483L1111.062,283.2a13.115,13.115,0,0,1-16.936,7.573l-26.16-10.024L1119.992,144.5l-5.847-2.238-64.288,168.272a13.032,13.032,0,0,1-16.931,7.573l-26.19-9.965,8.583-22.58-5.778-2.2L988.69,337.946a13.048,13.048,0,0,1-16.747,7.493Z" transform="translate(-612.636 -39.578)" fill="none" stroke="#fff" stroke-width="7"/>
            <path id="Path_72479" data-name="Path 72479" d="M995.894,77.591l22.2,8.478L996.8,141.82l-38.437-14.679L973.453,87.63A17.381,17.381,0,0,1,995.894,77.591Z" transform="translate(-562.095 3.278)" fill="none" stroke="#fff" stroke-width="7"/>
            <rect id="Rectangle_40896" data-name="Rectangle 40896" width="54.021" height="41.143" transform="translate(375.09 185.882) rotate(-69.098)" fill="none" stroke="#fff" stroke-width="7"/>
          </g>
        </g>
      </g>
    </g>
  </g>
</svg>
