<svg xmlns="http://www.w3.org/2000/svg" xmlns:xlink="http://www.w3.org/1999/xlink" width="430" height="932" viewBox="0 0 430 932">
  <defs>
    <clipPath id="clip-path">
      <rect id="Rectangle_52960" data-name="Rectangle 52960" width="430" height="932" fill="#fff" stroke="#707070" stroke-width="1"/>
    </clipPath>
    <linearGradient id="linear-gradient" x1="0.067" y1="0.059" x2="0.239" y2="0.546" gradientUnits="objectBoundingBox">
      <stop offset="0" stop-color="#dde8ee"/>
      <stop offset="1" stop-color="#f7fafb"/>
    </linearGradient>
    <clipPath id="clip-path-2">
      <rect id="Rectangle_52959" data-name="Rectangle 52959" width="321" height="932" transform="translate(204)" fill="#fff"/>
    </clipPath>
    <clipPath id="clip-path-3">
      <path id="Path_91766" data-name="Path 91766" d="M-19420.437-19797.992l-68.686,71.426-8.4,40.016-36.8,38.047-18.238,17.8,64.633,2.582-63.152,66.07,4.592,17.93-32.254,40.84-40.842,42.984,9.916,9.367h23.758l18.535,4.941-48.264,50.434-13.211,17.992-20.373,47.23-47.436,49.1,9.68,7.445h44.387l-2.467,16.66-15.242,6.895-36.357,37.9-6.828,6.3,5.027,4.051-26.752,49.906-35.057,35.266-15.455,17.234,23.756,4.5,35.982,2.875-62.715,64.848-28.16,59.861-40.352,42.053,8.844,8.178h34.8l10.32,9.455-8.537,15.664h-10.639l-28.232,28.637-8.871,11.031,11.16,38.479-31.348,11.055-54.961,57.252-26.127,24.422,2.441,42.451v29.113l-1.176,24.8,5.338,33.035-4.162,44.039-59.57,138.621,16.5-1437.352Z" transform="translate(20007.938 19846.559)" fill="none" stroke="#707070" stroke-width="1"/>
    </clipPath>
    <clipPath id="clip-path-4">
      <rect id="Rectangle_52900" data-name="Rectangle 52900" width="701.581" height="876.022" fill="none" stroke="#fff" stroke-width="7"/>
    </clipPath>
    <clipPath id="clip-path-5">
      <rect id="Rectangle_52929" data-name="Rectangle 52929" width="701.581" height="506.34" fill="none" stroke="#fff" stroke-width="7"/>
    </clipPath>
    <clipPath id="clip-path-6">
      <rect id="Rectangle_52958" data-name="Rectangle 52958" width="817.122" height="762.764" fill="none" stroke="#fff" stroke-width="7"/>
    </clipPath>
  </defs>
  <g id="Yasir_Main_BG" clip-path="url(#clip-path)">
    <g id="Yasir_Main_BG-2" data-name="Yasir_Main_BG" transform="translate(-204)">
      <rect id="Rectangle_52871" data-name="Rectangle 52871" width="1657" height="932" fill="url(#linear-gradient)"/>
      <g id="Mask_Group_162" data-name="Mask Group 162" opacity="0.425" clip-path="url(#clip-path-2)">
        <g id="Mask_Group_161" data-name="Mask Group 161" transform="translate(-62.942 -67.795)" clip-path="url(#clip-path-3)">
          <g id="Group_109514" data-name="Group 109514" transform="matrix(0.921, 0.391, -0.391, 0.921, -436.809, -509.717)">
            <g id="Group_109509" data-name="Group 109509" transform="translate(701.576 0)">
              <g id="Group_109508" data-name="Group 109508" transform="translate(0)" clip-path="url(#clip-path-4)">
                <path id="Path_91598" data-name="Path 91598" d="M9.417,0l90.708,34.628L85.557,72.784l125.817,48.076a11.339,11.339,0,0,1,6.519,14.568l-8.672,22.635-1.927,5.046,4.986,1.9,22.618,8.642a11.266,11.266,0,0,1,6.523,14.572L213.67,260.9l-22.623-8.638a11.259,11.259,0,0,1-6.518-14.568l15.087-39.512L54.43,142.745a11.315,11.315,0,0,1-6.54-14.611l8.655-22.575,117.583,44.893,1.927-5.046L30.846,89.927A11.241,11.241,0,0,1,24.307,75.32l8.6-22.605,19.486,7.411,1.9-4.986-47.106-18A11.261,11.261,0,0,1,.719,22.7Z" transform="translate(440.165 812.618)" fill="none" stroke="#fff" stroke-width="7"/>
                <path id="Path_91599" data-name="Path 91599" d="M55.431,32.384,48.115,51.544,0,33.174,12.663,0l34.1,13.019A15.012,15.012,0,0,1,55.431,32.384Z" transform="translate(579.617 867.2)" fill="none" stroke="#fff" stroke-width="7"/>
                <rect id="Rectangle_52872" data-name="Rectangle 52872" width="35.502" height="46.612" transform="translate(531.759 882.095) rotate(-69.096)" fill="none" stroke="#fff" stroke-width="7"/>
                <path id="Path_91600" data-name="Path 91600" d="M260.9,9.417l-34.629,90.708L188.118,85.557,140.042,211.374a11.338,11.338,0,0,1-14.568,6.518l-22.635-8.672-5.046-1.927-1.9,4.986L87.25,234.9a11.267,11.267,0,0,1-14.573,6.522L0,213.67l8.638-22.622a11.26,11.26,0,0,1,14.568-6.518l39.512,15.087L118.158,54.43a11.315,11.315,0,0,1,14.611-6.539l22.575,8.655L110.451,174.128l5.046,1.927L170.976,30.847a11.242,11.242,0,0,1,14.607-6.54l22.6,8.6-7.411,19.485,4.986,1.9,18-47.107A11.26,11.26,0,0,1,238.207.719Z" transform="translate(504.078 614.602)" fill="none" stroke="#fff" stroke-width="7"/>
                <path id="Path_91601" data-name="Path 91601" d="M19.16,55.427,0,48.115,18.37,0,51.544,12.663l-13.019,34.1A15.006,15.006,0,0,1,19.16,55.427Z" transform="translate(658.855 754.054)" fill="none" stroke="#fff" stroke-width="7"/>
                <rect id="Rectangle_52873" data-name="Rectangle 52873" width="46.612" height="35.502" transform="translate(678.873 749.74) rotate(-69.097)" fill="none" stroke="#fff" stroke-width="7"/>
                <path id="Path_91602" data-name="Path 91602" d="M232.751,260.9l-90.708-34.628,14.568-38.156L30.794,140.041a11.338,11.338,0,0,1-6.518-14.568l8.672-22.635,1.927-5.046-4.986-1.9L7.271,87.249A11.266,11.266,0,0,1,.749,72.677L28.5,0,51.121,8.638a11.259,11.259,0,0,1,6.517,14.568L42.552,62.717l145.187,55.44a11.315,11.315,0,0,1,6.539,14.611l-8.655,22.575L68.04,110.451,66.114,115.5l145.208,55.479a11.241,11.241,0,0,1,6.539,14.607l-8.6,22.605-19.486-7.411-1.9,4.986,47.106,18a11.261,11.261,0,0,1,6.467,14.448Z" transform="translate(720.828 678.519)" fill="none" stroke="#fff" stroke-width="7"/>
                <path id="Path_91603" data-name="Path 91603" d="M.989,19.159,8.3,0,56.416,18.37,43.754,51.544,9.657,38.525A15.007,15.007,0,0,1,.989,19.159Z" transform="translate(767.128 833.292)" fill="none" stroke="#fff" stroke-width="7"/>
                <rect id="Rectangle_52874" data-name="Rectangle 52874" width="35.501" height="46.612" transform="matrix(0.357, -0.934, 0.934, 0.357, 815.194, 886.476)" fill="none" stroke="#fff" stroke-width="7"/>
                <path id="Path_91604" data-name="Path 91604" d="M0,232.751l34.628-90.708,38.156,14.568L120.861,30.795a11.337,11.337,0,0,1,14.568-6.518l22.635,8.672,5.046,1.927,1.9-4.986,8.642-22.618A11.266,11.266,0,0,1,188.225.749L260.9,28.5l-8.638,22.622A11.259,11.259,0,0,1,237.7,57.639L198.185,42.552l-55.44,145.186a11.315,11.315,0,0,1-14.611,6.539l-22.575-8.655L150.451,68.041,145.4,66.114,89.927,211.322a11.242,11.242,0,0,1-14.607,6.54l-22.6-8.6,7.41-19.485-4.986-1.9-18,47.107A11.26,11.26,0,0,1,22.7,241.449Z" transform="translate(638.177 895.269)" fill="none" stroke="#fff" stroke-width="7"/>
                <path id="Path_91605" data-name="Path 91605" d="M32.384.989,51.544,8.3,33.174,56.416,0,43.753l13.019-34.1A15.006,15.006,0,0,1,32.384.989Z" transform="translate(692.762 941.569)" fill="none" stroke="#fff" stroke-width="7"/>
                <rect id="Rectangle_52875" data-name="Rectangle 52875" width="46.612" height="35.502" transform="matrix(0.357, -0.934, 0.934, 0.357, 674.491, 1033.178)" fill="none" stroke="#fff" stroke-width="7"/>
                <path id="Path_91606" data-name="Path 91606" d="M9.42,0l90.707,34.633L85.555,72.789l125.821,48.068a11.342,11.342,0,0,1,6.518,14.572l-8.672,22.635-1.932,5.046,4.991,1.905,22.613,8.638a11.261,11.261,0,0,1,6.518,14.568L213.672,260.9l-22.627-8.638a11.258,11.258,0,0,1-6.514-14.564l15.083-39.516L54.429,142.745a11.316,11.316,0,0,1-6.536-14.611l8.651-22.579,117.582,44.893,1.932-5.042L30.845,89.927A11.236,11.236,0,0,1,24.31,75.32l8.6-22.605,19.486,7.411,1.9-4.986-47.111-18A11.257,11.257,0,0,1,.722,22.7Z" transform="translate(89.376 1065.788)" fill="none" stroke="#fff" stroke-width="7"/>
                <path id="Path_91607" data-name="Path 91607" d="M55.431,32.389,48.115,51.544,0,33.174,12.663,0l34.1,13.023A15.011,15.011,0,0,1,55.431,32.389Z" transform="translate(228.827 1120.369)" fill="none" stroke="#fff" stroke-width="7"/>
                <rect id="Rectangle_52876" data-name="Rectangle 52876" width="35.503" height="46.612" transform="translate(180.971 1135.267) rotate(-69.102)" fill="none" stroke="#fff" stroke-width="7"/>
                <path id="Path_91608" data-name="Path 91608" d="M260.9,9.42l-34.633,90.708L188.113,85.555,140.046,211.376a11.342,11.342,0,0,1-14.572,6.518l-22.635-8.672-5.046-1.931-1.906,4.991L87.249,234.9a11.261,11.261,0,0,1-14.568,6.518L0,213.672l8.638-22.626A11.257,11.257,0,0,1,23.2,184.532l39.516,15.083,55.44-145.187a11.317,11.317,0,0,1,14.611-6.535l22.579,8.651L110.455,174.126l5.042,1.931L170.975,30.845a11.236,11.236,0,0,1,14.607-6.535l22.6,8.6-7.41,19.486,4.986,1.9,18-47.111A11.256,11.256,0,0,1,238.206.722Z" transform="translate(153.288 867.774)" fill="none" stroke="#fff" stroke-width="7"/>
                <path id="Path_91609" data-name="Path 91609" d="M19.155,55.427,0,48.115,18.37,0,51.544,12.663,38.52,46.764A15.005,15.005,0,0,1,19.155,55.427Z" transform="translate(308.065 1007.224)" fill="none" stroke="#fff" stroke-width="7"/>
                <rect id="Rectangle_52877" data-name="Rectangle 52877" width="46.611" height="35.503" transform="translate(328.084 1002.913) rotate(-69.103)" fill="none" stroke="#fff" stroke-width="7"/>
                <path id="Path_91610" data-name="Path 91610" d="M232.745,260.9l-90.708-34.633,14.572-38.156L30.788,140.046a11.343,11.343,0,0,1-6.519-14.572l8.673-22.635,1.93-5.046-4.99-1.905L7.269,87.249A11.26,11.26,0,0,1,.751,72.681L28.492,0,51.119,8.638A11.257,11.257,0,0,1,57.632,23.2L42.549,62.717l145.187,55.44a11.316,11.316,0,0,1,6.535,14.611l-8.651,22.579L68.038,110.455,66.107,115.5l145.212,55.478a11.236,11.236,0,0,1,6.535,14.607l-8.6,22.6-19.485-7.411-1.9,4.986,47.111,18a11.256,11.256,0,0,1,6.462,14.448Z" transform="translate(370.044 931.689)" fill="none" stroke="#fff" stroke-width="7"/>
                <path id="Path_91611" data-name="Path 91611" d="M.989,19.155,8.3,0,56.416,18.37,43.753,51.544,9.653,38.521A15.005,15.005,0,0,1,.989,19.155Z" transform="translate(416.338 1086.462)" fill="none" stroke="#fff" stroke-width="7"/>
                <rect id="Rectangle_52878" data-name="Rectangle 52878" width="35.503" height="46.612" transform="translate(464.404 1139.65) rotate(-69.103)" fill="none" stroke="#fff" stroke-width="7"/>
                <path id="Path_91612" data-name="Path 91612" d="M0,232.744l34.633-90.707,38.155,14.572L120.857,30.788a11.342,11.342,0,0,1,14.572-6.518l22.635,8.672,5.046,1.931,1.906-4.99,8.637-22.614A11.261,11.261,0,0,1,188.221.751L260.9,28.492l-8.638,22.626A11.258,11.258,0,0,1,237.7,57.632L198.185,42.55l-55.44,145.186a11.316,11.316,0,0,1-14.611,6.535l-22.579-8.651L150.447,68.038l-5.042-1.931L89.927,211.319a11.236,11.236,0,0,1-14.607,6.535l-22.6-8.6,7.411-19.485-4.986-1.9-18,47.111A11.256,11.256,0,0,1,22.7,241.442Z" transform="translate(287.386 1148.446)" fill="none" stroke="#fff" stroke-width="7"/>
                <path id="Path_91613" data-name="Path 91613" d="M32.389.989,51.544,8.3,33.174,56.416,0,43.754l13.023-34.1A15,15,0,0,1,32.389.989Z" transform="translate(341.972 1194.739)" fill="none" stroke="#fff" stroke-width="7"/>
                <rect id="Rectangle_52879" data-name="Rectangle 52879" width="46.612" height="35.503" transform="translate(323.701 1286.349) rotate(-69.102)" fill="none" stroke="#fff" stroke-width="7"/>
                <path id="Path_91614" data-name="Path 91614" d="M9.417,0l90.708,34.628L85.557,72.784l125.817,48.072a11.343,11.343,0,0,1,6.519,14.572l-8.672,22.635-1.931,5.046,4.99,1.9,22.618,8.642a11.263,11.263,0,0,1,6.518,14.572L213.67,260.9l-22.622-8.638a11.263,11.263,0,0,1-6.518-14.572l15.087-39.507L54.426,142.745a11.316,11.316,0,0,1-6.535-14.611l8.651-22.579,117.587,44.893,1.926-5.046L30.842,89.927a11.244,11.244,0,0,1-6.535-14.611l8.6-22.6,19.486,7.411,1.9-4.99L7.182,37.143A11.267,11.267,0,0,1,.72,22.691Z" transform="translate(-261.416 812.618)" fill="none" stroke="#fff" stroke-width="7"/>
                <path id="Path_91615" data-name="Path 91615" d="M55.427,32.384,48.115,51.544,0,33.169,12.667,0l34.1,13.015A15.011,15.011,0,0,1,55.427,32.384Z" transform="translate(-121.963 867.2)" fill="none" stroke="#fff" stroke-width="7"/>
                <rect id="Rectangle_52880" data-name="Rectangle 52880" width="35.501" height="46.612" transform="translate(-169.822 882.095) rotate(-69.102)" fill="none" stroke="#fff" stroke-width="7"/>
                <path id="Path_91616" data-name="Path 91616" d="M260.9,9.417l-34.629,90.708L188.118,85.557,140.046,211.374a11.342,11.342,0,0,1-14.572,6.518l-22.635-8.672-5.046-1.931-1.9,4.99L87.249,234.9a11.264,11.264,0,0,1-14.573,6.518L0,213.67l8.638-22.622a11.264,11.264,0,0,1,14.572-6.518l39.507,15.087,55.44-145.191a11.317,11.317,0,0,1,14.611-6.535l22.579,8.651L110.455,174.128l5.046,1.927L170.975,30.842a11.245,11.245,0,0,1,14.611-6.535l22.6,8.6-7.41,19.485,4.99,1.9L223.759,7.182A11.268,11.268,0,0,1,238.211.72Z" transform="translate(-197.502 614.602)" fill="none" stroke="#fff" stroke-width="7"/>
                <path id="Path_91617" data-name="Path 91617" d="M19.16,55.427,0,48.115,18.374,0l33.17,12.667-13.015,34.1A15.01,15.01,0,0,1,19.16,55.427Z" transform="translate(-42.726 754.054)" fill="none" stroke="#fff" stroke-width="7"/>
                <rect id="Rectangle_52881" data-name="Rectangle 52881" width="46.612" height="35.501" transform="translate(-22.704 749.741) rotate(-69.103)" fill="none" stroke="#fff" stroke-width="7"/>
                <path id="Path_91618" data-name="Path 91618" d="M232.749,260.9l-90.708-34.628,14.568-38.156L30.792,140.046a11.343,11.343,0,0,1-6.518-14.572l8.673-22.635,1.931-5.046-4.99-1.9L7.269,87.249A11.263,11.263,0,0,1,.751,72.677L28.5,0,51.119,8.638A11.264,11.264,0,0,1,57.636,23.21L42.549,62.717l145.191,55.44a11.317,11.317,0,0,1,6.535,14.611l-8.651,22.579L68.038,110.455,66.111,115.5l145.213,55.474a11.244,11.244,0,0,1,6.535,14.611l-8.6,22.6-19.486-7.411-1.9,4.991,47.111,17.992a11.267,11.267,0,0,1,6.462,14.452Z" transform="translate(19.25 678.519)" fill="none" stroke="#fff" stroke-width="7"/>
                <path id="Path_91619" data-name="Path 91619" d="M.99,19.159,8.3,0,56.417,18.374,43.75,51.544,9.653,38.529A15.011,15.011,0,0,1,.99,19.159Z" transform="translate(65.547 833.292)" fill="none" stroke="#fff" stroke-width="7"/>
                <rect id="Rectangle_52882" data-name="Rectangle 52882" width="35.501" height="46.612" transform="translate(113.613 886.481) rotate(-69.103)" fill="none" stroke="#fff" stroke-width="7"/>
                <path id="Path_91620" data-name="Path 91620" d="M0,232.749l34.628-90.708,38.156,14.568L120.857,30.792a11.342,11.342,0,0,1,14.572-6.518l22.635,8.672,5.046,1.931,1.9-4.99,8.642-22.618A11.264,11.264,0,0,1,188.225.751L260.9,28.5l-8.638,22.622a11.264,11.264,0,0,1-14.573,6.518L198.185,42.55,142.745,187.74a11.316,11.316,0,0,1-14.611,6.535l-22.579-8.651L150.447,68.038,145.4,66.111,89.927,211.324a11.244,11.244,0,0,1-14.611,6.535l-22.6-8.6,7.411-19.485-4.991-1.9L37.143,234.984a11.267,11.267,0,0,1-14.453,6.462Z" transform="translate(-63.404 895.272)" fill="none" stroke="#fff" stroke-width="7"/>
                <path id="Path_91621" data-name="Path 91621" d="M32.384.99,51.544,8.3,33.17,56.417,0,43.75l13.015-34.1A15.01,15.01,0,0,1,32.384.99Z" transform="translate(-8.818 941.569)" fill="none" stroke="#fff" stroke-width="7"/>
                <rect id="Rectangle_52883" data-name="Rectangle 52883" width="46.613" height="35.501" transform="translate(-27.09 1033.18) rotate(-69.102)" fill="none" stroke="#fff" stroke-width="7"/>
                <path id="Path_91622" data-name="Path 91622" d="M9.42,0l90.7,34.628L85.555,72.784l125.817,48.072a11.345,11.345,0,0,1,6.519,14.572l-8.672,22.635L207.3,163.11l4.981,1.9,22.618,8.642a11.263,11.263,0,0,1,6.523,14.568L213.668,260.9l-22.618-8.638a11.261,11.261,0,0,1-6.518-14.568l15.083-39.512L54.433,142.745a11.316,11.316,0,0,1-6.539-14.611l8.65-22.579,117.583,44.9,1.927-5.046L30.849,89.927A11.243,11.243,0,0,1,24.31,75.32L32.9,52.711,52.39,60.126l1.906-4.99L7.189,37.143A11.255,11.255,0,0,1,.721,22.7Z" transform="translate(440.167 306.278)" fill="none" stroke="#fff" stroke-width="7"/>
                <path id="Path_91623" data-name="Path 91623" d="M55.427,32.384,48.115,51.544,0,33.17,12.663,0l34.1,13.019A15,15,0,0,1,55.427,32.384Z" transform="translate(579.617 360.86)" fill="none" stroke="#fff" stroke-width="7"/>
                <rect id="Rectangle_52884" data-name="Rectangle 52884" width="35.501" height="46.612" transform="translate(531.759 375.756) rotate(-69.102)" fill="none" stroke="#fff" stroke-width="7"/>
                <path id="Path_91624" data-name="Path 91624" d="M260.9,9.42l-34.629,90.7L188.118,85.555,140.046,211.372a11.344,11.344,0,0,1-14.572,6.518l-22.635-8.672L97.792,207.3l-1.9,4.982L87.25,234.9a11.263,11.263,0,0,1-14.568,6.522L0,213.668,8.638,191.05a11.261,11.261,0,0,1,14.568-6.518l39.512,15.083,55.44-145.182a11.317,11.317,0,0,1,14.611-6.54l22.579,8.651-44.9,117.582,5.046,1.927,55.478-145.2a11.244,11.244,0,0,1,14.607-6.539L208.191,32.9,200.777,52.39l4.991,1.905L223.759,7.188A11.255,11.255,0,0,1,238.207.722Z" transform="translate(504.078 108.264)" fill="none" stroke="#fff" stroke-width="7"/>
                <path id="Path_91625" data-name="Path 91625" d="M19.16,55.427,0,48.115,18.374,0l33.17,12.663-13.019,34.1A15,15,0,0,1,19.16,55.427Z" transform="translate(658.855 247.715)" fill="none" stroke="#fff" stroke-width="7"/>
                <rect id="Rectangle_52885" data-name="Rectangle 52885" width="46.612" height="35.501" transform="translate(678.877 243.402) rotate(-69.103)" fill="none" stroke="#fff" stroke-width="7"/>
                <path id="Path_91626" data-name="Path 91626" d="M232.747,260.9l-90.7-34.628,14.568-38.156L30.794,140.046a11.344,11.344,0,0,1-6.518-14.572l8.672-22.635,1.923-5.046-4.982-1.9L7.271,87.249A11.263,11.263,0,0,1,.749,72.681L28.5,0,51.117,8.638a11.26,11.26,0,0,1,6.518,14.568L42.552,62.717l145.182,55.44a11.317,11.317,0,0,1,6.54,14.611l-8.651,22.579L68.04,110.451,66.114,115.5l145.2,55.479a11.243,11.243,0,0,1,6.539,14.607l-8.594,22.609-19.486-7.415-1.906,4.99,47.107,17.992a11.255,11.255,0,0,1,6.467,14.448Z" transform="translate(720.828 172.18)" fill="none" stroke="#fff" stroke-width="7"/>
                <path id="Path_91627" data-name="Path 91627" d="M.991,19.159,8.3,0,56.418,18.374,43.756,51.544,9.659,38.525A15,15,0,0,1,.991,19.159Z" transform="translate(767.125 326.952)" fill="none" stroke="#fff" stroke-width="7"/>
                <rect id="Rectangle_52886" data-name="Rectangle 52886" width="35.501" height="46.612" transform="translate(815.194 380.141) rotate(-69.103)" fill="none" stroke="#fff" stroke-width="7"/>
                <path id="Path_91628" data-name="Path 91628" d="M0,232.747l34.628-90.7,38.156,14.568L120.856,30.795a11.344,11.344,0,0,1,14.572-6.518l22.635,8.672,5.046,1.922,1.9-4.982,8.642-22.618A11.263,11.263,0,0,1,188.221.749L260.9,28.5l-8.638,22.618A11.261,11.261,0,0,1,237.7,57.635L198.185,42.552l-55.44,145.182a11.317,11.317,0,0,1-14.611,6.539l-22.579-8.651,44.9-117.582L145.4,66.114l-55.478,145.2a11.244,11.244,0,0,1-14.607,6.54l-22.609-8.595,7.414-19.486-4.99-1.905L37.143,234.978A11.255,11.255,0,0,1,22.7,241.445Z" transform="translate(638.177 388.93)" fill="none" stroke="#fff" stroke-width="7"/>
                <path id="Path_91629" data-name="Path 91629" d="M32.384.991,51.544,8.3,33.169,56.418,0,43.756l13.019-34.1A15,15,0,0,1,32.384.991Z" transform="translate(692.762 435.227)" fill="none" stroke="#fff" stroke-width="7"/>
                <rect id="Rectangle_52887" data-name="Rectangle 52887" width="46.613" height="35.501" transform="translate(674.491 526.841) rotate(-69.102)" fill="none" stroke="#fff" stroke-width="7"/>
                <path id="Path_91630" data-name="Path 91630" d="M9.417,0l90.708,34.633L85.553,72.788l125.821,48.068a11.349,11.349,0,0,1,6.519,14.577l-8.672,22.635-1.931,5.046,4.99,1.9,22.618,8.642a11.26,11.26,0,0,1,6.518,14.568L213.67,260.906l-22.627-8.638A11.26,11.26,0,0,1,184.53,237.7l15.083-39.512L54.426,142.749a11.316,11.316,0,0,1-6.535-14.611l8.65-22.579,117.586,44.893,1.927-5.046L30.847,89.931a11.228,11.228,0,0,1-6.535-14.607l8.595-22.605L52.392,60.13l1.906-4.99L7.182,37.147A11.269,11.269,0,0,1,.72,22.7Z" transform="translate(89.374 559.444)" fill="none" stroke="#fff" stroke-width="7"/>
                <path id="Path_91631" data-name="Path 91631" d="M55.423,32.384,48.111,51.544,0,33.169,12.658,0l34.1,13.019A15.007,15.007,0,0,1,55.423,32.384Z" transform="translate(228.831 614.03)" fill="none" stroke="#fff" stroke-width="7"/>
                <rect id="Rectangle_52888" data-name="Rectangle 52888" width="35.501" height="46.612" transform="translate(180.968 628.926) rotate(-69.102)" fill="none" stroke="#fff" stroke-width="7"/>
                <path id="Path_91632" data-name="Path 91632" d="M260.906,9.417l-34.633,90.708L188.118,85.553,140.05,211.374a11.348,11.348,0,0,1-14.576,6.518l-22.635-8.672-5.046-1.931-1.9,4.99L87.249,234.9a11.261,11.261,0,0,1-14.568,6.518L0,213.67l8.638-22.626a11.26,11.26,0,0,1,14.568-6.514l39.512,15.083,55.44-145.186a11.317,11.317,0,0,1,14.611-6.535l22.579,8.651L110.455,174.128l5.046,1.927L170.975,30.847a11.23,11.23,0,0,1,14.607-6.535l22.6,8.595-7.41,19.485,4.99,1.905L223.759,7.182A11.269,11.269,0,0,1,238.211.72Z" transform="translate(153.288 361.432)" fill="none" stroke="#fff" stroke-width="7"/>
                <path id="Path_91633" data-name="Path 91633" d="M19.159,55.423,0,48.111,18.374,0l33.17,12.659-13.019,34.1A15.007,15.007,0,0,1,19.159,55.423Z" transform="translate(308.065 500.889)" fill="none" stroke="#fff" stroke-width="7"/>
                <rect id="Rectangle_52889" data-name="Rectangle 52889" width="46.612" height="35.501" transform="translate(328.086 496.572) rotate(-69.103)" fill="none" stroke="#fff" stroke-width="7"/>
                <path id="Path_91634" data-name="Path 91634" d="M232.749,260.9l-90.708-34.629,14.572-38.156L30.792,140.05a11.351,11.351,0,0,1-6.519-14.577l8.673-22.635,1.93-5.046-4.99-1.9L7.269,87.249A11.263,11.263,0,0,1,.751,72.677L28.5,0,51.123,8.638a11.26,11.26,0,0,1,6.513,14.568L42.554,62.717l145.187,55.44a11.316,11.316,0,0,1,6.535,14.611l-8.651,22.579L68.039,110.455,66.111,115.5,211.32,170.975a11.229,11.229,0,0,1,6.535,14.607l-8.595,22.605-19.485-7.411-1.906,4.99,47.115,17.988a11.275,11.275,0,0,1,6.462,14.456Z" transform="translate(370.04 425.35)" fill="none" stroke="#fff" stroke-width="7"/>
                <path id="Path_91635" data-name="Path 91635" d="M.989,19.159,8.3,0,56.412,18.374,43.753,51.544,9.653,38.525A15.007,15.007,0,0,1,.989,19.159Z" transform="translate(416.338 580.122)" fill="none" stroke="#fff" stroke-width="7"/>
                <rect id="Rectangle_52890" data-name="Rectangle 52890" width="35.501" height="46.612" transform="translate(464.404 633.311) rotate(-69.103)" fill="none" stroke="#fff" stroke-width="7"/>
                <path id="Path_91636" data-name="Path 91636" d="M0,232.749l34.628-90.708,38.156,14.572L120.852,30.792a11.349,11.349,0,0,1,14.577-6.518l22.635,8.672,5.046,1.931,1.9-4.99,8.643-22.618A11.261,11.261,0,0,1,188.221.751L260.9,28.5l-8.638,22.626A11.261,11.261,0,0,1,237.7,57.637L198.185,42.554,142.745,187.74a11.316,11.316,0,0,1-14.611,6.535l-22.579-8.651L150.447,68.038,145.4,66.111,89.927,211.319a11.229,11.229,0,0,1-14.607,6.535l-22.6-8.595,7.411-19.486-4.991-1.905L37.143,234.984a11.269,11.269,0,0,1-14.453,6.462Z" transform="translate(287.386 642.102)" fill="none" stroke="#fff" stroke-width="7"/>
                <path id="Path_91637" data-name="Path 91637" d="M32.384.989,51.544,8.3,33.169,56.412,0,43.753l13.019-34.1A15.006,15.006,0,0,1,32.384.989Z" transform="translate(341.972 688.399)" fill="none" stroke="#fff" stroke-width="7"/>
                <rect id="Rectangle_52891" data-name="Rectangle 52891" width="46.613" height="35.501" transform="translate(323.701 780.01) rotate(-69.102)" fill="none" stroke="#fff" stroke-width="7"/>
                <path id="Path_91638" data-name="Path 91638" d="M9.419,0l90.7,34.633L85.555,72.788l125.817,48.068a11.349,11.349,0,0,1,6.519,14.577l-8.672,22.635-1.927,5.046,4.986,1.9,22.618,8.642a11.261,11.261,0,0,1,6.518,14.568l-27.746,72.681-22.618-8.638a11.265,11.265,0,0,1-6.519-14.572l15.083-39.507L54.428,142.749a11.32,11.32,0,0,1-6.535-14.611l8.646-22.584,117.587,44.9,1.926-5.046L30.845,89.931A11.245,11.245,0,0,1,24.31,75.32l8.595-22.6L52.39,60.126l1.905-4.99L7.184,37.147A11.263,11.263,0,0,1,.722,22.7Z" transform="translate(-261.414 306.274)" fill="none" stroke="#fff" stroke-width="7"/>
                <path id="Path_91639" data-name="Path 91639" d="M55.423,32.384,48.111,51.544,0,33.165,12.663,0l34.1,13.015A15,15,0,0,1,55.423,32.384Z" transform="translate(-121.959 360.86)" fill="none" stroke="#fff" stroke-width="7"/>
                <rect id="Rectangle_52892" data-name="Rectangle 52892" width="35.503" height="46.614" transform="translate(-169.82 375.76) rotate(-69.112)" fill="none" stroke="#fff" stroke-width="7"/>
                <path id="Path_91640" data-name="Path 91640" d="M260.906,9.42l-34.633,90.7L188.118,85.555,140.05,211.372a11.348,11.348,0,0,1-14.576,6.518l-22.635-8.672-5.046-1.927-1.9,4.986L87.249,234.9a11.261,11.261,0,0,1-14.568,6.518L0,213.668,8.638,191.05a11.265,11.265,0,0,1,14.572-6.518l39.507,15.083,55.44-145.186a11.32,11.32,0,0,1,14.611-6.535l22.583,8.646-44.9,117.587,5.046,1.927L170.975,30.845a11.246,11.246,0,0,1,14.611-6.535l22.6,8.595L200.781,52.39l4.991,1.905L223.759,7.184A11.263,11.263,0,0,1,238.211.722Z" transform="translate(-197.502 108.264)" fill="none" stroke="#fff" stroke-width="7"/>
                <path id="Path_91641" data-name="Path 91641" d="M19.16,55.423,0,48.111,18.379,0,51.544,12.663l-13.015,34.1A15,15,0,0,1,19.16,55.423Z" transform="translate(-42.726 247.719)" fill="none" stroke="#fff" stroke-width="7"/>
                <rect id="Rectangle_52893" data-name="Rectangle 52893" width="46.613" height="35.503" transform="matrix(0.357, -0.934, 0.934, 0.357, -22.702, 243.407)" fill="none" stroke="#fff" stroke-width="7"/>
                <path id="Path_91642" data-name="Path 91642" d="M232.745,260.9l-90.7-34.628,14.568-38.156L30.792,140.05a11.35,11.35,0,0,1-6.518-14.577l8.672-22.635,1.927-5.046-4.986-1.9L7.269,87.249A11.264,11.264,0,0,1,.751,72.677L28.5,0,51.115,8.638A11.265,11.265,0,0,1,57.632,23.21L42.549,62.717l145.187,55.44a11.32,11.32,0,0,1,6.535,14.611l-8.646,22.579L68.038,110.455,66.111,115.5,211.32,170.975a11.244,11.244,0,0,1,6.535,14.611l-8.594,22.605-19.485-7.411-1.906,4.986,47.111,17.988a11.269,11.269,0,0,1,6.462,14.456Z" transform="translate(19.254 172.18)" fill="none" stroke="#fff" stroke-width="7"/>
                <path id="Path_91643" data-name="Path 91643" d="M.992,19.159,8.3,0l48.11,18.378L43.753,51.544,9.656,38.529A15,15,0,0,1,.992,19.159Z" transform="translate(65.549 326.952)" fill="none" stroke="#fff" stroke-width="7"/>
                <rect id="Rectangle_52894" data-name="Rectangle 52894" width="35.502" height="46.614" transform="translate(113.617 380.147) rotate(-69.112)" fill="none" stroke="#fff" stroke-width="7"/>
                <path id="Path_91644" data-name="Path 91644" d="M0,232.744l34.628-90.7,38.156,14.568L120.852,30.792a11.349,11.349,0,0,1,14.577-6.518l22.635,8.672,5.046,1.927,1.9-4.986,8.642-22.618A11.261,11.261,0,0,1,188.221.751L260.9,28.5l-8.638,22.618a11.266,11.266,0,0,1-14.573,6.518L198.185,42.55l-55.44,145.186a11.32,11.32,0,0,1-14.611,6.535l-22.579-8.646L150.447,68.038,145.4,66.111,89.927,211.319a11.244,11.244,0,0,1-14.611,6.535l-22.6-8.595,7.41-19.486-4.986-1.905L37.143,234.98a11.263,11.263,0,0,1-14.453,6.462Z" transform="translate(-63.404 388.932)" fill="none" stroke="#fff" stroke-width="7"/>
                <path id="Path_91645" data-name="Path 91645" d="M32.384.992,51.544,8.3,33.165,56.415,0,43.752l13.015-34.1A15,15,0,0,1,32.384.992Z" transform="translate(-8.818 435.227)" fill="none" stroke="#fff" stroke-width="7"/>
                <rect id="Rectangle_52895" data-name="Rectangle 52895" width="46.614" height="35.502" transform="translate(-27.089 526.844) rotate(-69.111)" fill="none" stroke="#fff" stroke-width="7"/>
                <path id="Path_91646" data-name="Path 91646" d="M9.42,0l90.7,34.633L85.551,72.788l125.821,48.068a11.348,11.348,0,0,1,6.519,14.577l-8.672,22.635-1.927,5.046,4.986,1.9,22.618,8.642a11.257,11.257,0,0,1,6.518,14.564L213.672,260.9l-22.627-8.634a11.265,11.265,0,0,1-6.514-14.572l15.083-39.512L54.429,142.749a11.318,11.318,0,0,1-6.536-14.611l8.651-22.584,117.582,44.9,1.932-5.046L30.845,89.931A11.24,11.24,0,0,1,24.31,75.32l8.6-22.605L52.395,60.13l1.9-4.99L7.185,37.147A11.264,11.264,0,0,1,.722,22.691Z" transform="translate(89.376 53.104)" fill="none" stroke="#fff" stroke-width="7"/>
                <path id="Path_91647" data-name="Path 91647" d="M55.427,32.384,48.111,51.539,0,33.17,12.663,0l34.1,13.019A15.006,15.006,0,0,1,55.427,32.384Z" transform="translate(228.831 107.69)" fill="none" stroke="#fff" stroke-width="7"/>
                <rect id="Rectangle_52896" data-name="Rectangle 52896" width="35.503" height="46.614" transform="translate(180.971 122.587) rotate(-69.105)" fill="none" stroke="#fff" stroke-width="7"/>
                <path id="Path_91648" data-name="Path 91648" d="M260.9,9.42l-34.633,90.7L188.114,85.551,140.045,211.372a11.347,11.347,0,0,1-14.576,6.518l-22.635-8.672-5.046-1.927-1.9,4.986L87.245,234.9a11.258,11.258,0,0,1-14.564,6.518L0,213.672l8.633-22.626a11.265,11.265,0,0,1,14.572-6.514l39.512,15.083L118.153,54.428a11.318,11.318,0,0,1,14.611-6.535l22.583,8.651-44.9,117.582,5.046,1.931L170.971,30.845a11.241,11.241,0,0,1,14.611-6.535l22.6,8.6-7.414,19.485,4.99,1.9L223.755,7.184A11.265,11.265,0,0,1,238.212.722Z" transform="translate(153.292 -144.905)" fill="none" stroke="#fff" stroke-width="7"/>
                <path id="Path_91649" data-name="Path 91649" d="M19.155,55.427,0,48.111,18.37,0,51.54,12.663l-13.019,34.1A15.007,15.007,0,0,1,19.155,55.427Z" transform="translate(308.069 -5.451)" fill="none" stroke="#fff" stroke-width="7"/>
                <rect id="Rectangle_52897" data-name="Rectangle 52897" width="46.613" height="35.503" transform="translate(328.087 -9.763) rotate(-69.106)" fill="none" stroke="#fff" stroke-width="7"/>
                <path id="Path_91650" data-name="Path 91650" d="M232.745,260.9l-90.7-34.628,14.572-38.156L30.792,140.046a11.349,11.349,0,0,1-6.518-14.577l8.672-22.635,1.927-5.046-4.986-1.9L7.269,87.245A11.257,11.257,0,0,1,.751,72.681L28.492,0,51.119,8.634a11.265,11.265,0,0,1,6.513,14.572L42.549,62.717l145.187,55.436a11.318,11.318,0,0,1,6.535,14.611l-8.651,22.579L68.038,110.451l-1.931,5.042,145.212,55.479a11.24,11.24,0,0,1,6.535,14.611l-8.6,22.605-19.485-7.415-1.9,4.99,47.111,17.988a11.27,11.27,0,0,1,6.462,14.461Z" transform="translate(370.044 -80.986)" fill="none" stroke="#fff" stroke-width="7"/>
                <path id="Path_91651" data-name="Path 91651" d="M.989,19.155,8.306,0,56.416,18.37,43.753,51.539,9.653,38.52A15.007,15.007,0,0,1,.989,19.155Z" transform="translate(416.338 73.787)" fill="none" stroke="#fff" stroke-width="7"/>
                <rect id="Rectangle_52898" data-name="Rectangle 52898" width="35.502" height="46.614" transform="translate(464.404 126.974) rotate(-69.106)" fill="none" stroke="#fff" stroke-width="7"/>
                <path id="Path_91652" data-name="Path 91652" d="M0,232.744l34.628-90.7,38.156,14.572L120.852,30.792a11.347,11.347,0,0,1,14.577-6.518l22.635,8.672,5.046,1.927,1.9-4.986,8.643-22.618A11.257,11.257,0,0,1,188.216.751L260.9,28.492l-8.633,22.627a11.266,11.266,0,0,1-14.573,6.514L198.181,42.549,142.745,187.736a11.318,11.318,0,0,1-14.611,6.535l-22.579-8.651L150.447,68.038,145.4,66.107,89.927,211.319a11.24,11.24,0,0,1-14.611,6.535l-22.6-8.6,7.415-19.485-4.991-1.9L37.143,234.98a11.264,11.264,0,0,1-14.456,6.462Z" transform="translate(287.386 135.762)" fill="none" stroke="#fff" stroke-width="7"/>
                <path id="Path_91653" data-name="Path 91653" d="M32.384.989,51.54,8.305,33.169,56.416,0,43.753l13.019-34.1A15.006,15.006,0,0,1,32.384.989Z" transform="translate(341.972 182.056)" fill="none" stroke="#fff" stroke-width="7"/>
                <rect id="Rectangle_52899" data-name="Rectangle 52899" width="46.614" height="35.502" transform="translate(323.7 273.669) rotate(-69.105)" fill="none" stroke="#fff" stroke-width="7"/>
              </g>
            </g>
            <g id="Group_109511" data-name="Group 109511" transform="translate(701.576 876.018)">
              <g id="Group_109510" data-name="Group 109510" transform="translate(0 0)" clip-path="url(#clip-path-5)">
                <path id="Path_91654" data-name="Path 91654" d="M9.42,0l90.708,34.633L85.555,72.788l125.817,48.072a11.34,11.34,0,0,1,6.519,14.568l-8.672,22.639L207.3,163.11l4.981,1.905,22.618,8.638a11.267,11.267,0,0,1,6.523,14.572l-27.746,72.681-22.622-8.642a11.254,11.254,0,0,1-6.518-14.564l15.087-39.516L54.433,142.745a11.314,11.314,0,0,1-6.539-14.611l8.655-22.575,117.578,44.9,1.931-5.046L30.849,89.931A11.248,11.248,0,0,1,24.31,75.32l8.6-22.605,19.486,7.41,1.9-4.986-47.107-18A11.254,11.254,0,0,1,.721,22.7Z" transform="translate(440.167 442.94)" fill="none" stroke="#fff" stroke-width="7"/>
                <path id="Path_91655" data-name="Path 91655" d="M55.427,32.389,48.111,51.544,0,33.174,12.663,0l34.1,13.023A15,15,0,0,1,55.427,32.389Z" transform="translate(579.622 497.522)" fill="none" stroke="#fff" stroke-width="7"/>
                <rect id="Rectangle_52901" data-name="Rectangle 52901" width="35.503" height="46.613" transform="translate(531.759 512.418) rotate(-69.096)" fill="none" stroke="#fff" stroke-width="7"/>
                <path id="Path_91656" data-name="Path 91656" d="M260.907,9.42l-34.633,90.708L188.118,85.555,140.046,211.372a11.339,11.339,0,0,1-14.568,6.518l-22.64-8.672L97.8,207.3l-1.906,4.982L87.254,234.9a11.268,11.268,0,0,1-14.572,6.522L0,213.672,8.643,191.05a11.254,11.254,0,0,1,14.564-6.518l39.516,15.087L118.162,54.432a11.315,11.315,0,0,1,14.611-6.539l22.575,8.655-44.9,117.578,5.046,1.931L170.976,30.849a11.248,11.248,0,0,1,14.611-6.54l22.6,8.6-7.41,19.485,4.986,1.9,18-47.107A11.253,11.253,0,0,1,238.212.722Z" transform="translate(504.078 244.926)" fill="none" stroke="#fff" stroke-width="7"/>
                <path id="Path_91657" data-name="Path 91657" d="M19.155,55.427,0,48.111,18.37,0,51.544,12.663,38.52,46.759A15,15,0,0,1,19.155,55.427Z" transform="translate(658.859 384.38)" fill="none" stroke="#fff" stroke-width="7"/>
                <rect id="Rectangle_52902" data-name="Rectangle 52902" width="46.613" height="35.503" transform="translate(678.875 380.063) rotate(-69.097)" fill="none" stroke="#fff" stroke-width="7"/>
                <path id="Path_91658" data-name="Path 91658" d="M232.747,260.9l-90.708-34.628,14.572-38.156L30.794,140.046a11.339,11.339,0,0,1-6.518-14.568l8.672-22.639L34.871,97.8l-4.982-1.905L7.271,87.249A11.264,11.264,0,0,1,.749,72.677L28.495,0,51.117,8.642a11.254,11.254,0,0,1,6.518,14.564L42.547,62.722l145.187,55.436a11.321,11.321,0,0,1,6.539,14.615l-8.655,22.575-117.578-44.9L66.11,115.5l145.208,55.478a11.247,11.247,0,0,1,6.539,14.611l-8.6,22.605-19.486-7.411-1.9,4.986,47.106,18a11.254,11.254,0,0,1,6.467,14.448Z" transform="translate(720.832 308.841)" fill="none" stroke="#fff" stroke-width="7"/>
                <path id="Path_91659" data-name="Path 91659" d="M.989,19.155,8.306,0l48.11,18.37L43.754,51.544,9.657,38.52A15,15,0,0,1,.989,19.155Z" transform="translate(767.128 463.618)" fill="none" stroke="#fff" stroke-width="7"/>
                <rect id="Rectangle_52903" data-name="Rectangle 52903" width="35.503" height="46.613" transform="matrix(0.357, -0.934, 0.934, 0.357, 815.195, 516.801)" fill="none" stroke="#fff" stroke-width="7"/>
                <path id="Path_91660" data-name="Path 91660" d="M0,232.747l34.633-90.708,38.156,14.572L120.861,30.795a11.339,11.339,0,0,1,14.568-6.518l22.64,8.672,5.041,1.922,1.906-4.982,8.638-22.618A11.268,11.268,0,0,1,188.225.749l72.682,27.746-8.642,22.622A11.254,11.254,0,0,1,237.7,57.635L198.185,42.548l-55.44,145.186a11.316,11.316,0,0,1-14.611,6.54l-22.575-8.655,44.9-117.578-5.046-1.931L89.931,211.318a11.248,11.248,0,0,1-14.611,6.54l-22.6-8.6,7.41-19.485-4.986-1.9-18,47.107A11.253,11.253,0,0,1,22.7,241.445Z" transform="translate(638.177 525.587)" fill="none" stroke="#fff" stroke-width="7"/>
                <path id="Path_91661" data-name="Path 91661" d="M32.389.989,51.544,8.305,33.174,56.416,0,43.753l13.023-34.1A15,15,0,0,1,32.389.989Z" transform="translate(692.762 571.883)" fill="none" stroke="#fff" stroke-width="7"/>
                <rect id="Rectangle_52904" data-name="Rectangle 52904" width="46.613" height="35.503" transform="matrix(0.357, -0.934, 0.934, 0.357, 674.492, 663.493)" fill="none" stroke="#fff" stroke-width="7"/>
                <path id="Path_91662" data-name="Path 91662" d="M9.42,0l90.7,34.633L85.551,72.788l125.821,48.072a11.338,11.338,0,0,1,6.519,14.568l-8.672,22.639-1.927,5.042,4.986,1.905,22.618,8.638a11.264,11.264,0,0,1,6.518,14.572l-27.746,72.681-22.623-8.642a11.256,11.256,0,0,1-6.514-14.564l15.079-39.516L54.429,142.745a11.315,11.315,0,0,1-6.536-14.611l8.651-22.575,117.582,44.893,1.932-5.046L30.845,89.931A11.24,11.24,0,0,1,24.31,75.32l8.6-22.605L52.39,60.126,54.3,55.14l-47.111-18A11.257,11.257,0,0,1,.722,22.7Z" transform="translate(89.376 696.11)" fill="none" stroke="#fff" stroke-width="7"/>
                <path id="Path_91663" data-name="Path 91663" d="M55.427,32.388,48.111,51.543,0,33.174,12.663,0l34.1,13.023A15,15,0,0,1,55.427,32.388Z" transform="translate(228.831 750.691)" fill="none" stroke="#fff" stroke-width="7"/>
                <rect id="Rectangle_52905" data-name="Rectangle 52905" width="35.502" height="46.613" transform="translate(180.971 765.593) rotate(-69.109)" fill="none" stroke="#fff" stroke-width="7"/>
                <path id="Path_91664" data-name="Path 91664" d="M260.906,9.42l-34.633,90.7L188.118,85.551,140.046,211.372a11.338,11.338,0,0,1-14.568,6.518l-22.639-8.672L97.8,207.291l-1.906,4.986L87.253,234.9a11.264,11.264,0,0,1-14.572,6.518L0,213.668l8.642-22.622a11.255,11.255,0,0,1,14.563-6.514L62.722,199.61l55.44-145.182a11.315,11.315,0,0,1,14.611-6.535l22.575,8.651L110.455,174.126l5.046,1.931L170.975,30.845a11.241,11.241,0,0,1,14.611-6.535l22.6,8.6-7.41,19.481,4.986,1.905,18-47.111A11.257,11.257,0,0,1,238.211.722Z" transform="translate(153.288 498.096)" fill="none" stroke="#fff" stroke-width="7"/>
                <path id="Path_91665" data-name="Path 91665" d="M19.155,55.427,0,48.111,18.37,0,51.544,12.663l-13.023,34.1A15.005,15.005,0,0,1,19.155,55.427Z" transform="translate(308.069 637.55)" fill="none" stroke="#fff" stroke-width="7"/>
                <rect id="Rectangle_52906" data-name="Rectangle 52906" width="46.613" height="35.502" transform="translate(328.089 633.238) rotate(-69.109)" fill="none" stroke="#fff" stroke-width="7"/>
                <path id="Path_91666" data-name="Path 91666" d="M232.745,260.9l-90.7-34.633,14.572-38.156L30.792,140.041a11.338,11.338,0,0,1-6.518-14.568l8.672-22.639L34.873,97.8l-4.986-1.909L7.269,87.253A11.267,11.267,0,0,1,.751,72.681L28.5,0,51.119,8.638A11.257,11.257,0,0,1,57.632,23.2L42.554,62.717l145.182,55.44a11.315,11.315,0,0,1,6.535,14.611l-8.651,22.575L68.038,110.451,66.107,115.5l145.212,55.47a11.24,11.24,0,0,1,6.535,14.611l-8.6,22.605-19.481-7.411-1.905,4.986,47.111,18a11.259,11.259,0,0,1,6.462,14.452Z" transform="translate(370.044 562.007)" fill="none" stroke="#fff" stroke-width="7"/>
                <path id="Path_91667" data-name="Path 91667" d="M.989,19.155,8.306,0,56.416,18.37,43.753,51.544,9.653,38.52A15,15,0,0,1,.989,19.155Z" transform="translate(416.338 716.784)" fill="none" stroke="#fff" stroke-width="7"/>
                <rect id="Rectangle_52907" data-name="Rectangle 52907" width="35.501" height="46.613" transform="translate(464.406 769.972) rotate(-69.109)" fill="none" stroke="#fff" stroke-width="7"/>
                <path id="Path_91668" data-name="Path 91668" d="M0,232.744l34.633-90.7,38.155,14.572L120.86,30.792a11.338,11.338,0,0,1,14.568-6.518l22.639,8.672,5.042,1.927,1.906-4.986,8.637-22.618A11.264,11.264,0,0,1,188.225.751L260.906,28.5l-8.642,22.622A11.256,11.256,0,0,1,237.7,57.632L198.185,42.554l-55.44,145.182a11.315,11.315,0,0,1-14.611,6.535l-22.575-8.651L150.452,68.038l-5.046-1.931L89.931,211.319a11.241,11.241,0,0,1-14.611,6.535l-22.6-8.6,7.411-19.481-4.986-1.905-18,47.111A11.256,11.256,0,0,1,22.7,241.442Z" transform="translate(287.386 778.759)" fill="none" stroke="#fff" stroke-width="7"/>
                <path id="Path_91669" data-name="Path 91669" d="M32.389.989,51.544,8.305,33.174,56.416,0,43.754l13.023-34.1A15,15,0,0,1,32.389.989Z" transform="translate(341.972 825.052)" fill="none" stroke="#fff" stroke-width="7"/>
                <rect id="Rectangle_52908" data-name="Rectangle 52908" width="46.613" height="35.501" transform="translate(323.705 916.669) rotate(-69.109)" fill="none" stroke="#fff" stroke-width="7"/>
                <path id="Path_91670" data-name="Path 91670" d="M9.419,0l90.708,34.629L85.555,72.788l125.817,48.068a11.344,11.344,0,0,1,6.519,14.572l-8.672,22.635-1.927,5.046,4.986,1.9,22.618,8.642a11.264,11.264,0,0,1,6.518,14.572l-27.741,72.681-22.622-8.642a11.259,11.259,0,0,1-6.519-14.568l15.087-39.512L54.428,142.745a11.316,11.316,0,0,1-6.535-14.611l8.651-22.579,117.583,44.9,1.931-5.046L30.845,89.927A11.241,11.241,0,0,1,24.31,75.32l8.6-22.605,19.485,7.41,1.9-4.99L7.184,37.143A11.256,11.256,0,0,1,.722,22.7Z" transform="translate(-261.414 442.94)" fill="none" stroke="#fff" stroke-width="7"/>
                <path id="Path_91671" data-name="Path 91671" d="M55.431,32.384l-7.32,19.159L0,33.17,12.667,0l34.1,13.019A15.01,15.01,0,0,1,55.431,32.384Z" transform="translate(-121.963 497.522)" fill="none" stroke="#fff" stroke-width="7"/>
                <rect id="Rectangle_52909" data-name="Rectangle 52909" width="35.502" height="46.613" transform="translate(-169.821 512.419) rotate(-69.102)" fill="none" stroke="#fff" stroke-width="7"/>
                <path id="Path_91672" data-name="Path 91672" d="M260.907,9.42l-34.629,90.708-38.16-14.572L140.05,211.372a11.344,11.344,0,0,1-14.572,6.518l-22.635-8.672L97.8,207.291l-1.9,4.986L87.254,234.9a11.265,11.265,0,0,1-14.573,6.518L0,213.672,8.642,191.05a11.259,11.259,0,0,1,14.568-6.518l39.512,15.087,55.44-145.191a11.317,11.317,0,0,1,14.611-6.535l22.579,8.651-44.9,117.582,5.046,1.931L170.98,30.845a11.242,11.242,0,0,1,14.607-6.535l22.6,8.6-7.41,19.485,4.99,1.9L223.763,7.184A11.256,11.256,0,0,1,238.211.722Z" transform="translate(-197.507 244.926)" fill="none" stroke="#fff" stroke-width="7"/>
                <path id="Path_91673" data-name="Path 91673" d="M19.16,55.427,0,48.111,18.374,0l33.17,12.667-13.019,34.1A15,15,0,0,1,19.16,55.427Z" transform="translate(-42.726 384.376)" fill="none" stroke="#fff" stroke-width="7"/>
                <rect id="Rectangle_52910" data-name="Rectangle 52910" width="46.613" height="35.502" transform="translate(-22.706 380.065) rotate(-69.103)" fill="none" stroke="#fff" stroke-width="7"/>
                <path id="Path_91674" data-name="Path 91674" d="M232.745,260.906l-90.708-34.629,14.572-38.16L30.792,140.05a11.344,11.344,0,0,1-6.518-14.572l8.672-22.635L34.873,97.8l-4.986-1.9L7.269,87.253A11.264,11.264,0,0,1,.751,72.681L28.492,0,51.115,8.642A11.259,11.259,0,0,1,57.632,23.21L42.545,62.722l145.191,55.44a11.316,11.316,0,0,1,6.535,14.611l-8.651,22.579-117.582-44.9L66.107,115.5,211.32,170.98a11.241,11.241,0,0,1,6.535,14.607l-8.6,22.6-19.485-7.41-1.9,4.99,47.111,17.992a11.256,11.256,0,0,1,6.462,14.448Z" transform="translate(19.254 308.837)" fill="none" stroke="#fff" stroke-width="7"/>
                <path id="Path_91675" data-name="Path 91675" d="M.99,19.159,8.306,0,56.417,18.374,43.75,51.544,9.653,38.525A15,15,0,0,1,.99,19.159Z" transform="translate(65.547 463.614)" fill="none" stroke="#fff" stroke-width="7"/>
                <rect id="Rectangle_52911" data-name="Rectangle 52911" width="35.502" height="46.613" transform="translate(113.613 516.802) rotate(-69.103)" fill="none" stroke="#fff" stroke-width="7"/>
                <path id="Path_91676" data-name="Path 91676" d="M0,232.744l34.628-90.708,38.16,14.572L120.857,30.792a11.344,11.344,0,0,1,14.572-6.518l22.635,8.672,5.046,1.927,1.9-4.986,8.642-22.618A11.264,11.264,0,0,1,188.225.751l72.681,27.742-8.641,22.622A11.259,11.259,0,0,1,237.7,57.632L198.185,42.545l-55.44,145.191a11.316,11.316,0,0,1-14.611,6.535l-22.579-8.651,44.9-117.582-5.047-1.931L89.927,211.319a11.241,11.241,0,0,1-14.607,6.535l-22.6-8.6,7.411-19.485-4.991-1.9L37.143,234.98A11.256,11.256,0,0,1,22.7,241.442Z" transform="translate(-63.404 525.598)" fill="none" stroke="#fff" stroke-width="7"/>
                <path id="Path_91677" data-name="Path 91677" d="M32.384.99l19.16,7.316L33.17,56.417,0,43.75l13.019-34.1A15,15,0,0,1,32.384.99Z" transform="translate(-8.818 571.891)" fill="none" stroke="#fff" stroke-width="7"/>
                <rect id="Rectangle_52912" data-name="Rectangle 52912" width="46.614" height="35.502" transform="translate(-27.09 663.504) rotate(-69.102)" fill="none" stroke="#fff" stroke-width="7"/>
                <path id="Path_91678" data-name="Path 91678" d="M9.417,0l90.708,34.628L85.557,72.784l125.817,48.076a11.339,11.339,0,0,1,6.519,14.568l-8.672,22.635-1.927,5.046,4.986,1.9,22.618,8.642a11.266,11.266,0,0,1,6.523,14.572L213.67,260.9l-22.623-8.638a11.259,11.259,0,0,1-6.518-14.568l15.087-39.512L54.43,142.745a11.315,11.315,0,0,1-6.54-14.611l8.655-22.575,117.583,44.893,1.927-5.046L30.846,89.927A11.241,11.241,0,0,1,24.307,75.32l8.6-22.605,19.486,7.411,1.9-4.986-47.106-18A11.261,11.261,0,0,1,.719,22.7Z" transform="translate(440.165 -63.4)" fill="none" stroke="#fff" stroke-width="7"/>
                <path id="Path_91679" data-name="Path 91679" d="M55.431,32.384,48.115,51.544,0,33.174,12.663,0l34.1,13.019A15.012,15.012,0,0,1,55.431,32.384Z" transform="translate(579.617 -8.818)" fill="none" stroke="#fff" stroke-width="7"/>
                <rect id="Rectangle_52913" data-name="Rectangle 52913" width="35.502" height="46.612" transform="translate(531.759 6.077) rotate(-69.096)" fill="none" stroke="#fff" stroke-width="7"/>
                <path id="Path_91680" data-name="Path 91680" d="M260.9,9.417l-34.629,90.708L188.118,85.557,140.042,211.374a11.338,11.338,0,0,1-14.568,6.518l-22.635-8.672-5.046-1.927-1.9,4.986L87.25,234.9a11.267,11.267,0,0,1-14.573,6.522L0,213.67l8.638-22.622a11.26,11.26,0,0,1,14.568-6.518l39.512,15.087L118.158,54.43a11.315,11.315,0,0,1,14.611-6.539l22.575,8.655L110.451,174.128l5.046,1.927L170.976,30.847a11.242,11.242,0,0,1,14.607-6.54l22.6,8.6-7.411,19.485,4.986,1.9,18-47.107A11.26,11.26,0,0,1,238.207.719Z" transform="translate(504.078 -261.416)" fill="none" stroke="#fff" stroke-width="7"/>
                <path id="Path_91681" data-name="Path 91681" d="M19.16,55.427,0,48.115,18.37,0,51.544,12.663l-13.019,34.1A15.006,15.006,0,0,1,19.16,55.427Z" transform="translate(658.855 -121.963)" fill="none" stroke="#fff" stroke-width="7"/>
                <rect id="Rectangle_52914" data-name="Rectangle 52914" width="46.612" height="35.502" transform="translate(678.873 -126.278) rotate(-69.097)" fill="none" stroke="#fff" stroke-width="7"/>
                <path id="Path_91682" data-name="Path 91682" d="M232.751,260.9l-90.708-34.628,14.568-38.156L30.794,140.041a11.338,11.338,0,0,1-6.518-14.568l8.672-22.635,1.927-5.046-4.986-1.9L7.271,87.249A11.266,11.266,0,0,1,.749,72.677L28.5,0,51.121,8.638a11.259,11.259,0,0,1,6.517,14.568L42.552,62.717l145.187,55.44a11.315,11.315,0,0,1,6.539,14.611l-8.655,22.575L68.04,110.451,66.114,115.5l145.208,55.479a11.241,11.241,0,0,1,6.539,14.607l-8.6,22.605-19.486-7.411-1.9,4.986,47.106,18a11.261,11.261,0,0,1,6.467,14.448Z" transform="translate(720.828 -197.498)" fill="none" stroke="#fff" stroke-width="7"/>
                <path id="Path_91683" data-name="Path 91683" d="M.989,19.159,8.3,0,56.416,18.37,43.754,51.544,9.657,38.525A15.007,15.007,0,0,1,.989,19.159Z" transform="translate(767.128 -42.726)" fill="none" stroke="#fff" stroke-width="7"/>
                <rect id="Rectangle_52915" data-name="Rectangle 52915" width="35.501" height="46.612" transform="matrix(0.357, -0.934, 0.934, 0.357, 815.194, 10.458)" fill="none" stroke="#fff" stroke-width="7"/>
                <path id="Path_91684" data-name="Path 91684" d="M0,232.751l34.628-90.708,38.156,14.568L120.861,30.795a11.337,11.337,0,0,1,14.568-6.518l22.635,8.672,5.046,1.927,1.9-4.986,8.642-22.618A11.266,11.266,0,0,1,188.225.749L260.9,28.5l-8.638,22.622A11.259,11.259,0,0,1,237.7,57.639L198.185,42.552l-55.44,145.186a11.315,11.315,0,0,1-14.611,6.539l-22.575-8.655L150.451,68.041,145.4,66.114,89.927,211.322a11.242,11.242,0,0,1-14.607,6.54l-22.6-8.6,7.41-19.485-4.986-1.9-18,47.107A11.26,11.26,0,0,1,22.7,241.449Z" transform="translate(638.177 19.252)" fill="none" stroke="#fff" stroke-width="7"/>
                <path id="Path_91685" data-name="Path 91685" d="M32.384.989,51.544,8.3,33.174,56.416,0,43.753l13.019-34.1A15.006,15.006,0,0,1,32.384.989Z" transform="translate(692.762 65.552)" fill="none" stroke="#fff" stroke-width="7"/>
                <rect id="Rectangle_52916" data-name="Rectangle 52916" width="46.612" height="35.502" transform="matrix(0.357, -0.934, 0.934, 0.357, 674.491, 157.161)" fill="none" stroke="#fff" stroke-width="7"/>
                <path id="Path_91686" data-name="Path 91686" d="M9.42,0l90.707,34.633L85.555,72.789l125.821,48.068a11.342,11.342,0,0,1,6.518,14.572l-8.672,22.635-1.932,5.046,4.991,1.905,22.613,8.638a11.261,11.261,0,0,1,6.518,14.568L213.672,260.9l-22.627-8.638a11.258,11.258,0,0,1-6.514-14.564l15.083-39.516L54.429,142.745a11.316,11.316,0,0,1-6.536-14.611l8.651-22.579,117.582,44.893,1.932-5.042L30.845,89.927A11.236,11.236,0,0,1,24.31,75.32l8.6-22.605,19.486,7.411,1.9-4.986-47.111-18A11.257,11.257,0,0,1,.722,22.7Z" transform="translate(89.376 189.77)" fill="none" stroke="#fff" stroke-width="7"/>
                <path id="Path_91687" data-name="Path 91687" d="M55.431,32.389,48.115,51.544,0,33.174,12.663,0l34.1,13.023A15.011,15.011,0,0,1,55.431,32.389Z" transform="translate(228.827 244.352)" fill="none" stroke="#fff" stroke-width="7"/>
                <rect id="Rectangle_52917" data-name="Rectangle 52917" width="35.503" height="46.612" transform="translate(180.971 259.25) rotate(-69.102)" fill="none" stroke="#fff" stroke-width="7"/>
                <path id="Path_91688" data-name="Path 91688" d="M260.9,9.42l-34.633,90.708L188.113,85.555,140.046,211.376a11.342,11.342,0,0,1-14.572,6.518l-22.635-8.672-5.046-1.931-1.906,4.991L87.249,234.9a11.261,11.261,0,0,1-14.568,6.518L0,213.672l8.638-22.626A11.257,11.257,0,0,1,23.2,184.532l39.516,15.083,55.44-145.187a11.317,11.317,0,0,1,14.611-6.535l22.579,8.651L110.455,174.126l5.042,1.931L170.975,30.845a11.236,11.236,0,0,1,14.607-6.535l22.6,8.6-7.41,19.486,4.986,1.9,18-47.111A11.256,11.256,0,0,1,238.206.722Z" transform="translate(153.288 -8.244)" fill="none" stroke="#fff" stroke-width="7"/>
                <path id="Path_91689" data-name="Path 91689" d="M19.155,55.427,0,48.115,18.37,0,51.544,12.663,38.52,46.764A15.005,15.005,0,0,1,19.155,55.427Z" transform="translate(308.065 131.206)" fill="none" stroke="#fff" stroke-width="7"/>
                <rect id="Rectangle_52918" data-name="Rectangle 52918" width="46.611" height="35.503" transform="translate(328.084 126.895) rotate(-69.103)" fill="none" stroke="#fff" stroke-width="7"/>
                <path id="Path_91690" data-name="Path 91690" d="M232.745,260.9l-90.708-34.633,14.572-38.156L30.788,140.046a11.343,11.343,0,0,1-6.519-14.572l8.673-22.635,1.93-5.046-4.99-1.905L7.269,87.249A11.26,11.26,0,0,1,.751,72.681L28.492,0,51.119,8.638A11.257,11.257,0,0,1,57.632,23.2L42.549,62.717l145.187,55.44a11.316,11.316,0,0,1,6.535,14.611l-8.651,22.579L68.038,110.455,66.107,115.5l145.212,55.478a11.236,11.236,0,0,1,6.535,14.607l-8.6,22.6-19.485-7.411-1.9,4.986,47.111,18a11.256,11.256,0,0,1,6.462,14.448Z" transform="translate(370.044 55.672)" fill="none" stroke="#fff" stroke-width="7"/>
                <path id="Path_91691" data-name="Path 91691" d="M.989,19.155,8.3,0,56.416,18.37,43.753,51.544,9.653,38.521A15.005,15.005,0,0,1,.989,19.155Z" transform="translate(416.338 210.444)" fill="none" stroke="#fff" stroke-width="7"/>
                <rect id="Rectangle_52919" data-name="Rectangle 52919" width="35.503" height="46.612" transform="translate(464.404 263.633) rotate(-69.103)" fill="none" stroke="#fff" stroke-width="7"/>
                <path id="Path_91692" data-name="Path 91692" d="M0,232.744l34.633-90.707,38.155,14.572L120.857,30.788a11.342,11.342,0,0,1,14.572-6.518l22.635,8.672,5.046,1.931,1.906-4.99,8.637-22.614A11.261,11.261,0,0,1,188.221.751L260.9,28.492l-8.638,22.626A11.258,11.258,0,0,1,237.7,57.632L198.185,42.55l-55.44,145.186a11.316,11.316,0,0,1-14.611,6.535l-22.579-8.651L150.447,68.038l-5.042-1.931L89.927,211.319a11.236,11.236,0,0,1-14.607,6.535l-22.6-8.6,7.411-19.485-4.986-1.9-18,47.111A11.256,11.256,0,0,1,22.7,241.442Z" transform="translate(287.386 272.428)" fill="none" stroke="#fff" stroke-width="7"/>
                <path id="Path_91693" data-name="Path 91693" d="M32.389.989,51.544,8.3,33.174,56.416,0,43.754l13.023-34.1A15,15,0,0,1,32.389.989Z" transform="translate(341.972 318.721)" fill="none" stroke="#fff" stroke-width="7"/>
                <rect id="Rectangle_52920" data-name="Rectangle 52920" width="46.612" height="35.503" transform="translate(323.701 410.332) rotate(-69.102)" fill="none" stroke="#fff" stroke-width="7"/>
                <path id="Path_91694" data-name="Path 91694" d="M9.417,0l90.708,34.628L85.557,72.784l125.817,48.072a11.343,11.343,0,0,1,6.519,14.572l-8.672,22.635-1.931,5.046,4.99,1.9,22.618,8.642a11.263,11.263,0,0,1,6.518,14.572L213.67,260.9l-22.622-8.638a11.263,11.263,0,0,1-6.518-14.572l15.087-39.507L54.426,142.745a11.316,11.316,0,0,1-6.535-14.611l8.651-22.579,117.587,44.893,1.926-5.046L30.842,89.927a11.244,11.244,0,0,1-6.535-14.611l8.6-22.6,19.486,7.411,1.9-4.99L7.182,37.143A11.267,11.267,0,0,1,.72,22.691Z" transform="translate(-261.416 -63.4)" fill="none" stroke="#fff" stroke-width="7"/>
                <path id="Path_91695" data-name="Path 91695" d="M55.427,32.384,48.115,51.544,0,33.169,12.667,0l34.1,13.015A15.011,15.011,0,0,1,55.427,32.384Z" transform="translate(-121.963 -8.818)" fill="none" stroke="#fff" stroke-width="7"/>
                <rect id="Rectangle_52921" data-name="Rectangle 52921" width="35.501" height="46.612" transform="translate(-169.822 6.078) rotate(-69.102)" fill="none" stroke="#fff" stroke-width="7"/>
                <path id="Path_91696" data-name="Path 91696" d="M260.9,9.417l-34.629,90.708L188.118,85.557,140.046,211.374a11.342,11.342,0,0,1-14.572,6.518l-22.635-8.672-5.046-1.931-1.9,4.99L87.249,234.9a11.264,11.264,0,0,1-14.573,6.518L0,213.67l8.638-22.622a11.264,11.264,0,0,1,14.572-6.518l39.507,15.087,55.44-145.191a11.317,11.317,0,0,1,14.611-6.535l22.579,8.651L110.455,174.128l5.046,1.927L170.975,30.842a11.245,11.245,0,0,1,14.611-6.535l22.6,8.6-7.41,19.485,4.99,1.9L223.759,7.182A11.268,11.268,0,0,1,238.211.72Z" transform="translate(-197.502 -261.416)" fill="none" stroke="#fff" stroke-width="7"/>
                <path id="Path_91697" data-name="Path 91697" d="M19.16,55.427,0,48.115,18.374,0l33.17,12.667-13.015,34.1A15.01,15.01,0,0,1,19.16,55.427Z" transform="translate(-42.726 -121.963)" fill="none" stroke="#fff" stroke-width="7"/>
                <rect id="Rectangle_52922" data-name="Rectangle 52922" width="46.612" height="35.501" transform="translate(-22.704 -126.276) rotate(-69.103)" fill="none" stroke="#fff" stroke-width="7"/>
                <path id="Path_91698" data-name="Path 91698" d="M232.749,260.9l-90.708-34.628,14.568-38.156L30.792,140.046a11.343,11.343,0,0,1-6.518-14.572l8.673-22.635,1.931-5.046-4.99-1.9L7.269,87.249A11.263,11.263,0,0,1,.751,72.677L28.5,0,51.119,8.638A11.264,11.264,0,0,1,57.636,23.21L42.549,62.717l145.191,55.44a11.317,11.317,0,0,1,6.535,14.611l-8.651,22.579L68.038,110.455,66.111,115.5l145.213,55.474a11.244,11.244,0,0,1,6.535,14.611l-8.6,22.6-19.486-7.411-1.9,4.991,47.111,17.992a11.267,11.267,0,0,1,6.462,14.452Z" transform="translate(19.25 -197.498)" fill="none" stroke="#fff" stroke-width="7"/>
                <path id="Path_91699" data-name="Path 91699" d="M.99,19.159,8.3,0,56.417,18.374,43.75,51.544,9.653,38.529A15.011,15.011,0,0,1,.99,19.159Z" transform="translate(65.547 -42.726)" fill="none" stroke="#fff" stroke-width="7"/>
                <rect id="Rectangle_52923" data-name="Rectangle 52923" width="35.501" height="46.612" transform="translate(113.613 10.463) rotate(-69.103)" fill="none" stroke="#fff" stroke-width="7"/>
                <path id="Path_91700" data-name="Path 91700" d="M0,232.749l34.628-90.708,38.156,14.568L120.857,30.792a11.342,11.342,0,0,1,14.572-6.518l22.635,8.672,5.046,1.931,1.9-4.99,8.642-22.618A11.264,11.264,0,0,1,188.225.751L260.9,28.5l-8.638,22.622a11.264,11.264,0,0,1-14.573,6.518L198.185,42.55,142.745,187.74a11.316,11.316,0,0,1-14.611,6.535l-22.579-8.651L150.447,68.038,145.4,66.111,89.927,211.324a11.244,11.244,0,0,1-14.611,6.535l-22.6-8.6,7.411-19.485-4.991-1.9L37.143,234.984a11.267,11.267,0,0,1-14.453,6.462Z" transform="translate(-63.404 19.254)" fill="none" stroke="#fff" stroke-width="7"/>
                <path id="Path_91701" data-name="Path 91701" d="M32.384.99,51.544,8.3,33.17,56.417,0,43.75l13.015-34.1A15.01,15.01,0,0,1,32.384.99Z" transform="translate(-8.818 65.551)" fill="none" stroke="#fff" stroke-width="7"/>
                <rect id="Rectangle_52924" data-name="Rectangle 52924" width="46.613" height="35.501" transform="translate(-27.09 157.163) rotate(-69.102)" fill="none" stroke="#fff" stroke-width="7"/>
                <path id="Path_91702" data-name="Path 91702" d="M9.417,0l90.708,34.633L85.553,72.788l125.821,48.068a11.349,11.349,0,0,1,6.519,14.577l-8.672,22.635-1.931,5.046,4.99,1.9,22.618,8.642a11.26,11.26,0,0,1,6.518,14.568L213.67,260.906l-22.627-8.638A11.26,11.26,0,0,1,184.53,237.7l15.083-39.512L54.426,142.749a11.316,11.316,0,0,1-6.535-14.611l8.65-22.579,117.586,44.893,1.927-5.046L30.847,89.931a11.228,11.228,0,0,1-6.535-14.607l8.595-22.605L52.392,60.13l1.906-4.99L7.182,37.147A11.269,11.269,0,0,1,.72,22.7Z" transform="translate(89.374 -316.574)" fill="none" stroke="#fff" stroke-width="7"/>
                <path id="Path_91703" data-name="Path 91703" d="M55.423,32.384,48.111,51.544,0,33.169,12.658,0l34.1,13.019A15.007,15.007,0,0,1,55.423,32.384Z" transform="translate(228.831 -261.988)" fill="none" stroke="#fff" stroke-width="7"/>
                <rect id="Rectangle_52925" data-name="Rectangle 52925" width="35.501" height="46.612" transform="translate(180.968 -247.092) rotate(-69.102)" fill="none" stroke="#fff" stroke-width="7"/>
                <path id="Path_91704" data-name="Path 91704" d="M260.906,9.417l-34.633,90.708L188.118,85.553,140.05,211.374a11.348,11.348,0,0,1-14.576,6.518l-22.635-8.672-5.046-1.931-1.9,4.99L87.249,234.9a11.261,11.261,0,0,1-14.568,6.518L0,213.67l8.638-22.626a11.26,11.26,0,0,1,14.568-6.514l39.512,15.083,55.44-145.186a11.317,11.317,0,0,1,14.611-6.535l22.579,8.651L110.455,174.128l5.046,1.927L170.975,30.847a11.23,11.23,0,0,1,14.607-6.535l22.6,8.595-7.41,19.485,4.99,1.905L223.759,7.182A11.269,11.269,0,0,1,238.211.72Z" transform="translate(153.288 -514.586)" fill="none" stroke="#fff" stroke-width="7"/>
                <path id="Path_91705" data-name="Path 91705" d="M19.159,55.423,0,48.111,18.374,0l33.17,12.659-13.019,34.1A15.007,15.007,0,0,1,19.159,55.423Z" transform="translate(308.065 -375.129)" fill="none" stroke="#fff" stroke-width="7"/>
                <rect id="Rectangle_52926" data-name="Rectangle 52926" width="46.612" height="35.501" transform="translate(328.086 -379.446) rotate(-69.103)" fill="none" stroke="#fff" stroke-width="7"/>
                <path id="Path_91706" data-name="Path 91706" d="M232.749,260.9l-90.708-34.629,14.572-38.156L30.792,140.05a11.351,11.351,0,0,1-6.519-14.577l8.673-22.635,1.93-5.046-4.99-1.9L7.269,87.249A11.263,11.263,0,0,1,.751,72.677L28.5,0,51.123,8.638a11.26,11.26,0,0,1,6.513,14.568L42.554,62.717l145.187,55.44a11.316,11.316,0,0,1,6.535,14.611l-8.651,22.579L68.039,110.455,66.111,115.5,211.32,170.975a11.229,11.229,0,0,1,6.535,14.607l-8.595,22.605-19.485-7.411-1.906,4.99,47.115,17.988a11.275,11.275,0,0,1,6.462,14.456Z" transform="translate(370.04 -450.668)" fill="none" stroke="#fff" stroke-width="7"/>
                <path id="Path_91707" data-name="Path 91707" d="M.989,19.159,8.3,0,56.412,18.374,43.753,51.544,9.653,38.525A15.007,15.007,0,0,1,.989,19.159Z" transform="translate(416.338 -295.895)" fill="none" stroke="#fff" stroke-width="7"/>
                <rect id="Rectangle_52927" data-name="Rectangle 52927" width="35.501" height="46.612" transform="translate(464.404 -242.707) rotate(-69.103)" fill="none" stroke="#fff" stroke-width="7"/>
                <path id="Path_91708" data-name="Path 91708" d="M0,232.749l34.628-90.708,38.156,14.572L120.852,30.792a11.349,11.349,0,0,1,14.577-6.518l22.635,8.672,5.046,1.931,1.9-4.99,8.643-22.618A11.261,11.261,0,0,1,188.221.751L260.9,28.5l-8.638,22.626A11.261,11.261,0,0,1,237.7,57.637L198.185,42.554,142.745,187.74a11.316,11.316,0,0,1-14.611,6.535l-22.579-8.651L150.447,68.038,145.4,66.111,89.927,211.319a11.229,11.229,0,0,1-14.607,6.535l-22.6-8.595,7.411-19.486-4.991-1.905L37.143,234.984a11.269,11.269,0,0,1-14.453,6.462Z" transform="translate(287.386 -233.916)" fill="none" stroke="#fff" stroke-width="7"/>
                <path id="Path_91709" data-name="Path 91709" d="M32.384.989,51.544,8.3,33.169,56.412,0,43.753l13.019-34.1A15.006,15.006,0,0,1,32.384.989Z" transform="translate(341.972 -187.618)" fill="none" stroke="#fff" stroke-width="7"/>
                <rect id="Rectangle_52928" data-name="Rectangle 52928" width="46.613" height="35.501" transform="translate(323.701 -96.007) rotate(-69.102)" fill="none" stroke="#fff" stroke-width="7"/>
              </g>
            </g>
            <g id="Group_109513" data-name="Group 109513" transform="translate(0 113.258)">
              <g id="Group_109512" data-name="Group 109512" clip-path="url(#clip-path-6)">
                <path id="Path_91710" data-name="Path 91710" d="M9.417,0l90.708,34.628L85.557,72.784l125.817,48.072a11.343,11.343,0,0,1,6.519,14.572l-8.672,22.635-1.931,5.046,4.99,1.9,22.618,8.642a11.263,11.263,0,0,1,6.518,14.572L213.67,260.9l-22.622-8.638a11.263,11.263,0,0,1-6.518-14.572l15.087-39.507L54.426,142.745a11.316,11.316,0,0,1-6.535-14.611l8.651-22.579,117.587,44.893,1.926-5.046L30.842,89.927a11.244,11.244,0,0,1-6.535-14.611l8.6-22.6,19.486,7.411,1.9-4.99L7.182,37.143A11.267,11.267,0,0,1,.72,22.691Z" transform="translate(440.161 699.36)" fill="none" stroke="#fff" stroke-width="7"/>
                <path id="Path_91711" data-name="Path 91711" d="M55.427,32.384,48.115,51.544,0,33.169,12.667,0l34.1,13.015A15.011,15.011,0,0,1,55.427,32.384Z" transform="translate(579.613 753.942)" fill="none" stroke="#fff" stroke-width="7"/>
                <rect id="Rectangle_52930" data-name="Rectangle 52930" width="35.501" height="46.612" transform="translate(531.755 768.838) rotate(-69.102)" fill="none" stroke="#fff" stroke-width="7"/>
                <path id="Path_91712" data-name="Path 91712" d="M260.9,9.417l-34.629,90.708L188.118,85.557,140.046,211.374a11.342,11.342,0,0,1-14.572,6.518l-22.635-8.672-5.046-1.931-1.9,4.99L87.249,234.9a11.264,11.264,0,0,1-14.573,6.518L0,213.67l8.638-22.622a11.264,11.264,0,0,1,14.572-6.518l39.507,15.087,55.44-145.191a11.317,11.317,0,0,1,14.611-6.535l22.579,8.651L110.455,174.128l5.046,1.927L170.975,30.842a11.245,11.245,0,0,1,14.611-6.535l22.6,8.6-7.41,19.485,4.99,1.9L223.759,7.182A11.268,11.268,0,0,1,238.211.72Z" transform="translate(504.074 501.344)" fill="none" stroke="#fff" stroke-width="7"/>
                <path id="Path_91713" data-name="Path 91713" d="M19.16,55.427,0,48.115,18.374,0l33.17,12.667-13.015,34.1A15.01,15.01,0,0,1,19.16,55.427Z" transform="translate(658.851 640.797)" fill="none" stroke="#fff" stroke-width="7"/>
                <rect id="Rectangle_52931" data-name="Rectangle 52931" width="46.612" height="35.501" transform="translate(678.873 636.484) rotate(-69.103)" fill="none" stroke="#fff" stroke-width="7"/>
                <path id="Path_91714" data-name="Path 91714" d="M232.749,260.9l-90.708-34.628,14.568-38.156L30.792,140.046a11.343,11.343,0,0,1-6.518-14.572l8.673-22.635,1.931-5.046-4.99-1.9L7.269,87.249A11.263,11.263,0,0,1,.751,72.677L28.5,0,51.119,8.638A11.264,11.264,0,0,1,57.636,23.21L42.549,62.717l145.191,55.44a11.317,11.317,0,0,1,6.535,14.611l-8.651,22.579L68.038,110.455,66.111,115.5l145.213,55.474a11.244,11.244,0,0,1,6.535,14.611l-8.6,22.6-19.486-7.411-1.9,4.991,47.111,17.992a11.267,11.267,0,0,1,6.462,14.452Z" transform="translate(720.826 565.262)" fill="none" stroke="#fff" stroke-width="7"/>
                <path id="Path_91715" data-name="Path 91715" d="M.99,19.159,8.3,0,56.417,18.374,43.75,51.544,9.653,38.529A15.011,15.011,0,0,1,.99,19.159Z" transform="translate(767.123 720.034)" fill="none" stroke="#fff" stroke-width="7"/>
                <rect id="Rectangle_52932" data-name="Rectangle 52932" width="35.501" height="46.612" transform="translate(815.19 773.223) rotate(-69.103)" fill="none" stroke="#fff" stroke-width="7"/>
                <path id="Path_91716" data-name="Path 91716" d="M0,232.749l34.628-90.708,38.156,14.568L120.857,30.792a11.342,11.342,0,0,1,14.572-6.518l22.635,8.672,5.046,1.931,1.9-4.99,8.642-22.618A11.264,11.264,0,0,1,188.225.751L260.9,28.5l-8.638,22.622a11.264,11.264,0,0,1-14.573,6.518L198.185,42.55,142.745,187.74a11.316,11.316,0,0,1-14.611,6.535l-22.579-8.651L150.447,68.038,145.4,66.111,89.927,211.324a11.244,11.244,0,0,1-14.611,6.535l-22.6-8.6,7.411-19.485-4.991-1.9L37.143,234.984a11.267,11.267,0,0,1-14.453,6.462Z" transform="translate(638.172 782.014)" fill="none" stroke="#fff" stroke-width="7"/>
                <path id="Path_91717" data-name="Path 91717" d="M32.384.99,51.544,8.3,33.17,56.417,0,43.75l13.015-34.1A15.01,15.01,0,0,1,32.384.99Z" transform="translate(692.758 828.311)" fill="none" stroke="#fff" stroke-width="7"/>
                <rect id="Rectangle_52933" data-name="Rectangle 52933" width="46.613" height="35.501" transform="translate(674.487 919.923) rotate(-69.102)" fill="none" stroke="#fff" stroke-width="7"/>
                <path id="Path_91718" data-name="Path 91718" d="M9.42,0l90.708,34.633L85.559,72.788l125.817,48.072a11.341,11.341,0,0,1,6.518,14.572l-8.672,22.635-1.931,5.046,4.991,1.905,22.618,8.638a11.255,11.255,0,0,1,6.514,14.568L213.672,260.9l-22.622-8.633a11.261,11.261,0,0,1-6.518-14.568l15.087-39.512L54.428,142.749a11.316,11.316,0,0,1-6.535-14.611l8.651-22.579,117.582,44.893,1.931-5.046L30.845,89.931A11.248,11.248,0,0,1,24.309,75.32l8.6-22.6,19.486,7.406,1.9-4.991L7.188,37.147A11.259,11.259,0,0,1,.722,22.7Z" transform="translate(89.368 952.526)" fill="none" stroke="#fff" stroke-width="7"/>
                <path id="Path_91719" data-name="Path 91719" d="M55.427,32.384,48.115,51.544,0,33.174,12.667,0l34.1,13.023A15,15,0,0,1,55.427,32.384Z" transform="translate(228.823 1007.112)" fill="none" stroke="#fff" stroke-width="7"/>
                <rect id="Rectangle_52934" data-name="Rectangle 52934" width="35.502" height="46.614" transform="translate(180.963 1022.005) rotate(-69.096)" fill="none" stroke="#fff" stroke-width="7"/>
                <path id="Path_91720" data-name="Path 91720" d="M260.9,9.42l-34.632,90.708L188.114,85.559,140.041,211.376a11.341,11.341,0,0,1-14.572,6.518l-22.635-8.672-5.047-1.931-1.905,4.991L87.245,234.9a11.256,11.256,0,0,1-14.568,6.514L0,213.672,8.634,191.05A11.26,11.26,0,0,1,23.2,184.532l39.512,15.087,55.44-145.191a11.316,11.316,0,0,1,14.611-6.535l22.579,8.651L110.451,174.126l5.046,1.931L170.971,30.845a11.247,11.247,0,0,1,14.611-6.535l22.6,8.6-7.406,19.485,4.99,1.9L223.755,7.188A11.259,11.259,0,0,1,238.207.722Z" transform="translate(153.288 754.512)" fill="none" stroke="#fff" stroke-width="7"/>
                <path id="Path_91721" data-name="Path 91721" d="M19.159,55.427,0,48.115,18.37,0,51.544,12.667l-13.023,34.1A15,15,0,0,1,19.159,55.427Z" transform="translate(308.061 893.966)" fill="none" stroke="#fff" stroke-width="7"/>
                <rect id="Rectangle_52935" data-name="Rectangle 52935" width="46.614" height="35.502" transform="translate(328.08 889.653) rotate(-69.097)" fill="none" stroke="#fff" stroke-width="7"/>
                <path id="Path_91722" data-name="Path 91722" d="M232.747,260.9l-90.708-34.629,14.568-38.156L30.79,140.042a11.343,11.343,0,0,1-6.518-14.572l8.672-22.635,1.931-5.046-4.991-1.905L7.267,87.245A11.259,11.259,0,0,1,.753,72.673L28.495,0,51.117,8.634A11.261,11.261,0,0,1,57.635,23.2L42.547,62.713l145.191,55.44a11.316,11.316,0,0,1,6.535,14.611l-8.651,22.579L68.041,110.451l-1.931,5.042,145.212,55.478a11.248,11.248,0,0,1,6.535,14.611l-8.6,22.6-19.486-7.406-1.9,4.986,47.107,17.988a11.266,11.266,0,0,1,6.467,14.456Z" transform="translate(370.038 818.436)" fill="none" stroke="#fff" stroke-width="7"/>
                <path id="Path_91723" data-name="Path 91723" d="M.991,19.159,8.3,0,56.418,18.37,43.751,51.544,9.655,38.521A15,15,0,0,1,.991,19.159Z" transform="translate(416.331 973.204)" fill="none" stroke="#fff" stroke-width="7"/>
                <rect id="Rectangle_52936" data-name="Rectangle 52936" width="35.502" height="46.614" transform="translate(464.396 1026.389) rotate(-69.096)" fill="none" stroke="#fff" stroke-width="7"/>
                <path id="Path_91724" data-name="Path 91724" d="M0,232.747l34.628-90.707,38.156,14.568L120.856,30.79a11.341,11.341,0,0,1,14.573-6.518l22.635,8.672,5.051,1.931,1.9-4.991,8.638-22.618A11.255,11.255,0,0,1,188.221.753L260.9,28.495l-8.634,22.622A11.261,11.261,0,0,1,237.7,57.635L198.184,42.548l-55.44,145.191a11.313,11.313,0,0,1-14.607,6.535l-22.583-8.651L150.447,68.04,145.4,66.109,89.927,211.322a11.248,11.248,0,0,1-14.611,6.535l-22.6-8.6,7.406-19.485-4.986-1.9L37.143,234.978a11.258,11.258,0,0,1-14.452,6.467Z" transform="translate(287.382 1035.186)" fill="none" stroke="#fff" stroke-width="7"/>
                <path id="Path_91725" data-name="Path 91725" d="M32.384.992,51.544,8.3,33.174,56.419,0,43.751l13.023-34.1A15,15,0,0,1,32.384.992Z" transform="translate(341.968 1081.479)" fill="none" stroke="#fff" stroke-width="7"/>
                <rect id="Rectangle_52937" data-name="Rectangle 52937" width="46.615" height="35.502" transform="translate(323.694 1173.089) rotate(-69.096)" fill="none" stroke="#fff" stroke-width="7"/>
                <path id="Path_91726" data-name="Path 91726" d="M9.417,0l90.708,34.633L85.557,72.784l125.817,48.072a11.352,11.352,0,0,1,6.522,14.577l-8.677,22.635-1.927,5.046,4.99,1.9,22.618,8.642a11.261,11.261,0,0,1,6.518,14.568L213.669,260.9l-22.622-8.634a11.263,11.263,0,0,1-6.518-14.572l15.087-39.512L54.426,142.749a11.327,11.327,0,0,1-6.535-14.615l8.651-22.579,117.587,44.9,1.926-5.046L30.847,89.931A11.24,11.24,0,0,1,24.312,75.32l8.595-22.6,19.485,7.406,1.9-4.99L7.186,37.147A11.272,11.272,0,0,1,.72,22.691Z" transform="translate(-261.42 699.356)" fill="none" stroke="#fff" stroke-width="7"/>
                <path id="Path_91727" data-name="Path 91727" d="M55.431,32.384,48.115,51.539,0,33.174,12.667,0l34.1,13.015A15.015,15.015,0,0,1,55.431,32.384Z" transform="translate(-121.968 753.942)" fill="none" stroke="#fff" stroke-width="7"/>
                <rect id="Rectangle_52938" data-name="Rectangle 52938" width="35.503" height="46.614" transform="translate(-169.826 768.833) rotate(-69.096)" fill="none" stroke="#fff" stroke-width="7"/>
                <path id="Path_91728" data-name="Path 91728" d="M260.9,9.417l-34.633,90.708L188.118,85.557,140.046,211.374a11.351,11.351,0,0,1-14.577,6.522l-22.635-8.676-5.046-1.927-1.9,4.99L87.245,234.9a11.261,11.261,0,0,1-14.568,6.518L0,213.67l8.634-22.622a11.264,11.264,0,0,1,14.572-6.518l39.512,15.087L118.153,54.426a11.326,11.326,0,0,1,14.615-6.535l22.579,8.651-44.9,117.587,5.046,1.927L170.971,30.847a11.241,11.241,0,0,1,14.611-6.535l22.6,8.595-7.406,19.485,4.991,1.9L223.755,7.186A11.272,11.272,0,0,1,238.211.719Z" transform="translate(-197.502 501.344)" fill="none" stroke="#fff" stroke-width="7"/>
                <path id="Path_91729" data-name="Path 91729" d="M19.155,55.427,0,48.115,18.366,0,51.539,12.667l-13.015,34.1A15.009,15.009,0,0,1,19.155,55.427Z" transform="translate(-42.726 640.797)" fill="none" stroke="#fff" stroke-width="7"/>
                <rect id="Rectangle_52939" data-name="Rectangle 52939" width="46.614" height="35.503" transform="translate(-22.708 636.484) rotate(-69.097)" fill="none" stroke="#fff" stroke-width="7"/>
                <path id="Path_91730" data-name="Path 91730" d="M232.753,260.9l-90.708-34.633,14.568-38.151L30.8,140.046a11.351,11.351,0,0,1-6.523-14.577l8.676-22.635,1.927-5.046-4.99-1.9L7.269,87.245A11.261,11.261,0,0,1,.751,72.677L28.5,0,51.123,8.633a11.264,11.264,0,0,1,6.518,14.572L42.554,62.717l145.191,55.436a11.327,11.327,0,0,1,6.535,14.615l-8.651,22.579-117.587-44.9L66.116,115.5l145.208,55.474a11.241,11.241,0,0,1,6.535,14.611l-8.595,22.6-19.486-7.406-1.9,4.991,47.107,17.988a11.272,11.272,0,0,1,6.467,14.456Z" transform="translate(19.245 565.262)" fill="none" stroke="#fff" stroke-width="7"/>
                <path id="Path_91731" data-name="Path 91731" d="M.99,19.155,8.3,0,56.417,18.366,43.749,51.539,9.653,38.525A15.009,15.009,0,0,1,.99,19.155Z" transform="translate(65.547 720.034)" fill="none" stroke="#fff" stroke-width="7"/>
                <rect id="Rectangle_52940" data-name="Rectangle 52940" width="35.502" height="46.614" transform="translate(113.609 773.218) rotate(-69.096)" fill="none" stroke="#fff" stroke-width="7"/>
                <path id="Path_91732" data-name="Path 91732" d="M0,232.753l34.628-90.708L72.78,156.613,120.852,30.8a11.351,11.351,0,0,1,14.576-6.522l22.635,8.676,5.051,1.927,1.9-4.99,8.638-22.618A11.261,11.261,0,0,1,188.221.751L260.9,28.5l-8.634,22.622a11.264,11.264,0,0,1-14.572,6.518L198.18,42.554,142.745,187.744a11.326,11.326,0,0,1-14.615,6.535l-22.575-8.651L150.447,68.042,145.4,66.116,89.927,211.324a11.241,11.241,0,0,1-14.611,6.535l-22.6-8.595,7.406-19.485-4.986-1.9L37.143,234.984a11.272,11.272,0,0,1-14.456,6.466Z" transform="translate(-63.408 782.01)" fill="none" stroke="#fff" stroke-width="7"/>
                <path id="Path_91733" data-name="Path 91733" d="M32.384.989,51.539,8.305,33.174,56.42,0,43.753l13.015-34.1A15.011,15.011,0,0,1,32.384.989Z" transform="translate(-8.822 828.307)" fill="none" stroke="#fff" stroke-width="7"/>
                <rect id="Rectangle_52941" data-name="Rectangle 52941" width="46.614" height="35.503" transform="translate(-27.099 919.918) rotate(-69.096)" fill="none" stroke="#fff" stroke-width="7"/>
                <path id="Path_91734" data-name="Path 91734" d="M9.419,0l90.7,34.633L85.555,72.788l125.817,48.068a11.349,11.349,0,0,1,6.519,14.577l-8.672,22.635-1.927,5.046,4.986,1.9,22.618,8.642a11.261,11.261,0,0,1,6.518,14.568l-27.746,72.681-22.618-8.638a11.265,11.265,0,0,1-6.519-14.572l15.083-39.507L54.428,142.749a11.32,11.32,0,0,1-6.535-14.611l8.646-22.584,117.587,44.9,1.926-5.046L30.845,89.931A11.245,11.245,0,0,1,24.31,75.32l8.595-22.6L52.39,60.126l1.905-4.99L7.184,37.147A11.263,11.263,0,0,1,.722,22.7Z" transform="translate(440.163 193.016)" fill="none" stroke="#fff" stroke-width="7"/>
                <path id="Path_91735" data-name="Path 91735" d="M55.423,32.384,48.111,51.544,0,33.165,12.663,0l34.1,13.015A15,15,0,0,1,55.423,32.384Z" transform="translate(579.617 247.602)" fill="none" stroke="#fff" stroke-width="7"/>
                <rect id="Rectangle_52942" data-name="Rectangle 52942" width="35.503" height="46.614" transform="translate(531.756 262.502) rotate(-69.112)" fill="none" stroke="#fff" stroke-width="7"/>
                <path id="Path_91736" data-name="Path 91736" d="M260.906,9.42l-34.633,90.7L188.118,85.555,140.05,211.372a11.348,11.348,0,0,1-14.576,6.518l-22.635-8.672-5.046-1.927-1.9,4.986L87.249,234.9a11.261,11.261,0,0,1-14.568,6.518L0,213.668,8.638,191.05a11.265,11.265,0,0,1,14.572-6.518l39.507,15.083,55.44-145.186a11.32,11.32,0,0,1,14.611-6.535l22.583,8.646-44.9,117.587,5.046,1.927L170.975,30.845a11.246,11.246,0,0,1,14.611-6.535l22.6,8.595L200.781,52.39l4.991,1.905L223.759,7.184A11.263,11.263,0,0,1,238.211.722Z" transform="translate(504.074 -4.993)" fill="none" stroke="#fff" stroke-width="7"/>
                <path id="Path_91737" data-name="Path 91737" d="M19.16,55.423,0,48.111,18.379,0,51.544,12.663l-13.015,34.1A15,15,0,0,1,19.16,55.423Z" transform="translate(658.851 134.461)" fill="none" stroke="#fff" stroke-width="7"/>
                <rect id="Rectangle_52943" data-name="Rectangle 52943" width="46.613" height="35.503" transform="matrix(0.357, -0.934, 0.934, 0.357, 678.875, 130.15)" fill="none" stroke="#fff" stroke-width="7"/>
                <path id="Path_91738" data-name="Path 91738" d="M232.745,260.9l-90.7-34.628,14.568-38.156L30.792,140.05a11.35,11.35,0,0,1-6.518-14.577l8.672-22.635,1.927-5.046-4.986-1.9L7.269,87.249A11.264,11.264,0,0,1,.751,72.677L28.5,0,51.115,8.638A11.265,11.265,0,0,1,57.632,23.21L42.549,62.717l145.187,55.44a11.32,11.32,0,0,1,6.535,14.611l-8.646,22.579L68.038,110.455,66.111,115.5,211.32,170.975a11.244,11.244,0,0,1,6.535,14.611l-8.594,22.605-19.485-7.411-1.906,4.986,47.111,17.988a11.269,11.269,0,0,1,6.462,14.456Z" transform="translate(720.831 58.922)" fill="none" stroke="#fff" stroke-width="7"/>
                <path id="Path_91739" data-name="Path 91739" d="M.992,19.159,8.3,0l48.11,18.378L43.753,51.544,9.656,38.529A15,15,0,0,1,.992,19.159Z" transform="translate(767.125 213.695)" fill="none" stroke="#fff" stroke-width="7"/>
                <rect id="Rectangle_52944" data-name="Rectangle 52944" width="35.502" height="46.614" transform="translate(815.193 266.889) rotate(-69.112)" fill="none" stroke="#fff" stroke-width="7"/>
                <path id="Path_91740" data-name="Path 91740" d="M0,232.744l34.628-90.7,38.156,14.568L120.852,30.792a11.349,11.349,0,0,1,14.577-6.518l22.635,8.672,5.046,1.927,1.9-4.986,8.642-22.618A11.261,11.261,0,0,1,188.221.751L260.9,28.5l-8.638,22.618a11.266,11.266,0,0,1-14.573,6.518L198.185,42.55l-55.44,145.186a11.32,11.32,0,0,1-14.611,6.535l-22.579-8.646L150.447,68.038,145.4,66.111,89.927,211.319a11.244,11.244,0,0,1-14.611,6.535l-22.6-8.595,7.41-19.486-4.986-1.905L37.143,234.98a11.263,11.263,0,0,1-14.453,6.462Z" transform="translate(638.172 275.674)" fill="none" stroke="#fff" stroke-width="7"/>
                <path id="Path_91741" data-name="Path 91741" d="M32.384.992,51.544,8.3,33.165,56.415,0,43.752l13.015-34.1A15,15,0,0,1,32.384.992Z" transform="translate(692.758 321.969)" fill="none" stroke="#fff" stroke-width="7"/>
                <rect id="Rectangle_52945" data-name="Rectangle 52945" width="46.614" height="35.502" transform="translate(674.487 413.586) rotate(-69.111)" fill="none" stroke="#fff" stroke-width="7"/>
                <path id="Path_91742" data-name="Path 91742" d="M9.418,0l90.707,34.637L85.557,72.789l125.817,48.072a11.344,11.344,0,0,1,6.518,14.572l-8.672,22.639-1.931,5.046,4.991,1.9,22.622,8.642a11.255,11.255,0,0,1,6.514,14.568l-27.746,72.677-22.622-8.633a11.264,11.264,0,0,1-6.518-14.572l15.087-39.507L54.426,142.753a11.319,11.319,0,0,1-6.535-14.615l8.651-22.575,117.586,44.893,1.927-5.046L30.847,89.935a11.241,11.241,0,0,1-6.535-14.611l8.595-22.6,19.486,7.4L54.3,55.14,7.186,37.152A11.273,11.273,0,0,1,.719,22.7Z" transform="translate(89.371 446.182)" fill="none" stroke="#fff" stroke-width="7"/>
                <path id="Path_91743" data-name="Path 91743" d="M55.423,32.384,48.111,51.544,0,33.169,12.663,0l34.1,13.019A15,15,0,0,1,55.423,32.384Z" transform="translate(228.827 500.772)" fill="none" stroke="#fff" stroke-width="7"/>
                <rect id="Rectangle_52946" data-name="Rectangle 52946" width="35.502" height="46.616" transform="translate(180.963 515.662) rotate(-69.096)" fill="none" stroke="#fff" stroke-width="7"/>
                <path id="Path_91744" data-name="Path 91744" d="M260.906,9.417l-34.637,90.708L188.118,85.557,140.046,211.374a11.344,11.344,0,0,1-14.572,6.518l-22.639-8.672-5.047-1.931-1.9,4.99L87.245,234.9a11.256,11.256,0,0,1-14.568,6.514L0,213.67l8.634-22.622a11.263,11.263,0,0,1,14.572-6.518l39.507,15.087,55.44-145.191a11.319,11.319,0,0,1,14.615-6.535l22.575,8.651L110.451,174.128l5.046,1.927L170.971,30.847a11.241,11.241,0,0,1,14.611-6.535l22.6,8.595-7.4,19.485,4.986,1.905L223.755,7.186A11.273,11.273,0,0,1,238.211.72Z" transform="translate(153.288 248.174)" fill="none" stroke="#fff" stroke-width="7"/>
                <path id="Path_91745" data-name="Path 91745" d="M19.159,55.423,0,48.111,18.374,0,51.544,12.663l-13.019,34.1A15,15,0,0,1,19.159,55.423Z" transform="translate(308.061 387.631)" fill="none" stroke="#fff" stroke-width="7"/>
                <rect id="Rectangle_52947" data-name="Rectangle 52947" width="46.616" height="35.502" transform="translate(328.082 383.314) rotate(-69.097)" fill="none" stroke="#fff" stroke-width="7"/>
                <path id="Path_91746" data-name="Path 91746" d="M232.751,260.9l-90.708-34.633,14.568-38.151L30.795,140.046a11.344,11.344,0,0,1-6.518-14.572l8.672-22.639,1.931-5.046-4.99-1.9L7.267,87.245A11.257,11.257,0,0,1,.753,72.677L28.5,0,51.121,8.633a11.264,11.264,0,0,1,6.518,14.572l-15.087,39.5,145.191,55.444a11.319,11.319,0,0,1,6.535,14.615l-8.651,22.575-117.586-44.9L66.114,115.5l145.208,55.47a11.246,11.246,0,0,1,6.535,14.615l-8.595,22.6-19.485-7.4-1.905,4.986,47.111,17.988a11.273,11.273,0,0,1,6.466,14.456Z" transform="translate(370.038 312.092)" fill="none" stroke="#fff" stroke-width="7"/>
                <path id="Path_91747" data-name="Path 91747" d="M.992,19.159,8.3,0,56.414,18.374,43.751,51.544,9.655,38.525A15,15,0,0,1,.992,19.159Z" transform="translate(416.335 466.86)" fill="none" stroke="#fff" stroke-width="7"/>
                <rect id="Rectangle_52948" data-name="Rectangle 52948" width="35.501" height="46.616" transform="translate(464.4 520.048) rotate(-69.096)" fill="none" stroke="#fff" stroke-width="7"/>
                <path id="Path_91748" data-name="Path 91748" d="M0,232.751l34.637-90.708,38.152,14.568L120.861,30.794a11.344,11.344,0,0,1,14.572-6.518l22.639,8.672,5.046,1.931,1.9-4.99,8.642-22.622A11.255,11.255,0,0,1,188.23.753L260.907,28.5l-8.634,22.622A11.264,11.264,0,0,1,237.7,57.639L198.193,42.552l-55.44,145.191a11.319,11.319,0,0,1-14.615,6.535l-22.575-8.651L150.456,68.04l-5.046-1.927L89.936,211.322a11.241,11.241,0,0,1-14.611,6.535l-22.6-8.595,7.4-19.486-4.986-1.905L37.152,234.982A11.274,11.274,0,0,1,22.7,241.449Z" transform="translate(287.373 528.842)" fill="none" stroke="#fff" stroke-width="7"/>
                <path id="Path_91749" data-name="Path 91749" d="M32.384.991,51.544,8.3,33.169,56.414,0,43.751l13.019-34.1A15,15,0,0,1,32.384.991Z" transform="translate(341.968 575.14)" fill="none" stroke="#fff" stroke-width="7"/>
                <rect id="Rectangle_52949" data-name="Rectangle 52949" width="46.616" height="35.502" transform="translate(323.692 666.751) rotate(-69.096)" fill="none" stroke="#fff" stroke-width="7"/>
                <path id="Path_91750" data-name="Path 91750" d="M9.419,0l90.7,34.637L85.555,72.788l125.817,48.072a11.348,11.348,0,0,1,6.522,14.572l-8.677,22.639-1.922,5.046,4.986,1.9,22.618,8.638a11.264,11.264,0,0,1,6.518,14.568l-27.75,72.681-22.618-8.633a11.265,11.265,0,0,1-6.518-14.572l15.083-39.512L54.428,142.753a11.328,11.328,0,0,1-6.535-14.615l8.647-22.579,117.587,44.9,1.926-5.046L30.849,89.935a11.242,11.242,0,0,1-6.535-14.611L32.9,52.719,52.39,60.126l1.9-4.986L7.188,37.152A11.266,11.266,0,0,1,.722,22.7Z" transform="translate(-261.418 193.012)" fill="none" stroke="#fff" stroke-width="7"/>
                <path id="Path_91751" data-name="Path 91751" d="M55.423,32.389,48.111,51.544,0,33.174,12.663,0l34.1,13.019A15,15,0,0,1,55.423,32.389Z" transform="translate(-121.963 247.598)" fill="none" stroke="#fff" stroke-width="7"/>
                <rect id="Rectangle_52950" data-name="Rectangle 52950" width="35.504" height="46.615" transform="translate(-169.826 262.498) rotate(-69.105)" fill="none" stroke="#fff" stroke-width="7"/>
                <path id="Path_91752" data-name="Path 91752" d="M260.906,9.42l-34.637,90.7L188.118,85.555,140.046,211.372a11.348,11.348,0,0,1-14.572,6.522l-22.639-8.676L97.788,207.3l-1.9,4.986L87.249,234.9a11.264,11.264,0,0,1-14.568,6.518L0,213.668,8.634,191.05a11.265,11.265,0,0,1,14.572-6.518l39.512,15.083L118.153,54.428a11.328,11.328,0,0,1,14.615-6.535l22.579,8.646-44.9,117.587,5.046,1.927,55.474-145.2a11.242,11.242,0,0,1,14.611-6.535L208.188,32.9,200.781,52.39l4.986,1.905L223.755,7.188A11.266,11.266,0,0,1,238.211.722Z" transform="translate(-197.502 -4.993)" fill="none" stroke="#fff" stroke-width="7"/>
                <path id="Path_91753" data-name="Path 91753" d="M19.155,55.423,0,48.111,18.37,0,51.544,12.663l-13.019,34.1A15,15,0,0,1,19.155,55.423Z" transform="translate(-42.726 134.461)" fill="none" stroke="#fff" stroke-width="7"/>
                <rect id="Rectangle_52951" data-name="Rectangle 52951" width="46.615" height="35.504" transform="translate(-22.706 130.147) rotate(-69.106)" fill="none" stroke="#fff" stroke-width="7"/>
                <path id="Path_91754" data-name="Path 91754" d="M232.748,260.9l-90.7-34.633,14.568-38.151L30.8,140.046a11.348,11.348,0,0,1-6.523-14.572l8.676-22.639,1.923-5.046-4.986-1.9L7.269,87.249A11.268,11.268,0,0,1,.751,72.677L28.5,0,51.119,8.634a11.266,11.266,0,0,1,6.518,14.572L42.554,62.717,187.74,118.153a11.328,11.328,0,0,1,6.535,14.615l-8.646,22.579-117.587-44.9L66.116,115.5l145.2,55.47a11.247,11.247,0,0,1,6.535,14.615l-8.59,22.605-19.486-7.406-1.905,4.986,47.107,17.988a11.266,11.266,0,0,1,6.467,14.456Z" transform="translate(19.245 58.922)" fill="none" stroke="#fff" stroke-width="7"/>
                <path id="Path_91755" data-name="Path 91755" d="M.992,19.155,8.3,0,56.414,18.37,43.752,51.544,9.656,38.525A15,15,0,0,1,.992,19.155Z" transform="translate(65.545 213.695)" fill="none" stroke="#fff" stroke-width="7"/>
                <rect id="Rectangle_52952" data-name="Rectangle 52952" width="35.504" height="46.615" transform="translate(113.609 266.884) rotate(-69.105)" fill="none" stroke="#fff" stroke-width="7"/>
                <path id="Path_91756" data-name="Path 91756" d="M0,232.749l34.637-90.7,38.151,14.568L120.861,30.8a11.348,11.348,0,0,1,14.572-6.522l22.639,8.676,5.046,1.922,1.9-4.986,8.638-22.618A11.264,11.264,0,0,1,188.225.751L260.907,28.5l-8.634,22.618A11.265,11.265,0,0,1,237.7,57.637L198.189,42.554,142.753,187.74a11.328,11.328,0,0,1-14.615,6.535l-22.579-8.646,44.9-117.587-5.046-1.927-55.474,145.2a11.243,11.243,0,0,1-14.611,6.535l-22.605-8.591,7.407-19.486-4.986-1.905L37.151,234.98A11.266,11.266,0,0,1,22.7,241.447Z" transform="translate(-63.417 275.67)" fill="none" stroke="#fff" stroke-width="7"/>
                <path id="Path_91757" data-name="Path 91757" d="M32.388.991,51.543,8.308,33.174,56.414,0,43.756l13.019-34.1A15,15,0,0,1,32.388.991Z" transform="translate(-8.826 321.965)" fill="none" stroke="#fff" stroke-width="7"/>
                <rect id="Rectangle_52953" data-name="Rectangle 52953" width="46.615" height="35.504" transform="translate(-27.098 413.582) rotate(-69.105)" fill="none" stroke="#fff" stroke-width="7"/>
                <path id="Path_91758" data-name="Path 91758" d="M9.42,0l90.7,34.637L85.555,72.788l125.817,48.072a11.342,11.342,0,0,1,6.518,14.572l-8.672,22.639-1.927,5.046,4.986,1.9,22.622,8.642a11.25,11.25,0,0,1,6.514,14.564l-27.741,72.681-22.623-8.634a11.265,11.265,0,0,1-6.518-14.572l15.087-39.512L54.428,142.749a11.318,11.318,0,0,1-6.535-14.615l8.651-22.575,117.582,44.9,1.931-5.046L30.845,89.931A11.246,11.246,0,0,1,24.31,75.32l8.6-22.6,19.486,7.406,1.9-4.986L7.188,37.147A11.26,11.26,0,0,1,.722,22.7Z" transform="translate(89.372 -60.158)" fill="none" stroke="#fff" stroke-width="7"/>
                <path id="Path_91759" data-name="Path 91759" d="M55.431,32.384l-7.32,19.155L0,33.17,12.667,0l34.1,13.019A15.005,15.005,0,0,1,55.431,32.384Z" transform="translate(228.823 -5.567)" fill="none" stroke="#fff" stroke-width="7"/>
                <rect id="Rectangle_52954" data-name="Rectangle 52954" width="35.506" height="46.618" transform="matrix(0.357, -0.934, 0.934, 0.357, 180.963, 9.324)" fill="none" stroke="#fff" stroke-width="7"/>
                <path id="Path_91760" data-name="Path 91760" d="M260.906,9.42l-34.637,90.7L188.118,85.555,140.046,211.372a11.342,11.342,0,0,1-14.572,6.518l-22.639-8.672-5.047-1.927-1.9,4.986L87.245,234.9a11.251,11.251,0,0,1-14.564,6.514L0,213.672,8.634,191.05a11.265,11.265,0,0,1,14.572-6.518l39.512,15.087,55.44-145.191a11.318,11.318,0,0,1,14.615-6.535l22.575,8.651-44.9,117.582,5.046,1.931L170.975,30.845a11.246,11.246,0,0,1,14.611-6.535l22.6,8.6-7.406,19.485,4.986,1.9L223.759,7.188A11.26,11.26,0,0,1,238.211.722Z" transform="translate(153.288 -258.163)" fill="none" stroke="#fff" stroke-width="7"/>
                <path id="Path_91761" data-name="Path 91761" d="M19.155,55.427,0,48.111,18.37,0,51.539,12.667,38.52,46.763A15,15,0,0,1,19.155,55.427Z" transform="translate(308.065 -118.713)" fill="none" stroke="#fff" stroke-width="7"/>
                <rect id="Rectangle_52955" data-name="Rectangle 52955" width="46.618" height="35.505" transform="translate(328.082 -123.023) rotate(-69.099)" fill="none" stroke="#fff" stroke-width="7"/>
                <path id="Path_91762" data-name="Path 91762" d="M232.747,260.9l-90.7-34.633,14.568-38.151L30.795,140.046a11.343,11.343,0,0,1-6.518-14.572l8.672-22.639,1.927-5.046-4.986-1.9L7.267,87.245A11.256,11.256,0,0,1,.753,72.677L28.495,0,51.117,8.634a11.265,11.265,0,0,1,6.518,14.572L42.547,62.717l145.191,55.44a11.318,11.318,0,0,1,6.535,14.615l-8.651,22.575-117.582-44.9L66.11,115.5l145.212,55.479a11.245,11.245,0,0,1,6.535,14.611l-8.6,22.6-19.486-7.406-1.9,4.986,47.107,17.988a11.266,11.266,0,0,1,6.467,14.456Z" transform="translate(370.038 -194.248)" fill="none" stroke="#fff" stroke-width="7"/>
                <path id="Path_91763" data-name="Path 91763" d="M.991,19.155,8.308,0,56.418,18.37,43.751,51.539,9.655,38.52A15,15,0,0,1,.991,19.155Z" transform="translate(416.331 -39.475)" fill="none" stroke="#fff" stroke-width="7"/>
                <rect id="Rectangle_52956" data-name="Rectangle 52956" width="35.505" height="46.618" transform="translate(464.395 13.713) rotate(-69.099)" fill="none" stroke="#fff" stroke-width="7"/>
                <path id="Path_91764" data-name="Path 91764" d="M0,232.747l34.637-90.7,38.152,14.568L120.861,30.794a11.343,11.343,0,0,1,14.572-6.518l22.639,8.672,5.046,1.927,1.9-4.986,8.642-22.622A11.25,11.25,0,0,1,188.225.753l72.681,27.741-8.634,22.622A11.265,11.265,0,0,1,237.7,57.635L198.189,42.548,142.75,187.738a11.318,11.318,0,0,1-14.615,6.535l-22.575-8.651,44.9-117.582-5.046-1.931L89.931,211.322a11.246,11.246,0,0,1-14.611,6.535l-22.6-8.6,7.406-19.485-4.986-1.9L37.148,234.978A11.26,11.26,0,0,1,22.7,241.445Z" transform="translate(287.373 22.502)" fill="none" stroke="#fff" stroke-width="7"/>
                <path id="Path_91765" data-name="Path 91765" d="M32.384.991,51.539,8.308,33.169,56.418,0,43.751l13.019-34.1A15,15,0,0,1,32.384.991Z" transform="translate(341.968 68.796)" fill="none" stroke="#fff" stroke-width="7"/>
                <rect id="Rectangle_52957" data-name="Rectangle 52957" width="46.618" height="35.505" transform="translate(323.689 160.409) rotate(-69.098)" fill="none" stroke="#fff" stroke-width="7"/>
              </g>
            </g>
          </g>
        </g>
      </g>
    </g>
  </g>
</svg>
