<svg xmlns="http://www.w3.org/2000/svg" width="67.131" height="62.579" viewBox="0 0 67.131 62.579">
  <g id="Yasir_Logo_SVG" transform="translate(0 -0.007)">
    <g id="Group_109442" data-name="Group 109442" transform="translate(9.029 0.007)">
      <path id="Path_87594" data-name="Path 87594" d="M643.474,13.727,653.951,3.251,651.328.629a1.707,1.707,0,0,0-2.414,0l0,0-5.438,5.438-4.082-4.083L635.56,5.815l7.914,7.912Z" transform="translate(-604.878 -0.12)" fill="#b7c9d5" opacity="0.487"/>
      <path id="Path_87595" data-name="Path 87595" d="M517.8,260.25l-2.213-2.212,5.558-5.557,3.831,3.831-3.938,3.938a2.29,2.29,0,0,1-3.238,0h0" transform="translate(-492.404 -236.705)" fill="#b7c9d5" opacity="0.628"/>
      <rect id="Rectangle_52803" data-name="Rectangle 52803" width="7.112" height="5.417" transform="translate(29.242 15.276) rotate(-45)" fill="#b7c9d5" opacity="0.628"/>
      <path id="Path_87596" data-name="Path 87596" d="M339.846.542a1.732,1.732,0,0,0-2.449,0L320.626,17.314l-4.094-4.094L312.7,17.05l4.094,4.094,0,0,2.613,2.613a1.722,1.722,0,0,0,2.435,0h0L342.451,3.149,339.845.542Z" transform="translate(-302.191 -0.033)" fill="#b7c9d5" opacity="0.869"/>
      <path id="Path_87597" data-name="Path 87597" d="M175.932,3.123l-2.61-2.61a1.728,1.728,0,0,0-2.442,0L154.111,17.281,149.55,12.72a1.726,1.726,0,0,0-2.439,0L144.5,15.331l8.394,8.395a1.724,1.724,0,0,0,2.439,0h0l2.611-2.612,0,0Z" transform="translate(-144.5 -0.007)" fill="#b7c9d5"/>
    </g>
    <g id="Group_109444" data-name="Group 109444" transform="translate(0 31.278)">
      <path id="Path_91577" data-name="Path 91577" d="M7.993,789.6a8.922,8.922,0,0,1-2.952-.566,9.737,9.737,0,0,1-2.951-1.666l1.376-2.753q1.162.367,2.064.566a7.928,7.928,0,0,0,1.7.2,6.246,6.246,0,0,0,3.012-.7,5.3,5.3,0,0,0,2.034-1.9,4.922,4.922,0,0,0,.734-2.63,4.042,4.042,0,0,0-.276-1.59,7,7,0,0,0-.7-1.254q-.429-.612-.948-1.408l5.78,2.906v1.345a9.763,9.763,0,0,1-.306,2.294,11.04,11.04,0,0,1-.963,2.508,10.013,10.013,0,0,1-1.7,2.324,7.624,7.624,0,0,1-2.508,1.7,8.581,8.581,0,0,1-3.395.627" transform="translate(-1.959 -758.691)" fill="#b7c9d5"/>
      <path id="Path_91578" data-name="Path 91578" d="M122.3,676.482a8.861,8.861,0,0,1-2-.214,6.483,6.483,0,0,1-1.728-.657,7.13,7.13,0,0,1-1.514-1.147,14.607,14.607,0,0,1-1.453-1.682l-3.884-5.322,3.365-4.16,3.945,6.82a10.861,10.861,0,0,0,.887,1.27,2.089,2.089,0,0,0,.948.657,4.659,4.659,0,0,0,1.437.183h.306v4.251H122.3Z" transform="translate(-104.74 -653.127)" fill="#b7c9d5"/>
      <path id="Path_91579" data-name="Path 91579" d="M272.2,806.26h.307v4.251H272.2q-.918,0-.918-2.141,0-2.11.918-2.109" transform="translate(-254.33 -787.154)" fill="#b7c9d5"/>
      <path id="Path_91580" data-name="Path 91580" d="M285.97,711.837v-4.251h7.887a12.506,12.506,0,0,0,.321-1.391,13.437,13.437,0,0,0,.183-1.652,14.983,14.983,0,0,0-.016-1.789l5.108-1.744q-.4,1.958-.78,3.4a22.461,22.461,0,0,1-.856,2.615,20.876,20.876,0,0,1-1.1,2.308q-.628,1.131-1.544,2.508h-9.2Z" transform="translate(-268.102 -688.481)" fill="#b7c9d5"/>
      <path id="Path_91581" data-name="Path 91581" d="M405.432,711.846a14.426,14.426,0,0,1-3.563-.382,11.186,11.186,0,0,1-2.431-.887,9.228,9.228,0,0,1-1.438-.9l1.743-3.058a7.457,7.457,0,0,0,1.942.719,10.783,10.783,0,0,0,2.463.261h3.3a7.391,7.391,0,0,0,.322-1.285,14.186,14.186,0,0,0,.183-1.712q.045-.919.016-1.835l5.138-1.744q-.428,1.958-.826,3.4a27.1,27.1,0,0,1-.857,2.615,17.591,17.591,0,0,1-1.1,2.308q-.642,1.131-1.56,2.508h-3.335Z" transform="translate(-373.132 -688.49)" fill="#b7c9d5"/>
      <path id="Path_91582" data-name="Path 91582" d="M574.761,684.771a12.755,12.755,0,0,1-3.348-.382,10.663,10.663,0,0,1-2.355-.917q-.963-.534-1.7-1.025l2.263-2.722a8.794,8.794,0,0,0,4.007.8h3.884q-.246-.826-.52-1.575t-.627-1.576q-.351-.826-.872-1.9l4.985-3.334q.245,1.866.4,3.9a27.693,27.693,0,0,1-.016,4.2,20.587,20.587,0,0,1-.9,4.526h-5.2Z" transform="translate(-531.911 -661.414)" fill="#b7c9d5"/>
      <path id="Path_91583" data-name="Path 91583" d="M735.517,799.964c-1,0-6.485-.081-7.29-.244a10.046,10.046,0,0,1-2.126-.658q-.918-.412-1.621-.81l1.681-3.242a4.573,4.573,0,0,0,.8.3q.427.123.9.215a9.867,9.867,0,0,0,.993.137c.347.03.7.046,1.07.046H735.7v4.25h-.184Z" transform="translate(-679.214 -776.607)" fill="#b7c9d5"/>
      <path id="Path_91584" data-name="Path 91584" d="M821.521,806.251h.306V810.5h-.306c-.612,0-5.5-.713-5.5-2.141s4.889-2.111,5.5-2.111" transform="translate(-765.034 -787.145)" fill="#b7c9d5"/>
      <path id="Path_91585" data-name="Path 91585" d="M899.2,911.624l-2.967-3,2.784-3,2.966,3Z" transform="translate(-840.232 -880.316)" fill="#b7c9d5"/>
      <path id="Path_91586" data-name="Path 91586" d="M904.06,663.667v-4.251h5.413a8.939,8.939,0,0,0-.84-2.859,22.514,22.514,0,0,0-1.728-2.982l3.853-3.945a26.566,26.566,0,0,1,1.59,3.885,15.107,15.107,0,0,1-.336,10.153H904.06Z" transform="translate(-847.573 -640.311)" fill="#b7c9d5"/>
      <path id="Path_91587" data-name="Path 91587" d="M984.367,911.624l-2.967-3,2.844-3,2.967,3Z" transform="translate(-920.081 -880.316)" fill="#b7c9d5"/>
      <path id="Path_91588" data-name="Path 91588" d="M426.366,504.519a2.145,2.145,0,0,1-1.674-.729,2.676,2.676,0,0,1-.652-1.853V500.48h1.278v1.457a1.475,1.475,0,0,0,.281.958.934.934,0,0,0,.767.345q1.023,0,1.023-1.176v-.945h1.278v.945a2.514,2.514,0,0,1-.626,1.776,2.169,2.169,0,0,1-1.674.678Z" transform="translate(-397.545 -500.48)" fill="#b7c9d5"/>
      <path id="Path_91589" data-name="Path 91589" d="M441.957,574.95l.358,1.38-6.467,1.687-.358-1.38Z" transform="translate(-408.28 -570.297)" fill="#b7c9d5"/>
      <path id="Path_91590" data-name="Path 91590" d="M479.931,504.529a2.167,2.167,0,0,1-1.674-.678,2.509,2.509,0,0,1-.626-1.776v-.945h1.278v.945q0,1.176,1.022,1.176a.938.938,0,0,0,.767-.345,1.48,1.48,0,0,0,.281-.958V500.49h1.278v1.457a2.707,2.707,0,0,1-.639,1.853,2.134,2.134,0,0,1-1.687.729Z" transform="translate(-447.787 -500.489)" fill="#b7c9d5"/>
      <g id="Group_109443" data-name="Group 109443" transform="translate(57.005 4.613)" style="mix-blend-mode: normal;isolation: isolate">
        <path id="Path_91591" data-name="Path 91591" d="M918.788,574.31l.355,1.372-6.428,1.676-.355-1.372Z" transform="translate(-912.36 -574.31)" fill="#b7c9d5"/>
      </g>
      <path id="Path_91592" data-name="Path 91592" d="M1.506,608.976a1.472,1.472,0,0,1-.753-.2,1.535,1.535,0,0,1-.547-.534A1.391,1.391,0,0,1,0,607.5a1.411,1.411,0,0,1,.206-.746,1.506,1.506,0,0,1,.547-.531,1.489,1.489,0,0,1,.753-.2,1.5,1.5,0,0,1,.584.114,1.555,1.555,0,0,1,.479.316,1.477,1.477,0,0,1,.326.469,1.462,1.462,0,0,1-.085,1.314,1.506,1.506,0,0,1-.544.534,1.484,1.484,0,0,1-.76.2Zm0-.228a1.225,1.225,0,0,0,.639-.17,1.332,1.332,0,0,0,.462-.453,1.155,1.155,0,0,0,.176-.623,1.181,1.181,0,0,0-.176-.632,1.308,1.308,0,0,0-.462-.446,1.253,1.253,0,0,0-.639-.167,1.248,1.248,0,0,0-.639.167,1.308,1.308,0,0,0-.462.446,1.162,1.162,0,0,0-.176.632,1.138,1.138,0,0,0,.176.623,1.337,1.337,0,0,0,.462.453,1.225,1.225,0,0,0,.639.17Zm-.482-.489V606.7H1.6a.483.483,0,0,1,.356.133.474.474,0,0,1,.134.349.418.418,0,0,1-.14.322.5.5,0,0,1-.349.128H1.161l.072-.039v.665H1.024Zm.209-.763-.066-.039h.365a.368.368,0,0,0,.247-.078.249.249,0,0,0,.091-.2.264.264,0,0,0-.082-.209.359.359,0,0,0-.244-.071h-.4l.091-.052v.645Zm.58.763-.254-.671.2-.059.293.73Z" transform="translate(0 -599.435)" fill="#b7c9d5"/>
    </g>
  </g>
</svg>
