<svg xmlns="http://www.w3.org/2000/svg" xmlns:xlink="http://www.w3.org/1999/xlink" width="183.036" height="66.621" viewBox="0 0 183.036 66.621">
  <defs>
    <clipPath id="clip-path">
      <rect id="Rectangle_52831" data-name="Rectangle 52831" width="183.037" height="66.621" transform="translate(-5 -9)" fill="none"/>
    </clipPath>
  </defs>
  <g id="Yasir_Logo_Horizontal" transform="translate(5 9)">
    <path id="Path_91548" data-name="Path 91548" d="M12.486,335.81v2.014l2.488.12L10.4,345.9l-4.571-7.95,2.591-.121V335.81H0v1.953l2.294.413L8.489,348.49v4.27l-2.38.414v1.995h8.145v-2.058l-2.588-.1v-4.658l6.058-10.14,2.424-.449V335.81Z" transform="translate(0 -304.938)" fill="#09183d"/>
    <g id="Group_109414" data-name="Group 109414">
      <g id="Group_109413" data-name="Group 109413" clip-path="url(#clip-path)">
        <path id="Path_91549" data-name="Path 91549" d="M198.781,398.42c0-3.172-1.749-4.848-5.055-4.848h-.008a10.263,10.263,0,0,0-3.981.8l-.134.056-1.436,2.044.722.929.368-.184a9.288,9.288,0,0,1,3.986-.982c1.705,0,2.466.75,2.466,2.431v1.393l-6.875.366-.141.2a5.752,5.752,0,0,0-1.058,3.232,3.8,3.8,0,0,0,1.352,3.078,5.206,5.206,0,0,0,3.158,1.078c.09,0,.179,0,.269-.007h.006a6.638,6.638,0,0,0,2.981-.711l.1-.053.417-.556a1.838,1.838,0,0,0,.4.563,2.412,2.412,0,0,0,1.742.579h0a7.721,7.721,0,0,0,2.84-.7l.292-.134v-1.825h-2.416Zm-5.887,6.954a2.545,2.545,0,0,1-1.7-.477,1.612,1.612,0,0,1-.525-1.3,3.087,3.087,0,0,1,.259-1.225h4.777v2.209a4.806,4.806,0,0,1-2.764.791Z" transform="translate(-170.383 -357.389)" fill="#09183d"/>
        <path id="Path_91550" data-name="Path 91550" d="M343.893,399.461l-.869-.351a7.25,7.25,0,0,1-1.9-.988,1.014,1.014,0,0,1-.381-.812,1.083,1.083,0,0,1,.51-1,3.762,3.762,0,0,1,1.963-.4,5.071,5.071,0,0,1,1.792.309l.475,2.555H347.5v-4.6l-.35-.111a12.165,12.165,0,0,0-3.852-.574,6.438,6.438,0,0,0-3.929,1.077,3.661,3.661,0,0,0-1.538,3.105,3.411,3.411,0,0,0,.976,2.452,8.254,8.254,0,0,0,3.022,1.746l.925.389a10.331,10.331,0,0,1,2.2,1.113.941.941,0,0,1,.405.761c0,.363,0,1.328-2.309,1.328a5.429,5.429,0,0,1-3.033-.8v-2.645h-2.041l-.588,4.243.281.171a10.008,10.008,0,0,0,5.2,1.452c.119.007.238.01.356.01a6.343,6.343,0,0,0,3.5-1.049,3.522,3.522,0,0,0,1.505-3,3.434,3.434,0,0,0-1.084-2.636,10.11,10.11,0,0,0-3.252-1.755" transform="translate(-306.372 -357.313)" fill="#09183d"/>
        <path id="Path_91551" data-name="Path 91551" d="M463.6,394.094l-5.729.962v1.96h2.656v8.678l-2.277.447v1.95h7.834V406.08l-2.484-.137Z" transform="translate(-415.777 -357.863)" fill="#09183d"/>
        <path id="Path_91552" data-name="Path 91552" d="M480.861,336.374,478.4,333.9l-2.469,2.469,2.463,2.471Z" transform="translate(-432.181 -303.207)" fill="#09183d"/>
        <path id="Path_91553" data-name="Path 91553" d="M552.681,393.583a7.4,7.4,0,0,0-3.271.819l-.115.063-.111.174V393.63l-5.73.963v1.96h2.656v8.678l-2.277.447v1.952h7.83V405.62l-2.484-.138v-8.268a6.678,6.678,0,0,1,3.471-.731l.531.031v-2.93Z" transform="translate(-493.492 -357.399)" fill="#09183d"/>
        <path id="Path_91561" data-name="Path 91561" d="M1495.709,31.046l21.667-21.667-5.425-5.424a3.531,3.531,0,0,0-4.993,0l-.005,0L1495.706,15.2l-8.442-8.443-7.923,7.923Z" transform="translate(-1343.339 -2.65)" fill="#c0cae3"/>
        <path id="Path_91562" data-name="Path 91562" d="M1315.272,373.695l-4.577-4.576,11.494-11.493,7.922,7.923-8.145,8.145a4.735,4.735,0,0,1-6.7,0h0" transform="translate(-1190.198 -324.748)" fill="#8397c9"/>
        <rect id="Rectangle_52830" data-name="Rectangle 52830" width="14.708" height="11.204" transform="translate(133.021 31.848) rotate(-45)" fill="#8397c9"/>
        <path id="Path_91563" data-name="Path 91563" d="M1081.655,3.842a3.583,3.583,0,0,0-5.065,0L1041.9,38.529l-8.468-8.466-7.923,7.922,8.468,8.468,0,.005,5.4,5.4a3.561,3.561,0,0,0,5.036,0h0l42.627-42.63Z" transform="translate(-931.234 -2.537)" fill="#4a66b0"/>
        <path id="Path_91564" data-name="Path 91564" d="M854.1,9.188l-5.4-5.4a3.572,3.572,0,0,0-5.051,0l-34.68,34.68-9.433-9.434a3.568,3.568,0,0,0-5.044,0l-5.4,5.4L806.456,51.8a3.567,3.567,0,0,0,5.045,0h0l5.4-5.4-.005-.005Z" transform="translate(-716.551 -2.492)" fill="#133698"/>
        <g id="Group_109445" data-name="Group 109445" transform="translate(-1.27 -2.46)">
          <path id="Path_91577" data-name="Path 91577" d="M7.447,788.336a8.1,8.1,0,0,1-2.679-.514A8.837,8.837,0,0,1,2.09,786.31l1.249-2.5q1.055.334,1.873.514a7.19,7.19,0,0,0,1.541.181,5.668,5.668,0,0,0,2.733-.638,4.808,4.808,0,0,0,1.846-1.722A4.468,4.468,0,0,0,12,779.759a3.67,3.67,0,0,0-.251-1.443,6.355,6.355,0,0,0-.638-1.138q-.39-.555-.86-1.278l5.246,2.638v1.221a8.862,8.862,0,0,1-.277,2.082,10.02,10.02,0,0,1-.874,2.276,9.083,9.083,0,0,1-1.541,2.109,6.92,6.92,0,0,1-2.276,1.541,7.791,7.791,0,0,1-3.081.569" transform="translate(-1.971 -760.281)" fill="#09183d"/>
          <path id="Path_91578" data-name="Path 91578" d="M121.325,675.265a8.051,8.051,0,0,1-1.819-.194,5.887,5.887,0,0,1-1.568-.6,6.468,6.468,0,0,1-1.374-1.041,13.251,13.251,0,0,1-1.319-1.527l-3.526-4.831,3.054-3.776,3.581,6.19a9.86,9.86,0,0,0,.8,1.152,1.9,1.9,0,0,0,.861.6,4.229,4.229,0,0,0,1.3.166h.277v3.858h-.277Z" transform="translate(-105.384 -654.066)" fill="#09183d"/>
          <path id="Path_91579" data-name="Path 91579" d="M272.113,806.26h.278v3.858h-.278q-.833,0-.833-1.943,0-1.915.833-1.915" transform="translate(-255.896 -788.919)" fill="#09183d"/>
          <path id="Path_91580" data-name="Path 91580" d="M285.97,710.837v-3.858h7.158a11.341,11.341,0,0,0,.292-1.263,12.2,12.2,0,0,0,.166-1.5,13.6,13.6,0,0,0-.014-1.624l4.636-1.583q-.362,1.777-.708,3.082a20.381,20.381,0,0,1-.777,2.373,18.95,18.95,0,0,1-1,2.095q-.57,1.027-1.4,2.276H285.97Z" transform="translate(-269.753 -689.638)" fill="#09183d"/>
          <path id="Path_91581" data-name="Path 91581" d="M404.746,710.846a13.1,13.1,0,0,1-3.234-.347,10.152,10.152,0,0,1-2.207-.8,8.386,8.386,0,0,1-1.3-.819l1.582-2.776a6.772,6.772,0,0,0,1.763.652,9.782,9.782,0,0,0,2.236.236h3a6.7,6.7,0,0,0,.292-1.166,12.886,12.886,0,0,0,.166-1.554q.041-.834.014-1.665l4.663-1.583q-.389,1.777-.75,3.082a24.592,24.592,0,0,1-.777,2.373,15.964,15.964,0,0,1-1,2.095q-.583,1.027-1.415,2.276h-3.027Z" transform="translate(-375.429 -689.647)" fill="#09183d"/>
          <path id="Path_91582" data-name="Path 91582" d="M574.077,683.6a11.57,11.57,0,0,1-3.039-.347,9.671,9.671,0,0,1-2.138-.833q-.874-.485-1.541-.93l2.054-2.47a7.98,7.98,0,0,0,3.637.722h3.525q-.223-.749-.472-1.429t-.569-1.43q-.319-.749-.791-1.721l4.524-3.026q.222,1.694.361,3.539a25.14,25.14,0,0,1-.014,3.817,18.688,18.688,0,0,1-.818,4.108h-4.72Z" transform="translate(-535.185 -662.405)" fill="#09183d"/>
          <path id="Path_91583" data-name="Path 91583" d="M734.5,799.506c-.907,0-5.886-.074-6.617-.222a9.116,9.116,0,0,1-1.929-.6q-.833-.374-1.471-.735l1.526-2.942a4.169,4.169,0,0,0,.722.277q.388.112.819.2a8.942,8.942,0,0,0,.9.125c.315.027.638.042.971.042h5.244v3.857H734.5Z" transform="translate(-683.395 -778.307)" fill="#09183d"/>
          <path id="Path_91584" data-name="Path 91584" d="M821.013,806.25h.278v3.858h-.278c-.555,0-4.993-.647-4.993-1.943s4.438-1.916,4.993-1.916" transform="translate(-769.743 -788.91)" fill="#09183d"/>
          <path id="Path_91585" data-name="Path 91585" d="M898.923,911.07l-2.693-2.72,2.526-2.72,2.692,2.72Z" transform="translate(-845.405 -882.654)" fill="#09183d"/>
          <path id="Path_91586" data-name="Path 91586" d="M904.06,662.37v-3.858h4.913a8.114,8.114,0,0,0-.763-2.6,20.451,20.451,0,0,0-1.568-2.707l3.5-3.581a24.111,24.111,0,0,1,1.443,3.526,13.712,13.712,0,0,1-.305,9.215H904.06Z" transform="translate(-852.791 -641.172)" fill="#09183d"/>
          <path id="Path_91587" data-name="Path 91587" d="M984.093,911.07l-2.693-2.72,2.582-2.72,2.693,2.72Z" transform="translate(-925.745 -882.654)" fill="#09183d"/>
          <path id="Path_91588" data-name="Path 91588" d="M426.151,504.146a1.946,1.946,0,0,1-1.52-.662,2.429,2.429,0,0,1-.591-1.682V500.48h1.16V501.8a1.339,1.339,0,0,0,.255.87.848.848,0,0,0,.7.313q.928,0,.928-1.067v-.858h1.16v.858a2.281,2.281,0,0,1-.568,1.612,1.969,1.969,0,0,1-1.52.615Z" transform="translate(-402.993 -502.48)" fill="#09183d"/>
          <path id="Path_91589" data-name="Path 91589" d="M441.36,574.95l.325,1.253-5.87,1.531-.325-1.253Z" transform="translate(-413.793 -572.727)" fill="#09183d"/>
          <path id="Path_91590" data-name="Path 91590" d="M479.718,504.156a1.968,1.968,0,0,1-1.52-.615,2.278,2.278,0,0,1-.568-1.612v-.858h1.16v.858q0,1.067.928,1.067a.851.851,0,0,0,.7-.313,1.343,1.343,0,0,0,.255-.87V500.49h1.16v1.322a2.457,2.457,0,0,1-.58,1.682,1.937,1.937,0,0,1-1.531.662Z" transform="translate(-453.544 -502.489)" fill="#09183d"/>
          <g id="Group_109443" data-name="Group 109443" transform="translate(52.74 2.187)" style="mix-blend-mode: normal;isolation: isolate">
            <path id="Path_91591" data-name="Path 91591" d="M918.194,574.31l.323,1.245-5.834,1.522-.323-1.245Z" transform="translate(-912.36 -574.31)" fill="#09183d"/>
          </g>
          <path id="Path_91592" data-name="Path 91592" d="M2.186,610.307a2.137,2.137,0,0,1-1.093-.289,2.23,2.23,0,0,1-.795-.775,2.021,2.021,0,0,1-.3-1.075,2.048,2.048,0,0,1,.3-1.083,2.188,2.188,0,0,1,.795-.771,2.161,2.161,0,0,1,1.093-.284,2.171,2.171,0,0,1,.847.165,2.261,2.261,0,0,1,.7.459,2.147,2.147,0,0,1,.473.681,2.123,2.123,0,0,1-.123,1.907,2.188,2.188,0,0,1-.79.775,2.154,2.154,0,0,1-1.1.289Zm0-.331a1.779,1.779,0,0,0,.927-.247,1.934,1.934,0,0,0,.671-.658,1.677,1.677,0,0,0,.256-.9,1.713,1.713,0,0,0-.256-.917,1.9,1.9,0,0,0-.671-.648,1.819,1.819,0,0,0-.927-.242,1.81,1.81,0,0,0-.927.242,1.9,1.9,0,0,0-.671.648,1.686,1.686,0,0,0-.255.917,1.652,1.652,0,0,0,.255.9,1.942,1.942,0,0,0,.671.658,1.779,1.779,0,0,0,.927.247Zm-.7-.709v-2.261h.833a.7.7,0,0,1,.516.193.688.688,0,0,1,.194.507.607.607,0,0,1-.2.468.721.721,0,0,1-.506.185H1.685l.1-.056v.965h-.3Zm.3-1.107-.1-.057h.53a.534.534,0,0,0,.359-.113.361.361,0,0,0,.132-.284.383.383,0,0,0-.119-.3.521.521,0,0,0-.355-.1H1.655l.132-.076v.937Zm.842,1.107-.369-.974.284-.086.425,1.06Z" transform="translate(0 -605.044)" fill="#041840"/>
        </g>
      </g>
    </g>
  </g>
</svg>
