<svg xmlns="http://www.w3.org/2000/svg" width="283.093" height="264.118" viewBox="0 0 283.093 264.118">
  <g id="Yasir_Logo_SVG" transform="translate(-0.166 -0.007)">
    <g id="Group_109442" data-name="Group 109442" transform="translate(38.166 0.007)">
      <path id="Path_87594" data-name="Path 87594" d="M668.964,57.527,713.18,13.311,702.109,2.243a7.205,7.205,0,0,0-10.19-.011l-.011.011L668.959,25.194,651.731,7.963,635.56,24.131l33.4,33.393Z" transform="translate(-506.063 -0.096)" fill="#c0cae3"/>
      <path id="Path_87595" data-name="Path 87595" d="M524.931,285.272l-9.341-9.338,23.457-23.454,16.168,16.171-16.621,16.621a9.663,9.663,0,0,1-13.665,0h0" transform="translate(-417.731 -185.901)" fill="#8397c9"/>
      <rect id="Rectangle_52803" data-name="Rectangle 52803" width="30.015" height="22.863" transform="translate(123.418 64.476) rotate(-45)" fill="#8397c9"/>
      <path id="Path_87596" data-name="Path 87596" d="M427.271,2.175a7.309,7.309,0,0,0-10.335,0L346.151,72.962,328.871,55.684,312.7,71.849,329.981,89.13l-.008.011L341,100.169a7.267,7.267,0,0,0,10.277,0h0l86.989-86.992-11-11Z" transform="translate(-268.344 -0.028)" fill="#4a66b0"/>
      <path id="Path_87597" data-name="Path 87597" d="M277.161,13.157,266.146,2.142a7.291,7.291,0,0,0-10.308,0L185.066,72.913,165.815,53.662a7.285,7.285,0,0,0-10.3,0L144.5,64.683l35.429,35.432a7.278,7.278,0,0,0,10.3,0h0l11.02-11.023-.011-.011Z" transform="translate(-144.5 -0.007)" fill="#133698"/>
    </g>
    <g id="Group_109444" data-name="Group 109444" transform="translate(-0.072 131.986)">
      <path id="Path_91577" data-name="Path 91577" d="M27,833.729a37.664,37.664,0,0,1-12.458-2.389A41.1,41.1,0,0,1,2.09,824.306L7.9,812.687q4.9,1.551,8.71,2.389a33.454,33.454,0,0,0,7.165.841,26.355,26.355,0,0,0,12.711-2.967,22.357,22.357,0,0,0,8.586-8.006,20.774,20.774,0,0,0,3.1-11.1A17.064,17.064,0,0,0,47,787.134a29.526,29.526,0,0,0-2.967-5.293q-1.812-2.583-4-5.941l24.4,12.265v5.678a41.208,41.208,0,0,1-1.29,9.681,46.6,46.6,0,0,1-4.066,10.585,42.252,42.252,0,0,1-7.165,9.807,32.182,32.182,0,0,1-10.585,7.165A36.22,36.22,0,0,1,27,833.726" transform="translate(-1.539 -703.269)" fill="#09183d"/>
      <path id="Path_91578" data-name="Path 91578" d="M156.384,718.937a37.4,37.4,0,0,1-8.457-.9,27.362,27.362,0,0,1-7.292-2.774,30.082,30.082,0,0,1-6.39-4.839,61.638,61.638,0,0,1-6.131-7.1L111.72,680.858l14.2-17.558,16.651,28.786a45.864,45.864,0,0,0,3.742,5.359,8.812,8.812,0,0,0,4,2.774,19.66,19.66,0,0,0,6.065.773h1.29v17.94h-1.29Z" transform="translate(-82.259 -620.363)" fill="#09183d"/>
      <path id="Path_91579" data-name="Path 91579" d="M275.154,806.26h1.295V824.2h-1.295q-3.873,0-3.874-9.037,0-8.9,3.874-8.9" transform="translate(-199.741 -725.623)" fill="#09183d"/>
      <path id="Path_91580" data-name="Path 91580" d="M285.97,746.705v-17.94h33.288a52.768,52.768,0,0,0,1.355-5.873,56.729,56.729,0,0,0,.773-6.972,63.262,63.262,0,0,0-.066-7.55l21.558-7.36q-1.681,8.263-3.294,14.33a94.821,94.821,0,0,1-3.613,11.036,88.128,88.128,0,0,1-4.649,9.741q-2.65,4.774-6.516,10.585H285.97Z" transform="translate(-210.557 -648.129)" fill="#09183d"/>
      <path id="Path_91581" data-name="Path 91581" d="M429.368,746.713a60.9,60.9,0,0,1-15.039-1.614,47.209,47.209,0,0,1-10.261-3.742A38.985,38.985,0,0,1,398,737.549l7.357-12.909a31.477,31.477,0,0,0,8.2,3.033,45.5,45.5,0,0,0,10.4,1.1h13.934a31.192,31.192,0,0,0,1.358-5.422,59.892,59.892,0,0,0,.773-7.226q.19-3.877.066-7.745l21.685-7.36q-1.808,8.263-3.486,14.33a114.283,114.283,0,0,1-3.615,11.036,74.209,74.209,0,0,1-4.641,9.741q-2.71,4.774-6.582,10.585H429.365Z" transform="translate(-293.044 -648.136)" fill="#09183d"/>
      <path id="Path_91582" data-name="Path 91582" d="M598.6,725.448a53.826,53.826,0,0,1-14.132-1.614,45,45,0,0,1-9.939-3.871q-4.066-2.255-7.165-4.325l9.552-11.487q6.586,3.362,16.912,3.357h16.392q-1.036-3.485-2.194-6.645t-2.648-6.651q-1.483-3.485-3.679-8l21.039-14.071q1.032,7.876,1.68,16.458a116.911,116.911,0,0,1-.066,17.747,86.892,86.892,0,0,1-3.805,19.1H598.594Z" transform="translate(-417.743 -626.872)" fill="#09183d"/>
      <path id="Path_91583" data-name="Path 91583" d="M771.061,815.917c-4.217,0-27.37-.343-30.769-1.031a42.392,42.392,0,0,1-8.971-2.777q-3.872-1.741-6.841-3.418l7.1-13.681a19.371,19.371,0,0,0,3.357,1.287q1.8.518,3.808.907a41.52,41.52,0,0,0,4.193.58c1.464.127,2.967.2,4.517.2h24.385v17.937h-.778Z" transform="translate(-533.429 -717.34)" fill="#09183d"/>
      <path id="Path_91584" data-name="Path 91584" d="M839.237,806.253h1.292v17.94h-1.292c-2.582,0-23.217-3.009-23.217-9.035s20.635-8.908,23.217-8.908" transform="translate(-600.829 -725.616)" fill="#09183d"/>
      <path id="Path_91585" data-name="Path 91585" d="M908.751,930.927,896.23,918.28l11.748-12.65L920.5,918.28Z" transform="translate(-659.887 -798.789)" fill="#09183d"/>
      <path id="Path_91586" data-name="Path 91586" d="M904.06,708.875v-17.94H926.9a37.728,37.728,0,0,0-3.547-12.067,95.042,95.042,0,0,0-7.292-12.587l16.263-16.651a112.137,112.137,0,0,1,6.711,16.395,66.437,66.437,0,0,1,3.035,19.3q.2,10.526-4.454,23.557H904.06Z" transform="translate(-665.652 -610.298)" fill="#09183d"/>
      <path id="Path_91587" data-name="Path 91587" d="M993.923,930.927,981.4,918.28l12-12.65,12.524,12.65Z" transform="translate(-722.597 -798.789)" fill="#09183d"/>
      <path id="Path_91588" data-name="Path 91588" d="M433.858,517.529a9.052,9.052,0,0,1-7.067-3.077,11.294,11.294,0,0,1-2.75-7.822v-6.15h5.393v6.15a6.225,6.225,0,0,0,1.187,4.045,3.944,3.944,0,0,0,3.236,1.456q4.316,0,4.317-4.963v-3.99h5.393v3.99a10.61,10.61,0,0,1-2.642,7.5,9.156,9.156,0,0,1-7.067,2.861Z" transform="translate(-325.217 -501.48)" fill="#09183d"/>
      <path id="Path_91589" data-name="Path 91589" d="M462.786,574.95l1.511,5.825L437,587.9l-1.511-5.825Z" transform="translate(-333.648 -556.312)" fill="#09183d"/>
      <path id="Path_91590" data-name="Path 91590" d="M487.34,517.536a9.149,9.149,0,0,1-7.067-2.861,10.591,10.591,0,0,1-2.642-7.5v-3.99h5.393v3.99q0,4.964,4.314,4.963a3.96,3.96,0,0,0,3.238-1.456,6.245,6.245,0,0,0,1.187-4.045v-6.15h5.4v6.15a11.424,11.424,0,0,1-2.7,7.822,9.007,9.007,0,0,1-7.12,3.077Z" transform="translate(-364.675 -501.487)" fill="#09183d"/>
      <g id="Group_109443" data-name="Group 109443" transform="translate(244.597 18.47)" style="mix-blend-mode: normal;isolation: isolate">
        <path id="Path_91591" data-name="Path 91591" d="M939.49,574.31l1.5,5.791-27.13,7.075-1.5-5.791Z" transform="translate(-912.36 -574.31)" fill="#09183d"/>
      </g>
      <path id="Path_91592" data-name="Path 91592" d="M7.236,620.187a7.077,7.077,0,0,1-3.618-.955,7.381,7.381,0,0,1-2.63-2.567A6.688,6.688,0,0,1,0,613.107a6.782,6.782,0,0,1,.988-3.585,7.241,7.241,0,0,1,2.63-2.552,7.154,7.154,0,0,1,3.618-.94,7.185,7.185,0,0,1,2.8.547,7.477,7.477,0,0,1,2.3,1.519,7.1,7.1,0,0,1,1.567,2.255,7.027,7.027,0,0,1-.408,6.314,7.243,7.243,0,0,1-2.615,2.567,7.134,7.134,0,0,1-3.651.955Zm0-1.1a5.889,5.889,0,0,0,3.069-.817,6.4,6.4,0,0,0,2.222-2.177,5.551,5.551,0,0,0,.847-2.994,5.672,5.672,0,0,0-.847-3.036,6.28,6.28,0,0,0-2.222-2.144,6.024,6.024,0,0,0-3.069-.8,5.994,5.994,0,0,0-3.069.8,6.28,6.28,0,0,0-2.222,2.144A5.582,5.582,0,0,0,1.1,613.1a5.468,5.468,0,0,0,.844,2.994,6.425,6.425,0,0,0,2.222,2.177,5.889,5.889,0,0,0,3.069.817Zm-2.318-2.348v-7.485H7.675a2.32,2.32,0,0,1,1.708.64,2.28,2.28,0,0,1,.643,1.679,2.008,2.008,0,0,1-.673,1.549,2.388,2.388,0,0,1-1.675.612h-2.1l.345-.186v3.195h-1Zm1-3.666-.315-.189H7.359a1.769,1.769,0,0,0,1.189-.375,1.193,1.193,0,0,0,.438-.94,1.268,1.268,0,0,0-.393-1,1.724,1.724,0,0,0-1.174-.342H5.48l.438-.252v3.1Zm2.786,3.666-1.222-3.225.94-.285,1.408,3.51Z" transform="translate(0.238 -588.919)" fill="#041840"/>
    </g>
  </g>
</svg>
