<svg xmlns="http://www.w3.org/2000/svg" width="37.703" height="26.51" viewBox="0 0 37.703 26.51">
  <path id="youtube-brands" d="M51.848,68.148a4.737,4.737,0,0,0-3.333-3.355C45.574,64,33.784,64,33.784,64s-11.79,0-14.73.793a4.737,4.737,0,0,0-3.333,3.355c-.788,2.959-.788,9.134-.788,9.134s0,6.174.788,9.134a4.667,4.667,0,0,0,3.333,3.3c2.94.793,14.73.793,14.73.793s11.79,0,14.73-.793a4.667,4.667,0,0,0,3.333-3.3c.788-2.959.788-9.134.788-9.134S52.636,71.107,51.848,68.148ZM29.928,82.887V71.676l9.854,5.606Z" transform="translate(-14.933 -64)" fill="#fff"/>
</svg>
